<?xml version="1.0" encoding="UTF-8" standalone="no"?>
<!-- Created with Inkscape (http://www.inkscape.org/) -->

<svg
   width="8.259758mm"
   height="8.2717972mm"
   viewBox="0 0 8.259758 8.2717972"
   version="1.1"
   id="svg11727"
   inkscape:version="1.1.2 (0a00cf5339, 2022-02-04)"
   sodipodi:docname="ablaze.svg"
   xmlns:inkscape="http://www.inkscape.org/namespaces/inkscape"
   xmlns:sodipodi="http://sodipodi.sourceforge.net/DTD/sodipodi-0.dtd"
   xmlns="http://www.w3.org/2000/svg"
   xmlns:svg="http://www.w3.org/2000/svg">
  <sodipodi:namedview
     id="namedview11729"
     pagecolor="#ffffff"
     bordercolor="#666666"
     borderopacity="1.0"
     inkscape:pageshadow="2"
     inkscape:pageopacity="0.0"
     inkscape:pagecheckerboard="0"
     inkscape:document-units="mm"
     showgrid="false"
     inkscape:zoom="0.64052329"
     inkscape:cx="848.52496"
     inkscape:cy="-225.59679"
     inkscape:window-width="1920"
     inkscape:window-height="1136"
     inkscape:window-x="0"
     inkscape:window-y="0"
     inkscape:window-maximized="1"
     inkscape:current-layer="layer1" />
  <defs
     id="defs11724">
    <clipPath
       id="id0">
      <path
         d="m 26420.53,4546.85 c -0.86,-18.04 11.28,-69.11 -18.56,-45.67 -52.34,41.14 -23.09,-95.23 -7.1,-125.21 l 66.94,-162.73 h 457.51 l 65.85,31.02 c 9.48,22.34 4.95,180.82 -46.62,226.22 -18.64,16.42 3.38,55.56 0.84,78.68 -36.03,326.83 -503.76,313.81 -518.87,-2.31 z"
         id="path17" />
    </clipPath>
  </defs>
  <g
     inkscape:label="Layer 1"
     inkscape:groupmode="layer"
     id="layer1"
     transform="translate(119.37744,-208.18399)">
    <g
       id="_1860622897872"
       style="clip-rule:evenodd;fill-rule:evenodd;image-rendering:optimizeQuality;shape-rendering:geometricPrecision;text-rendering:geometricPrecision"
       transform="matrix(0.01326799,0,0,0.01326799,-469.20936,152.28276)">
      <g
         id="g771" />
      <g
         clip-path="url(#id0)"
         id="g787">
        <g
           id="g785">
          <g
             id="g783">
            <path
               class="fil13"
               d="m 26795.47,4416.66 h 14.46 v -14.46 c 0,-15.67 -33.89,-44.36 -48.18,-48.18 0,23.61 13.46,62.64 33.73,62.64 z"
               id="path773" />
            <path
               class="fil13"
               d="m 26964.1,4575.66 c 31.44,-0.7 55.31,-13.18 57.82,-43.37 -30.83,0 -57.14,13.01 -57.82,43.37 z"
               id="path775" />
            <path
               class="fil2"
               d="m 26964.1,4575.66 c 0.68,-30.36 26.98,-43.37 57.82,-43.37 -2.51,30.19 -26.37,42.67 -57.82,43.37 z m -202.36,-221.64 c 14.29,3.82 48.18,32.51 48.18,48.18 v 14.46 h -14.46 c -20.27,0 -33.73,-39.03 -33.73,-62.64 z m -727.54,221.64 c 46.63,-3.88 18.57,-33.73 80.69,-34.77 l 14.83,-13.56 -8.8,62.78 h -48.18 c -1.5,5.65 -4.82,13.13 -4.82,14.45 0,15.99 9.09,14.09 14.46,28.91 h 24.09 c 11.98,0 18.12,-12.04 28.91,-19.27 19.14,1.59 11.61,4.82 24.09,4.82 42.5,0 64.22,-40.68 96.36,-43.36 -4.09,6.11 -19.27,20.87 -19.27,24.09 0,15.99 9.64,10.06 9.64,19.27 0,22.74 -24.09,8.21 -24.09,24.1 0,7.88 2.88,14.45 9.63,14.45 26.24,0 39.77,-7.73 62.64,-9.63 -3.23,6.08 -9.64,15.93 -9.64,24.09 0,14.81 14.12,19.27 28.91,19.27 l 31.43,0.66 16.94,-78.78 33.71,5.89 -4.99,24.05 c 10.81,2.52 11.08,4.82 24.09,4.82 h 9.64 c 20.62,0 38.54,-14.86 38.54,-33.73 0,-6.75 -6.56,-9.64 -14.46,-9.64 l -20.86,-1.03 40.13,-56.78 c 0,43.04 3.79,59.35 43.37,62.64 -3.92,16.82 -9.64,16.22 -9.64,33.73 0,17.06 29.91,33.72 48.18,33.72 h 28.91 c 18.27,0 48.18,-16.66 48.18,-33.72 0,-20.48 -7.78,-29.38 -24.09,-33.73 l 1.52,-7.63 32.21,-21.28 c 1.94,23.39 6.03,18.76 28.9,24.09 -0.94,42.59 -19.27,11.17 -19.27,38.55 0,16.91 21.38,19.27 38.54,19.27 h 53 c -5.37,14.83 -14.45,12.92 -14.45,28.9 0,11.1 3.35,14.46 14.45,14.46 40.1,0 43.37,-12.87 43.04,-54.25 l 40.17,-6.32 -15.75,7.57 c 0.35,15.44 -1.57,24.09 14.46,24.09 h 4.82 c 18.83,0 43.37,-15.7 43.37,-33.72 0,-2.88 -6.66,-10 -9.64,-14.46 5.57,-8.31 17.24,-28.91 28.91,-28.91 17.1,0 22.71,17.18 24.09,33.73 -15.44,0.35 -24.09,-1.57 -24.09,14.46 v 14.46 c 20.46,5.46 8.43,9.63 24.09,9.63 l 58.87,0.36 -10.69,38.18 c 10.81,2.52 11.08,4.82 24.09,4.82 h 14.46 c 11.24,0 24.09,-12.86 24.09,-24.1 v -24.09 h 9.64 v -14.46 c 0,-11.28 -8,-19.27 -19.27,-19.27 -13.02,0 -13.29,2.3 -24.1,4.82 6.32,-17.46 42.33,-33.73 67.46,-33.73 h 9.64 c 25.91,0 -0.97,37.02 67.46,38.55 v 24.09 c 0,20.36 18.68,14.46 38.54,14.46 8.69,5.82 8.47,9.63 19.27,9.63 h 14.46 c 17.11,0 33.72,-15.11 33.72,-24.09 0,-7.88 -2.88,-14.46 -9.63,-14.46 -16.61,0 -18.65,3.56 -33.73,4.82 3.43,-12.83 13.54,-28.9 28.91,-28.9 h 14.45 c 25.86,0 22.78,14.46 38.55,14.46 19.71,0 27.31,-4.88 28.9,-24.1 8.12,5.65 9.64,0.69 9.64,14.46 v 9.64 c 0,15.99 -9.64,10.05 -9.64,19.27 0,11.1 3.35,14.45 14.46,14.45 h 9.64 c 20.44,0 38.54,-17.95 38.54,-33.72 v -28.91 h -9.64 c 7.7,-28.81 62.64,-24.38 62.64,-57.82 l -2.41,-16.87 -12.04,-16.86 c 29.21,7.8 45.85,22.32 51.67,49.83 l -37.21,17.62 v 24.09 c -1.98,2.95 -19.27,28.21 -19.27,28.91 0,11.1 3.35,14.45 14.45,14.45 l 19.42,1.23 57.68,-6.04 c 8.69,-5.83 8.47,-9.63 19.27,-9.63 h 4.82 c 14.57,0 13.33,5.67 14.46,19.27 -8.46,1.97 -24.1,5.24 -24.1,14.45 0,9.77 37.4,38.55 43.37,38.55 h 4.82 c 16.23,0 33.73,-8.52 33.73,-24.1 l 0.68,-13.19 23.41,-10.9 v 9.63 c 52.74,-1.17 30.68,-57.82 101.18,-57.82 -8.04,10.98 -19.27,11.92 -19.27,19.27 0,12.36 1.16,11.64 4.82,19.27 -5,7.48 -14.46,17.55 -14.46,28.91 0,6.75 6.57,9.63 14.46,9.63 h 19.27 c 25.76,0 19.23,-28.42 31.02,-36.43 10.33,-7.02 41.25,-8.22 41.25,-31.01 0,-11.1 -3.35,-14.46 -14.45,-14.46 h -14.46 c 7.86,-29.45 51.71,-26.37 77.09,-38.54 v -77.09 c -17.04,11.4 -22.47,28.9 -48.18,28.9 h -4.82 c -11.28,0 -19.27,-8 -19.27,-19.27 0,-23.06 31.61,-22.2 38.02,-50.2 l -91.02,21.28 c 22.72,47.34 -19.3,81.91 -62.63,81.91 -12.89,0 -14.25,-6.96 -19.11,-14.37 l 9.47,-24.17 c -14.7,3.93 -76.77,38.54 -77.09,38.54 l -22.67,-1.72 16.34,-31.45 -8.12,-29.46 c -23.83,1.98 -20.61,14.45 -53,14.45 -11.28,0 -19.27,-7.99 -19.27,-19.27 0,-25.47 19.27,-34.38 19.27,-48.18 v -4.82 c 0,-23.91 -28.91,-17.97 -28.91,-38.54 v -4.82 c 0,-26.15 72.27,-52.2 72.27,-77.09 0,-11.28 -7.99,-19.28 -19.27,-19.28 h -38.54 c -29.61,0 -56.23,4.94 -62.5,29.73 l 38.41,-5.64 c 2.52,10.81 4.82,11.08 4.82,24.09 0,34.62 -35.69,48.18 -72.27,48.18 v -9.64 h -14.46 c -20,0 -28.18,33.73 -48.18,33.73 h -14.46 l -3.87,3.76 27.96,25.15 c 10.37,-5.49 25.96,-19.27 33.73,-19.27 h 4.82 c 11.28,0 19.27,7.99 19.27,19.27 0,30.03 -26.52,0.39 -34.32,37.94 -3.69,17.78 -12.42,43.96 -33.12,43.96 h -4.82 c -11.1,0 -14.46,-3.35 -14.46,-14.45 0,-14.7 4.64,-19.45 11.49,-31.53 l -30.76,-16.66 c -1.06,47.45 -42.99,43.36 -91.54,43.36 -8.55,5.73 -27.57,24.1 -38.54,24.1 h -28.9 c -11.24,0 -24.1,-12.86 -24.1,-24.1 v -14.45 c 0,-46.37 43.37,-67.88 43.37,-86.73 v -4.82 c 0,-25.84 -45.59,-19.27 -72.27,-19.27 8.34,7.25 24.09,15.16 24.09,28.91 0,20.88 -33.69,43.36 -57.82,43.36 -11.1,0 -14.46,-3.35 -14.46,-14.46 l -1.74,-17.55 -84.99,51.28 c 14.52,0 43.36,2.59 43.36,14.46 0,24.23 -40.51,33.73 -67.45,33.73 h -9.64 c -14.98,0 -48.18,-8.02 -48.18,-19.27 0,-32.33 96.37,-51.55 96.37,-96.36 V 4407 c 0,-14.6 -9.44,-22.48 -24.09,-24.09 v 19.27 c 0,15.58 -17.49,24.09 -33.73,24.09 -12.89,0 -14.25,-6.95 -19.28,-14.45 1.26,-15.07 4.82,-17.12 4.82,-33.73 0,-16.74 -9.64,-7.36 -9.64,-24.1 v -4.82 c 0,-23.01 77.1,-64.91 77.1,-77.09 0,-19.14 -14.68,-32.15 -33.73,-33.73 5.46,20.46 9.63,8.43 9.63,24.09 0,23.33 -40.73,28.04 -59.52,36.84 -25.51,11.95 -22.65,40.25 -60.93,40.25 -15.81,0 -18.08,-9.72 -16.87,-21.68 l 12.04,-16.87 c -28.96,0 -86.73,18.59 -86.73,43.37 v 4.82 c 0,34.7 43.37,43.78 43.37,81.91 v 9.63 c 0,16.45 -19.46,25.59 -33.73,28.91 -0.35,15.44 1.57,24.09 -14.46,24.09 h -14.46 v -19.27 c -6.52,1.56 -15.48,1.39 -15.55,9.78 l 5.92,52.86 c -12.64,8.46 -29.36,24.09 -48.18,24.09 h -9.63 c -11.28,0 -19.27,-8 -19.27,-19.27 v -4.82 c 0,-15.44 33.95,-30.41 48.18,-33.73 -2.36,-28.34 -53.37,-40.99 -81.9,-43.37 v 9.64 c 10.91,2.92 19.27,4.64 19.27,19.27 0,17.06 -29.91,33.73 -48.18,33.73 h -24.09 c -13.01,0 -19.27,-12.83 -19.27,-24.09 0,-12.29 10.42,-28.91 24.09,-28.91 h 4.82 c 10.8,0 10.57,3.81 19.27,9.63 5.59,-8.34 38.54,-64.07 38.54,-72.27 v -14.45 c -44.33,-10.33 -115.63,-10.03 -115.63,-62.64 0,-18.22 26.49,-34.62 44.35,-38.79 l -5.8,-23.84 h -9.63 c -9.57,35.83 -81.84,47.17 -86.73,106 h 14.46 c 13.01,0 13.28,2.3 24.09,4.82 2.52,10.8 4.82,11.08 4.82,24.09 v 4.82 c 0,31.71 -20.44,36.21 -43.55,43.18 -32.8,9.89 -14.89,33.92 -52.81,33.92 h -4.82 c -20.61,0 -38.54,-14.86 -38.54,-33.73 0,-15.66 4.18,-3.64 9.2,-26.29 l -47.74,11.83 c 5.79,24.85 19.27,24.37 19.27,38.54 v 4.82 c 0,10.64 -20.89,33.73 -28.9,33.73 -20.48,0 -29.38,-7.78 -33.73,-24.09 H 26227 c -4.66,17.43 -16.81,28.91 -38.54,28.91 -11.1,0 -14.46,-3.35 -14.46,-14.46 0,-7.15 10.41,-21.26 14.46,-28.91 -5.83,-8.7 -9.64,-8.47 -9.64,-19.27 v -24.09 c 0,-34.29 23.26,-31.85 28.91,-53 h -43.37 c -13.33,0 -11.58,-3.72 -14.45,-14.46 h -14.46 c -1.65,19.8 -4.82,10.76 -4.82,28.91 0,21.04 9.63,17.49 9.63,38.54 v 24.09 c 0,24.71 -39.78,53 -72.27,53 h -9.64 c -15.66,0 -3.63,-4.18 -24.09,-9.63 v 77.09 z"
               id="path777" />
            <path
               class="fil1"
               d="m 26034.2,4575.66 v 154.18 c 47.54,0 48.4,19.27 62.64,19.27 h 14.45 c 8.57,0 26.79,-14.63 32.5,-19.47 l 6.05,-33.53 h 24.09 c 18.42,0 1.76,-1.48 14.46,4.82 -6.95,19.2 -14.46,7.83 -14.46,19.27 0,17.84 19.88,17.45 33.9,24.13 l -4.99,24.05 h 43.36 v -14.46 l 19.38,1.12 71.01,-5.71 5.98,28.68 c 19.08,0 38.54,-0.68 38.54,-19.27 0,-18.86 -7.27,-0.53 -9.63,-28.91 h 28.91 c 15.25,0 16.42,11.86 19.27,24.1 h 24.09 c 26.09,0 47.57,-16.14 49.79,-44.97 l 17.07,20.79 -4.22,33.82 h 28.9 c 6.18,-17.07 25.35,-19.27 48.88,-18.69 l -10.34,13.88 c 20.46,5.46 8.43,9.64 24.1,9.64 24.77,0 46.13,-14 48.18,-38.55 l 54.73,0.61 -11.37,37.94 h 28.9 c 16.74,0 7.36,-9.64 24.1,-9.64 26.3,0 26.7,9.64 53,9.64 h 4.82 c 51.51,0 41.37,-49.23 87.15,-52.8 l -14.88,38.34 c 12.92,3.09 9.08,4.82 19.27,4.82 14.7,0 19.45,-4.63 28.91,-9.64 20.36,4.75 34.85,14.46 57.82,14.46 h 43.36 c 65.58,0 103.33,-38.54 110.82,-38.54 h 19.27 c -1.65,19.8 -4.82,10.76 -4.82,28.91 0,11.1 3.35,14.46 14.46,14.46 h 28.91 c 17.4,0 17.82,-21.84 48.18,-28.91 -3.09,12.92 -4.82,9.08 -4.82,19.27 0,14.45 75.84,2.29 81.91,-14.46 22.84,0 67.46,14.55 67.46,-19.27 l 0.54,-22.36 44.36,-10.45 -15.82,27.92 9.47,24.17 h 28.9 c 22.33,0 14.49,-8.99 42.77,-9.44 l 5.41,19.08 c 15.07,1.25 17.12,4.82 33.73,4.82 h 77.09 v 9.64 h 19.27 c 23.15,0 10.57,-28.91 33.73,-28.91 h 4.82 c 16.74,0 7.36,9.63 24.1,9.63 h 67.46 c 14.16,0 33.58,-24.83 38.7,-25.16 l 43.2,5.89 v -154.18 c -25.38,12.17 -69.23,9.1 -77.09,38.54 h 14.46 c 11.1,0 14.45,3.35 14.45,14.46 0,22.8 -30.92,23.99 -41.25,31.01 -11.79,8.01 -5.26,36.43 -31.02,36.43 h -19.27 c -7.88,0 -14.46,-2.88 -14.46,-9.63 0,-11.37 9.45,-21.44 14.46,-28.91 -3.66,-7.63 -4.82,-6.91 -4.82,-19.27 0,-7.36 11.23,-8.29 19.27,-19.27 -70.51,0 -48.44,56.65 -101.18,57.82 v -9.63 l -23.41,10.9 -0.68,13.19 c 0,15.58 -17.49,24.1 -33.73,24.1 h -4.82 c -5.97,0 -43.37,-28.78 -43.37,-38.55 0,-9.21 15.64,-12.48 24.1,-14.45 -1.13,-13.6 0.11,-19.27 -14.46,-19.27 h -4.82 c -10.8,0 -10.58,3.81 -19.27,9.63 l -57.68,6.04 -19.42,-1.23 c -11.1,0 -14.45,-3.35 -14.45,-14.45 0,-0.7 17.29,-25.96 19.27,-28.91 v -24.09 l 37.21,-17.62 c -5.82,-27.52 -22.45,-42.03 -51.67,-49.83 l 12.04,16.86 2.41,16.87 c 0,33.43 -54.94,29.01 -62.64,57.82 h 9.64 v 28.91 c 0,15.77 -18.1,33.72 -38.54,33.72 h -9.64 c -11.1,0 -14.46,-3.35 -14.46,-14.45 0,-9.22 9.64,-3.29 9.64,-19.27 v -9.64 c 0,-13.76 -1.51,-8.81 -9.64,-14.46 -1.6,19.21 -9.2,24.1 -28.9,24.1 -15.77,0 -12.69,-14.46 -38.55,-14.46 h -14.45 c -15.38,0 -25.48,16.08 -28.91,28.9 15.07,-1.25 17.12,-4.82 33.73,-4.82 6.75,0 9.63,6.57 9.63,14.46 0,8.98 -16.61,24.09 -33.72,24.09 h -14.46 c -10.8,0 -10.58,-3.81 -19.27,-9.63 -19.86,0 -38.54,5.9 -38.54,-14.46 v -24.09 c -68.43,-1.53 -41.54,-38.55 -67.46,-38.55 h -9.64 c -25.13,0 -61.13,16.26 -67.46,33.73 10.81,-2.52 11.08,-4.82 24.1,-4.82 11.28,0 19.27,8 19.27,19.27 v 14.46 h -9.64 v 24.09 c 0,11.24 -12.85,24.1 -24.09,24.1 h -14.46 c -13.01,0 -13.28,-2.31 -24.09,-4.82 l 10.69,-38.18 -58.87,-0.36 c -15.66,0 -3.63,-4.18 -24.09,-9.63 v -14.46 c 0,-16.02 8.65,-14.11 24.09,-14.46 -1.38,-16.55 -6.99,-33.73 -24.09,-33.73 -11.67,0 -23.34,20.6 -28.91,28.91 2.98,4.45 9.64,11.58 9.64,14.46 0,18.02 -24.54,33.72 -43.37,33.72 h -4.82 c -16.02,0 -14.11,-8.64 -14.46,-24.09 l 15.75,-7.57 -40.17,6.32 c 0.33,41.38 -2.93,54.25 -43.04,54.25 -11.1,0 -14.45,-3.35 -14.45,-14.46 0,-15.99 9.08,-14.08 14.45,-28.9 h -53 c -17.16,0 -38.54,-2.36 -38.54,-19.27 0,-27.38 18.33,4.04 19.27,-38.55 -22.87,-5.33 -26.96,-0.69 -28.9,-24.09 l -32.21,21.28 -1.52,7.63 c 16.31,4.35 24.09,13.25 24.09,33.73 0,17.06 -29.91,33.72 -48.18,33.72 h -28.91 c -18.28,0 -48.18,-16.66 -48.18,-33.72 0,-17.51 5.72,-16.91 9.64,-33.73 -39.58,-3.29 -43.37,-19.6 -43.37,-62.64 l -40.13,56.78 20.86,1.03 c 7.89,0 14.46,2.89 14.46,9.64 0,18.87 -17.92,33.73 -38.54,33.73 h -9.64 c -13.01,0 -13.28,-2.3 -24.09,-4.82 l 4.99,-24.05 -33.71,-5.89 -16.94,78.78 -31.43,-0.66 c -14.8,0 -28.91,-4.46 -28.91,-19.27 0,-8.15 6.41,-18.01 9.64,-24.09 -22.87,1.9 -36.4,9.63 -62.64,9.63 -6.75,0 -9.63,-6.56 -9.63,-14.45 0,-15.89 24.09,-1.36 24.09,-24.1 0,-9.21 -9.64,-3.28 -9.64,-19.27 0,-3.22 15.18,-17.98 19.27,-24.09 -32.14,2.68 -53.86,43.36 -96.36,43.36 -12.48,0 -4.95,-3.23 -24.09,-4.82 -10.79,7.23 -16.93,19.27 -28.91,19.27 h -24.09 c -5.37,-14.83 -14.46,-12.92 -14.46,-28.91 0,-1.32 3.32,-8.8 4.82,-14.45 h 48.18 l 8.8,-62.78 -14.83,13.56 c -62.12,1.04 -34.06,30.89 -80.69,34.77 z"
               id="path779" />
            <path
               class="fil2"
               d="m 26034.2,4699.69 v 53 h 284.27 c 29.17,0 55.56,6.33 68.45,25.35 l -25.09,22.84 c 54.18,-4.51 89.58,-24.16 168.64,-24.09 72.07,0.06 109.37,28.53 170.38,28.53 l 47.4,-3.47 c 12.77,0 53.74,-8.7 56.85,-0.97 h 62.64 c -3.6,-5.37 -14.46,-16.2 -14.46,-19.27 0,-21.85 48.68,-28.91 72.27,-28.91 h 48.18 c 15.43,0 61.65,19.28 77.09,19.28 h 4.82 c 26.3,0 26.7,-9.64 53,-9.64 h 28.91 c 32.67,0 62.38,14.46 72.27,14.46 8.55,0 73.01,-30.36 82.08,-30.03 l 76.91,10.76 h 48.18 c 30.8,0 36.67,-9.64 67.46,-9.64 h 67.46 c 11.14,0 28.91,5.39 28.91,14.46 0,15.66 -4.18,3.63 -9.64,24.09 31.96,0 70.31,-22.64 120.46,-24.09 45.19,-1.3 83.11,-9.64 134.9,-9.64 h 14.46 v -53 l -43.2,-5.89 c -5.12,0.33 -24.54,25.16 -38.7,25.16 h -67.46 c -16.74,0 -7.36,-9.63 -24.1,-9.63 h -4.82 c -23.15,0 -10.57,28.91 -33.73,28.91 h -19.27 v -9.64 h -77.09 c -16.61,0 -18.65,-3.56 -33.73,-4.82 l -5.41,-19.08 c -28.28,0.45 -20.44,9.44 -42.77,9.44 h -28.9 l -9.47,-24.17 15.82,-27.92 -44.36,10.45 -0.54,22.36 c 0,33.82 -44.62,19.27 -67.46,19.27 -6.07,16.75 -81.91,28.9 -81.91,14.46 0,-10.19 1.73,-6.35 4.82,-19.27 -30.35,7.07 -30.78,28.91 -48.18,28.91 h -28.91 c -11.1,0 -14.46,-3.35 -14.46,-14.46 0,-18.15 3.17,-9.11 4.82,-28.91 h -19.27 c -7.49,0 -45.24,38.54 -110.82,38.54 h -43.36 c -22.97,0 -37.46,-9.71 -57.82,-14.46 -9.47,5.01 -14.21,9.64 -28.91,9.64 -10.19,0 -6.35,-1.73 -19.27,-4.82 l 14.88,-38.34 c -45.78,3.56 -35.64,52.8 -87.15,52.8 h -4.82 c -26.3,0 -26.7,-9.64 -53,-9.64 -16.74,0 -7.36,9.64 -24.1,9.64 h -28.9 l 11.37,-37.94 -54.73,-0.61 c -2.04,24.55 -23.41,38.55 -48.18,38.55 -15.66,0 -3.64,-4.18 -24.1,-9.64 l 10.34,-13.88 c -23.53,-0.58 -42.7,1.62 -48.88,18.69 h -28.9 l 4.22,-33.82 -17.07,-20.79 c -2.22,28.83 -23.7,44.97 -49.79,44.97 h -24.09 c -2.86,-12.24 -4.02,-24.1 -19.27,-24.1 h -28.91 c 2.36,28.38 9.63,10.05 9.63,28.91 0,18.59 -19.47,19.27 -38.54,19.27 l -5.98,-28.68 -71.01,5.71 -19.38,-1.12 v 14.46 h -43.36 l 4.99,-24.05 c -14.02,-6.69 -33.9,-6.29 -33.9,-24.13 0,-11.44 7.51,-0.07 14.46,-19.27 -12.7,-6.3 3.96,-4.82 -14.46,-4.82 h -24.09 l -6.05,33.53 c -5.71,4.84 -23.93,19.47 -32.5,19.47 h -14.45 c -14.24,0 -15.1,-19.27 -62.64,-19.27 z"
               id="path781" />
          </g>
        </g>
      </g>
      <path
         class="fil0"
         d="m 26420.53,4546.85 c -0.86,-18.04 11.28,-69.11 -18.56,-45.67 -52.34,41.14 -23.09,-95.23 -7.1,-125.21 l 66.94,-162.73 h 457.51 l 65.85,31.02 c 9.48,22.34 4.95,180.82 -46.62,226.22 -18.64,16.42 3.38,55.56 0.84,78.68 -36.03,326.83 -503.76,313.81 -518.87,-2.31 z"
         id="path789" />
      <path
         class="fil2"
         d="m 26677.65,4793.6 c -148.53,0.01 -268.99,-120.46 -268.99,-268.98 0,-9.65 0.54,-19.17 1.52,-28.54 7.25,-3.23 14.11,-4.46 21.34,-4.32 -2.25,13.6 -3.47,27.53 -3.47,41.77 -0.02,140.07 113.6,253.67 253.65,253.66 140.09,0 253.67,-113.58 253.65,-253.65 0,-21.83 -2.77,-43 -7.97,-63.2 4.24,-2.51 8.21,-5.55 11.75,-8.77 4.88,20.23 7.48,41.32 7.48,63.05 0.02,148.54 -120.43,268.97 -268.96,268.98 z m 84.96,-500.49 c -25.41,-8.55 -52.6,-13.21 -80.89,-13.21 -64.82,-0.01 -123.94,24.35 -168.78,64.36 -6.1,-6.46 -10.48,-13.61 -12.96,-21.49 47.39,-41.75 109.56,-67.11 177.68,-67.11 43.38,0 84.32,10.3 120.59,28.53 -11.7,2.14 -24.61,5.19 -35.63,8.92 z"
         id="path791" />
    </g>
  </g>
</svg>
