<?xml version="1.0" encoding="UTF-8" standalone="no"?>
<!-- Created with Inkscape (http://www.inkscape.org/) -->

<svg
   width="8.5797405mm"
   height="8.254282mm"
   viewBox="0 0 8.5797405 8.254282"
   version="1.1"
   id="svg10344"
   inkscape:version="1.1.2 (0a00cf5339, 2022-02-04)"
   sodipodi:docname="arrow.svg"
   xmlns:inkscape="http://www.inkscape.org/namespaces/inkscape"
   xmlns:sodipodi="http://sodipodi.sourceforge.net/DTD/sodipodi-0.dtd"
   xmlns="http://www.w3.org/2000/svg"
   xmlns:svg="http://www.w3.org/2000/svg">
  <sodipodi:namedview
     id="namedview10346"
     pagecolor="#ffffff"
     bordercolor="#666666"
     borderopacity="1.0"
     inkscape:pageshadow="2"
     inkscape:pageopacity="0.0"
     inkscape:pagecheckerboard="0"
     inkscape:document-units="mm"
     showgrid="false"
     inkscape:zoom="16.482722"
     inkscape:cx="18.473891"
     inkscape:cy="18.109873"
     inkscape:window-width="1920"
     inkscape:window-height="1136"
     inkscape:window-x="0"
     inkscape:window-y="0"
     inkscape:window-maximized="1"
     inkscape:current-layer="layer1" />
  <defs
     id="defs10341" />
  <g
     inkscape:label="Layer 1"
     inkscape:groupmode="layer"
     id="layer1"
     transform="translate(10.276708,6.372205)">
    <path
       class="fil2"
       d="m -3.456551,-1.7725913 c -0.0069,0.015922 5.307e-4,0.022556 0.031976,0.028792 l 0.1094609,0.021361 c 0.1568276,0.030782 0.8105415,0.029057 0.9721456,0.017912 0.1212694,-0.00849 0.3656658,-0.030251 0.4882621,-0.022954 0.063554,0.00385 0.1378544,0.016452 0.1523165,-0.016983 l 0.00305,-0.0069 c 0.0069,-0.016054 -5.307e-4,-0.022556 -0.031976,-0.028792 -0.096724,-0.018973 -0.2250252,-0.00849 -0.2913651,-0.011808 -0.1686362,-0.00849 -0.1203407,-0.018443 -0.2674827,-1.327e-4 -0.1406407,-0.027465 -0.3994992,-0.016585 -0.5442529,-0.017912 -0.1894669,-0.00159 -0.5719831,-0.077485 -0.6218707,0.037416 z"
       id="path4865"
       style="clip-rule:evenodd;fill-rule:evenodd;stroke-width:0.013268;image-rendering:optimizeQuality;shape-rendering:geometricPrecision;text-rendering:geometricPrecision" />
    <path
       class="fil2"
       d="m -9.9553452,-4.4378651 c -0.020831,0.012206 -0.021494,0.021494 -0.00305,0.040335 l 0.063952,0.065411 c 0.091682,0.093539 0.5990498,0.3623488 0.7350467,0.4186051 0.1020308,0.042192 0.3119304,0.1228616 0.3997645,0.1801793 0.045509,0.029853 0.090753,0.072443 0.1341394,0.046969 l 0.00902,-0.00531 c 0.020698,-0.012074 0.021361,-0.021361 0.00305,-0.040335 -0.056522,-0.057716 -0.1658498,-0.1008367 -0.2140126,-0.1314858 -0.1224636,-0.07775 -0.075362,-0.067003 -0.2069807,-0.110655 -0.082261,-0.083986 -0.2929572,-0.18071 -0.4037449,-0.2417428 -0.1450191,-0.079873 -0.3677887,-0.3092768 -0.5170536,-0.2219734 z"
       id="path4867"
       style="clip-rule:evenodd;fill-rule:evenodd;stroke-width:0.013268;image-rendering:optimizeQuality;shape-rendering:geometricPrecision;text-rendering:geometricPrecision" />
    <path
       class="fil2"
       d="m -4.4294927,-5.7437007 c -2.1028437,-0.9696247 -4.6870501,0.076556 -5.451419,2.2810328 v -1.327e-4 c 0.6684413,-2.4151722 3.3512289,-3.399657 5.451419,-2.2809001 z"
       id="path4869"
       style="clip-rule:evenodd;fill-rule:evenodd;stroke-width:0.013268;image-rendering:optimizeQuality;shape-rendering:geometricPrecision;text-rendering:geometricPrecision" />
    <path
       class="fil2"
       d="m -6.149953,1.3104915 c -1.9706945,0 -3.5688239,-1.59812937 -3.5688239,-3.5686912 0,-1.9706946 1.5981294,-3.568824 3.5688239,-3.568824 1.9705619,0 3.5685586,1.5981294 3.5685586,3.568824 0,1.97056183 -1.5979967,3.5686912 -3.5685586,3.5686912 z m 0.053735,-0.084915 c -1.8584474,0 -3.3655583,-1.50711099 -3.3655583,-3.3655583 0,-1.8584474 1.5071109,-3.3655584 3.3655583,-3.3655584 1.8584474,0 3.3655584,1.507111 3.3655584,3.3655584 0,1.85844731 -1.507111,3.3655583 -3.3655584,3.3655583 z"
       id="path4871"
       style="clip-rule:evenodd;fill-rule:evenodd;stroke-width:0.013268;image-rendering:optimizeQuality;shape-rendering:geometricPrecision;text-rendering:geometricPrecision" />
    <path
       class="fil2"
       d="m -8.4373544,-0.57263429 c 0.00716,0.007961 0.014064,0.0160543 0.021096,0.0241477 0.2455905,-0.12034067 0.4927731,-0.23736434 0.7350466,-0.36380828 0.046173,-0.0242804 0.08664,-0.0809347 0.1057459,-0.13175113 0.049888,-0.1308224 0.084517,-0.2672173 0.1285668,-0.4001626 0.031445,-0.095927 -0.00915,-0.1395792 -0.095529,-0.1795159 -0.4253718,-0.1978257 -0.9310149,-0.0609 -1.280361,0.3798626 0.2515611,0 0.4792398,0 0.7369041,0 -0.1171563,0.153378 -0.2068479,0.27119767 -0.2968049,0.38875206 0.00703,0.009686 0.014064,0.0191059 0.020963,0.0287915 0.047632,-0.0120739 0.095132,-0.0240151 0.1572257,-0.039804 -0.085579,0.10773608 -0.1593486,0.20074469 -0.2329859,0.29348794 z m 0.9469364,-0.10269424 c 0.061166,0.0212288 0.1349355,0.046438 0.2084401,0.0717798 -7.96e-4,0.005573 -0.00159,0.0111451 -0.00226,0.0167177 -0.1179524,-0.0181771 -0.2357722,-0.036487 -0.353592,-0.0546641 -0.00305,0.0151255 -0.0061,0.0301183 -0.00915,0.0452438 1.0327804,0.27623955 2.0656934,0.55261178 3.1056385,0.83084153 -0.064615,-0.27345327 -0.1402427,-0.52886208 -0.1825676,-0.78984344 -0.049755,-0.30489841 -0.07178,-0.61430796 -0.1022962,-0.92185996 -0.00332,-0.033037 0.00531,-0.085446 0.027199,-0.099643 0.1513878,-0.09805 0.30795,-0.1884054 0.4627875,-0.2812814 0.017116,0.00862 0.034099,0.017248 0.051214,0.026005 0,0.4166149 0,0.83336243 0,1.23737273 -0.033833,-0.0452438 -0.086242,-0.11543152 -0.1387832,-0.18575186 -0.012737,0.008359 -0.025474,0.0167177 -0.038344,0.0250765 0.090753,0.18031198 0.1816387,0.36075664 0.2725245,0.54093595 -0.01088,0.006236 -0.021627,0.0122065 -0.032507,0.0183098 -0.064084,-0.0989792 -0.1284341,-0.19822378 -0.1926512,-0.29720298 -0.00836,0.00544 -0.017116,0.0107471 -0.02574,0.0164523 0.1889362,0.47101364 0.3778723,0.94215997 0.5791477,1.44355731 -0.066738,-0.008492 -0.1061439,-0.00199 -0.1284341,-0.0185752 C -4.0652864,0.89228449 -4.1589584,0.84173344 -4.2016813,0.7647791 -4.3177762,0.55580826 -4.5068451,0.48641667 -4.7183368,0.42326104 -5.7556283,0.11279007 -6.7898681,-0.20829529 -7.8268942,-0.51969501 c -0.073107,-0.0221575 -0.1659826,-0.0148602 -0.2401506,0.008624 -0.2186565,0.069657 -0.4322711,0.15457209 -0.647876,0.23338395 -0.012737,-0.0102164 -0.025474,-0.0203 -0.038345,-0.0306491 0.099245,-0.22489243 0.1984892,-0.44965218 0.3059599,-0.69285444 -0.1682381,-0.01486 -0.3172377,-0.028261 -0.4662372,-0.041396 0.00106,-0.00862 0.00212,-0.017116 0.00305,-0.025607 0.09553,-0.014595 0.1910591,-0.029455 0.286854,-0.044315 -6.634e-4,-0.00942 -0.00106,-0.01884 -0.00172,-0.028393 -0.1890689,-0.013533 -0.3781378,-0.027067 -0.6111237,-0.04405 0.1170237,-0.085446 0.2033983,-0.1539087 0.2952128,-0.2142781 0.1479381,-0.097387 0.3006527,-0.1874767 0.4481927,-0.2856598 0.026536,-0.017646 0.044846,-0.056654 0.054399,-0.089426 0.1710244,-0.5986518 0.3380684,-1.1983649 0.5097561,-1.7967513 0.1317512,-0.4589397 0.2685442,-0.91642 0.4020201,-1.3748291 0.00372,-0.012339 -0.00597,-0.028526 -0.048959,-0.053603 -0.1443558,0.4739326 -0.2888442,0.9478653 -0.4430182,1.453641 0,-0.056522 -0.00252,-0.082261 6.634e-4,-0.10694 0.00332,-0.026138 0.012339,-0.051082 0.018575,-0.076689 0.107338,-0.4331998 0.2100322,-0.8678592 0.324933,-1.2990689 0.039406,-0.1480707 0.045775,-0.2844657 -0.00584,-0.4304135 -0.029322,-0.082792 -0.028393,-0.1763316 -0.01685,-0.273984 0.2840676,0.2783624 0.6433648,0.4890581 0.681842,0.9457423 0.018973,-0.00796 0.037681,-0.016187 0.056522,-0.02428 -0.0069,-0.037283 -0.013135,-0.075229 -0.021361,-0.1123799 -0.00982,-0.043519 -0.021627,-0.08664 7.96e-4,-0.1399773 0.048296,0.1551028 0.096458,0.3103383 0.1446211,0.4654411 0.014064,-0.00265 0.028261,-0.00544 0.042458,-0.00836 -0.0077,-0.091682 -0.015258,-0.1837616 -0.022954,-0.2755761 0.0069,-0.00186 0.013666,-0.00371 0.020433,-0.00557 0.056256,0.1991526 0.1123798,0.3984378 0.1686361,0.5975903 0.020565,-0.00464 0.040998,-0.00902 0.061564,-0.013666 -0.022688,-0.1421002 -0.045244,-0.2842004 -0.070984,-0.4452738 0.3697788,0.2579298 0.725759,0.5061739 1.1072137,0.7724624 -0.1758008,0.1000407 -0.3299749,0.1959682 -0.4929058,0.273984 -0.035956,0.017248 -0.1083995,-0.019769 -0.1540414,-0.047897 -0.4391704,-0.2689422 -0.8203598,-0.6035609 -1.1338824,-1.0136745 -0.03118,-0.040998 -0.06435,-0.080537 -0.1252498,-0.1562969 -0.2577971,1.0018659 -0.5068372,1.9693678 -0.7583983,2.9469533 0.2803526,0.058777 0.5526118,0.1211367 0.8272591,0.1695649 0.063554,0.011012 0.146744,-0.00849 0.2011428,-0.043784 0.445141,-0.2888441 0.8776775,-0.5974576 1.3293199,-0.8752893 0.4822914,-0.2964069 0.9815659,-0.5652164 1.4726142,-0.8474265 0.1788525,-0.1029596 0.3554495,-0.2097669 0.5560615,-0.3282501 -0.2690749,-0.1446211 -0.6229322,-0.1057459 -0.7687474,-0.4626548 0.6840976,0.015789 1.3655416,0.03171 2.0469855,0.047499 0.010084,0.018575 0.020035,0.037283 0.029853,0.055991 -0.2937533,0.5689314 -0.5875066,1.1378628 -0.8856383,1.7155511 -0.056654,-0.021361 -0.1359969,-0.028261 -0.1484688,-0.060635 -0.042723,-0.1110531 -0.089957,-0.2329859 -0.082925,-0.347754 0.00889,-0.1421002 0.070188,-0.281016 0.1077361,-0.421524 0.00226,-0.00796 -0.0065,-0.018841 -0.0203,-0.05493 -0.1261786,0.076026 -0.2467846,0.1524492 -0.3708403,0.2226369 -0.4560209,0.2588584 -0.9132358,0.5157267 -1.36992,0.7732584 -0.3424468,-0.016187 -0.5820667,0.2264846 -0.8679919,0.3504076 -0.2983971,0.1293629 -0.5868432,0.2834043 -0.8710436,0.4422221 -0.08266,0.04604 -0.1562969,0.1349355 -0.1980911,0.2218408 -0.074433,0.1544394 -0.1204733,0.3222795 -0.1804446,0.48375091 -0.03171,0.0853132 -0.067799,0.16890151 -0.1037557,0.25779705 z"
       id="path4873"
       style="clip-rule:evenodd;fill-rule:evenodd;stroke-width:0.013268;image-rendering:optimizeQuality;shape-rendering:geometricPrecision;text-rendering:geometricPrecision" />
  </g>
</svg>
