<?xml version="1.0" encoding="UTF-8" standalone="no"?>
<!-- Created with Inkscape (http://www.inkscape.org/) -->

<svg
   width="9.2645435mm"
   height="9.0798168mm"
   viewBox="0 0 9.2645435 9.0798168"
   version="1.1"
   id="svg11712"
   inkscape:version="1.1.2 (0a00cf5339, 2022-02-04)"
   sodipodi:docname="block.svg"
   xmlns:inkscape="http://www.inkscape.org/namespaces/inkscape"
   xmlns:sodipodi="http://sodipodi.sourceforge.net/DTD/sodipodi-0.dtd"
   xmlns:xlink="http://www.w3.org/1999/xlink"
   xmlns="http://www.w3.org/2000/svg"
   xmlns:svg="http://www.w3.org/2000/svg">
  <sodipodi:namedview
     id="namedview11714"
     pagecolor="#ffffff"
     bordercolor="#666666"
     borderopacity="1.0"
     inkscape:pageshadow="2"
     inkscape:pageopacity="0.0"
     inkscape:pagecheckerboard="0"
     inkscape:document-units="mm"
     showgrid="false"
     inkscape:zoom="0.64052329"
     inkscape:cx="-177.19887"
     inkscape:cy="-256.82126"
     inkscape:window-width="1920"
     inkscape:window-height="1136"
     inkscape:window-x="0"
     inkscape:window-y="0"
     inkscape:window-maximized="1"
     inkscape:current-layer="layer1" />
  <defs
     id="defs11709">
    <linearGradient
       inkscape:collect="always"
       xlink:href="#id139"
       id="linearGradient11241"
       gradientUnits="userSpaceOnUse"
       x1="15604.025"
       y1="14124.213"
       x2="14955.504"
       y2="14772.718"
       gradientTransform="matrix(0.01326787,0,0,0.01326811,-45.543777,30.130021)" />
    <linearGradient
       id="id139"
       gradientUnits="objectBoundingBox"
       x1="0"
       y1="0.99998593"
       x2="1"
       y2="1.35058e-05">
      <stop
         offset="0"
         style="stop-opacity:1; stop-color:#EAC046"
         id="stop438" />
      <stop
         offset="0.160784"
         style="stop-opacity:1; stop-color:#EAC046"
         id="stop440" />
      <stop
         offset="0.341176"
         style="stop-opacity:1; stop-color:#FFDD21"
         id="stop442" />
      <stop
         offset="0.580392"
         style="stop-opacity:1; stop-color:#EAC046"
         id="stop444" />
      <stop
         offset="0.819608"
         style="stop-opacity:1; stop-color:#FFDD21"
         id="stop446" />
      <stop
         offset="1"
         style="stop-opacity:1; stop-color:#D7B243"
         id="stop448" />
    </linearGradient>
  </defs>
  <g
     inkscape:label="Layer 1"
     inkscape:groupmode="layer"
     id="layer1"
     transform="translate(-151.92261,-216.45452)">
    <circle
       class="fil1"
       cx="156.64725"
       cy="220.99443"
       r="4.5399084"
       id="circle4105"
       style="clip-rule:evenodd;fill:#fefefe;fill-rule:evenodd;stroke-width:0.013268;image-rendering:optimizeQuality;shape-rendering:geometricPrecision;text-rendering:geometricPrecision" />
    <path
       class="fil2"
       d="m 156.64527,225.02923 c 2.16772,0 3.9256,-1.75801 3.9256,-3.9256 0,-2.16786 -1.75788,-3.9256 -3.9256,-3.9256 -2.16773,0 -3.92547,1.75774 -3.92547,3.9256 0,2.16759 1.75774,3.9256 3.92547,3.9256 z"
       id="path4107"
       style="clip-rule:evenodd;fill:#2b2a29;fill-rule:evenodd;stroke-width:0.013268;image-rendering:optimizeQuality;shape-rendering:geometricPrecision;text-rendering:geometricPrecision" />
    <path
       class="fil2"
       d="m 154.68266,217.20297 c 2.31315,-1.06648 5.15581,0.0843 5.9966,2.50925 v -1.4e-4 c -0.73531,-2.65678 -3.68637,-3.73958 -5.9966,-2.50911 z"
       id="path4109"
       style="clip-rule:evenodd;fill:#2b2a29;fill-rule:evenodd;stroke-width:0.013268;image-rendering:optimizeQuality;shape-rendering:geometricPrecision;text-rendering:geometricPrecision" />
    <path
       class="fil61"
       d="m 156.58596,224.93582 c 2.0442,0 3.70203,-1.65783 3.70203,-3.70203 0,-2.04433 -1.65783,-3.70217 -3.70203,-3.70217 -2.04433,0 -3.70204,1.65784 -3.70204,3.70217 0,2.04407 1.65771,3.70203 3.70204,3.70203 z"
       id="path4111"
       style="clip-rule:evenodd;fill:url(#linearGradient11241);fill-rule:evenodd;stroke-width:0.013268;image-rendering:optimizeQuality;shape-rendering:geometricPrecision;text-rendering:geometricPrecision" />
    <path
       class="fil2"
       d="m 153.53936,222.369 c 0.0198,0.0175 0.0186,0.0277 -0.005,0.0442 l -0.0828,0.057 c -0.11875,0.0817 -0.7231,0.26483 -0.88166,0.29694 -0.11901,0.0242 -0.36261,0.0669 -0.46955,0.11039 -0.0555,0.0226 -0.11331,0.0589 -0.15484,0.0224 l -0.009,-0.008 c -0.0199,-0.0174 -0.0186,-0.0277 0.005,-0.044 0.0732,-0.0504 0.20035,-0.074 0.25886,-0.0968 0.14847,-0.0581 0.0957,-0.0565 0.24679,-0.0758 0.10654,-0.0734 0.35425,-0.13335 0.48693,-0.17594 0.17341,-0.0557 0.46226,-0.25634 0.60515,-0.13069 z"
       id="path4113"
       style="clip-rule:evenodd;fill:#2b2a29;fill-rule:evenodd;stroke-width:0.013268;image-rendering:optimizeQuality;shape-rendering:geometricPrecision;text-rendering:geometricPrecision" />
    <path
       class="fil2"
       d="m 158.78473,223.44437 c -0.0153,-6.6e-4 -0.0153,0.005 1.3e-4,0.0249 l 0.0532,0.0689 c 0.0762,0.0987 0.48229,0.48243 0.59016,0.57491 0.0809,0.0695 0.24705,0.2083 0.31803,0.28194 0.0367,0.0381 0.0742,0.0845 0.10601,0.0859 l 0.007,2.6e-4 c 0.0151,6.6e-4 0.0151,-0.005 -2.6e-4,-0.0249 -0.047,-0.0609 -0.13361,-0.13401 -0.17248,-0.17368 -0.0987,-0.10084 -0.062,-0.0747 -0.16572,-0.15723 -0.0685,-0.0886 -0.23604,-0.23816 -0.32507,-0.3236 -0.11636,-0.11172 -0.30158,-0.35267 -0.41077,-0.35731 z"
       id="path4115"
       style="clip-rule:evenodd;fill:#2b2a29;fill-rule:evenodd;stroke-width:0.013268;image-rendering:optimizeQuality;shape-rendering:geometricPrecision;text-rendering:geometricPrecision" />
    <path
       class="fil2"
       d="m 158.62604,222.0235 0.043,-0.15232 0.0259,-0.25328 c 0.003,-0.0305 -0.003,-0.0206 -0.0184,-0.0346 l -0.0505,0.44023 z"
       id="path4117"
       style="clip-rule:evenodd;fill:#2b2a29;fill-rule:evenodd;stroke-width:0.013268;image-rendering:optimizeQuality;shape-rendering:geometricPrecision;text-rendering:geometricPrecision" />
    <path
       class="fil2"
       d="m 158.56103,221.86004 0.0269,0.0852 c 0.0378,-0.24586 0.12419,-0.81107 0.0506,-0.84663 l -0.0774,0.76145 z"
       id="path4119"
       style="clip-rule:evenodd;fill:#2b2a29;fill-rule:evenodd;stroke-width:0.013268;image-rendering:optimizeQuality;shape-rendering:geometricPrecision;text-rendering:geometricPrecision" />
    <path
       class="fil2"
       d="m 153.36529,217.38753 0.0476,0.0888 c 0.0681,0.12697 0.76742,0.88643 0.89386,0.98753 0.0949,0.0759 0.29176,0.22529 0.36699,0.31299 0.039,0.0454 0.10814,0.16798 0.16174,0.15458 l 0.0112,-0.003 c 0.0257,-0.006 0.0293,-0.0162 0.0156,-0.0417 -0.0421,-0.0783 -0.17872,-0.22131 -0.22025,-0.26841 -0.10534,-0.11955 -0.059,-0.0939 -0.18469,-0.18018 -0.0612,-0.11397 -0.25408,-0.28075 -0.35253,-0.37933 -0.0164,-0.0165 -0.8924,-0.95663 -0.73955,-0.67136 z"
       id="path4121"
       style="clip-rule:evenodd;fill:#2b2a29;fill-rule:evenodd;stroke-width:0.013268;image-rendering:optimizeQuality;shape-rendering:geometricPrecision;text-rendering:geometricPrecision" />
    <polygon
       class="fil1"
       points="15447.42,14223.2 15129.78,14201.12 15076.83,14205.92 15068.68,14500.26 15205.93,14646.26 15315.31,14611.9 15403.23,14508.85 "
       id="polygon4123"
       style="clip-rule:evenodd;fill:#fefefe;fill-rule:evenodd;image-rendering:optimizeQuality;shape-rendering:geometricPrecision;text-rendering:geometricPrecision"
       transform="matrix(0.01326799,0,0,0.01326799,-45.543777,30.130021)" />
    <path
       class="fil2"
       d="m 154.24655,218.1657 c -0.14741,0.086 -0.13839,0.78228 -0.16758,0.99165 l -0.0954,1.04724 -0.0401,0.26045 -0.0489,0.47685 -0.005,0.052 -0.0271,0.26245 -0.0251,0.24373 -0.0256,0.24917 -0.008,0.0646 c -0.0898,0.88391 0.38954,1.46094 0.81624,1.93288 0.33741,0.37296 0.78706,0.68648 1.21283,0.95582 0.047,0.0297 0.378,0.23485 0.40082,0.23724 0.0789,0.008 0.89029,-0.30411 0.99325,-0.35758 0.14634,-0.0759 0.2968,-0.13241 0.43704,-0.21746 0.10907,-0.0659 0.30464,-0.18695 0.39924,-0.26377 0.12445,-0.10123 0.26204,-0.17712 0.37455,-0.29402 0.0454,-0.0474 0.12605,-0.11423 0.17912,-0.15696 0.0589,-0.0476 0.10508,-0.12246 0.16001,-0.18044 0.17315,-0.18376 0.42418,-0.59825 0.45934,-0.94375 l 0.0242,-0.23777 0.30092,-2.92293 0.0764,-0.74142 0.009,-0.0897 -0.26457,-0.0239 -1.38664,-0.11384 -0.99456,-0.0984 -1.43361,-0.18575 c -0.0924,-0.006 -0.25674,-0.0103 -0.34683,-0.006 -0.14634,0.007 -0.45151,-0.0202 -0.56296,0.0385 l 0.009,0.0438 -0.0893,0.0172 -0.003,0.0174 0.0433,0.004 -0.0654,0.0329 -0.005,0.0145 0.47075,0.0736 -5.3e-4,0.008 c -0.0778,-0.008 -0.19305,-0.0272 -0.2034,0.0555 l -0.0433,-0.005 -0.002,0.0218 0.18138,0.0521 -0.0159,0.0295 0.14249,0.0155 0.12114,0.0246 -0.31312,0.0439 0.0142,0.0559 c 0.1015,0.01 0.23087,0.0157 0.32626,0.0326 0.0839,0.0149 0.18894,0.0616 0.26576,0.0712 l 0.004,0.0659 0.0965,0.0222 0.008,0.0533 -0.0677,0.0199 -0.004,0.0171 c 0.14807,0.051 0.4186,0.11941 0.59772,0.13785 l -5.3e-4,0.0145 -0.15325,-0.005 -0.001,0.008 0.39844,0.0552 -6.6e-4,0.008 c -0.0894,-0.009 -0.22463,-0.0399 -0.28327,-0.007 l 0.47088,0.0704 -0.002,0.0177 -0.34285,-0.039 -0.002,0.0183 0.0647,0.007 0.27624,0.051 -0.11317,1.09966 0.11065,-0.48057 0.0543,0.005 -0.0159,0.33728 0.0472,0.0174 c -0.0245,0.23763 -0.0943,0.43983 -0.12512,0.73942 -0.0273,0.2647 -0.0547,0.52926 -0.0816,0.79409 -0.0426,0.4133 -0.0169,1.29615 -0.25276,1.50366 0.0127,-0.12366 -0.008,-0.13334 -0.021,-0.15324 l -0.0529,0.51479 c -0.0705,-0.0508 -0.13149,-0.0968 -0.1555,-0.11463 -0.10203,-0.0758 -0.12021,-0.0565 -0.22211,-0.1563 -0.0334,-0.0329 -0.084,-0.0586 -0.10601,-0.0823 -0.0308,-0.0329 -0.0414,-0.0683 -0.0841,-0.0901 -0.0666,-0.0338 -0.16266,-0.11278 -0.20645,-0.16903 -0.0333,-0.0429 -0.0119,-0.0544 -0.0728,-0.10933 -0.0344,-0.0308 -0.0614,-0.0484 -0.0974,-0.0793 -0.0296,-0.0254 -0.0671,-0.14861 -0.14555,-0.21853 -0.0437,-0.0391 -0.0987,-0.16134 -0.13042,-0.22104 0.009,-0.0888 -0.0161,-0.11305 -0.0309,-0.19305 -0.0101,-0.0544 -0.005,-0.15365 -0.0637,-0.16625 -0.006,0.0756 0.0251,0.19637 0.0433,0.26231 0.0216,0.0786 0.0742,0.1689 0.0825,0.22025 -0.0659,-0.0249 -0.16108,-0.35015 -0.15059,-0.45244 l -0.0794,-0.51069 0.0368,-0.23643 0.0245,-0.0291 c 0.0364,-0.37336 0.10389,-0.82208 0.14237,-1.19889 0.021,-0.20553 0.0423,-0.41118 0.0624,-0.61657 0.0284,-0.29495 0.0511,-0.35067 0.0176,-0.61271 l -0.0322,0.0609 -0.006,-0.0207 -0.0431,0.004 -0.0141,-0.097 -0.0406,-0.005 c 0.004,-0.0458 2.7e-4,-0.14993 -0.0919,-0.15935 l -0.0215,-0.002 c -0.0342,-0.003 -0.0395,0.0228 -0.0488,0.0496 l -0.0257,-0.10018 -0.0734,0.005 -0.0176,-0.0482 -0.0831,0.0313 -0.003,0.0119 -0.0405,-0.39352 -0.0284,0.0273 -0.0776,-0.0801 -0.004,0.0147 -0.0476,0.0387 -0.0188,-0.0436 z m 4.43867,1.13441 0.0788,0.004 -0.0145,0.14011 -0.12711,1.10642 0.006,9.3e-4 0.0165,-0.16213 c 0.0474,0.0856 -0.15856,1.77485 -0.18496,2.03464 l -0.0108,-0.001 0.0517,-0.50816 -0.0218,-0.002 -0.034,0.33515 -0.0536,0.24466 c -0.0253,0.13573 -0.15431,0.31671 -0.23338,0.40003 -0.11928,0.12578 -0.17275,0.19066 -0.30888,0.30158 -0.0856,0.0697 -0.0897,0.0649 -0.18084,0.11862 -0.0349,0.0206 -0.0247,0.051 -0.0855,0.0653 -0.0754,0.0178 -0.0431,0.0164 -0.0988,0.0491 -0.0629,0.0369 -0.32666,0.20486 -0.38198,0.21176 0.009,-0.0188 0.45084,-0.28606 0.51732,-0.33754 0.0926,-0.0718 0.42046,-0.31405 0.45482,-0.41436 -0.0403,0.006 -0.14316,0.13175 -0.17898,0.16917 -0.0551,0.0575 -0.13945,0.099 -0.18894,0.14502 -0.10176,0.0943 -0.28181,0.1949 -0.40175,0.27292 -0.074,0.0482 -0.83708,0.44925 -0.87529,0.44514 -0.0409,-0.004 -0.0931,-0.0227 -0.11888,-0.0505 l 0.0471,-0.021 c 0.032,0.01 0.0279,0.0309 0.0815,0.0236 0.0581,-0.008 0.0272,-0.016 0.0823,-0.0337 0.0836,-0.0269 0.10005,-0.0261 0.17634,-0.0633 0.11198,-0.0545 0.21321,-0.10574 0.32241,-0.16346 0.10349,-0.0547 0.55181,-0.30636 0.58366,-0.39008 -0.0252,0.004 -0.50817,0.29349 -0.58021,0.33343 -0.0904,0.0503 -0.51639,0.28566 -0.61763,0.27517 l -0.007,-6.6e-4 c 0.86069,-0.39393 1.50844,-0.86295 1.88777,-1.42644 l 0.0874,-0.66035 0.0126,9.3e-4 -0.03,0.33568 0.01,0.0137 c -0.008,0.0774 -0.0167,0.15138 -0.0261,0.22635 0.0238,-0.0385 0.0463,-0.0775 0.0677,-0.11676 l 0.12432,-1.20752 c -0.005,0.0188 -0.009,0.0353 -0.0137,0.0494 0.0188,-0.1839 0,-0.11185 0.009,-0.19982 l 0.15696,-1.5436 z"
       id="path4125"
       style="clip-rule:evenodd;fill:#2b2a29;fill-rule:evenodd;stroke-width:0.013268;image-rendering:optimizeQuality;shape-rendering:geometricPrecision;text-rendering:geometricPrecision" />
  </g>
</svg>
