<?xml version="1.0" encoding="UTF-8" standalone="no"?>
<!-- Created with Inkscape (http://www.inkscape.org/) -->

<svg
   width="9.0798168mm"
   height="9.0798168mm"
   viewBox="0 0 9.0798168 9.0798168"
   version="1.1"
   id="svg14443"
   inkscape:version="1.1.2 (0a00cf5339, 2022-02-04)"
   sodipodi:docname="claw.svg"
   xmlns:inkscape="http://www.inkscape.org/namespaces/inkscape"
   xmlns:sodipodi="http://sodipodi.sourceforge.net/DTD/sodipodi-0.dtd"
   xmlns="http://www.w3.org/2000/svg"
   xmlns:svg="http://www.w3.org/2000/svg">
  <sodipodi:namedview
     id="namedview14445"
     pagecolor="#ffffff"
     bordercolor="#666666"
     borderopacity="1.0"
     inkscape:pageshadow="2"
     inkscape:pageopacity="0.0"
     inkscape:pagecheckerboard="0"
     inkscape:document-units="mm"
     showgrid="false"
     inkscape:zoom="0.64052329"
     inkscape:cx="16.392847"
     inkscape:cy="16.392847"
     inkscape:window-width="1920"
     inkscape:window-height="1136"
     inkscape:window-x="0"
     inkscape:window-y="0"
     inkscape:window-maximized="1"
     inkscape:current-layer="layer1" />
  <defs
     id="defs14440" />
  <g
     inkscape:label="Layer 1"
     inkscape:groupmode="layer"
     id="layer1"
     transform="translate(-100.58735,-143.96009)">
    <circle
       class="fil0"
       cx="105.12726"
       cy="148.5"
       r="4.5399084"
       id="circle5059"
       style="clip-rule:evenodd;fill:none;fill-rule:evenodd;stroke-width:0.013268;image-rendering:optimizeQuality;shape-rendering:geometricPrecision;text-rendering:geometricPrecision" />
    <circle
       class="fil2"
       cx="105.12726"
       cy="148.5"
       r="4.5399084"
       id="circle5065"
       style="clip-rule:evenodd;fill:#2b2a29;fill-rule:evenodd;stroke-width:0.013268;image-rendering:optimizeQuality;shape-rendering:geometricPrecision;text-rendering:geometricPrecision" />
    <path
       class="fil1"
       d="m 107.17901,146.7664 c 0.007,0.0179 0.0179,0.0174 0.0472,-0.002 l 0.10243,-0.0675 c 0.14661,-0.0969 0.65809,-0.60224 0.77631,-0.73585 0.0886,-0.10017 0.26351,-0.30556 0.36514,-0.39445 0.0527,-0.046 0.12074,-0.0934 0.10641,-0.13083 l -0.003,-0.008 c -0.007,-0.0179 -0.0179,-0.0174 -0.0474,0.002 -0.0904,0.0596 -0.18297,0.16678 -0.23763,0.21534 -0.13878,0.12339 -0.10867,0.0784 -0.2099,0.20632 -0.13162,0.0869 -0.32613,0.29495 -0.44076,0.40573 -0.14993,0.14489 -0.50857,0.38026 -0.45894,0.50896 z"
       id="path5067"
       style="clip-rule:evenodd;fill:#fefefe;fill-rule:evenodd;stroke-width:0.013268;image-rendering:optimizeQuality;shape-rendering:geometricPrecision;text-rendering:geometricPrecision" />
    <path
       class="fil1"
       d="m 100.9408,146.08801 c -0.0228,0.0133 -0.0235,0.0236 -0.003,0.0443 l 0.0705,0.0719 c 0.10084,0.10296 0.65889,0.39844 0.80856,0.4604 0.11224,0.0464 0.34297,0.13507 0.4397,0.19835 0.0502,0.0328 0.0999,0.0796 0.14767,0.0517 l 0.01,-0.006 c 0.0228,-0.0133 0.0235,-0.0236 0.003,-0.0443 -0.0622,-0.0636 -0.18244,-0.11106 -0.23538,-0.14476 -0.13453,-0.0854 -0.0831,-0.0736 -0.22767,-0.12166 -0.0905,-0.0924 -0.32215,-0.19876 -0.44422,-0.26589 -0.15948,-0.0878 -0.40454,-0.34033 -0.56893,-0.24427 z"
       id="path5069"
       style="clip-rule:evenodd;fill:#fefefe;fill-rule:evenodd;stroke-width:0.013268;image-rendering:optimizeQuality;shape-rendering:geometricPrecision;text-rendering:geometricPrecision" />
    <path
       class="fil1"
       d="m 107.0194,144.65149 c -2.31315,-1.06648 -5.15581,0.0842 -5.9966,2.50911 v 0 c 0.73531,-2.65665 3.68624,-3.73959 5.9966,-2.50911 z"
       id="path5071"
       style="clip-rule:evenodd;fill:#fefefe;fill-rule:evenodd;stroke-width:0.013268;image-rendering:optimizeQuality;shape-rendering:geometricPrecision;text-rendering:geometricPrecision" />
    <path
       class="fil1"
       d="m 105.12685,152.41114 c -2.16772,0 -3.92573,-1.75788 -3.92573,-3.9256 0,-2.16786 1.75801,-3.92574 3.92573,-3.92574 2.16772,0 3.92547,1.75788 3.92547,3.92574 0,2.16772 -1.75775,3.9256 -3.92547,3.9256 z m 0.0593,-0.0934 c -2.04433,0 -3.70204,-1.65783 -3.70204,-3.70203 0,-2.0442 1.65784,-3.70204 3.70204,-3.70204 2.0442,0 3.70203,1.65784 3.70203,3.70204 0,2.04433 -1.65783,3.70203 -3.70203,3.70203 z"
       id="path5073"
       style="clip-rule:evenodd;fill:#fefefe;fill-rule:evenodd;stroke-width:0.013268;image-rendering:optimizeQuality;shape-rendering:geometricPrecision;text-rendering:geometricPrecision" />
    <path
       class="fil1"
       d="m 102.92211,150.78302 c 0.0206,-9.3e-4 0.0206,0.007 -2.7e-4,0.034 l -0.072,0.0935 c -0.10336,0.13387 -0.65465,0.65464 -0.80099,0.78016 -0.10986,0.0943 -0.33528,0.2826 -0.43174,0.38251 -0.0499,0.0517 -0.10071,0.11464 -0.14383,0.11636 l -0.009,4e-4 c -0.0206,9.3e-4 -0.0206,-0.007 2.7e-4,-0.034 0.0637,-0.0827 0.18124,-0.18177 0.23405,-0.23564 0.13387,-0.13705 0.0842,-0.10136 0.22489,-0.21334 0.0927,-0.12021 0.32042,-0.32335 0.44103,-0.43904 0.15789,-0.15166 0.40931,-0.47871 0.55765,-0.48495 z"
       id="path5075"
       style="clip-rule:evenodd;fill:#fefefe;fill-rule:evenodd;stroke-width:0.013268;image-rendering:optimizeQuality;shape-rendering:geometricPrecision;text-rendering:geometricPrecision" />
    <g
       id="g5087"
       style="clip-rule:evenodd;fill-rule:evenodd;image-rendering:optimizeQuality;shape-rendering:geometricPrecision;text-rendering:geometricPrecision"
       transform="matrix(0.01326799,0,0,0.01326799,-309.86085,142.67774)">
      <path
         class="fil1"
         d="m 31293.46,527.39 c 7.58,5.07 23.02,28.84 27.16,31.03 v 4.85 c 6.43,4.31 22.79,28.6 27.15,36.85 5.9,8.49 12.97,15.93 16.86,26.78 2.33,6.5 2.81,0.32 5.28,5.38 1.51,3.1 1.99,4.78 3.71,7.93 2.02,3.7 7.78,10.42 8.09,14.21 h 2.9 v -2.91 c 0,-3.62 -12.72,-33.92 -14.54,-40.73 -1.26,-1.81 -3.32,-6.81 -4.09,-9.49 -1.88,-6.62 -3.16,-4.25 -4.82,-8.76 -2.35,-6.38 -4.27,-13.41 -6.99,-20.16 -2.75,-6.87 -6.02,-12.65 -8.68,-18.47 -1.21,-2.65 -1.77,-6.47 -3.42,-10.15 -1.37,-3.06 -2.71,-6.92 -3.88,-9.69 -5.13,-12.08 -2.46,-7.37 -11.06,-16.1 -4.76,-4.84 -8.38,-9.26 -12.19,-14.97 -4.86,-7.3 -20.55,-24.68 -22.46,-31.84 -8,-0.17 -2.68,-1.85 -6.57,-7 -3.44,-4.54 -2.51,-4.35 -5.05,-8.52 -2.68,-4.39 -8.4,-11.7 -12.62,-14.53 v -5.82 c -2.11,-1.41 -6.11,-10.53 -8.21,-14.09 -3.73,-6.34 -4.33,-7.16 -7.76,-14.54 -2.64,-5.66 -16.97,-17.27 -22.44,-22.17 -9.76,-8.74 -13.86,-12.32 -22.75,-21.86 -8.79,-9.44 -12.57,-14.12 -20.72,-24.85 -6.69,-8.82 -11.1,-18.1 -17.73,-26.87 -6.58,-8.71 -12.51,-16.79 -20.4,-24.21 -7.6,-7.14 -16.56,-13.62 -23.78,-20.82 -5.3,-5.28 -3.87,-5.68 -11,-11.31 -2.22,-1.76 -10.4,-9.87 -11.03,-12.23 h -2.91 l -7.76,-1.94 c 0.15,6.72 14.41,22.29 18.57,27.98 1.88,2.57 7.93,11.36 8.98,14.28 2.03,5.61 4.44,12.83 8.25,16 3.1,2.58 5.79,9.42 9.2,14.06 3.26,4.43 5.42,11.34 8.72,15.53 4.07,5.18 4.9,7.91 9.87,13.4 2.31,2.56 9.04,11.39 9.13,15.11 7.23,1.92 18.53,21.94 24.25,23.27 l 0.07,4.67 2.84,1.15 c 0.23,10.08 5.32,5.18 8.86,12.47 2.22,4.59 6.61,7.68 8.83,13.48 3.11,8.12 15.28,20.14 15.28,29.32 2.35,1.58 13.3,17.73 16.84,21.96 2.83,3.38 5.98,6.69 9.11,10.28 3.38,3.9 5.06,6.85 8.74,10.65 3.47,3.6 15.51,17.44 17.35,21.44 1.15,2.47 6.89,6.01 9.65,9.74 1.06,1.42 6.9,11.12 7.15,12.24 z"
         id="path5079" />
      <path
         class="fil1"
         d="m 31506.36,471.33 -3.88,-6.78 c 0,-4.9 -15,-34.7 -17.7,-38.54 -7.7,-10.91 -14.27,-23.06 -22.07,-34.17 -7.42,-10.59 -15.62,-22.28 -23.97,-32.27 -10.48,-12.55 -8.06,-22.63 -23.94,-33.28 -12.99,-8.71 -16.44,-22.02 -26.34,-29.9 -3.32,-2.64 -8.4,-11.57 -12.2,-15.92 -3.57,-4.09 -9.69,-11.13 -13.66,-14.46 -3.63,-3.04 -13.29,-9.83 -15.7,-12.42 -4.8,-5.14 -11.15,-7.8 -16.24,-11.89 -7.48,-6 -8.07,-6.7 -18.29,-9.82 -3.2,-0.98 -14.54,-9.7 -18.37,-10.73 l -3.78,-0.15 -16.22,-10.56 0.6,-0.93 c -4.53,-0.1 -6.81,-0.31 -7.76,-3.87 h -5.82 c 4.88,3.39 11.05,11.4 15.92,16.08 5.1,4.92 2.94,1.97 8.21,8.28 0.15,0.19 8.14,6.78 9.01,7.48 5.8,4.6 30.63,29.8 35.71,30.22 l 0.07,3.69 2.84,1.15 v 3.87 c 6.5,3.44 15.03,13.51 20.67,19.1 4.39,4.34 14.67,20.21 19.37,21.07 l 5.49,8.49 24.29,26.98 v 4.85 c 2.9,0.77 7.86,8.87 9.5,11.83 3.65,6.56 5.16,7.14 10.13,12.17 3.31,3.35 3.29,2.4 6.1,4.56 1.43,1.09 1.95,3.56 4.55,6.11 5.15,5.07 9.47,5.03 9.42,13.01 l 3.93,0.8 c 0.11,4.82 21.03,38.57 24.24,40.73 0,6.2 3.93,11.49 8.73,12.6 v 3.88 c 3.9,1.04 3.88,2.84 3.88,7.76 l 0.85,-0.69 18.54,22.02 c 0.18,8.23 9.46,12.44 11.98,18.07 2.29,5.12 8.23,16.64 12.01,18.81 l 1.21,6.75 2.67,0.05 1.21,7.72 h 1.94 v -6.79 c 0,-3.22 -3.88,-10.44 -3.88,-18.42 -2.84,-0.76 -7.57,-12.42 -7.76,-14.55 -4.07,-0.34 -7.85,-11.05 -8.53,-13.77 -1.55,-6.18 -4.01,-10.88 -6.98,-15.32 v -2.91 z"
         id="path5081" />
      <path
         class="fil1"
         d="m 31230.84,286.05 17.6,26.76 0.82,-0.58 v 4.85 c 8.53,5.71 15.53,21.19 23.43,27.96 4.38,3.75 7.7,9.22 12.22,13.96 2.46,2.59 3.62,3.75 5.56,7.05 2.94,4.97 1.53,6.87 6.31,7.27 l -0.76,0.75 3.83,3.96 17.29,15.65 c 0.11,4.61 22.41,43.92 25.99,48.67 2.19,2.92 5.79,7.42 8.34,10.08 4.86,5.07 4.67,8.37 7.63,11.77 4.34,4.97 14.67,14.92 16.22,21.59 3.6,1.91 14.94,21.99 19.22,27.33 7,8.72 12.51,17.97 20.16,26.39 7.14,7.86 14.55,17.61 21.94,24.6 3.38,3.2 22.59,23.19 23.05,23.5 v 5.82 c 4.4,2.95 13.72,15.15 16.48,20.36 l 0.75,-0.92 5.07,4.8 0.2,-6.02 -2.26,-3.04 -4.73,-10.33 v -5.82 c -4.02,-6.01 -3.38,-13.11 -8.22,-14.74 l -4.38,-13.38 c -1.59,-2.37 -7.32,-15.74 -7.7,-18.48 -1.18,-8.57 -6.34,-13.16 -6.85,-19.33 v -3.88 c -4.63,-3.1 -21.2,-19.07 -21.34,-25.21 -4.02,-0.93 -11.27,-11.68 -13.08,-16 -1.47,-3.48 -11.15,-16.56 -11.15,-16.97 v -2.91 c -3.6,-0.96 -12.5,-14.43 -12.61,-19.39 l -3.85,-1.99 c -0.03,-6.34 0.36,-6.41 -3.9,-8.68 l -4.29,-14.4 c -5.04,-1.61 -9.12,-20.55 -17.05,-23.42 v -4.85 c -2.92,-0.78 -12.78,-15.87 -16.39,-19.48 -5.66,-5.65 -11.23,-12.47 -17.86,-17.06 -4.12,-2.86 -12.71,-14.03 -17.42,-18.46 -4.05,-3.81 -17.05,-11.94 -17.18,-17.73 -4.44,-1.19 -22.84,-27.34 -27.41,-32.71 -5.03,-5.92 -23.01,-28.21 -30.77,-28.38 -2.74,-5.18 -43.99,-29.01 -45.58,-34.91 h -5.82 v 4.85 l 19.57,21.07 0.79,-0.71 c 0.12,5.22 10.54,16.3 14.55,18.42 l 0.93,5.83 c 3.67,0.29 12.27,11.89 12.65,16.48 z"
         id="path5083" />
      <path
         class="fil1"
         d="m 31075.76,378.86 c 7.56,5.06 14.99,27.14 22.3,29.09 0.17,7.55 13.18,23.58 17.07,29.48 1.53,2.32 19.7,26.71 19.78,26.76 4.91,1.3 9.85,11.81 12.86,16.23 2.09,3.07 5.08,5.18 6.31,8.23 3.28,8.15 4.88,-0.53 5.08,8.5 l 2.92,0.91 c -0.02,5.6 10.84,20.95 14.15,25.64 3.32,4.7 18.11,15.19 19.87,18.93 4.57,9.74 0.35,4.91 8.67,10.73 1.71,1.19 5.55,9.87 6.87,12.53 0.67,1.36 3.1,3.52 4.54,5.16 3.08,3.52 1.27,2.74 3.48,6.22 1.06,1.66 7.39,11.03 7.39,12.01 v 2.91 c 3.33,0.89 11.92,17 14.82,21.06 2.05,2.87 4.83,8.32 6.9,10.56 2.99,3.24 7.29,5.97 7.38,10.08 l 0.82,-0.59 17.94,25.27 0.63,4.4 c 4.86,3.26 16.33,18.95 16.48,26.18 h 1.94 v -5.82 c 0,-3.51 -1.21,-5.82 -3.88,-6.79 0,-7.06 -3.63,-17.6 -7.76,-20.36 l 0.99,-0.47 -7.77,-16.48 -0.99,0.46 c 0,-13.97 -13.57,-20.17 -13.57,-32.97 -1.4,-2.1 -9.93,-20.59 -10.64,-23.29 -1.8,-6.82 -12.5,-15.41 -12.63,-21.31 -3.95,-0.32 -8.64,-8.94 -8.73,-12.6 l -6.52,-6.06 c -0.26,-9.5 -17.67,-22.19 -21.31,-29.15 -1.83,-3.51 -2.6,-4.47 -4.64,-7.96 -1.6,-2.72 -3.21,-7.64 -3.96,-8.64 -3.56,-4.73 -7.54,-8.49 -8.17,-16.08 -7.54,-0.63 -23.47,-25.09 -31.03,-29.09 -0.13,-5.71 -12,-26.72 -16.48,-29.09 v -4.85 l -26.18,-32 -1.94,-3.87 c -0.28,-0.08 -29.42,-23.75 -30.27,-25 -3.65,-5.38 -22.68,-24.74 -28.88,-26.39 0.1,4.49 3.82,9.29 6.25,12.18 5.04,6.01 3.29,5.27 6.92,11.51 2.08,3.56 12.81,21.38 13.02,23.82 z"
         id="path5085" />
    </g>
  </g>
</svg>
