<?xml version="1.0" encoding="UTF-8" standalone="no"?>
<!-- Created with Inkscape (http://www.inkscape.org/) -->

<svg
   width="10.693503mm"
   height="10.333069mm"
   viewBox="0 0 10.693503 10.333069"
   version="1.1"
   id="svg13192"
   inkscape:version="1.1.2 (0a00cf5339, 2022-02-04)"
   sodipodi:docname="death.svg"
   xmlns:inkscape="http://www.inkscape.org/namespaces/inkscape"
   xmlns:sodipodi="http://sodipodi.sourceforge.net/DTD/sodipodi-0.dtd"
   xmlns="http://www.w3.org/2000/svg"
   xmlns:svg="http://www.w3.org/2000/svg">
  <sodipodi:namedview
     id="namedview13194"
     pagecolor="#ffffff"
     bordercolor="#666666"
     borderopacity="1.0"
     inkscape:pageshadow="2"
     inkscape:pageopacity="0.0"
     inkscape:pagecheckerboard="0"
     inkscape:document-units="mm"
     showgrid="false"
     inkscape:zoom="0.64052329"
     inkscape:cx="17.95407"
     inkscape:cy="-439.48441"
     inkscape:window-width="1920"
     inkscape:window-height="1136"
     inkscape:window-x="0"
     inkscape:window-y="0"
     inkscape:window-maximized="1"
     inkscape:current-layer="layer1" />
  <defs
     id="defs13189" />
  <g
     inkscape:label="Layer 1"
     inkscape:groupmode="layer"
     id="layer1"
     transform="translate(-100.40012,-264.98374)">
    <circle
       class="fil0"
       cx="105.54445"
       cy="269.94342"
       r="4.5399084"
       id="circle2451"
       style="clip-rule:evenodd;fill:none;fill-rule:evenodd;stroke-width:0.013268;image-rendering:optimizeQuality;shape-rendering:geometricPrecision;text-rendering:geometricPrecision" />
    <ellipse
       class="fil2"
       transform="matrix(-0.43524769,0.90031075,-0.90031002,-0.4352492,0,0)"
       id="circle2457"
       cx="197.09505"
       cy="-212.51454"
       rx="4.5398941"
       ry="4.5398622"
       style="clip-rule:evenodd;fill:#2b2a29;fill-rule:evenodd;stroke-width:0.0186084;image-rendering:optimizeQuality;shape-rendering:geometricPrecision;text-rendering:geometricPrecision" />
    <path
       class="fil1"
       d="m 108.47205,269.38126 c -10e-4,0.0191 0.009,0.0232 0.044,0.0174 l 0.12101,-0.02 c 0.17328,-0.0288 0.84623,-0.28247 1.00836,-0.35651 0.12167,-0.0555 0.36501,-0.17195 0.4941,-0.21176 0.0669,-0.0206 0.14834,-0.0362 0.15046,-0.0762 l 4e-4,-0.008 c 0.001,-0.0191 -0.009,-0.0231 -0.044,-0.0174 -0.10694,0.0178 -0.23498,0.078 -0.30477,0.10017 -0.17712,0.0563 -0.13108,0.0275 -0.2757,0.10309 -0.15551,0.0257 -0.41795,0.13679 -0.56761,0.19146 -0.19583,0.0713 -0.61922,0.14064 -0.62625,0.27823 z"
       id="path2459"
       style="clip-rule:evenodd;fill:#fefefe;fill-rule:evenodd;stroke-width:0.013268;image-rendering:optimizeQuality;shape-rendering:geometricPrecision;text-rendering:geometricPrecision" />
    <path
       class="fil1"
       d="m 104.0773,264.98438 c -0.0261,-0.003 -0.033,0.004 -0.0299,0.0329 l 0.0113,0.10004 c 0.0162,0.14316 0.27451,0.71939 0.35439,0.86017 0.06,0.10561 0.18747,0.3175 0.22489,0.42683 0.0192,0.0566 0.0298,0.12419 0.0846,0.13148 l 0.0113,0.001 c 0.0261,0.003 0.033,-0.004 0.0298,-0.0329 -0.01,-0.0884 -0.0756,-0.19969 -0.0967,-0.25886 -0.0536,-0.15006 -0.02,-0.10906 -0.10469,-0.23591 -0.0145,-0.12843 -0.13188,-0.35491 -0.18681,-0.48282 -0.0718,-0.16744 -0.10986,-0.51705 -0.29853,-0.54239 z"
       id="path2461"
       style="clip-rule:evenodd;fill:#fefefe;fill-rule:evenodd;stroke-width:0.013268;image-rendering:optimizeQuality;shape-rendering:geometricPrecision;text-rendering:geometricPrecision" />
    <path
       class="fil1"
       d="m 108.18586,273.32225 c 1.96698,-1.61843 2.16826,-4.67856 0.35094,-6.49084 h 1.3e-4 c 2.0718,1.81825 1.76226,4.94644 -0.35107,6.49084 z"
       id="path2463"
       style="clip-rule:evenodd;fill:#fefefe;fill-rule:evenodd;stroke-width:0.013268;image-rendering:optimizeQuality;shape-rendering:geometricPrecision;text-rendering:geometricPrecision" />
    <path
       class="fil1"
       d="m 102.02354,268.241 c 0.94349,-1.95158 3.29126,-2.76916 5.24285,-1.82567 1.95172,0.94349 2.76916,3.29126 1.82567,5.24285 -0.94335,1.95158 -3.29125,2.76916 -5.24284,1.82554 -1.95146,-0.94349 -2.76916,-3.29126 -1.82554,-5.24285 z m 0.0583,0.0939 c 0.88975,-1.84053 3.10391,-2.61154 4.94445,-1.72165 1.84053,0.88975 2.61154,3.10391 1.72165,4.94431 -0.88975,1.84054 -3.10391,2.61154 -4.94445,1.72166 -1.8404,-0.88975 -2.6114,-3.10392 -1.72165,-4.94432 z"
       id="path2465"
       style="clip-rule:evenodd;fill:#fefefe;fill-rule:evenodd;stroke-width:0.013268;image-rendering:optimizeQuality;shape-rendering:geometricPrecision;text-rendering:geometricPrecision" />
    <path
       class="fil1"
       d="m 102.75342,270.78063 c 0.0199,0.005 0.0175,0.0127 -0.0102,0.0324 l -0.0963,0.0685 c -0.13798,0.0978 -0.8173,0.43479 -0.99403,0.51214 -0.13255,0.0581 -0.40322,0.17235 -0.52462,0.23975 -0.0629,0.0349 -0.12976,0.0801 -0.17156,0.0693 l -0.009,-0.002 c -0.02,-0.005 -0.0177,-0.0127 0.0101,-0.0324 0.0851,-0.0602 0.22649,-0.12087 0.2927,-0.15709 0.16823,-0.0918 0.11025,-0.0723 0.27743,-0.13825 0.12379,-0.0878 0.40096,-0.21561 0.55009,-0.2911 0.19517,-0.0988 0.53125,-0.33834 0.67494,-0.30092 z"
       id="path2467"
       style="clip-rule:evenodd;fill:#fefefe;fill-rule:evenodd;stroke-width:0.013268;image-rendering:optimizeQuality;shape-rendering:geometricPrecision;text-rendering:geometricPrecision" />
    <path
       class="fil2"
       d="m 107.78689,267.03985 c 0.0242,0.22025 0.44541,0.66752 0.63819,0.64655 l 0.0399,-0.004 -0.003,-0.0267 c -0.0943,0.002 -0.28274,-0.23087 -0.34377,-0.29999 -0.0482,-0.0545 -0.0939,-0.12724 -0.14834,-0.17925 -0.0803,-0.0768 -0.062,-0.13215 -0.0998,-0.23976 l -0.0401,0.004 c -0.043,0.005 -0.0478,0.0584 -0.0433,0.0992 z"
       id="path2469"
       style="clip-rule:evenodd;fill:#2b2a29;fill-rule:evenodd;stroke-width:0.013268;image-rendering:optimizeQuality;shape-rendering:geometricPrecision;text-rendering:geometricPrecision" />
    <path
       class="fil2"
       d="m 101.44413,268.47598 0.007,0.0667 c 0.003,0.0312 0.043,0.0629 0.074,0.0594 l 0.0267,-0.003 c 0.12207,-0.0133 0.19823,-0.15006 0.23047,-0.24134 -0.0979,0.0379 -0.10257,0.14302 -0.25249,0.16266 l -0.0161,-0.14674 c -0.006,-0.0548 0.0289,-0.2298 0.0198,-0.31299 l -0.007,-0.0667 c -0.004,-0.0369 -0.0138,-0.0311 -0.0444,-0.0357 -0.0214,0.17673 -0.0628,0.29163 -0.0381,0.51771 z"
       id="path2471"
       style="clip-rule:evenodd;fill:#2b2a29;fill-rule:evenodd;stroke-width:0.013268;image-rendering:optimizeQuality;shape-rendering:geometricPrecision;text-rendering:geometricPrecision" />
    <path
       class="fil2"
       d="m 101.78366,268.61463 c 0.01,0.0113 0.0261,0.0376 0.0444,0.0356 0.087,-0.01 0.0779,-0.15709 0.14422,-0.16439 l 0.0401,-0.004 -0.004,-0.0401 c -0.003,-0.0308 -0.0137,-0.039 -0.0444,-0.0357 -0.0361,0.004 -0.0362,0.0103 -0.0703,0.0196 l 0.0202,-0.0998 0.0146,0.003 -0.0131,-0.1202 c -0.0367,-0.005 -0.0265,-0.0106 -0.0549,-0.008 -0.0177,0.002 -0.0777,0.35983 -0.0764,0.41383 z"
       id="path2473"
       style="clip-rule:evenodd;fill:#2b2a29;fill-rule:evenodd;stroke-width:0.013268;image-rendering:optimizeQuality;shape-rendering:geometricPrecision;text-rendering:geometricPrecision" />
    <path
       class="fil25"
       d="m 101.78366,268.61463 c -10e-4,-0.054 0.0586,-0.41184 0.0764,-0.41383 0.0283,-0.003 0.0181,0.003 0.0549,0.008 l 0.0131,0.1202 -0.0146,-0.003 -0.0202,0.0998 c 0.0341,-0.009 0.0342,-0.0157 0.0703,-0.0196 0.0306,-0.003 0.041,0.005 0.0444,0.0357 l 0.004,0.0401 -0.0401,0.004 c -0.0663,0.007 -0.0572,0.15484 -0.14422,0.16439 -0.0183,0.002 -0.0349,-0.0243 -0.0444,-0.0356 z m -0.33953,-0.13865 c -0.0247,-0.22609 0.0169,-0.34099 0.0381,-0.51772 0.0307,0.005 0.0403,-10e-4 0.0445,0.0357 l 0.007,0.0667 c 0.009,0.0832 -0.0257,0.2582 -0.0198,0.31299 l 0.0161,0.14675 c 0.15006,-0.0196 0.15457,-0.12472 0.25249,-0.16267 -0.0322,0.0914 -0.1084,0.22808 -0.23047,0.24135 l -0.0267,0.003 c -0.031,0.003 -0.0707,-0.0283 -0.074,-0.0594 l -0.007,-0.0667 z m 0.63368,-1.74474 0.0174,0.18774 0.0398,0.13905 0.0399,0.0681 c -0.0455,0.0159 -0.0421,0.0316 -0.0906,0.0369 l -0.16014,0.0175 c -0.0457,0.005 -0.0953,-0.009 -0.11265,-0.0418 -0.25023,0.0275 -0.52926,0.44594 -0.62147,0.622 l 0.0253,0.10535 0.0584,0.53404 0.0267,-0.003 c -0.0168,-0.15338 0.10495,-0.76822 0.21215,-0.77989 l 0.0267,-0.003 c 0.0403,-0.004 0.0386,0.0117 0.0459,0.049 -0.10004,0.0195 -0.15311,0.36394 -0.16214,0.46663 -0.009,0.10416 -0.0297,0.17408 -0.0259,0.28367 0.001,0.0462 -0.0253,0.26364 -0.0229,0.28606 0.003,0.0303 0.12153,0.0678 0.16903,0.0628 l 0.18695,-0.0206 -0.003,-0.0267 c 0.16386,-0.0179 0.57317,-0.30795 0.58976,-0.41568 l -0.0667,0.007 c -0.003,-0.10335 0.079,-0.0322 0.13387,-0.11185 0.0296,-0.0427 0.0361,-0.15006 0.0935,-0.15629 l 0.0602,-0.004 -0.065,0.20684 c 0.0651,0.008 0.12206,0.0543 0.18084,0.0478 0.0363,-0.004 0.11265,-0.21945 0.13361,-0.25806 0.0433,-0.0792 0.11344,-0.15551 0.17474,-0.22516 0.0613,-0.0694 0.37694,-0.32719 0.46451,-0.35784 l -0.004,-0.0401 c -0.008,-0.0713 -0.24705,-0.15868 -0.24891,-0.17553 -0.005,-0.0475 0.26536,-0.29177 0.26019,-0.33927 l -0.007,-0.0667 c -0.0291,-0.26629 -0.36075,-0.66314 -0.61006,-0.63594 -0.01,-0.0113 -0.0261,-0.0377 -0.0444,-0.0357 -0.0204,0.002 -0.34948,0.231 -0.37893,0.25607 -0.0583,0.0498 -0.32241,0.2513 -0.31485,0.31976 z"
       id="path2475"
       style="clip-rule:evenodd;fill:#fdfefe;fill-rule:evenodd;stroke-width:0.013268;image-rendering:optimizeQuality;shape-rendering:geometricPrecision;text-rendering:geometricPrecision" />
    <path
       class="fil2"
       d="m 104.44681,269.12081 c 0.0498,0.0553 0.18164,0.11596 0.19703,0.19464 l -0.0417,-0.0244 -0.0548,0.008 c -0.0965,-0.0504 -0.42338,-0.0265 -0.45071,-0.16691 l -0.0399,0.004 -0.006,-0.0533 c 0.0909,-0.0119 0.0387,-0.0312 0.0906,-0.0369 l 0.0133,-10e-4 c 0.003,-2.7e-4 0.13613,0.008 0.17461,0.0102 0.0586,0.003 0.0837,0.0285 0.11755,0.0659 z m -1.21177,0.78095 0.0115,0.10694 c 0.0123,0.11198 0.15789,0.2501 0.28287,0.23935 0.0139,-0.0494 0.50697,-0.36155 0.58897,-0.40414 0.0996,-0.0516 0.22821,-0.13215 0.32334,-0.17885 0.0557,-0.0275 0.11636,-0.0612 0.17142,-0.0816 0.0463,-0.0172 0.1762,-0.047 0.17116,-0.0941 l -0.0117,-0.10681 c -0.002,-0.02 -0.16094,-0.27571 -0.18204,-0.30437 -0.0661,-0.0904 -0.16187,-0.17155 -0.31405,-0.15483 -0.17023,0.0186 -0.31525,0.06 -0.46385,0.0781 -0.21892,0.0269 -0.26032,0.0456 -0.40786,0.12326 -0.1283,0.0675 -0.19251,0.56959 -0.16983,0.77723 z"
       id="path2477"
       style="clip-rule:evenodd;fill:#2b2a29;fill-rule:evenodd;stroke-width:0.013268;image-rendering:optimizeQuality;shape-rendering:geometricPrecision;text-rendering:geometricPrecision" />
    <path
       class="fil2"
       d="m 103.74759,270.26477 0.17354,-0.0188 c 0.1011,-0.085 0.0754,-0.0353 0.21083,-0.0501 0.0166,-0.002 0.36659,-0.22025 0.39499,-0.24307 0.11901,-0.0953 0.29309,-0.13733 0.27053,-0.34311 l -0.004,-0.0401 c -0.0434,0.0169 -0.18004,0.13891 -0.24572,0.18044 -0.0958,0.0605 -0.18018,0.10827 -0.27266,0.17089 -0.0911,0.0618 -0.49383,0.28633 -0.52727,0.34404 z"
       id="path2479"
       style="clip-rule:evenodd;fill:#2b2a29;fill-rule:evenodd;stroke-width:0.013268;image-rendering:optimizeQuality;shape-rendering:geometricPrecision;text-rendering:geometricPrecision" />
    <path
       class="fil2"
       d="m 104.76272,270.77546 -0.0419,0.23431 c -0.0135,0.0257 -0.0241,0.0264 -0.021,0.0563 l 0.006,0.0533 c 0.003,0.0308 0.0137,0.0391 0.0444,0.0357 l 0.0133,-0.001 c 0.03,-0.003 0.0283,-0.0138 0.0444,-0.0334 l 0.0182,-0.1356 c 0.065,0.01 0.0543,0.0505 0.0999,0.0466 l 0.3719,-0.0576 c 0.0211,-0.0178 0.0502,-0.0349 0.046,-0.0726 -0.007,-0.0674 -0.0965,-0.10707 -0.14078,-0.14329 -0.0475,-0.0387 -0.10561,-0.11477 -0.13971,-0.13905 l -0.0452,-0.0978 -0.17501,0.003 c -0.0147,0.0602 -0.0965,0.10721 -0.0805,0.25196 z"
       id="path2481"
       style="clip-rule:evenodd;fill:#2b2a29;fill-rule:evenodd;stroke-width:0.013268;image-rendering:optimizeQuality;shape-rendering:geometricPrecision;text-rendering:geometricPrecision" />
    <path
       class="fil26"
       d="m 107.71962,272.11446 c 0.005,0.0427 0.0636,0.0784 0.10628,0.0833 l 0.005,-0.29826 c -0.0237,0.0199 -0.11278,0.20419 -0.11172,0.21494 z"
       id="path2483"
       style="clip-rule:evenodd;fill:#eeeeef;fill-rule:evenodd;stroke-width:0.013268;image-rendering:optimizeQuality;shape-rendering:geometricPrecision;text-rendering:geometricPrecision" />
    <path
       class="fil2"
       d="m 107.71962,272.11446 c -0.001,-0.0108 0.0878,-0.19504 0.11172,-0.21494 l -0.005,0.29826 c -0.0427,-0.005 -0.10163,-0.0406 -0.10628,-0.0833 z m -1.39075,-5.18553 0.001,0.0133 c 0.002,0.018 0.26337,0.17567 0.32441,0.24825 -0.0494,0.0943 -0.29641,0.27663 -0.29296,0.41037 0.0531,-0.0117 0.14581,-0.17261 0.19583,-0.22038 0.0437,-0.0417 0.2233,-0.14395 0.29004,-0.15696 l -0.0138,0.005 0.31008,0.86959 0.0271,0.0373 0.36222,1.05998 0.0671,0.0943 c -0.0409,0.0143 -0.0917,0.0263 -0.0862,0.077 l 0.006,0.0533 c 0.006,0.0556 0.0931,0.16333 0.10813,0.24439 0.0208,0.11185 -0.002,0.24122 0.11782,0.231 l 0.0353,0.18522 0.0267,-0.003 -0.0146,-0.13348 c 0.0231,0.0265 0.0316,0.0413 0.037,0.0906 l 0.001,0.0133 c 0.0468,0.42922 -0.48282,1.0227 -0.47367,1.10576 l 0.004,0.0399 c 0.11636,-0.0153 0.0996,-0.0589 0.16346,-0.11238 0.0713,0.0283 0.17062,0.0811 0.20592,0.15312 l 0.0401,-0.004 c 0.052,-0.006 0.61882,0.33369 0.77631,0.33462 l 0.0269,0.0911 0.0667,-0.007 -0.005,-0.0584 0.27478,0.0559 c -0.0298,-0.077 -0.2424,-0.11556 -0.24745,-0.16213 -0.007,-0.0628 0.23233,-0.25448 0.28474,-0.30742 0.10534,-0.10654 0.26788,-0.16439 0.37084,-0.24944 l 0.15855,-0.0321 0.0401,-0.004 c 0.0283,-0.003 0.62067,0.1896 0.70493,0.21441 0.0663,0.0194 0.26005,0.11902 0.31206,0.15749 0.0515,0.0383 0.0869,0.0626 0.13348,0.10694 0.0413,0.0391 0.0937,0.11849 0.13161,0.12433 l 0.006,0.0533 0.0267,-0.003 0.004,0.0401 c 0.002,0.0222 0.0482,0.0694 0.0576,0.15577 l 0.006,0.0535 c 0.01,0.0865 -0.21123,0.61245 -0.25939,0.68091 -0.0799,0.11371 -0.16306,0.13918 -0.27743,0.21574 -0.0478,0.032 -0.29336,0.15338 -0.36116,0.16081 l 0.003,0.0267 -0.0399,0.004 c -0.0537,0.006 -0.11569,0.10535 -0.2018,0.1165 l -0.0816,-0.47487 -0.0375,-0.0119 0.0374,0.49583 c -0.063,-0.01 -0.0736,-0.18695 -0.0945,-0.24639 -0.0427,0.006 -0.0671,0.003 -0.0624,0.0472 l 0.0158,0.20155 0.10176,0.52912 0.0147,0.007 0.0344,-0.0797 c 0.0234,0.004 0.0551,0.01 0.0577,0.0342 0.0177,0.16134 -0.24572,0.43413 -0.35797,0.51652 -0.11384,0.0835 -0.43612,0.31352 -0.60329,0.3317 l -0.0667,0.007 c -0.21455,0.0235 -0.98236,-0.77976 -1.19133,-0.76158 -0.0277,-0.25422 0.35319,-0.76145 0.51055,-0.8936 l 0.0686,-0.005 0.0349,-0.0305 0.0552,0.005 c -0.0147,-0.11211 -0.25886,-0.30702 -0.32851,-0.40998 0.0713,-0.0935 0.0941,-0.25116 0.0764,-0.4137 l -0.019,-0.17354 c -0.003,-0.0313 -0.028,-0.051 -0.0592,-0.0476 -0.0742,0.008 -0.0898,0.21574 -0.15921,0.27425 -0.0121,-0.13865 0.16014,-0.51228 0.15377,-0.57092 -0.003,-0.0312 -0.028,-0.051 -0.0593,-0.0475 -0.084,0.009 -0.13055,0.34841 -0.24943,0.38954 l 0.0468,-0.25036 0.0135,0.003 -8e-4,-0.14833 -0.001,-0.0134 c -0.003,-0.0306 -0.0137,-0.039 -0.0444,-0.0357 l -0.0267,0.003 c -0.0443,0.005 -0.0283,0.0381 -0.0728,0.0755 l -0.003,-0.0267 -0.0667,0.007 c -0.007,-0.0374 -0.006,-0.0535 -0.0459,-0.0491 l -0.0134,10e-4 c -0.0386,0.004 -0.0885,0.13772 -0.1027,0.17341 -0.0306,-0.004 -0.0321,-0.01 -0.0682,-0.006 l -0.0133,10e-4 c -0.10946,0.0119 -0.20884,0.19212 -0.19491,0.31856 l 0.0102,0.0935 c 0.0107,0.0983 0.1003,0.16015 0.1612,0.20884 0.0345,0.0276 0.17846,0.15072 0.203,0.15669 l 0.006,0.0533 c 0.006,0.0517 -0.0679,0.25063 -0.10734,0.25488 -0.20446,0.0224 -0.67136,-0.50777 -0.7304,-0.50126 l -0.0401,0.004 c -0.031,0.003 -0.0628,0.0429 -0.0594,0.074 l 0.003,0.0268 c 0.003,0.0326 0.21096,0.32361 0.23763,0.33913 l 0.0344,0.17156 0.0117,0.10694 c 0.01,0.0882 -0.19716,0.17009 -0.3045,0.1819 l -0.0801,0.009 c -0.0756,0.008 -0.2237,-0.25316 -0.25979,-0.32865 -0.047,-0.0982 -0.11795,-0.40016 -0.21056,-0.39008 l -0.0267,0.003 c -0.0433,0.005 -0.0616,0.0559 -0.0567,0.10084 l 0.009,0.0801 0.0267,-0.003 c 0.01,0.0916 0.0345,0.0683 0.0413,0.13056 l 0.0511,0.46743 c 0.003,0.0306 -0.005,0.041 -0.0357,0.0444 l -0.30716,0.0334 c -0.0321,0.004 -0.0417,-0.0172 -0.0636,-0.0357 l -0.0608,-0.14025 -0.0324,-0.14475 c -0.0657,-0.0781 -0.091,-0.36845 -0.18774,-0.35784 l -0.0401,0.004 c -0.035,0.004 -0.0524,0.0464 -0.0405,0.0713 l 0.0709,0.33077 0.0219,0.20035 c 0.0141,0.12936 -0.15125,0.12472 -0.28207,0.13904 -0.0223,0.0187 -0.0206,0.0292 -0.0506,0.0325 l -0.37389,0.0409 -0.006,-0.0533 0.0348,-0.003 -0.0395,-0.65836 c 0.006,-0.0115 0.0231,-0.0358 0.0223,-0.0429 -0.007,-0.0663 -0.5071,-0.28805 -0.53178,-0.41489 -0.13414,0.003 -0.17488,-0.30198 -0.31406,-0.29043 l -0.0562,-0.12472 -0.35134,-0.87078 c -0.0142,-0.13029 -0.15855,-0.50763 -0.20565,-0.65425 -0.0228,-0.0712 -0.0723,-0.27862 -0.0804,-0.35505 -0.0167,-0.15935 -0.0535,-0.2428 -0.0675,-0.37097 l -0.035,-0.32056 c -0.0123,-0.11211 -5.3e-4,-0.20897 0.004,-0.30105 0.005,-0.0988 0.072,-0.23816 0.0695,-0.26098 l -0.001,-0.0133 c -0.003,-0.0308 -0.0137,-0.0391 -0.0444,-0.0357 l -0.0133,0.001 c -0.0468,0.005 -0.0724,0.0683 -0.0981,0.0918 l -0.0219,-0.20035 c 0.0202,-0.0107 0.13494,-0.25196 0.17328,-0.29932 0.0797,-0.0985 0.14237,-0.16267 0.23737,-0.24812 0.12167,-0.10946 0.45575,-0.30874 0.61776,-0.39313 0.23086,-0.12047 0.46862,-0.20393 0.73252,-0.28884 0.14144,-0.0456 0.25143,-0.0792 0.40401,-0.11424 0.0525,-0.0119 0.18084,-0.0342 0.22397,-0.0394 0.11357,-0.0138 0.15762,-0.0437 0.22475,-0.0511 l 0.45404,-0.0496 c 0.1287,-0.0141 0.49675,0.0161 0.56057,0.0604 -0.0427,0.006 -0.0671,0.003 -0.0624,0.0474 z m -4.25106,-0.19769 c -0.008,-0.0685 0.25673,-0.27 0.31485,-0.31976 0.0294,-0.0251 0.3585,-0.25395 0.37893,-0.25607 0.0183,-0.002 0.0349,0.0244 0.0444,0.0357 0.24917,-0.0272 0.58087,0.36965 0.61006,0.63594 l 0.007,0.0667 c 0.005,0.0474 -0.26536,0.29177 -0.26019,0.33927 0.002,0.0168 0.24108,0.10415 0.24891,0.17553 l 0.004,0.0401 c -0.0874,0.0306 -0.40321,0.28845 -0.46451,0.35784 -0.0613,0.0696 -0.13162,0.14595 -0.17474,0.22516 -0.021,0.0386 -0.0973,0.25408 -0.13361,0.25806 -0.0588,0.006 -0.1157,-0.0399 -0.18084,-0.0478 l 0.065,-0.20684 -0.0602,0.004 c -0.0575,0.006 -0.064,0.11357 -0.0935,0.15629 -0.0551,0.0795 -0.13652,0.008 -0.13387,0.11185 l 0.0667,-0.007 c -0.0165,0.10773 -0.4259,0.39777 -0.58976,0.41568 l 0.003,0.0267 -0.18695,0.0206 c -0.0475,0.005 -0.16572,-0.0325 -0.16903,-0.0628 -0.002,-0.0226 0.0245,-0.23989 0.0229,-0.28606 -0.004,-0.10959 0.0167,-0.17965 0.0259,-0.28367 0.009,-0.10269 0.0622,-0.44726 0.16214,-0.46663 -0.007,-0.0373 -0.005,-0.0533 -0.0459,-0.049 l -0.0267,0.003 c -0.10707,0.0117 -0.22887,0.62651 -0.21215,0.77989 l -0.0267,0.003 -0.0584,-0.53404 -0.0253,-0.10535 c 0.0922,-0.17606 0.37124,-0.59454 0.62147,-0.622 0.0175,0.0326 0.0671,0.0468 0.11265,0.0418 l 0.16014,-0.0175 c 0.0486,-0.005 0.0451,-0.021 0.0906,-0.0369 l -0.0399,-0.0681 -0.0398,-0.13905 z m 5.43152,-1.24202 0.006,0.0533 c 0.19756,-0.0216 0.55925,0.29521 0.58207,0.50392 l 0.0102,0.0935 c 0.0158,0.14435 -0.0969,0.18708 -0.11344,0.32321 0.1279,-0.0249 0.28539,-0.34205 0.46066,-0.36116 l 0.0533,-0.006 c 0.10375,-0.0113 0.20273,0.0563 0.23113,0.13693 0.0427,-0.006 0.0673,-0.003 0.0624,-0.0472 l -0.007,-0.0667 c 0.10455,-0.003 0.0746,0.11105 0.14966,0.13228 0.008,0.0701 0.17554,0.38265 0.21587,0.47446 0.0476,0.108 0.14966,0.39857 0.16506,0.53789 l 0.0175,0.16014 -0.0728,0.12154 c -0.29057,0.0261 -0.41768,0.16173 -0.5834,0.17978 l -0.0535,0.006 0.003,0.0268 -0.20035,0.0218 c -0.0532,0.006 -0.25116,-0.0269 -0.27956,-0.0464 -0.0691,-0.0475 -0.11477,-0.10084 -0.15762,-0.18297 -0.0551,-0.10534 -0.18429,-0.39193 -0.30503,-0.37867 l -0.0935,0.0102 c -0.12883,0.0141 -0.39446,0.3248 -0.41171,0.43678 l -0.0399,0.004 -0.25276,-0.57105 c 0.0634,-0.0455 0.40866,-0.35227 0.40003,-0.43134 -0.003,-0.0308 -0.0137,-0.039 -0.0444,-0.0357 -0.0565,0.006 -0.005,0.0192 -0.0624,0.0474 l -0.007,-0.0667 c -0.0107,-0.0987 -0.0399,-0.23418 -0.0675,-0.32559 -0.0178,-0.0587 -0.1003,-0.22038 -0.10495,-0.26364 l -10e-4,-0.0134 c -0.0106,-0.0975 0.38345,-0.33435 0.43838,-0.4397 l -0.0399,0.004 c -0.13387,0.0176 -0.4945,0.29733 -0.48136,0.41754 l 0.007,0.0667 c 0.0119,0.10946 0.076,0.22715 0.11304,0.34457 0.0285,0.0901 0.0828,0.27743 0.0992,0.36195 l -0.33554,0.32878 -0.26948,-0.18204 -0.0805,0.009 c -0.0544,-0.0284 -0.31047,-0.10124 -0.38849,-0.0927 l -0.0401,0.004 -0.003,-0.0267 -0.49967,-0.009 -0.24055,0.0356 c -0.35518,0.0387 -0.67707,0.13984 -0.97135,0.23113 -0.13241,0.041 -0.28354,0.11012 -0.41502,0.16624 -0.10044,0.0429 -0.29774,0.17103 -0.38743,0.18841 -0.0491,-0.13985 -0.19199,-0.10522 -0.21175,-0.20658 l 0.15125,-0.17076 0.0179,0.009 -0.0596,0.17687 0.0151,0.01 0.10124,-0.15935 -0.003,-0.19995 -0.006,-0.0265 -0.0577,-0.24997 c -0.0878,-0.10946 -0.11145,-0.20353 -0.23617,-0.30941 -0.0537,-0.0458 -0.27094,-0.1762 -0.35306,-0.16718 l -0.10681,0.0117 c -0.0299,0.003 -0.0283,0.0137 -0.0506,0.0325 l -0.0801,0.009 c -0.0422,0.0354 -0.14754,0.0805 -0.20353,0.11676 -0.0775,0.0501 -0.0988,0.0781 -0.1693,0.13201 -0.0738,0.0563 -0.2919,0.22264 -0.28102,0.32255 l 0.0206,0.18695 0.0502,0.19689 -0.14847,0.0165 c -0.0491,0.005 -0.0354,-0.0368 -0.0845,-0.0313 l -0.0935,0.0102 c -0.14064,0.0154 -0.35359,0.23988 -0.41024,0.32838 -0.0421,0.0657 -0.26894,0.38 -0.26165,0.44766 l 0.0102,0.0935 c 0.005,0.0504 0.0423,0.0854 0.0665,0.11424 l 0.0888,0.72005 c 0.0329,0.0346 0.0448,0.0896 0.0937,0.0843 0.15696,-0.0171 0.11384,0.0281 0.24466,0.0138 l 0.12021,-0.0131 c 0.11185,-0.0122 0.37336,-0.17142 0.45124,-0.22237 0.0585,-0.0382 0.31074,-0.32029 0.31366,-0.32056 0.0371,-0.004 0.16253,0.0706 0.23723,0.0687 l 0.0102,0.0934 c 0.005,0.0492 0.0434,0.0267 0.0488,0.0758 l 0.003,0.0267 c 0.0165,0.15125 -0.0571,0.29985 -0.0247,0.51625 l 0.13109,0.91841 0.0425,0.034 c 0.01,0.1084 0.063,0.42352 0.1413,0.44554 l 0.084,0.23683 c 0.021,0.10575 0.15006,0.31658 0.19703,0.42975 0.0409,0.0981 0.18946,0.29216 0.22595,0.38623 l -0.0643,0.0232 0.0159,0.0502 0.064,-0.049 c 0.002,0.0545 -0.17407,0.21083 -0.21706,0.26443 -0.0743,0.0925 -0.13984,0.17421 -0.21401,0.26669 -0.0669,0.0834 -0.37602,0.47671 -0.47049,0.48693 -0.0754,0.008 -0.42749,-0.3451 -0.46955,-0.34046 l -0.0267,0.003 c -0.0321,0.003 -0.0369,0.0259 -0.0624,0.0474 l -0.22622,-0.0985 c 0.003,-0.0292 0.009,-0.0306 0.005,-0.0667 l -0.003,-0.0267 c -0.003,-0.0313 -0.0279,-0.0509 -0.0592,-0.0476 l -0.0401,0.004 c -0.19677,0.0215 -1.21283,0.91854 -1.20938,1.05096 l -0.0267,0.003 -0.006,-0.0533 c -0.005,-0.046 -0.0155,-0.0505 -0.0236,-0.0919 -0.0395,0.008 -0.0657,0.0169 -0.0609,0.0606 l 0.009,0.0801 c 0.0471,0.43094 0.36368,0.92146 0.65385,1.03662 l 0.0533,-0.006 c -0.15046,-0.10456 -0.55567,-0.63289 -0.58141,-0.86892 l -0.004,-0.0399 0.0399,-0.004 c 0.0356,-0.004 0.10575,-0.0223 0.10257,-0.0517 -0.003,-0.0299 -0.0138,-0.0281 -0.0326,-0.0504 0.0589,-0.11278 0.88537,-0.85592 1.02229,-0.90899 0.0126,0.0962 0.1161,0.0861 0.20659,0.13719 0.0773,0.0436 0.15391,0.072 0.22741,0.11118 0.15524,0.0825 0.28884,0.17726 0.43134,0.25157 0.25807,-0.0283 0.326,-0.20765 0.52714,-0.24666 -0.005,0.0423 -0.0106,0.075 -0.0164,0.12074 -0.003,0.0253 -0.0409,0.10641 -0.0418,0.1157 l 0.0324,0.14475 0.0425,-0.009 0.1405,-0.53046 0.0185,0.004 0.005,0.20181 c 0.0306,0.004 0.0321,0.01 0.0682,0.006 0.0476,-0.005 0.077,-0.28526 0.0732,-0.31883 l -0.006,-0.0533 0.0268,-0.003 0.0188,0.17355 c 0.005,0.0476 0.0182,0.10614 0.0651,0.10097 l 0.0401,-0.004 -0.003,-0.0267 0.0263,-0.003 -0.0861,-0.54465 c -0.009,-0.0551 0.0965,-0.0873 0.0877,-0.18456 l 0.0417,0.008 0.004,0.0401 c -0.0421,0.0192 0.0588,0.0937 0.0981,0.13812 l 6.7e-4,0.14833 c 0.0636,0.0154 0.0155,0.0313 0.0663,0.054 0.0516,0.023 0.0528,-0.0198 0.0804,0.0516 -0.16373,0.10176 -0.71647,0.86228 -0.69285,1.0763 l 0.0502,-0.0332 c 0.10946,0.057 0.30211,0.17434 0.38955,0.25819 0.0596,0.0571 0.29295,0.29946 0.30198,0.38239 0.003,0.0267 -0.39526,0.60687 -0.44382,0.66684 -0.0586,0.0725 -0.49927,0.57729 -0.55526,0.58048 l -0.17355,-0.005 -0.16757,-0.0289 -0.006,-0.0533 c -0.1494,0.0525 -0.35718,-0.15365 -0.4677,-0.22171 -0.0556,-0.0342 -0.37575,-0.31498 -0.39313,-0.35996 -0.0252,-0.0299 -0.045,-0.0491 -0.0992,-0.0433 -0.0308,0.003 -0.0391,0.0137 -0.0357,0.0444 0.001,0.0115 0.19424,0.22304 0.216,0.24665 0.0747,0.0809 0.15577,0.14317 0.24294,0.21322 0.0955,0.0767 0.16001,0.11901 0.26761,0.18243 0.0479,0.0283 0.26417,0.12326 0.31631,0.12194 0.0318,0.0908 0.0589,0.14223 0.17633,0.12936 l 0.0267,-0.003 c 0.10548,-0.0115 0.58485,-0.50723 0.66061,-0.60237 0.0828,-0.10402 0.46253,-0.64615 0.47526,-0.75123 l 0.0267,-0.003 0.0211,0.0652 c 0.0188,-0.0175 0.026,-0.005 0.0219,-0.0429 l -0.0131,-0.12021 c -0.0319,-0.29097 -0.48747,-0.69498 -0.70321,-0.74738 0.006,-0.0498 0.56429,-0.87145 0.61577,-0.91855 0.0342,0.0178 0.42524,0.30636 0.42656,0.31817 l 0.0131,0.12021 c 0.0107,0.0987 0.0196,0.22356 0.0131,0.31511 -0.004,0.0523 -0.0309,0.26404 -0.0305,0.26775 l 0.007,0.0667 c 0.004,0.0407 0.0187,0.0525 0.0354,0.0772 l 0.14834,4e-4 0.40069,-0.0468 c 0.11437,-0.0125 0.1904,-0.0748 0.31459,-0.0884 l 0.0659,-0.0819 0.0188,-0.008 c 0.0273,0.0703 0.11848,0.1222 0.20154,0.11304 l 0.18694,-0.0204 c 0.20155,-0.0222 0.18987,-0.0371 0.29694,-0.12711 l -0.004,-0.1884 c 0.0491,0.0304 0.12751,0.21534 0.24838,0.2022 l 0.17354,-0.0188 c 0.18894,-0.0207 0.41224,-0.18495 0.39234,-0.36726 l -0.0219,-0.20034 c 0.0983,0.0151 0.21548,0.19265 0.41065,0.17129 l 0.0267,-0.003 c 0.11039,-0.0119 0.14143,-0.0855 0.1758,-0.16346 0.0178,-0.0405 0.0689,-0.19557 0.0638,-0.24108 l -0.007,-0.0667 c -0.013,-0.11902 -0.22675,-0.22038 -0.23246,-0.27186 -0.003,-0.0283 0.003,-0.018 0.008,-0.0548 l 0.0267,-0.003 c 0.0156,0.0399 0.12326,0.14728 0.16173,0.19292 0.0442,0.0521 0.11411,0.16147 0.16055,0.17938 0.0934,0.036 0.27225,0.29283 0.37375,0.30835 l 0.004,0.0401 c 0.003,0.0249 -0.17089,0.15948 -0.19862,0.19384 -0.0588,0.0723 -0.11304,0.13229 -0.16014,0.21256 -0.0377,0.0639 -0.1161,0.18217 -0.13587,0.24426 -0.0127,0.0399 -0.0824,0.23883 -0.10933,0.25315 l 0.002,0.17514 c 0.003,0.0267 0.0388,0.0598 0.052,0.0758 0.21123,-0.023 0.50233,0.28765 0.64151,0.3995 0.11835,0.0951 0.48694,0.39605 0.65955,0.37734 l 0.0533,-0.006 c 0.11238,-0.0123 0.14701,-0.0836 0.28646,-0.0989 0.0111,-0.0394 0.22343,-0.12817 0.27332,-0.17036 0.0795,-0.0671 0.15284,-0.1283 0.23059,-0.19239 0.10575,-0.0872 0.30955,-0.35399 0.28978,-0.5347 l -0.0175,-0.16028 c -0.007,-0.0612 -0.0483,-0.0712 -0.0575,-0.15576 -0.003,-0.0245 0.21335,-0.15855 0.27916,-0.16559 l -0.003,-0.0268 0.13149,-0.0303 c 0.0261,-0.0467 0.26416,-0.14688 0.33064,-0.19544 0.13453,-0.0978 0.16107,-0.10574 0.25116,-0.24904 0.0447,-0.0711 0.26204,-0.61563 0.25302,-0.69829 l -0.0146,-0.13361 c -0.0322,-0.29548 -0.4182,-0.55659 -0.62863,-0.65836 -0.11703,-0.0565 -0.8063,-0.27942 -0.94508,-0.26416 -0.22516,0.0245 -0.39565,0.1762 -0.5351,0.27677 -0.086,0.062 -0.13984,0.11755 -0.21189,0.1831 -0.0653,0.0596 -0.13547,0.17155 -0.17978,0.20883 -0.15577,-0.0617 -0.26642,-0.10786 -0.41688,-0.17858 -0.10203,-0.048 -0.31498,-0.16028 -0.44289,-0.14635 -0.0354,-0.0421 -0.0998,-0.0479 -0.10521,-0.0966 -1.3e-4,-0.002 0.12485,-0.19371 0.13825,-0.21799 0.0419,-0.0763 0.0819,-0.15258 0.12339,-0.2298 0.0833,-0.15484 0.14237,-0.30703 0.11557,-0.55275 l -0.0117,-0.10681 c -0.002,-0.0167 -0.0934,-0.11543 -0.11596,-0.14395 -0.0777,-0.0991 -0.0293,-0.0715 -0.0422,-0.19013 -0.007,-0.0592 -0.0311,-0.1303 -0.0478,-0.18337 -0.0328,-0.10389 -0.0674,-0.064 -0.0823,-0.14024 l 0.0401,-0.004 c -0.0184,-0.16903 -0.37004,-1.23764 -0.4263,-1.30464 l -0.0648,-0.20884 c 0.0721,-0.0279 0.13454,-0.15935 0.1835,-0.21972 0.0302,-0.0373 0.18615,-0.18044 0.19106,-0.19995 l 0.14687,-0.0161 c 0.015,0.13759 0.1835,0.38544 0.26311,0.4612 0.14117,0.1344 0.2562,0.17115 0.51904,0.14249 0.0928,-0.0101 0.22941,-0.0471 0.3045,-0.0722 0.0702,-0.0235 0.15975,-0.0917 0.24719,-0.11835 0.0942,-0.0285 0.22767,-0.0267 0.29189,-0.0823 0.0401,-0.0348 0.10933,-0.15735 0.10216,-0.22237 l -0.006,-0.0533 c -0.0265,-0.24281 -0.13282,-0.58618 -0.22264,-0.75429 -0.0655,-0.12246 -0.24705,-0.57265 -0.38026,-0.55818 l -0.0401,0.004 c -0.0298,0.003 -0.0281,0.0138 -0.0506,0.0326 -0.0248,-0.013 -0.14608,-0.0787 -0.17036,-0.076 l -0.16028,0.0175 c -0.0747,0.008 -0.15736,0.0927 -0.20194,0.13016 l -0.0417,-0.25222 c -0.0502,-0.0604 -0.0448,-0.0787 -0.11251,-0.14754 -0.0403,-0.0409 -0.084,-0.0946 -0.1295,-0.12698 -0.0667,-0.0475 -0.23856,-0.17301 -0.33223,-0.1628 l -0.0133,0.001 c -0.0409,0.005 -0.0525,0.0187 -0.0772,0.0356 z"
       id="path2485"
       style="clip-rule:evenodd;fill:#2b2a29;fill-rule:evenodd;stroke-width:0.013268;image-rendering:optimizeQuality;shape-rendering:geometricPrecision;text-rendering:geometricPrecision" />
    <g
       id="g2489"
       style="clip-rule:evenodd;fill-rule:evenodd;image-rendering:optimizeQuality;shape-rendering:geometricPrecision;text-rendering:geometricPrecision"
       transform="matrix(0.01326799,0,0,0.01326799,-399.46495,188.19814)">
      <path
         class="fil4"
         d="m 38223.06,6325.03 c -0.05,-0.5 0.03,-1.16 0.27,-1.83 h 0.01 c 0.17,-0.5 0.45,-1.18 0.77,-1.91 h 0.01 c 0.32,-0.75 0.74,-1.64 1.19,-2.61 2.23,-4.71 5.75,-11.28 7.29,-12.56 l 5.26,-4.39 -0.13,6.84 -0.38,21.36 c 0.36,-0.77 0.67,-1.56 0.96,-2.37 v -0.02 c 2.23,-6.3 2.79,-14.4 1.88,-22.7 l -1.42,-13.09 h 0.01 l -0.01,-0.06 h -0.01 c -0.02,-0.11 -0.05,-0.2 -0.08,-0.29 l -0.08,-0.17 v 0.01 c -0.13,-0.2 -0.44,-0.32 -0.84,-0.27 -1.11,0.12 -2.52,4.06 -3.99,8.15 l 0.01,0.01 c -1.63,4.54 -3.32,9.23 -6.34,11.78 l -4.73,3.98 -0.42,-6.17 -0.03,-0.46 v -0.08 c -0.31,-7.02 4.12,-19.6 7.66,-29.67 2.23,-6.36 4.09,-11.64 3.98,-12.71 h 0.01 l -0.02,-0.08 v 0 c -0.05,-0.26 -0.14,-0.45 -0.28,-0.56 -0.14,-0.11 -0.38,-0.17 -0.66,-0.15 V 6265 l -0.08,0.01 v 0.01 c -1.09,0.12 -3.11,5.1 -5.33,10.59 -3.17,7.84 -6.68,16.49 -12.75,18.62 l -5.11,1.78 0.99,-5.31 3.52,-18.9 0.6,-3.19 0.35,0.08 -0.03,-6.98 -0.1,-0.87 -1.91,0.21 h -0.01 c -0.17,0.03 -0.29,0.27 -0.47,0.61 -0.61,1.21 -1.37,2.71 -3.35,4.37 l -4.49,3.79 -0.52,-4.73 -1.9,0.2 -2.89,0.32 -0.54,-2.88 -0.15,-0.81 v -0.02 c -0.04,-0.21 0.26,-0.33 0.11,-0.32 l -0.78,0.08 -0.08,0.02 c -1.13,0.59 -3.87,7.51 -5,10.36 l -0.29,0.75 -0.9,2.26 -2.43,-0.31 c -1.03,-0.13 -1.55,-0.24 -2.01,-0.35 l -0.02,-0.02 c -0.61,-0.14 -1.06,-0.23 -2.4,-0.09 l -0.99,0.11 v -0.01 l -0.12,0.02 c -3.01,0.4 -6.06,3.37 -8.34,7.23 -2.4,4.09 -3.84,9.05 -3.46,13.11 h 0.01 l 0.02,0.22 0.76,7.04 c 0.6,5.46 5.74,9.5 9.77,12.67 v 0.02 l 1.19,0.93 0.01,0.02 0.13,0.1 0.04,0.02 2.51,2.07 h 0.01 c 3.99,3.31 10.68,8.85 11.42,9.03 l 2.14,0.54 0.23,2.18 0.44,4.01 0.01,0.1 0.02,0.27 v 0.11 c 0.1,2.49 -1.23,7.51 -3,11.95 -1.92,4.85 -4.64,9.31 -7.12,10.07 l -0.26,0.08 -0.2,0.04 -0.2,0.05 -0.23,0.02 -0.68,0.05 h -0.14 c -11.42,0.35 -29.85,-16.2 -42.81,-27.84 -6.31,-5.67 -11.15,-10.02 -11.31,-10 l -2.98,0.32 -0.06,0.01 -0.16,0.05 v 0 c -0.11,0.05 -0.23,0.13 -0.35,0.23 l -0.01,0.01 c -0.69,0.53 -1.23,1.3 -1.18,1.85 l 0.19,1.73 c 0.11,0.26 0.41,0.85 0.88,1.64 0.67,1.16 1.47,2.43 2.34,3.76 v -0.01 c 4.65,7.1 12.12,17.43 13.2,18.07 l 1.21,0.71 0.29,1.39 2.6,12.93 0.05,0.2 0.01,0.09 0.87,8.04 v 0.05 l 0.02,0.2 0.02,0.08 c 0.3,4.76 -4.15,8.86 -9.89,11.83 -5.05,2.61 -11.27,4.48 -15.62,5 l -0.23,0.03 h -0.03 l -6.03,0.66 -0.11,0.02 -0.2,0.02 h -0.14 c -1.51,0.05 -3.04,-0.53 -4.54,-1.53 -1.21,-0.81 -2.44,-1.92 -3.66,-3.24 -5.71,-6.14 -12.13,-17.63 -14.13,-21.8 l -0.01,-0.02 -0.1,-0.2 -0.02,-0.02 c -0.95,-2.05 -2.01,-5.09 -3.2,-8.46 -2.92,-8.38 -6.71,-19.2 -9.38,-18.91 h -0.02 l -2,0.22 v -0.01 l -0.05,0.01 c -0.08,0.01 -0.17,0.05 -0.27,0.1 -0.1,0.05 -0.19,0.11 -0.26,0.18 -0.78,0.77 -1.08,2.34 -0.91,3.86 l 0.32,2.89 2.01,-0.23 0.34,3.14 c 0.33,3.05 0.88,3.93 1.36,4.71 l -0.01,0.01 c 0.75,1.2 1.45,2.31 1.76,5.14 l 3.84,35.21 c 0.22,2.02 -0.05,3.5 -1.03,4.74 -1.01,1.26 -2.41,1.85 -4.43,2.06 l -23.13,2.52 c -3.33,0.37 -4.68,-0.97 -6.29,-2.57 h -0.02 c -0.32,-0.32 -0.65,-0.65 -0.84,-0.81 l -0.57,-0.48 -0.3,-0.69 -4.58,-10.56 -0.11,-0.26 -0.08,-0.3 -2.29,-10.24 c -2.07,-2.89 -3.53,-7.59 -5.02,-12.41 -1.96,-6.35 -4.02,-12.97 -5.86,-12.8 l -3.04,0.34 h -0.01 l -0.06,0.02 c -0.11,0.05 -0.23,0.2 -0.32,0.36 -0.11,0.2 -0.16,0.42 -0.14,0.6 h -0.01 l 0.14,0.29 0.07,0.33 5.34,24.93 0.03,0.13 0.02,0.19 1.66,15.1 c 1.09,9.97 -6.99,12.16 -16.13,13.16 -1.49,0.16 -2.81,0.28 -4.09,0.38 h -0.02 l -2.76,0.24 -0.23,0.24 v 0 c -1.18,1.29 -1.9,2.06 -4.63,2.35 l -28.17,3.08 -3.11,0.34 -0.35,-3.13 -0.44,-4.04 -0.34,-3.16 2.75,-0.26 -2.78,-46.59 -0.05,-0.93 0.47,-0.82 0.23,-0.39 0.02,-0.05 0.32,-0.53 0.02,-0.01 c 0.25,-0.41 0.65,0.13 0.7,-0.18 -0.71,-1.17 -6.85,-4.91 -13.85,-9.17 -10.13,-6.18 -21.89,-13.36 -25.32,-19.67 -5.39,-1.11 -8.69,-6.65 -12.01,-12.21 h 0.01 l -1.07,-1.8 0.05,8.76 c 2.19,0.97 2.49,2.17 2.83,3.47 v 0.02 c 0.02,0.09 -0.05,-0.18 0.33,-0.02 h 0.01 c 0.78,0.35 1.27,0.33 1.64,0.32 h 0.02 c 2.7,-0.11 3.93,-0.15 6.04,5.31 l 0.22,0.57 0.7,-0.65 1.94,0.99 c 0.28,0.14 0.72,0.42 1.29,0.79 l 0.02,0.02 c 0.81,0.54 2.13,1.45 3.78,2.63 1.88,1.33 3.69,2.64 5.43,3.9 v 0.02 c 9.9,7.21 23.12,17.61 23.33,19.11 h 0.01 l 0.99,9.05 0.04,0.32 v 0.03 l 0.32,3.23 v 0.02 c 0.12,1.31 0.23,2.49 0.3,3.44 0.46,5.93 0.69,12.22 0.33,17.25 -0.08,1.22 -0.32,3.37 -0.6,5.82 -0.38,3.24 -0.81,6.81 -1.14,9.57 -0.32,2.62 -0.58,4.12 -0.57,4.36 l 0.54,4.93 c 0.16,1.45 0.61,2.22 1.19,3.04 l 9.26,0.02 30.13,-3.5 h 0.02 c 3.81,-0.41 7.16,-1.71 10.57,-3.03 3.6,-1.39 7.29,-2.82 11.83,-3.49 l 4.18,-5.16 0.47,-0.58 0.66,-0.31 1.4,-0.65 2.99,-1.38 1.24,3.07 0.06,0.14 c 0.21,0.51 0.5,1.03 0.83,1.5 v -0.01 c 0.36,0.52 0.78,1 1.24,1.45 2.49,2.4 6.29,3.87 9.84,3.49 l 14.07,-1.54 c 12.03,-1.31 13.08,-2.24 17.67,-6.27 h 0.01 l 1.87,-1.63 -0.23,-12.72 -0.11,-5.69 4.88,2.97 0.08,0.05 0.1,0.06 c 1.58,1.05 3.07,3.05 4.81,5.4 3.1,4.18 7.25,9.78 11.77,9.29 l 13.08,-1.43 h 0.02 l 0.16,-0.02 v -0.01 c 1.81,-0.2 3.67,-0.62 5.5,-1.18 1.87,-0.57 3.75,-1.33 5.55,-2.22 8.98,-4.45 16.46,-12.42 15.54,-20.78 l -1.65,-15.1 -0.44,-4.06 4.03,0.63 0.14,0.02 0.06,0.01 c 3.39,0.59 6.56,2.85 10.16,5.41 5.28,3.76 11.68,8.32 19.79,7.43 l 2,-0.22 c 6.44,-0.71 8.48,-5.33 10.66,-10.29 l 0.06,-0.14 v 0 l 0.06,-0.14 c 0.15,-0.36 0.38,-0.95 0.66,-1.7 0.3,-0.84 0.6,-1.69 0.86,-2.46 1.47,-4.41 3.18,-10.39 2.98,-12.29 l -0.55,-5.04 h 0.01 l -0.05,-0.27 c -0.66,-4.05 -6.04,-8.4 -10.34,-11.86 -3.73,-3.01 -6.83,-5.52 -7.14,-8.36 -0.19,-1.8 -0.04,-2.32 0.25,-3.24 h -0.01 c 0.09,-0.3 0.23,-0.72 0.34,-1.61 l 0.32,-2.46 2.45,-0.27 2.01,-0.22 2.42,-0.27 0.85,2.28 v 0 c 0.68,1.68 4.84,6.17 8.12,9.72 1.4,1.51 2.67,2.88 3.52,3.88 l 0.02,0.02 0.05,0.05 c 1.04,1.24 2.07,2.61 3.18,4.07 2.73,3.63 5.91,7.85 7.59,8.49 l 0.13,0.05 0.07,0.03 c 3.77,1.54 8.42,6.32 13.25,11.29 5.32,5.47 10.91,11.21 14.06,11.7 l 2.07,0.32 c -1.54,-1.63 -3.14,-3.26 -4.7,-4.85 -3.99,-4.1 -7.72,-7.91 -9.79,-10.97 l -1.25,-1.85 1.03,-1.37 -0.94,-0.12 -0.2,-0.02 h -0.06 c -0.61,-0.09 -1.26,-0.24 -1.89,-0.44 -0.6,-0.19 -1.23,-0.42 -1.84,-0.71 v 0 c -3.29,-1.51 -6.38,-4.41 -6.76,-7.89 v -0.02 z m 6.81,-1.21 -0.42,0.99 c 0.27,0.6 0.92,1.19 1.7,1.7 l 0.1,-5.69 -0.26,0.54 c -0.43,0.9 -0.82,1.76 -1.12,2.45 v 0.02 z m -111.5,-388.57 h -0.01 l -0.11,-0.99 v -0.02 c -0.14,-1.31 -0.14,-2.36 0.01,-3.19 -5.99,-1.15 -15.05,-1.98 -22.78,-2.29 -2.31,-0.09 -4.47,-0.13 -6.36,-0.11 -1.82,0.02 -3.46,0.08 -4.79,0.23 v 0 l -0.2,0.02 -34.2,3.74 c -1.97,0.21 -3.75,0.75 -5.77,1.36 v 0.01 c -2.84,0.86 -6.12,1.86 -11.13,2.48 h -0.02 c -2.25,0.27 -7.63,1.15 -11.93,1.96 v 0.01 l -2.41,0.47 -2.03,0.43 v -0.01 l -0.17,0.04 v 0.01 c -5.61,1.29 -10.51,2.58 -15.38,3.97 -5,1.44 -9.66,2.91 -14.81,4.56 -9.83,3.17 -19.2,6.32 -28.38,9.84 -9.02,3.45 -17.74,7.25 -26.34,11.73 v -0.01 c -8.68,4.54 -24.03,13.5 -35.36,21.24 -2.25,1.54 -4.29,2.98 -6.01,4.28 -1.71,1.29 -3.24,2.52 -4.5,3.66 l -0.02,0.01 -0.03,0.03 v -0.01 c -3.5,3.14 -6.41,5.9 -9.2,8.8 -2.74,2.85 -5.37,5.86 -8.31,9.53 l -0.02,0.02 c -1.25,1.51 -4,6.67 -6.6,11.55 -2.12,3.97 -4.15,7.79 -5.65,9.94 l 0.7,6.39 c 1.26,-1.17 2.77,-2.06 4.76,-2.28 l 0.99,-0.11 c 2.01,-0.22 3.5,0.06 4.75,1.06 l 0.02,0.01 c 1.24,1.02 1.82,2.41 2.04,4.4 l 0.11,1.01 v 0.01 c 0.14,1.35 -0.62,3.5 -1.62,6.35 -1.32,3.74 -3.14,8.92 -3.54,13.01 l -0.06,0.85 c -0.09,1.61 -0.19,3.05 -0.28,4.5 v 0.02 c -0.36,5.47 -0.75,11.28 -0.06,17.64 l 2.65,24.17 c 0.47,4.33 1.33,8.03 2.22,11.89 1.06,4.61 2.19,9.47 2.87,16.06 0.4,3.9 2.38,12.77 4.11,19.51 0.43,1.7 0.75,2.9 0.96,3.67 0.26,0.94 0.54,1.9 0.81,2.77 v 0.01 l 0.06,0.2 h -0.01 c 0.93,2.89 2.48,7.32 4.22,12.3 4.52,12.88 10.38,29.56 11.34,37.16 l 26.27,65.11 3.42,7.59 c 5.85,0.81 9.34,6.68 12.81,12.51 h 0.02 c 2.8,4.72 5.61,9.41 8.71,9.34 l 2.65,-0.07 0.5,2.6 c 0.81,4.12 12.99,11.55 23.31,17.85 8.41,5.13 15.73,9.59 16.69,12.99 l 0.06,0.23 0.04,0.2 0.02,0.1 0.02,0.19 c 0.14,1.41 -0.78,2.94 -1.58,4.24 v 0 l -0.05,0.08 2.91,48.66 0.05,0.73 22.51,-2.46 c 0.39,-0.05 0.5,-0.16 0.67,-0.35 v -0.02 c 0.35,-0.38 0.78,-0.84 1.42,-1.39 l 0.73,-0.62 0.96,-0.11 c 1.44,-0.16 2.71,-0.28 3.97,-0.38 h 0.02 c 1.39,-0.12 2.8,-0.24 3.95,-0.37 5.84,-0.63 11.03,-1.79 10.54,-6.25 l -1.63,-14.92 -5.26,-24.58 c -0.17,-0.47 -0.29,-0.96 -0.35,-1.45 v -0.01 c -0.14,-1.35 0.14,-2.84 0.81,-4.14 0.68,-1.33 1.78,-2.5 3.22,-3.18 0.62,-0.3 1.32,-0.5 2.06,-0.59 l 3.04,-0.34 h 0.02 c 6.97,-0.75 9.81,8.4 12.53,17.2 1.38,4.47 2.73,8.83 4.23,10.75 l 0.12,0.14 0.47,0.57 0.17,0.77 2.37,10.63 4.18,9.62 c 0.28,0.26 0.5,0.48 0.7,0.69 v 0 c 0.44,0.44 0.82,0.81 1.18,0.78 l 23.02,-2.51 -3.84,-35.11 c -0.15,-1.43 -0.47,-1.94 -0.82,-2.49 h -0.02 c -0.6,-0.98 -1.26,-2.04 -1.76,-4.26 l -2.18,0.23 -0.35,-3.13 -0.66,-6.01 c -0.35,-3.24 0.57,-6.87 2.8,-9.04 l 0.01,-0.01 c 0.54,-0.51 1.12,-0.94 1.76,-1.27 0.63,-0.32 1.36,-0.57 2.17,-0.69 l 0.08,-0.02 0.19,-0.02 0.06,-0.02 2,-0.22 c 7.62,-0.83 12.34,12.65 15.99,23.09 1.11,3.17 2.1,6.01 2.98,7.9 h -0.01 l 0.09,0.18 h -0.01 c 1.88,3.92 7.85,14.61 13.06,20.22 0.93,0.99 1.8,1.79 2.56,2.31 0.41,0.28 0.72,0.44 0.86,0.46 h 0.04 l 5.92,-0.65 v -0.01 l 0.23,-0.03 c 3.72,-0.44 9.08,-2.07 13.48,-4.33 3.71,-1.91 6.6,-4.08 6.5,-5.85 v 0 l -0.01,-0.05 v 0 l -0.87,-7.95 -2.4,-11.89 c -3.07,-3.35 -9.78,-12.41 -13.97,-18.8 v -0.02 c -1.06,-1.61 -1.93,-3 -2.52,-4 -0.75,-1.28 -1.28,-2.35 -1.5,-3.09 l -0.06,-0.25 -0.05,-0.23 -0.02,-0.14 -0.02,-0.18 -0.22,-2 c -0.29,-2.71 1.37,-5.8 3.62,-7.51 0.46,-0.35 0.96,-0.66 1.48,-0.9 h 0.01 c 0.57,-0.26 1.18,-0.47 1.77,-0.57 l 0.08,-0.01 0.2,-0.03 0.11,-0.02 3.04,-0.33 c 2.93,-0.31 8.69,4.85 16.18,11.58 12.13,10.9 29.39,26.39 38.32,26.24 l 0.27,-0.02 c 0.53,-0.44 1.77,-3.2 3.01,-6.32 1.45,-3.66 2.58,-7.56 2.56,-9.29 h -0.01 l -0.02,-0.26 -0.26,-2.36 c -3.17,-2.06 -8.33,-6.32 -11.72,-9.12 v -0.01 l -2.5,-2.06 v -0.01 l -0.08,-0.07 -1.17,-0.92 -0.01,0.01 c -4.94,-3.88 -11.25,-8.83 -12.13,-16.95 l -0.76,-7.04 -0.02,-0.22 v -0.04 c -0.51,-5.38 1.27,-11.77 4.3,-16.91 3.18,-5.4 7.85,-9.59 12.93,-10.27 h 0.02 l 0.19,-0.02 0.07,-0.02 0.99,-0.11 c 1.73,-0.19 2.65,-0.14 3.53,0.02 1.69,-4.15 4.76,-10.94 8.27,-12.35 v -0.05 l -0.34,-3.02 c -0.32,-3.01 3.51,-8.91 8.84,-17.09 10.19,-15.67 26.38,-40.53 27.06,-61.07 l -0.54,0.06 -2.87,0.31 -0.54,-2.84 -2.19,-11.41 c -7.37,-0.66 -8,-7.15 -8.68,-14.46 v -0.02 c -0.17,-1.76 -0.34,-3.6 -0.64,-5.28 l -0.04,-0.22 h -0.01 c -0.5,-2.72 -2.46,-6.26 -4.24,-9.5 l -0.01,0.01 c -1.83,-3.29 -3.51,-6.34 -3.89,-8.86 l -0.02,-0.08 -0.02,-0.2 v -0.05 l -0.44,-4.02 c -0.48,-4.44 1.8,-6.41 4.67,-7.68 l -2.68,-3.76 -0.27,-0.38 -0.15,-0.42 -27.15,-79.46 -1.75,-2.39 -0.28,-0.39 -0.15,-0.41 -22.34,-62.68 c -3.65,1.56 -8.56,4.26 -12.3,6.62 -0.99,0.63 -1.92,1.26 -2.71,1.82 l -0.01,-0.01 c -0.69,0.5 -1.25,0.94 -1.64,1.3 l -0.02,0.02 -0.05,0.05 c -1.15,1.12 -2.87,3.45 -4.7,5.94 -3.64,4.94 -7.7,10.48 -11.33,11.43 l -0.1,0.02 -3.81,0.99 -0.11,-3.95 c -0.21,-7.78 7.91,-16.28 14.78,-23.47 2.55,-2.67 4.92,-5.15 6.44,-7.13 -3.23,-2.9 -9.15,-6.98 -14.03,-10.34 -4.15,-2.86 -7.61,-5.24 -8.64,-6.45 v -0.01 l -0.02,-0.01 v -0.01 c -0.49,-0.59 -0.8,-1.23 -0.88,-1.94 z m 6.13,-1.7 c 1.09,0.9 3.81,2.78 6.97,4.97 6.19,4.27 13.97,9.64 16.86,13.06 l 1.41,1.67 -1.06,1.9 -0.32,0.56 -0.05,0.08 c -0.68,1.14 -1.61,2.34 -2.7,3.64 5.16,-2.95 11.09,-5.8 14.24,-6.41 l 4.71,-0.91 -3.39,-7.66 -0.27,-0.62 -1.22,1.2 -1.84,1.79 -2.12,-1.42 -19.35,-13.05 -4.92,0.57 -0.92,0.11 -0.05,-0.03 -4.05,0.47 -0.96,0.11 h -0.01 c -0.58,0.07 -0.93,-0.08 -0.96,-0.01 z m 46.4,17.31 25.19,-4.89 -23.43,8.86 11.73,26.49 c 3.42,-7.42 12.4,-18.59 20.6,-25.29 1.99,-1.62 3.96,-3.01 5.8,-4.05 2,-1.12 3.96,-1.88 5.75,-2.13 h 0.02 l 0.2,-0.02 0.06,-0.02 7.05,-0.78 c 10.28,-1.12 19.59,17.32 24.63,27.32 l 0.01,-0.01 1.48,2.93 h -0.01 c 1.49,2.85 3.04,5.21 4.78,7.24 l 0.02,0.02 c 1.73,2 3.7,3.73 6.08,5.37 1.14,0.78 8.31,2.09 13.85,2.71 1.15,0.13 2.19,0.23 3.04,0.27 0.77,0.05 1.44,0.05 1.92,0.02 l 0.2,-0.02 v 0.01 l 11.89,-1.3 -0.22,-2 3.14,-0.35 4.02,-0.44 c 4.77,-0.52 9.35,-2.6 14.52,-4.95 7.24,-3.3 15.61,-7.11 27.91,-8.46 l 4.15,-6.9 -1.21,-11.04 c -0.79,-7.21 -4.89,-20.25 -8.44,-30.04 -0.67,-1.85 -1.35,-3.65 -2,-5.32 -0.63,-1.61 -1.21,-3.01 -1.67,-4.09 h -0.01 l -0.07,-0.15 c -0.88,-2 -2.68,-5.62 -4.76,-9.78 -4.3,-8.64 -9.76,-19.63 -11.34,-24.98 -2.48,-1.33 -3.53,-3.54 -4.56,-5.77 l -0.24,-0.54 c 0.17,4.85 -2.32,5.16 -6.53,5.65 l -1.02,0.12 -2.49,0.3 -0.84,-2.39 c -1.2,-3.41 -4.64,-6.46 -8.83,-7.71 -0.83,-0.25 -1.68,-0.43 -2.52,-0.51 -0.86,-0.09 -1.73,-0.11 -2.59,-0.02 v 0.01 l -0.19,0.02 -4.03,0.43 c -6.07,0.66 -12.51,7.81 -18.44,14.37 h -0.02 c -5.46,6.04 -10.53,11.66 -15.79,12.79 l -0.05,0.02 -0.14,0.03 -4.25,0.84 0.51,-4.3 c 0.63,-5.28 2.83,-8.77 4.96,-12.16 2.11,-3.35 4.14,-6.58 3.6,-11.52 l -0.77,-7.01 v 0 l -0.02,-0.19 c -0.87,-7.05 -7.62,-16.1 -15.9,-23.31 -8.23,-7.15 -17.77,-12.34 -24.31,-11.75 v 0.01 l -0.2,0.02 -3.11,0.34 -0.28,-2.49 c -2.6,3.91 -8.88,8.97 -15.36,14.2 -8.15,6.57 -16.7,13.46 -16.74,16.14 l 0.01,0.11 0.11,0.93 c 0.14,1.34 2.13,5.84 4.05,10.17 1.48,3.35 2.92,6.61 3.63,8.83 l 0.02,0.02 0.08,0.27 v 0.02 c 1.54,5.06 3.12,11.8 4.19,17.95 0.2,1.18 0.4,2.38 0.57,3.57 0.13,0.87 0.25,1.73 0.35,2.57 0.54,-0.12 1.16,-0.21 1.91,-0.3 h 0.02 c 2,-0.2 3.48,0.05 4.73,1.06 v 0 c 1.25,1 1.82,2.4 2.05,4.42 v 0.02 c 0.6,5.49 -13.05,19.34 -22.81,28.12 -1.83,1.64 -3.54,3.14 -4.98,4.36 l -1.59,1.32 2.98,6.73 z m -4.14,6.2 -3.34,1.26 22.19,62.26 1.76,2.41 0.3,0.41 0.14,0.43 27.15,79.45 2.37,3.33 -0.2,-1 3.11,-0.33 c -0.34,-1.61 -0.84,-3.56 -1.42,-5.81 -1.03,-3.94 -2.45,-8.95 -4.13,-14.58 -8.39,-28.16 -22.51,-69.81 -25.32,-73.17 l -0.41,-0.5 -0.19,-0.6 -4.89,-15.74 -0.87,-2.82 2.78,-1.04 h 0.01 v -0.01 c 0.97,-0.38 2,-1.21 3.01,-2.28 l -2.34,0.26 -3.01,0.33 -2.28,0.26 -0.93,-2.11 -13.47,-30.43 z m 53.43,157.06 -1.98,0.68 -0.84,0.29 c -1.75,0.6 -3.65,1.24 -3.54,2.21 l 0.44,3.98 h 0.01 l 0.02,0.16 c 0.23,1.41 1.63,3.95 3.14,6.69 v 0.02 c 2.03,3.67 4.26,7.69 4.94,11.4 v 0.01 l 0.05,0.23 c 0.35,1.98 0.54,3.93 0.72,5.81 0.45,4.82 0.87,9.04 4.7,8.77 l -0.31,-2.84 2.32,2.67 0.87,-0.07 0.26,1.38 3.13,3.62 c 1.06,1.22 1.82,2.22 2.4,3.56 v 0.02 c 0.57,1.3 0.9,2.79 1.14,4.95 l 0.11,0.99 v 0.06 l 0.1,1 0.01,0.05 c 1.9,23.36 -16.6,51.79 -27.97,69.25 -4.03,6.2 -7.08,10.88 -7.72,12.5 1.95,-0.71 2.7,-1.7 3.6,-2.89 0.93,-1.23 1.97,-2.61 3.78,-4.12 l 1.44,-1.21 1.45,0.59 c -0.26,-0.62 -0.46,-1.31 -0.55,-2.13 v -0.05 c -0.11,-1.21 2.53,-5.25 5.31,-9.57 2.44,-3.81 5.02,-7.82 5.48,-8.66 2.15,-3.9 3.84,-7.08 5.55,-10.29 l 3.75,-6.99 v -0.01 c 3.02,-5.64 5.62,-11.21 7.18,-17.53 1.57,-6.31 2.14,-13.46 1.18,-22.32 l -0.83,-7.61 c -0.64,-1.03 -3.21,-3.97 -5.29,-6.36 -1.18,-1.36 -2.22,-2.55 -2.83,-3.33 l -0.01,0.01 c -4.57,-5.81 -4.39,-7.07 -3.93,-10.36 0.17,-1.15 0.39,-2.72 0.08,-5.58 l -0.02,-0.17 h -0.01 c -0.41,-3.52 -1.77,-7.78 -2.9,-11.31 v -0.02 l -0.54,-1.71 -0.02,-0.02 c -1.02,-3.22 -1.97,-4.04 -2.79,-4.73 -0.38,-0.32 -0.75,-0.65 -1.1,-1.01 z m -9.39,138.26 c -1.64,2.17 -2.98,3.95 -6.59,5.12 0.14,0.37 0.26,0.78 0.38,1.24 l 2.14,-0.23 0.53,-0.06 c 0.98,-1.92 1.85,-3.27 5.19,-3.64 h 0.02 l 2.01,-0.21 c 2,-0.22 3.5,0.06 4.75,1.06 l 0.01,0.01 c 1.24,1 1.82,2.39 2.04,4.39 v 0 l 0.12,1.02 0.01,0.08 v 0.27 l 0.05,11.16 0.01,1.39 0.29,-0.71 c 1.88,-4.66 3.67,-9.05 5.96,-11.77 l -0.28,0.03 -2.19,0.23 -0.97,-1.97 c -1.55,-3.19 -5.4,-5.89 -9.21,-7.89 -0.66,-0.35 -1.48,-0.74 -2.35,-1.13 l -0.42,-0.2 c -0.57,0.62 -1.04,1.24 -1.47,1.79 z m 15.05,-0.63 c 1.1,1.03 2.1,2.14 2.92,3.33 l 1,-0.11 c 0.96,-0.11 2.29,0.21 3.94,0.86 3.35,1.33 9.16,4.29 15.91,7.73 14.12,7.19 32.54,16.58 39.02,16.62 l 2.34,0.01 0.66,2.24 0.41,1.37 -0.2,-2.48 4.1,0.84 3.32,0.68 c -2.74,-1.42 -4.74,-2.98 -5,-5.29 l -0.01,-0.17 -0.02,-0.2 v -0.14 c -0.02,-4.54 8.37,-12.57 15.2,-18.7 l -0.01,-0.01 c 3.17,-2.85 6.17,-5.46 7.18,-6.48 v -0.02 l 0.04,-0.04 v 0.01 c 4.83,-4.87 10.97,-8.37 16.86,-11.73 4.15,-2.37 8.17,-4.66 11.29,-7.22 l 0.6,-0.5 0.76,-0.16 11.94,-2.43 0.18,-0.04 0.11,-0.01 3.01,-0.33 c 0.29,-0.03 0.65,-0.02 1.04,0.03 h 0.02 c 3.47,0.47 25.5,7.46 40.39,12.18 6.35,2 11.46,3.63 12.87,4.04 v 0 l 0.07,0.02 0.04,0.01 c 0.82,0.25 1.82,0.62 2.92,1.06 0.97,0.39 2.19,0.93 3.54,1.55 6.45,2.95 14.98,7.54 17.95,9.74 l 1.4,1.04 c 3.24,2.37 5.74,4.2 8.95,7.25 l 0.03,0.02 0.14,0.14 c 1.07,1.05 2.15,2.3 3.24,3.57 1.97,2.3 4.05,4.71 4.85,4.83 l 2.37,0.38 0.26,2.39 0.1,0.88 2.02,-0.22 0.34,3.13 0.31,2.83 0.01,0.05 c 0.05,0.14 0.35,0.68 0.72,1.36 1.24,2.25 3.1,5.58 3.64,10.52 v 0.02 l 0.44,4.04 0.01,0.07 0.02,0.2 v 0.1 c 0.08,1.35 -0.24,3.3 -0.84,5.65 -0.54,2.13 -1.35,4.74 -2.34,7.63 -4.88,14.42 -14.27,35.95 -16.95,39.79 v 0.02 c -4.8,6.83 -9.64,9.7 -15.47,13.17 -2,1.18 -4.12,2.43 -6.26,3.87 l -0.02,0.02 -0.14,0.09 -0.02,0.02 c -0.66,0.42 -1.58,0.96 -2.64,1.55 -1.13,0.63 -2.42,1.31 -3.75,1.99 l -0.01,-0.02 c -5.81,2.97 -13.91,6.69 -18.96,8.27 l 0.26,2.4 -3.13,0.34 -2.97,0.32 -0.14,0.02 c -0.9,0.19 -2.43,1.46 -4.12,2.86 -3,2.49 -6.41,5.31 -10.92,5.9 l -2.99,0.38 -0.38,-2.22 0.23,3.09 -3.9,-0.59 c -4.58,-0.69 -6.5,-6.4 -7.74,-12.04 l 0.66,8.72 6.14,31.78 0.21,-0.49 2.41,0.38 c 1.08,0.17 2.37,0.41 3.55,0.93 1.78,0.81 3.17,2.13 3.41,4.39 v 0.02 l 0.02,0.19 v 0.05 c 0.2,2.11 -0.1,4.39 -0.78,6.72 -0.64,2.19 -1.63,4.47 -2.85,6.76 -6.01,11.23 -18.34,23.47 -24.62,28.07 -4.3,3.17 -12.56,9.1 -21.46,14.49 -9.05,5.49 -18.71,10.36 -25.54,11.09 l -5.05,0.56 -0.07,0.01 -0.26,0.02 h -0.05 c -9.53,0.64 -28.69,-14.66 -47.65,-29.81 v -0.01 c -17.71,-14.15 -35.27,-28.17 -41.8,-27.61 l -3.05,0.26 -0.34,-3.06 -0.02,-0.2 v -0.04 c -0.3,-3.05 0.07,-6.47 0.95,-10.1 0.85,-3.52 2.19,-7.25 3.86,-11.05 8.43,-19.15 26.03,-41.36 34.77,-48.7 l 0.78,-0.66 1,-0.08 4.14,-0.32 1.85,-1.61 1.01,-0.89 0.4,0.04 c -1.74,-2.77 -4.58,-6.04 -7.7,-9.35 l 0.23,2.07 0.33,3 v 0.03 c 0.05,0.48 0,0.94 -0.13,1.39 v 0.01 c -0.67,2.36 -5.77,6.8 -10.17,10.63 -2.52,2.19 -4.79,4.17 -5.37,4.88 l -0.01,0.02 -2.59,3.16 c -3.34,4.05 -6.46,7.84 -9.2,12.47 l -0.01,0.02 -0.05,0.08 v -0.01 c -0.68,1.15 -1.48,2.45 -2.34,3.85 h 0.01 c -2.89,4.7 -6.54,10.65 -7.56,13.82 l 0.02,0.01 -0.02,0.07 -0.03,0.05 -0.66,1.95 -0.02,0.05 -1.04,2.91 -0.01,0.03 c -1.7,4.7 -4.22,10.99 -6.35,14.1 l 0.18,11.83 0.01,0.03 c 0.17,0.64 1.25,1.85 2.11,2.79 13.88,-0.26 30.34,14.43 41.81,24.68 2.7,2.41 5.12,4.56 7.18,6.23 l -0.01,0.01 1.1,0.87 c 9.65,7.73 35.08,28.09 46.32,26.86 l 4.01,-0.44 c 3.38,-0.36 5.83,-1.67 8.4,-3.04 3.15,-1.67 6.47,-3.44 11.82,-4.24 2.34,-2.43 7.3,-5.03 12.01,-7.51 3.6,-1.9 7.03,-3.71 8.3,-4.77 h -0.01 c 2.54,-2.16 5.47,-4.63 8.75,-7.35 l 8.61,-7.15 -0.01,-0.01 0.11,-0.09 0.02,-0.01 c 1.01,-0.84 2.19,-1.97 3.47,-3.3 1.27,-1.33 2.63,-2.89 4.02,-4.6 6.91,-8.57 14.09,-20.79 13.13,-29.58 l -1.32,-12.07 c -0.15,-1.42 -0.77,-2.45 -1.43,-3.55 h -0.01 c -1.17,-1.94 -2.44,-4.05 -2.89,-8.19 v -0.01 c -0.06,-0.57 0.02,-1.11 0.23,-1.65 v -0.01 c 0.66,-1.76 5.01,-5.17 9.87,-8.1 3.6,-2.18 7.63,-4.28 10.67,-5.38 l -0.23,-2.13 2.71,-0.63 8.88,-2.05 c 2.68,-2.7 9.05,-5.96 14.98,-9.01 4.1,-2.1 7.98,-4.09 9.82,-5.43 h 0.01 l 3.44,-2.47 v -0.02 c 6.9,-4.94 9.07,-6.5 14.69,-15.4 l 0.07,-0.11 v 0 c 0.41,-0.7 1.12,-2.13 2,-4.09 0.93,-2.07 2.01,-4.54 3.14,-7.24 5.83,-13.98 13.8,-35.3 13.38,-39.18 l -1.09,-10.05 -0.02,-0.17 v 0 c -0.33,-2.82 -1.12,-5.59 -2.29,-8.29 h -0.02 c -1.2,-2.79 -2.8,-5.51 -4.67,-8.12 -9.9,-13.88 -27.56,-25.2 -38.64,-30.55 v 0 l -0.14,-0.07 v 0 c -1.26,-0.6 -3.32,-1.42 -5.94,-2.4 -2.62,-0.98 -5.95,-2.14 -9.69,-3.41 -18.69,-6.29 -46.77,-14.53 -53.75,-13.77 l -0.17,0.02 v 0.01 c -13.66,1.55 -24.75,9.87 -34.01,16.81 -1.64,1.23 -3.23,2.42 -4.64,3.44 v 0.01 c -4.88,3.53 -8.37,6.78 -12.17,10.32 -1.14,1.06 -2.31,2.16 -3.42,3.17 l -0.04,0.03 -0.02,0.03 -0.08,0.06 c -2.35,2.16 -4.94,5.48 -7.3,8.51 h -0.01 c -2.34,3 -4.48,5.75 -6.32,7.29 l -1.42,1.2 -1.75,-0.69 c -6.03,-2.4 -11.12,-4.46 -15.92,-6.5 -5,-2.13 -9.96,-4.35 -15.66,-7.04 h -0.02 l -0.16,-0.07 v -0.02 l -2.78,-1.33 h -0.01 c -7.2,-3.47 -18.46,-8.89 -26.22,-9.38 z m 20.92,17.42 -6.59,-3.35 c -0.1,2.79 -2.04,8.29 -4.33,14.8 l -1.85,5.31 c 0.9,-0.65 1.91,-1.06 3.11,-1.19 2.89,-0.32 5.36,0.91 6.78,3.12 v 0.01 c 0.28,0.44 0.52,0.91 0.7,1.39 0.17,0.47 0.31,0.99 0.38,1.51 v 0.08 l 0.03,0.19 0.02,0.07 1.42,13.09 c 1,9.2 0.35,18.25 -2.2,25.45 h -0.01 c -0.51,1.46 -1.12,2.86 -1.77,4.13 -0.32,0.63 -0.67,1.24 -1.03,1.83 1.91,2.37 4.79,5.32 7.83,8.44 7.13,7.31 15.16,15.54 16.14,21.92 l 0.01,0.01 0.02,0.17 0.61,3.96 -4,-0.37 -2.81,-0.26 -1.63,1.42 -0.78,0.69 -1.05,0.08 -4.15,0.32 c -8.49,7.54 -24.46,27.98 -32.3,45.78 -1.55,3.52 -2.77,6.9 -3.51,9.99 -0.5,2.03 -0.78,3.92 -0.86,5.68 9.78,2.2 26.28,15.38 42.92,28.69 l 0.01,-0.01 c 17.98,14.37 36.14,28.87 43.27,28.45 l 0.25,-0.02 v 0 l 4.97,-0.54 c 5.77,-0.63 14.56,-5.12 22.95,-10.21 8.55,-5.19 16.72,-11.06 20.99,-14.21 5.83,-4.27 17.26,-15.59 22.81,-25.96 1.03,-1.93 1.85,-3.81 2.36,-5.55 0.23,-0.76 0.39,-1.49 0.49,-2.19 l -0.86,2 -1.27,2.94 -2.92,-1.32 -1.09,-0.49 -1.48,-0.67 -0.31,-1.61 -7.7,-39.89 -0.04,-0.19 -0.02,-0.17 -1.16,-15.2 h 0.01 c -0.63,-5.95 1.88,-6.26 6.46,-6.78 v 0 l 1.02,-0.12 2.49,-0.31 0.23,0.65 -1.19,-15.79 -0.35,-4.62 4.41,1.39 2.83,0.89 1.84,0.57 0.33,1.9 5.53,32.21 c 1.7,-0.91 3.32,-2.27 4.84,-3.53 2.41,-2 4.58,-3.8 7.18,-4.21 l 0.05,-0.02 0.2,-0.02 0.02,-0.01 -0.21,-2 3.12,-0.34 c 3.2,-0.35 13.09,-4.89 19.86,-8.34 v -0.02 c 1.42,-0.72 2.65,-1.37 3.6,-1.89 1.02,-0.56 1.79,-1 2.24,-1.3 v 0.01 l 0.11,-0.08 c 2.42,-1.62 4.55,-2.89 6.56,-4.07 5.19,-3.09 9.5,-5.65 13.53,-11.38 l 0.01,0.01 c 2.47,-3.56 11.38,-24.18 16.14,-38.2 0.91,-2.69 1.67,-5.15 2.19,-7.17 0.44,-1.71 0.69,-3.01 0.69,-3.69 h -0.01 l -0.02,-0.2 v 0 l -0.44,-3.96 c -0.41,-3.68 -1.9,-6.38 -2.9,-8.19 -0.62,-1.12 -1.11,-2 -1.34,-3.02 l -0.04,-0.14 -0.04,-0.2 -0.01,-0.1 -2.02,0.23 -0.34,-3.14 -0.24,-2.2 c -2.16,-1.31 -4.21,-3.69 -6.2,-5.98 -1.01,-1.18 -2.01,-2.34 -2.85,-3.16 l -0.12,-0.11 -0.01,-0.01 -0.02,-0.02 c -2.89,-2.74 -5.25,-4.47 -8.31,-6.71 l -1.41,-1.03 -0.01,-0.02 c -2.67,-1.98 -10.69,-6.27 -16.84,-9.08 -1.12,-0.5 -2.22,-0.99 -3.3,-1.42 -0.93,-0.38 -1.72,-0.68 -2.31,-0.86 l -0.01,0.01 -0.08,-0.02 -0.02,-0.02 c -2.25,-0.66 -7.03,-2.18 -13.02,-4.08 -14.43,-4.57 -35.68,-11.31 -39.13,-11.93 l -2.65,0.29 -11.01,2.25 c -3.4,2.68 -7.42,4.97 -11.55,7.33 -5.52,3.15 -11.28,6.43 -15.51,10.71 v 0.01 l -0.04,0.04 h -0.01 c -1.59,1.59 -4.24,3.87 -7.42,6.72 h -0.01 c -5.8,5.19 -12.88,11.77 -13.11,13.89 0.13,0.23 2.65,0.94 5.56,2.2 4.99,2.16 10.69,4.64 12.63,8.68 l 0.05,0.12 0.14,0.32 2.39,5.51 -5.89,-1.2 -16.61,-3.38 0.02,0.23 0.26,3.04 -3.05,0.33 -5.02,0.55 -2.6,0.29 -0.75,-2.52 -1.43,-4.85 c -9.01,-1.53 -26.08,-10.22 -39.44,-17.03 z m -27.6,10.24 c 0.45,-1.01 0.9,-2.07 1.34,-3.12 l -0.73,-0.17 z m -3.93,-18.81 c 0.07,0.01 0.12,0.02 0.05,-0.05 v 0 c -0.09,-0.08 -0.07,-0.03 -0.05,0.05 z m -17.09,1.09 h -0.01 z m -115.67,71.71 -0.08,0.01 z m 2.23,55.83 c 0.08,-0.09 0.03,-0.07 -0.05,-0.05 -0.02,0.09 -0.04,0.17 0.05,0.05 z m -52.15,-41.34 c 0,0.02 -0.05,-0.08 -0.03,-0.04 l 0.02,0.04 h 0.02 z m -106.66,-46.7 c -0.82,-1.02 -1.66,-1.85 -2.52,-2.4 l 1.61,1.55 z m -20.46,-34.26 -18.51,-45.87 -0.16,-0.41 -0.05,-0.43 -0.02,-0.16 v 0 c -0.82,-6.9 -6.59,-23.34 -11.05,-36.03 -1.72,-4.92 -3.26,-9.28 -4.28,-12.5 l -0.01,-0.02 -0.06,-0.18 v 0 c -0.22,-0.69 -0.51,-1.7 -0.87,-2.99 -0.4,-1.46 -0.76,-2.8 -1.01,-3.78 -1.77,-6.92 -3.81,-16.14 -4.25,-20.43 -0.65,-6.19 -1.73,-10.87 -2.75,-15.29 -0.93,-4.07 -1.83,-7.94 -2.34,-12.63 l -2.65,-24.17 c -0.75,-6.9 -0.35,-12.99 0.04,-18.73 0.11,-1.58 0.21,-3.13 0.27,-4.47 v -0.06 l 0.07,-0.85 0.01,-0.08 c 0.46,-4.91 2.45,-10.54 3.87,-14.58 0.71,-2 1.26,-3.42 1.3,-3.59 h -0.01 l -0.1,-0.9 -0.9,0.1 c -1,0.11 -2.23,1.82 -3.29,3.3 -0.74,1.03 -1.44,2.01 -2.34,2.83 l -2.49,2.25 0.17,1.56 v 0.01 c 0.59,5.4 -0.2,10.54 -1.06,16.1 -1.02,6.66 -2.14,13.97 -0.84,22.66 v 0.02 l 9.7,68.01 2.22,1.76 1.05,0.84 0.11,1.33 0.02,0.23 c 0.11,1.1 0.29,2.52 0.51,4.18 0.25,1.75 0.54,3.61 0.87,5.39 1.63,9.1 4.3,20.3 6.98,21.06 l 1.58,0.44 0.54,1.54 6.33,17.85 0.08,0.23 0.04,0.2 0.02,0.11 h -0.01 c 0.95,4.58 5.04,12.47 8.78,19.71 2.3,4.43 4.48,8.64 5.86,11.94 l 0.02,0.05 0.01,0.04 c 1.41,3.35 4.81,8.61 8.2,13.85 l 0.38,0.58 z m -42.34,-218.4 c 0.08,0 0.13,0.02 0.05,-0.05 h -0.01 c -0.09,-0.08 -0.07,-0.03 -0.05,0.05 z m -12.08,3.41 -1.53,-14 -0.22,-2.02 1.64,-0.96 c 0.22,-0.19 2.59,-4.63 5.09,-9.32 2.73,-5.14 5.63,-10.56 7.26,-12.56 l -0.01,-0.01 c 3.04,-3.78 5.79,-6.91 8.69,-9.93 2.85,-2.98 5.88,-5.85 9.54,-9.13 v -0.02 l 0.03,-0.02 c 1.3,-1.18 2.98,-2.53 4.93,-3.99 1.94,-1.46 4.05,-2.96 6.24,-4.45 11.49,-7.85 27.13,-16.98 35.99,-21.62 v -0.02 c 8.8,-4.57 17.74,-8.47 27,-12.02 9.1,-3.48 18.63,-6.69 28.69,-9.93 5.5,-1.76 10.33,-3.29 15.01,-4.64 4.82,-1.39 9.81,-2.69 15.7,-4.05 h 0.02 l 0.22,-0.05 0.03,-0.02 2.03,-0.43 0.06,-0.02 2.47,-0.47 h 0.02 c 4.51,-0.85 10.07,-1.77 12.35,-2.05 4.47,-0.54 7.48,-1.46 10.08,-2.25 v 0.01 c 2.34,-0.71 4.4,-1.34 6.92,-1.61 l 23.8,-2.6 -11.91,-0.21 -17.92,2.65 -0.13,0.02 -0.19,0.02 c -25.85,2.85 -49.46,10.16 -71.1,16.86 l -1.3,0.4 0.01,0.01 -0.07,0.02 h -0.02 c -8.15,2.54 -17.26,6.5 -25.67,10.14 l -5.22,2.25 -0.02,0.02 -0.11,0.05 v 0.01 c -2.76,1.19 -6.62,3.31 -10.66,5.52 -6.92,3.8 -14.4,7.91 -19.07,8.81 l -2.65,0.51 -0.9,-2.55 c -1.53,-4.36 -4.85,-5.95 -7.79,-7.37 h -0.01 c -3.84,-1.85 -7.27,-3.5 -8.28,-8.61 -1.21,1.36 -2.2,2.5 -2.8,3.24 l 2.25,1.15 c 6.03,3.01 15.3,7.67 15.89,12.99 l 0.32,3.03 0.26,2.46 -2.34,0.83 -0.06,0.02 v 0 c -0.75,0.27 -1.84,0.85 -3.13,1.64 v 0.01 c -1.45,0.89 -3.14,2.02 -4.94,3.29 h -0.02 c -9.46,6.69 -22.35,17.51 -25.55,21.13 l -1.25,1.4 c -4.18,4.71 -8.71,9.81 -11.51,14.93 l -0.11,0.2 c -0.38,0.76 -1.06,2.37 -1.85,4.3 v 0.01 c -2.7,6.5 -6.72,16.19 -10.56,16.61 h -0.01 c -3.26,0.35 -6.06,-0.78 -8.97,-1.94 -1.77,-0.72 -3.6,-1.45 -5.38,-1.67 l -3.75,-0.47 1.13,-3.6 3.53,-11.18 c -0.78,0.45 -1.58,2.82 -2.31,5.02 -0.66,2 -1.3,3.92 -2.31,5.37 l -0.01,-0.01 c -1.27,1.85 -2.64,2.92 -3.99,3.58 l -0.54,3.04 -0.02,0.14 -0.02,0.03 c -0.32,1.67 -1.33,3.55 -2.85,5.52 -1.35,1.74 -3.15,3.64 -5.25,5.58 -9.47,8.77 -25.92,19.26 -35.98,22.02 l 0.26,2.28 -3.14,0.35 -14.11,1.55 -0.1,0.02 -0.32,0.02 h -0.07 c -0.74,0.04 -1.55,0 -2.37,-0.1 -0.74,-0.08 -1.61,-0.24 -2.52,-0.44 -4.88,-1.09 -10.48,-4.02 -10.8,-7.02 l -0.01,-0.27 -0.02,-0.48 v -0.13 c 0.04,-1.56 0.4,-5.1 0.78,-8.94 0.5,-4.89 1.03,-10.31 0.99,-11.95 v -0.02 c -0.2,-5.65 0.4,-9.89 1.05,-14.37 0.32,-2.27 0.66,-4.63 0.9,-7.36 l 0.02,-0.24 0.01,-0.01 c 0.11,-1.23 0.29,-2.77 0.52,-4.48 0.26,-1.88 0.57,-3.88 0.9,-5.83 1.58,-8.86 4.47,-19.71 9.01,-24.74 l -0.18,0.02 h -0.02 c -2.55,0.57 -6.01,11.15 -8.84,23 -3.03,12.62 -4.96,26.4 -4.45,32.08 l 0.03,0.28 0.31,3.09 -3.1,0.34 -2.01,0.23 -3.11,0.34 -0.34,-3.14 -4.38,-40.11 -1.85,-7.69 -0.27,-1.12 0.53,-1.03 0.07,-0.14 0.02,-0.04 c 1,-1.91 2.3,-4.2 3.84,-6.72 h 0.01 c 1.55,-2.54 3.32,-5.28 5.22,-8.04 8.31,-12.06 20.11,-25.84 32.15,-31.32 -0.6,0.2 -1.25,0.45 -1.9,0.74 -1.49,0.66 -3.06,1.54 -4.64,2.56 h -0.01 c -8.42,5.49 -17.07,15.04 -19.98,19.57 l -0.02,0.03 -0.12,0.19 h -0.01 c -0.71,1.09 -1.67,2.5 -2.87,4.25 -5.67,8.3 -16.55,24.23 -16.23,27.23 l 0.78,7.05 v 0.01 c 0.25,2.32 2.03,4.35 3.48,6.01 l 0.02,0.02 0.75,0.88 0.63,0.73 0.11,0.93 6.57,53.33 c 0.63,0.78 1.13,1.56 1.62,2.31 0.78,1.2 1.5,2.31 2.11,2.24 h 0.01 c 6.79,-0.74 9.17,-0.04 11.43,0.63 1.48,0.44 2.92,0.86 6.99,0.41 l 9.07,-0.99 v 0.01 l 0.14,-0.02 0.01,-0.02 c 1,-0.12 2.22,-0.44 3.58,-0.9 1.51,-0.5 3.14,-1.16 4.8,-1.89 v -0.02 c 8.98,-3.98 19.97,-10.74 24.1,-13.43 v 0 c 1.07,-0.7 3.35,-2.88 6.06,-5.62 4.21,-4.27 9.45,-9.92 12.99,-13.75 2.82,-3.06 4.51,-5.13 5.98,-5.29 h 0.02 c 0.31,-0.03 0.64,-0.03 0.96,-0.02 h 0.02 c 1.79,0.12 4.27,1.11 7.07,2.23 h 0.02 c 3.46,1.38 7.54,3.01 10.08,2.95 l 2.88,-0.08 0.32,2.88 0.76,7.05 c 0.03,0.31 0.2,0.42 0.36,0.52 l 0.52,0.31 z m -53.19,-132.79 -0.02,-0.19 v -0.14 c -0.06,-6.01 14.6,-17.95 21.91,-23.9 1.21,-0.99 2.2,-1.79 2.92,-2.41 l 0.08,-0.07 0.41,-0.32 0.04,-0.04 c 0.72,-0.56 1.71,-1.29 2.83,-2.09 l 4.42,-3.12 c 4.73,-3.31 10.76,-7.39 15.4,-10.37 l -1.73,0.19 c -2.16,1.6 -5.36,3.26 -8.5,4.9 -2.4,1.25 -4.77,2.49 -6.38,3.52 -3.4,2.2 -5.31,3.83 -7.44,5.65 -1.44,1.24 -2.99,2.56 -5.1,4.17 -2.74,2.08 -8.15,6.22 -12.7,10.66 -4.11,4.03 -7.54,8.22 -7.26,10.81 v 0.01 l 1.51,13.84 3.74,14.67 0.8,3.13 c 0.37,-0.15 0.65,-0.32 0.96,-0.51 l 0.16,-0.11 -1.3,-2.2 -0.22,-0.38 -0.11,-0.35 -3,-10.47 -0.06,-0.23 -0.04,-0.35 -1.32,-14.15 -0.01,-0.13 z m 6.26,-0.44 0.01,0.1 1.28,13.71 2.83,9.89 2.79,4.74 1.93,3.29 -3.6,1.27 c -1.07,0.38 -1.7,0.78 -2.25,1.12 -1.32,0.83 -2.4,1.51 -5.28,1.82 l -12.07,1.32 c -3.07,0.33 -6.41,-0.28 -8.77,-1.8 -0.5,-0.32 -0.96,-0.69 -1.36,-1.07 -11.95,2.49 -25.06,17.65 -34.04,30.69 -1.9,2.76 -3.6,5.38 -5.02,7.73 v 0.02 c -1.22,2 -2.28,3.86 -3.16,5.49 l 1.63,6.76 0.06,0.23 0.02,0.16 2.09,19.17 c 0.73,-4.24 1.63,-8.64 2.65,-12.9 3.35,-13.97 8.35,-26.65 13.76,-27.72 l 0.16,-0.02 0.19,-0.03 0.11,-0.02 2,-0.22 c 5.62,-0.61 5.96,1.19 6.73,5.42 l 0.16,0.81 0.58,3.06 -3.08,0.6 c -3.63,0.71 -6.6,12.85 -8.3,22.37 -0.38,2.16 -0.68,4.05 -0.89,5.58 -0.23,1.69 -0.39,3.12 -0.48,4.17 h 0.01 l -0.02,0.25 v 0.01 c -0.24,2.75 -0.6,5.28 -0.96,7.71 -0.6,4.24 -1.17,8.22 -0.99,13.27 v 0.02 c 0.07,2.08 -0.5,7.7 -1,12.78 -0.38,3.75 -0.72,7.23 -0.75,8.43 v 0.1 c 0.05,0.17 3.14,0.95 5.9,1.57 0.61,0.14 1.25,0.25 1.88,0.32 0.5,0.06 0.94,0.08 1.27,0.08 l 0.31,-0.03 10.88,-1.19 -0.22,-2 3.14,-0.35 c 8.23,-0.9 25.67,-11.92 35.47,-21 1.29,-1.2 2.45,-2.36 3.4,-3.43 l -2.18,0.24 -0.08,-3.42 c -0.17,-6.97 2.8,-7.5 6.63,-8.15 1.33,-0.23 2.9,-0.5 4.02,-2.13 v -0.01 c 0.54,-0.77 1.03,-2.23 1.53,-3.75 1.41,-4.26 2.94,-8.84 7.78,-9.37 l 0.17,-0.01 4.52,-0.26 4.54,-0.26 -1.36,4.33 -3.9,12.35 c 1.15,0.38 2.25,0.82 3.32,1.26 2.16,0.86 4.24,1.7 5.95,1.51 0.14,-0.02 3.31,-7.65 5.44,-12.78 v 0.01 c 0.84,-2.03 1.55,-3.74 2.05,-4.73 l 0.02,-0.03 0.11,-0.23 0.04,-0.06 c 3.13,-5.74 7.93,-11.15 12.36,-16.14 l 1.24,-1.41 c 3.41,-3.85 16.85,-15.16 26.63,-22.08 l -0.01,-0.01 c 1.94,-1.37 3.76,-2.59 5.31,-3.53 h 0.02 c 0.72,-0.44 1.41,-0.83 2.03,-1.17 l -0.08,-0.8 c -0.21,-1.92 -7.62,-5.64 -12.44,-8.05 -2.41,-1.21 -4.32,-2.18 -5.18,-2.98 v 0.01 l -0.02,-0.02 -0.01,-0.01 v -0.01 c -0.66,-0.61 -1.03,-1.36 -1.12,-2.16 v -0.02 c -0.34,-3.18 5.13,-9.2 10.6,-15.22 4.31,-4.74 8.62,-9.49 8.98,-10.63 l -0.51,-4.74 c -1.48,-13.56 -14.12,-31.96 -27.74,-40.62 -2.57,-1.64 -5.16,-2.91 -7.67,-3.69 -2.4,-0.75 -4.73,-1.07 -6.91,-0.87 v 0 l -0.19,0.02 -1.71,0.19 -1.08,-1.36 -0.39,-0.48 -0.02,-0.02 c -0.28,-0.36 -0.08,-0.84 -0.26,-0.97 -1.3,0.64 -11.92,7.97 -19.46,13.25 -1.08,0.75 -2.71,1.91 -4.35,3.09 -1.33,0.96 -2.27,1.64 -2.67,1.94 V 5897 l -0.28,0.23 h 0.01 c -0.62,0.54 -1.72,1.42 -3.05,2.51 -6.5,5.29 -19.47,15.87 -19.6,18.93 z m 52.16,-45.37 c 0.72,0.48 1.31,1.11 1.82,1.71 2.58,-0.05 5.21,0.38 7.85,1.21 3.07,0.96 6.16,2.46 9.17,4.38 15.01,9.54 28.96,30.04 30.62,45.27 l 0.55,5.02 0.02,0.23 v 0.11 0.21 l -0.02,0.26 c -0.08,0.98 -0.66,2.22 -1.6,3.66 l 1.27,0.62 1.04,0.51 -0.11,-9.67 -0.39,-1.71 v 0 l -4.2,-18.14 c -2.31,-2.94 -4.05,-5.74 -5.74,-8.49 -2.86,-4.63 -5.63,-9.11 -11.16,-13.82 l -0.01,0.01 -0.13,-0.11 0.01,-0.01 c -0.48,-0.4 -1.25,-0.96 -2.21,-1.62 l -0.02,-0.01 c -0.88,-0.61 -2.03,-1.35 -3.35,-2.17 -6.2,-3.81 -14.97,-8.35 -18.55,-7.96 l -4.86,0.53 z m 27.7,83.44 h -0.01 0.01 0.01 z m -0.01,0 -0.41,0.05 0.42,-0.05 z m -125.17,32.11 h -0.01 z m 455.8,-162.56 c 7.75,0.93 17.15,6.23 25.14,13.18 9.34,8.12 16.99,18.67 18.04,27.29 v 0.02 l 0.02,0.2 v 0.03 l 0.78,7.04 c 0.77,7.09 -1.82,11.23 -4.53,15.53 l -0.71,1.14 c 1.75,-1.75 3.6,-3.78 5.5,-5.89 l -0.01,-0.01 c 6.69,-7.42 13.98,-15.48 22.44,-16.41 l 4.03,-0.44 0.19,-0.02 h 0.04 c 1.3,-0.13 2.6,-0.12 3.85,0.01 1.27,0.14 2.51,0.38 3.69,0.74 4.84,1.44 9.04,4.66 11.47,8.56 l -0.45,-4.11 -0.05,-0.35 -1.73,-0.9 -0.9,-0.47 -0.02,-0.01 c -2.71,-1.43 -9.48,-4.98 -10.14,-4.91 h -0.01 l -12.07,1.32 v -0.01 l -0.12,0.02 c -3.72,0.49 -8.4,4.66 -11.59,7.49 h -0.01 l -1.81,1.59 -4.22,3.57 -0.9,-5.46 -3.01,-18.19 c -1.33,-1.67 -2.13,-2.92 -2.9,-4.12 -1.08,-1.7 -2.11,-3.32 -4.86,-6.12 l -0.12,-0.14 -0.02,-0.02 v 0 c -0.66,-0.69 -1.6,-1.69 -2.52,-2.69 -2.16,-2.33 -4.43,-4.78 -6.66,-6.37 l -0.66,-0.47 c -5.13,-3.64 -16.63,-11.83 -22.22,-11.22 l -1.03,0.11 c -0.81,0.09 -1.41,0.26 -1.91,0.5 z m 94.05,43.41 c 5.25,0.38 6.78,3.68 8.3,6.94 0.66,1.41 1.32,2.82 2.4,3.12 l 2.02,0.57 0.25,2.07 0.02,0.15 c 0.55,3.45 6.53,15.46 11.12,24.68 2.1,4.21 3.92,7.87 4.88,10.05 l 0.06,0.15 v 0.02 c 0.54,1.23 1.15,2.71 1.79,4.32 0.61,1.56 1.3,3.42 2.05,5.47 3.68,10.13 7.93,23.74 8.78,31.51 l 1.32,12.07 0.11,1.04 -0.54,0.9 -5.49,9.16 -0.81,1.36 -1.61,0.14 c -12.03,1.09 -20.32,4.86 -27.46,8.1 -5.65,2.57 -10.63,4.84 -16.46,5.47 l -0.89,0.1 0.23,2 -3.14,0.35 -15.1,1.65 -0.07,0.01 -0.2,0.02 h -0.02 c -0.72,0.05 -1.68,0.05 -2.79,-0.02 -1.05,-0.05 -2.2,-0.16 -3.38,-0.29 -6.27,-0.7 -14.84,-2.49 -16.69,-3.77 -2.84,-1.94 -5.21,-4.02 -7.3,-6.46 l -0.02,-0.02 c -2.07,-2.4 -3.87,-5.15 -5.59,-8.46 l -0.03,-0.02 -1.48,-2.92 v -0.02 c -4.35,-8.63 -12.39,-24.56 -18.37,-23.91 l -7.05,0.77 v -0.01 l -0.1,0.02 v 0.01 h -0.03 c -0.94,0.14 -2.14,0.63 -3.5,1.39 -1.55,0.87 -3.21,2.04 -4.91,3.43 -8.98,7.32 -18.89,20.02 -19.71,25.44 l -0.35,2.31 c 1.95,-2.09 3.9,-5.11 5.68,-7.85 1.31,-2.03 2.56,-3.93 3.71,-5.37 l 0.02,-0.02 0.15,-0.18 0.02,-0.03 c 1.12,-1.32 3.66,-3.81 6.31,-6.44 3.52,-3.47 7.29,-7.14 7.29,-7.16 l 0.52,-2.16 2.19,-0.23 11.09,-1.21 3.12,-0.34 0.33,3.13 0.02,0.15 v 0 c 0.16,1.27 0.51,2.69 1.01,4.19 v 0.02 c 0.5,1.51 1.22,3.25 2.07,5.08 l -0.01,0.01 c 4.3,9.22 11.67,19.5 15.77,23.39 4.94,4.71 9.38,7.7 14.8,9.23 5.55,1.57 12.33,1.7 21.82,0.66 l 0.18,-0.02 c 0.92,-0.11 1.91,-0.26 2.95,-0.42 1.12,-0.19 2.22,-0.4 3.26,-0.61 5.72,-1.17 11.96,-2.94 15.9,-4.25 h 0.02 l 0.05,-0.02 v 0 c 2.11,-0.72 4.67,-2.14 7.37,-3.65 3.57,-1.98 7.38,-4.1 11.29,-5.27 l 0.05,-0.02 1.21,-0.34 0.06,-0.02 c 2.36,-0.61 4.79,-1.02 7.21,-1.42 4.9,-0.82 9.84,-1.65 12.32,-3.8 v 0 l 0.08,-0.06 -0.01,-0.01 c 0.3,-0.27 0.66,-0.66 1.03,-1.13 h 0.01 c 0.38,-0.47 0.84,-1.12 1.32,-1.86 l 0.01,0.01 c 2.26,-3.47 4.48,-8.31 4.19,-11.01 l -0.44,-4.02 -0.02,-0.18 c -0.28,-2.45 -0.67,-5.1 -1.17,-7.88 -0.5,-2.83 -1.09,-5.67 -1.73,-8.46 -3.4,-14.75 -8.77,-30.32 -13.5,-39.18 l -0.02,-0.02 -0.1,-0.18 c -0.93,-1.75 -2.16,-4.33 -3.59,-7.36 -5.96,-12.56 -15.91,-33.52 -21.86,-32.87 l -2.27,0.25 z m -122.56,48.69 c 2.71,-2.99 4.63,-5.5 4.97,-6.91 -0.5,0.88 -1.48,1.85 -3.47,2.85 l -2.1,1.05 c 0.17,0.72 0.3,1.4 0.41,2 l 0.2,1.01 z m 5.28,-7.57 c 0.05,0.01 0.08,0.01 0.02,-0.05 z m -9.68,-9.9 -0.16,-0.9 c -1.04,-5.97 -2.55,-12.41 -3.99,-17.16 h -0.01 l -0.08,-0.26 0.01,-0.01 c -0.54,-1.69 -1.96,-4.89 -3.41,-8.17 -1.66,-3.76 -3.36,-7.66 -4.13,-10.27 l 0.02,0.26 0.02,0.17 v 0 c 0.57,4.88 2.68,10.21 4.82,15.6 1.24,3.14 2.52,6.33 3.53,9.55 l 0.03,0.1 0.03,0.06 1,3.26 0.02,0.02 1.15,3.87 v 0.02 l 1.13,3.87 z m -12.23,-41 c 0.88,-5.68 10.14,-13.14 19,-20.28 1.82,-1.46 3.63,-2.92 5.32,-4.32 l -1.38,0.84 c -10.78,6.69 -23.58,17.98 -23,23.21 z m 35.77,-35.15 1.9,-0.21 -0.08,-0.72 1.51,-1.07 0.88,-0.63 c 1.7,-1.23 3.06,-2.22 6.41,-2.59 l 1.03,-0.11 c 7.93,-0.87 20.79,8.28 26.51,12.35 l 0.66,0.47 c 2.71,1.92 5.23,4.64 7.62,7.23 0.77,0.84 1.53,1.65 2.53,2.68 l 0.03,0.03 c 3.25,3.3 4.43,5.18 5.68,7.14 0.76,1.2 1.56,2.45 2.98,4.16 l 0.54,0.64 0.14,0.86 2.22,13.45 c 3.51,-2.98 7.94,-6.23 12.45,-6.82 h 0.02 l 0.19,-0.02 0.07,-0.02 12.06,-1.32 c 2.3,-0.25 8.95,3.08 12.62,4.98 0.89,-0.9 1.77,-1.47 4.04,-1.71 l 3.03,-0.33 c 10.36,-1.14 21.52,22.35 28.2,36.43 1.39,2.92 2.57,5.4 3.47,7.11 l 0.09,0.18 v 0 c 4.97,9.32 10.57,25.49 14.08,40.71 0.7,3.05 1.32,6.01 1.81,8.78 0.5,2.82 0.92,5.61 1.21,8.28 v 0.01 l 0.02,0.2 0.44,4.02 c 0.47,4.22 -2.32,10.7 -5.18,15.1 v 0.02 c -0.52,0.79 -1.09,1.58 -1.68,2.32 h 0.01 c -0.6,0.75 -1.19,1.39 -1.74,1.9 l -0.03,0.01 -0.11,0.11 -0.03,0.03 c -3.82,3.31 -9.62,4.28 -15.38,5.25 -2.34,0.38 -4.66,0.77 -6.62,1.27 v 0.01 l -1.21,0.34 c -3.27,0.99 -6.73,2.92 -9.98,4.73 -2.96,1.64 -5.77,3.21 -8.43,4.11 h -0.02 l -0.05,0.02 v 0.01 c -4.11,1.37 -10.64,3.21 -16.64,4.44 -1.24,0.26 -2.43,0.48 -3.47,0.66 -1.15,0.19 -2.25,0.35 -3.3,0.47 h -0.01 l -0.2,0.02 c -10.3,1.12 -17.79,0.95 -24.18,-0.86 -6.53,-1.84 -11.75,-5.31 -17.43,-10.73 -4.48,-4.27 -12.51,-15.39 -17.12,-25.29 h -0.02 c -0.88,-1.9 -1.67,-3.84 -2.31,-5.75 h -0.01 c -0.29,-0.88 -0.54,-1.74 -0.74,-2.57 l -6.89,0.75 c -1.72,2.14 -4.73,5.11 -7.6,7.94 -2.52,2.49 -4.93,4.86 -5.91,6.01 v -0.01 l -0.1,0.12 v 0.01 c -1.01,1.25 -2.14,2.99 -3.34,4.85 -2.64,4.07 -5.62,8.64 -9.18,11.21 l 4.01,12.91 c 4.01,6.72 17.89,47.24 26.07,74.74 1.63,5.46 3.07,10.53 4.18,14.8 1.12,4.27 1.86,7.61 2.1,9.57 l 0.02,0.2 0.4,3.16 -1.35,0.15 c 1.27,1.16 2.68,2.86 4,7.04 h -0.01 l 0.54,1.69 v 0 c 1.23,3.83 2.7,8.44 3.18,12.51 v 0.02 l 0.02,0.2 c 0.39,3.63 0.1,5.65 -0.11,7.14 -0.19,1.36 -0.26,1.88 2.65,5.59 l 0.02,0.02 c 0.42,0.55 1.46,1.74 2.62,3.08 2.54,2.92 5.74,6.59 6.43,8.21 v 0.02 c 0.16,0.38 0.27,0.76 0.31,1.13 v 0.01 l 0.88,8.06 c 1.05,9.65 0.41,17.51 -1.33,24.48 -1.73,6.96 -4.51,12.97 -7.75,19.01 h -0.01 l -3.74,6.97 c -1.96,3.69 -3.93,7.39 -5.57,10.36 -0.54,0.99 -3.2,5.12 -5.71,9.03 -2.16,3.35 -4.38,4.53 -4.35,5.57 0.08,0.58 1.22,1.24 2.47,1.96 v -0.01 c 1.18,0.68 2.43,1.39 3.57,2.41 9.36,-0.21 22.41,6.08 30.59,10.02 h -0.01 l 2.77,1.33 v -0.01 l 0.16,0.08 -0.01,0.01 c 5.62,2.64 10.51,4.83 15.44,6.93 4.55,1.94 8.97,3.73 13.88,5.69 1.18,-1.3 2.6,-3.12 4.12,-5.06 l -0.01,-0.01 c 2.47,-3.17 5.18,-6.65 7.91,-9.19 l 0.04,-0.03 0.11,-0.1 c 1.3,-1.18 2.4,-2.22 3.49,-3.23 3.96,-3.69 7.61,-7.08 12.76,-10.82 h 0.02 c 1.54,-1.11 3.03,-2.23 4.55,-3.37 9.9,-7.42 21.75,-16.3 37.07,-18.05 h 0.02 l 0.19,-0.02 c 7.95,-0.87 37.16,7.58 56.41,14.06 3.66,1.23 7.05,2.43 9.88,3.48 2.85,1.06 5.08,1.95 6.43,2.59 l 0.02,0.01 0.17,0.08 h 0.01 c 11.7,5.64 30.41,17.67 41.04,32.57 2.13,2.99 3.96,6.1 5.33,9.28 l -0.01,0.01 c 1.41,3.27 2.38,6.63 2.77,10.05 v 0.02 l 0.02,0.2 1.09,10.05 c 0.55,4.98 -7.74,27.67 -13.82,42.26 -1.21,2.91 -2.31,5.46 -3.21,7.44 -0.94,2.07 -1.76,3.71 -2.35,4.7 l -0.02,0.04 -0.11,0.17 -0.02,0.02 c -6.3,9.99 -8.71,11.7 -16.33,17.17 v -0.01 l -3.42,2.47 v 0 c -2.13,1.55 -6.28,3.68 -10.65,5.92 -6.04,3.11 -12.6,6.47 -13.39,7.81 l -0.65,1.18 -1.38,0.32 -7.19,1.67 0.24,2.22 -2.95,0.47 -0.5,0.08 c -2.29,0.5 -6.77,2.81 -10.82,5.27 -3.26,1.97 -6.08,3.81 -6.96,4.61 0.38,2.18 1.16,3.5 1.9,4.73 v 0.01 c 1.03,1.72 1.99,3.31 2.3,6.12 l 1.32,12.07 c 1.17,10.72 -6.78,24.65 -14.49,34.18 -1.47,1.82 -2.95,3.51 -4.36,4.99 -1.4,1.47 -2.75,2.74 -3.98,3.77 v 0.01 l -0.11,0.1 -0.04,0.02 -8.62,7.15 c -2.45,2.04 -5.28,4.42 -8.7,7.33 h -0.01 c -1.82,1.54 -5.53,3.48 -9.41,5.53 -4.84,2.55 -10.02,5.28 -10.24,5.89 l -0.01,-0.01 -0.61,1.92 -2.03,0.23 c -4.91,0.54 -7.99,2.18 -10.91,3.72 -3.1,1.65 -6.05,3.22 -10.69,3.72 l -4.01,0.44 c -13.77,1.51 -40.68,-20.03 -50.9,-28.21 l -1.1,-0.88 h -0.02 c -2.01,-1.61 -4.57,-3.89 -7.43,-6.44 -11.01,-9.83 -26.99,-24.08 -38.42,-23.03 v 0.01 l -0.2,0.02 -1.57,0.17 -1.09,-1.19 -0.69,-0.77 -0.01,0.01 c -1.41,-1.53 -3.5,-3.78 -3.96,-6.32 l -0.02,-0.08 -0.03,-0.19 -0.02,-0.13 -0.01,-0.3 -0.2,-13.17 -0.03,-1.89 1.66,-0.9 c 0.59,-0.32 3.26,-7.4 5.09,-12.46 l 1.03,-2.91 v 0 l 0.63,-1.85 v -0.01 l 0.02,-0.07 h 0.02 c 1.27,-3.99 5.13,-10.27 8.17,-15.22 h 0.02 c 0.87,-1.41 1.67,-2.71 2.28,-3.75 l 0.02,-0.02 0.03,-0.06 c 2.98,-5.02 6.26,-9 9.76,-13.26 l 2.59,-3.16 c 0.99,-1.22 3.41,-3.32 6.08,-5.65 3.4,-2.95 7.29,-6.35 8.12,-7.36 l -0.03,-0.24 c -4.71,-2.03 -10.07,-7.51 -15.2,-12.79 -4.33,-4.45 -8.51,-8.75 -11.07,-9.84 l -0.07,-0.02 -0.06,-0.03 c -1.55,-0.6 -3.18,-1.98 -4.8,-3.72 l 0.25,2.28 c 0.32,2.9 -1.61,9.92 -3.27,14.92 -0.36,1.09 -0.67,1.98 -0.9,2.63 -0.27,0.73 -0.54,1.41 -0.78,2 l -0.08,0.18 -0.01,0.04 -0.06,0.14 c -2.93,6.69 -5.68,12.92 -15.74,14.02 l -2,0.23 c -10.46,1.14 -17.94,-4.18 -24.09,-8.57 -1.24,-0.87 -2.4,-1.72 -3.49,-2.43 l 1.07,9.75 c 1.24,11.28 -7.93,21.59 -19.02,27.07 -2.1,1.04 -4.29,1.92 -6.48,2.59 -2.22,0.69 -4.46,1.18 -6.63,1.43 h -0.04 l -0.19,0.02 -13.08,1.43 c -6.99,0.75 -11.95,-4.57 -15.76,-9.53 l 0.1,5.31 0.03,1.48 -1.15,0.96 c -0.99,0.84 -2.02,1.74 -2.9,2.52 v 0.01 c -5.79,5.09 -7.11,6.26 -21.16,7.8 l -14.07,1.54 c -5.39,0.58 -11.12,-1.62 -14.86,-5.22 -0.53,-0.5 -1.01,-1.05 -1.45,-1.6 l -3.18,3.93 -0.81,1.01 -1.3,0.14 c -4.36,0.47 -8,1.88 -11.55,3.26 -3.79,1.46 -7.51,2.91 -12.13,3.41 v 0.01 l -30.22,3.51 -0.09,0.01 h -0.27 l -11.15,-0.01 -1.7,-0.01 -0.93,-1.38 c -0.4,-0.6 -0.5,-0.74 -0.59,-0.86 h -0.01 c -1.23,-1.7 -2.22,-3.07 -2.59,-6.4 l -0.55,-5.03 -0.01,-0.11 c -0.03,-0.41 0.23,-2.59 0.58,-5.53 0.35,-2.93 0.81,-6.63 1.14,-9.56 0.28,-2.43 0.5,-4.51 0.58,-5.54 0.33,-4.68 0.11,-10.66 -0.33,-16.34 -0.1,-1.32 -0.2,-2.42 -0.28,-3.32 v 0 l -0.32,-3.2 h -0.01 l -0.03,-0.32 -0.99,-9.05 v -0.02 c -0.03,-0.29 -11.83,-8.18 -20.78,-14.7 l -0.01,0.01 c -2.23,-1.61 -4.12,-2.98 -5.37,-3.87 l -2.28,-1.62 c -5.74,7.38 -23.94,33.96 -35.17,51.33 v 0 c -2.46,3.82 -4.61,7.22 -6.22,9.89 h -0.01 l -1.2,2.03 c 12.56,4.96 31.56,20.49 42.61,36.56 2.4,3.49 4.45,7.04 6.01,10.55 h 0.02 c 1.59,3.57 2.66,7.12 3.06,10.53 v 0.02 l 0.02,0.19 0.99,9.07 c 0.44,4.03 -0.23,4.42 -2.21,5.55 -0.12,0.08 -0.29,0.17 -0.43,0.29 l -3.6,3.36 -1.26,-3.9 c -4.74,9.66 -15.87,26.46 -24.4,38.63 -2.04,2.92 -4,5.65 -5.71,8 -1.67,2.28 -3.04,4.11 -3.97,5.28 l 0.01,0.01 -0.14,0.17 -0.02,0.03 c -4.12,5.19 -23.86,25.89 -37.76,37.65 -2.75,2.31 -5.31,4.33 -7.54,5.84 -2.46,1.67 -4.59,2.76 -6.22,3.04 l -0.08,0.01 -0.2,0.03 -0.11,0.02 -2,0.22 h -0.01 c -5.43,0.6 -8.91,-0.42 -11.49,-2.72 -2.06,-1.82 -3.28,-4.3 -4.42,-7.33 -3.99,-0.87 -10.54,-3.41 -15.74,-5.71 -1.21,-0.54 -2.43,-1.1 -3.62,-1.66 -1.12,-0.54 -2.08,-1.01 -2.8,-1.39 l -0.06,-0.04 -0.85,-0.47 -0.08,-0.05 c -4.05,-2.39 -7.33,-4.41 -10.58,-6.61 l -0.01,0.01 c -3.19,-2.16 -6.27,-4.45 -9.94,-7.4 l -0.02,-0.02 -1.88,-1.51 c -5.96,-4.76 -11.53,-9.2 -16.77,-14.88 v 0 c -1.11,-1.2 -7.69,-8.41 -12.18,-13.55 -1.04,-1.19 -1.93,-2.22 -2.5,-2.9 -0.69,-0.82 -1.24,-1.52 -1.62,-2.06 l -0.01,0.01 c -0.44,-0.62 -0.72,-1.25 -0.78,-1.87 v -0.01 c -0.21,-2.01 0.05,-3.5 1.06,-4.76 0.99,-1.24 2.39,-1.83 4.42,-2.05 h 0.01 c 2.74,-0.29 4.7,0.08 6.35,0.94 v 0.01 c 1.62,0.84 2.69,2 3.86,3.38 l 0.33,0.38 0.2,0.51 c 0.75,1.92 12.91,12.88 21.29,19.97 1.67,1.42 3.19,2.67 4.42,3.65 1.19,0.95 2.1,1.63 2.59,1.94 l 0.02,0.01 0.03,0.02 c 1.97,1.21 4.4,3.03 7.08,5.05 7.92,5.95 18.38,13.81 25.44,11.37 v 0.01 l 0.04,-0.02 3.74,-1.31 0.43,3.93 0.18,1.68 10.12,1.74 12.59,0.32 c 1.97,-0.25 17.98,-17.92 29.11,-30.5 2.1,-2.37 4.21,-4.8 6.11,-7 1.58,-1.83 2.93,-3.42 3.87,-4.55 l 0.45,-0.56 v 0.01 c 2.54,-3.15 17.48,-24.74 26.44,-38.51 1.77,-2.71 3.33,-5.16 4.51,-7.11 0.79,-1.3 1.39,-2.31 1.7,-2.92 -1.14,-3.99 -9.2,-13.23 -15.35,-19.81 -1.18,-1.26 -2.45,-2.57 -3.63,-3.78 -1.04,-1.07 -1.93,-1.96 -2.57,-2.58 v 0.01 l -0.14,-0.14 -0.02,-0.02 c -4.52,-4.33 -13.14,-10.02 -20.63,-14.45 -1.42,-0.84 -2.86,-1.67 -4.24,-2.43 l -2.11,-1.18 -2.25,1.49 -4.28,2.84 -0.57,-5.12 c -1.12,-10.07 12.79,-34.16 27.11,-54.04 -2.41,-0.29 -4.02,-1.87 -5.09,-4.05 l -0.05,-0.14 c -0.32,1.61 -0.66,3.16 -1.05,4.51 -0.41,1.48 -0.89,2.8 -1.42,3.84 h -0.01 c -0.77,1.52 -1.77,2.64 -3,3.14 l -0.01,-0.01 c -0.37,0.15 -0.74,0.25 -1.11,0.29 -2.32,0.26 -3.19,0.07 -4.39,-0.19 v -0.01 c -0.38,-0.08 -0.84,-0.18 -1.45,-0.25 l -2.71,-0.32 -0.03,-1.18 -6.26,23.65 -0.5,1.88 -1.92,0.38 -3.2,0.64 -3,0.6 -0.68,-2.98 -2.45,-10.9 -0.12,-0.54 0.07,-0.55 c 0.09,-0.67 0.6,-1.94 1.22,-3.46 0.69,-1.69 1.58,-3.82 1.89,-5 l 0.07,-0.34 c 0.17,-1.33 0.38,-2.83 0.59,-4.28 -4.08,1.58 -7.5,4.06 -11.02,6.61 -6.4,4.64 -13.11,9.5 -24.64,10.76 l -0.94,0.1 -0.84,-0.43 c -5.46,-2.84 -10.82,-6.14 -16.3,-9.5 -5.24,-3.21 -10.6,-6.5 -16.23,-9.5 l -0.01,0.01 c -2.53,-1.34 -4.94,-2.45 -7.36,-3.56 -3.17,-1.45 -6.41,-2.94 -9.82,-4.86 l -0.01,0.01 c -1.94,-1.09 -4.12,-1.81 -6.12,-2.47 -4.15,-1.36 -7.81,-2.59 -9.73,-6.05 -10.86,6.99 -39.9,32.47 -58,49.95 -3.9,3.77 -7.3,7.18 -9.88,9.94 -1.37,1.47 -2.47,2.71 -3.27,3.69 0.78,0.84 1.26,1.75 1.49,3.83 v 0.01 c 0.38,3.6 -3.38,5.7 -7.08,6.69 h -0.02 c -0.57,0.15 -1.13,0.29 -1.63,0.38 -0.56,0.11 -1.08,0.2 -1.51,0.25 h -0.02 l -0.15,0.02 c 1.37,12.1 17.05,35.41 29.91,50.55 2.53,2.98 4.94,5.63 7.08,7.78 2.11,2.12 3.95,3.76 5.38,4.78 h 0.02 l 0.12,0.08 6.69,4.79 -8.18,0.9 -4.02,0.44 -0.75,0.08 -0.74,-0.29 c -16.49,-6.54 -33.92,-28.1 -43.71,-52.08 -1.89,-4.64 -3.51,-9.39 -4.79,-14.16 -1.27,-4.77 -2.22,-9.57 -2.74,-14.27 v -0.02 l -0.02,-0.19 -0.66,-6.03 c -0.32,-2.89 0.53,-4.75 2.2,-6.09 1.34,-1.08 2.98,-1.54 4.9,-1.92 l 3.11,-0.62 0.59,3.13 c 0.2,1.08 0.47,1.82 0.72,2.52 v 0.02 c 0.23,0.63 0.45,1.24 0.65,2.04 9.82,-13.62 39.14,-40.92 62.07,-58.52 5.53,-4.24 10.73,-7.97 15.23,-10.85 4.64,-2.96 8.57,-5.03 11.37,-5.83 v 0.02 c 0.69,-0.2 1.33,-0.34 1.89,-0.4 h 0.01 l 3.03,-0.33 c 2.86,-0.31 5.33,0.9 6.76,3.08 l 0.01,-0.01 c 0.29,0.43 0.54,0.91 0.73,1.44 0.18,0.48 0.32,1 0.39,1.53 v 0.08 l 0.03,0.19 0.01,0.07 0.23,2.01 c 0.18,1.71 0.12,2.63 -0.02,3.47 l 12.78,5.55 c 1.25,-1.46 2.34,-2.64 5.12,-2.93 l 2.01,-0.22 c 2.67,-0.29 8.77,4.89 15.75,10.83 7.87,6.7 17.03,14.49 19.73,14.83 5.53,-0.87 25.72,-26.12 32.15,-34.18 l 0.01,-0.02 1.09,-1.35 11.58,-14.43 4.57,-5.69 c 1.04,-1.3 2.94,-3.25 5.1,-5.46 l 0.02,-0.01 c 2.03,-2.07 4.33,-4.42 6.26,-6.57 l -0.4,-1.27 -1.2,-3.78 -0.9,-2.87 2.83,-1.03 1.61,-0.6 c -1.69,-3.16 -4.3,-7.19 -6.92,-11.25 -3.5,-5.42 -7.01,-10.86 -8.67,-14.78 l -0.01,0.01 -0.02,-0.06 -0.02,-0.06 c -1.25,-3.01 -3.39,-7.15 -5.65,-11.51 -3.88,-7.5 -8.11,-15.68 -9.31,-21.15 l -5.89,-16.64 c -4.73,-3.54 -7.98,-15.39 -9.73,-25.1 -0.38,-2.13 -0.69,-4.02 -0.9,-5.61 v -0.02 c -0.17,-1.21 -0.31,-2.35 -0.41,-3.36 l -2.17,-1.73 -0.98,-0.78 -0.17,-1.22 -9.87,-69.2 v 0 c -1.45,-9.62 -0.26,-17.43 0.83,-24.53 0.8,-5.15 1.53,-9.92 1.03,-14.49 l -0.22,-2.02 v -0.01 c -0.04,-0.3 -0.2,-0.4 -0.35,-0.5 -1.48,-0.9 -2.96,-1.8 -3.33,-5.21 l -0.49,-4.5 c -3.17,-0.55 -6.61,-1.92 -9.65,-3.14 l 0.01,-0.01 c -2.29,-0.91 -4.3,-1.71 -5.16,-1.78 -1.18,0.2 -0.13,1.31 -1.95,3.29 -3.53,3.81 -8.76,9.47 -13.13,13.9 -3.01,3.04 -5.65,5.52 -7.1,6.47 h -0.01 c -4.27,2.78 -15.69,9.8 -24.99,13.93 l -0.01,-0.01 c -1.91,0.84 -3.72,1.58 -5.34,2.12 -1.78,0.6 -3.41,1.02 -4.8,1.19 v -0.02 l -0.18,0.02 -0.06,0.02 -9.08,0.99 c -5.31,0.57 -7.33,-0.02 -9.43,-0.64 -1.67,-0.49 -3.43,-1.01 -8.98,-0.41 -4.45,0.49 -6.17,-2.17 -8.05,-5.06 -0.49,-0.75 -1,-1.55 -1.51,-2.12 l -0.01,0.01 -0.13,-0.14 -0.72,-0.76 -0.13,-1.02 -6.57,-53.34 -0.12,-0.14 c -2.04,-2.33 -4.53,-5.19 -4.99,-9.45 l -0.78,-7.05 c -0.59,-5.31 11.16,-22.5 17.28,-31.46 1.27,-1.86 2.32,-3.38 2.8,-4.14 v -0.01 l 0.13,-0.2 c 3.21,-5 12.66,-15.43 21.82,-21.41 v 0 c 1.85,-1.22 3.73,-2.27 5.54,-3.07 1.89,-0.83 3.79,-1.41 5.62,-1.64 l 0.06,-0.02 0.2,-0.02 7.02,-0.76 c 3.38,-0.38 4.58,0.87 5.78,2.11 0.14,0.14 0.28,0.28 0.59,0.25 l 7.6,-0.84 -2.89,-11.35 -0.05,-0.17 -0.03,-0.26 -1.54,-14.09 c -0.54,-4.94 3.83,-10.79 9.11,-15.96 4.86,-4.76 10.45,-9.03 13.29,-11.18 2,-1.53 3.47,-2.78 4.83,-3.94 2.31,-1.97 4.37,-3.73 8.13,-6.16 1.91,-1.24 4.38,-2.52 6.87,-3.81 3.24,-1.69 6.55,-3.41 8.12,-4.73 v 0 l 0.74,-0.63 0.97,-0.11 4.99,-0.55 0.22,-0.23 c 1.18,-1.26 1.9,-2.02 4.63,-2.32 h 0.01 l 8.06,-0.89 c 5.19,-0.56 15.49,4.54 22.51,8.86 1.24,0.76 2.49,1.57 3.61,2.34 v 0 c 1.06,0.72 1.98,1.4 2.69,2 h 0.02 l 0.13,0.11 0.01,0.02 c 6.32,5.38 9.35,10.27 12.46,15.32 1.68,2.73 3.41,5.52 5.75,8.43 l 0.45,0.56 0.16,0.72 4.36,18.83 v 0.01 l 0.47,2.03 0.07,0.3 v 0.35 l 0.19,15.07 0.02,0.94 -0.5,0.78 -7.62,12.02 -1.04,1.63 c 2.49,1.41 4.93,3.3 6.72,6.62 3.9,-1.44 9.55,-4.54 14.86,-7.45 4.19,-2.3 8.19,-4.49 11.2,-5.79 h 0.01 l 0.13,-0.05 v 0 l 5.21,-2.25 c 8.62,-3.74 17.95,-7.79 26.27,-10.39 v 0 l 0.07,-0.02 h 0.03 l 1.32,-0.41 c 21.91,-6.78 45.82,-14.19 72.29,-17.1 l 0.08,-0.01 18.12,-2.68 0.2,-0.03 0.29,0.01 37.68,0.68 2.77,0.05 0.17,1.63 c 4.69,-0.46 16.07,2.24 23.75,4.64 1.48,0.46 2.86,0.93 4.05,1.36 h 0.02 c 0.85,0.31 1.61,0.6 2.25,0.88 l 5.16,-0.6 1.15,-0.14 0.96,0.65 18.19,12.28 22.24,-21.78 c -1.03,-4.67 -3.07,-11.98 -4.87,-18.09 v 0 l -1.15,-3.87 v 0 l -0.99,-3.24 v 0 l -0.02,-0.06 -0.02,-0.03 c -0.96,-3.01 -2.18,-6.1 -3.38,-9.16 -2.31,-5.81 -4.6,-11.55 -5.25,-17.19 v -0.02 l -0.02,-0.2 -0.55,-5.03 c -0.84,-7.69 13.63,-21.59 25.93,-29.21 2.34,-1.45 4.64,-2.71 6.77,-3.69 2.22,-1.01 4.27,-1.71 6.01,-1.97 l 0.04,-0.02 0.22,-0.03 0.1,-0.02 3.01,-0.33 z m -308.43,127.52 c 0.29,0.43 0.67,0.81 1.12,1.16 l 0.56,-1.65 0.76,-2.26 z m -68.14,90.03 z m -0.01,0 h 0.01 z m 83.24,249.43 c -2.5,3.2 -5.94,6.72 -8.88,9.71 -2.04,2.09 -3.83,3.92 -4.7,5 l -0.01,0.02 -4.57,5.69 -11.57,14.43 -1.09,1.36 c -6.87,8.59 -28.43,35.56 -36.46,36.51 v 0.01 h -0.04 c -0.3,0.03 -0.62,0.03 -0.93,0.01 h -0.02 v 0 c -4.63,-0.35 -14.73,-8.95 -23.4,-16.33 -5.87,-5 -11,-9.36 -11.03,-9.36 l -2.02,0.22 c -0.38,0.05 -0.72,0.44 -1.14,0.92 l -0.01,-0.01 c -0.51,0.61 -1.09,1.28 -1.85,1.93 l -1.48,1.26 -1.8,-0.78 -17.04,-7.42 -2.08,-0.91 0.21,-2.26 c 0.09,-0.94 0.22,-1.54 0.33,-2.07 v -0.02 c 0.11,-0.58 0.21,-1.04 0.08,-2.31 l -0.22,-2.02 h 0.01 l -0.01,-0.06 h -0.01 l -0.07,-0.25 -0.02,-0.04 -0.06,-0.13 -0.02,-0.03 c -0.14,-0.22 -0.45,-0.33 -0.85,-0.29 l -3.02,0.33 h -0.02 c -0.25,0.02 -0.53,0.08 -0.83,0.17 l -0.02,0.02 c -2.22,0.63 -5.59,2.43 -9.71,5.07 -4.27,2.72 -9.32,6.36 -14.8,10.56 -26.97,20.7 -63.15,54.11 -63,60.2 l 0.08,2.88 -2.88,0.32 -2,0.21 -2.78,0.3 c 0.5,3.11 1.18,6.28 2.02,9.43 1.2,4.48 2.74,9 4.54,13.42 6.96,17.06 17.82,32.72 29.18,41.91 -0.57,-0.64 -1.13,-1.28 -1.7,-1.95 -13.46,-15.85 -29.92,-40.62 -31.38,-54.02 l -0.33,-3.04 -0.34,-3.12 3.13,-0.33 3,-0.32 v -0.01 l 0.21,-0.02 v 0 c 0.34,-0.05 0.71,-0.11 1.07,-0.18 0.42,-0.08 0.84,-0.18 1.23,-0.28 1.15,-0.3 2.49,0.56 2.46,0.06 h -0.01 c -0.05,-0.41 -0.17,-0.54 -0.37,-0.73 v -0.01 h -0.01 c -0.38,-0.35 -0.83,-0.78 -1.35,-1.39 l -1.38,-1.64 1.01,-1.88 0.02,-0.05 c 0.78,-1.45 2.73,-3.81 5.5,-6.8 2.64,-2.81 6.12,-6.31 10.13,-10.18 20.52,-19.84 55.28,-49.92 63.04,-52.9 l 3.72,-1.44 0.52,3.96 c 0.38,2.92 3.3,3.89 6.76,5.03 2.28,0.75 4.76,1.57 7.24,2.96 v 0.01 c 3.04,1.72 6.23,3.19 9.36,4.62 2.67,1.22 5.31,2.43 7.7,3.7 v 0.02 c 5.91,3.15 11.3,6.46 16.56,9.68 5.03,3.08 9.97,6.1 15.09,8.81 9.29,-1.24 15.11,-5.45 20.68,-9.47 5.27,-3.82 10.34,-7.49 17.87,-8.95 l 4.24,-0.83 -0.54,4.29 c -0.16,1.35 -0.38,2.88 -0.61,4.46 -0.19,1.3 -0.38,2.62 -0.63,4.64 l -0.04,0.22 -0.11,0.54 -0.03,0.16 c -0.38,1.53 -1.4,4.02 -2.21,5.96 -0.3,0.74 -0.54,1.25 -0.68,1.56 l 0.86,3.81 9.1,-34.44 0.78,-2.92 2.95,0.67 1.4,0.31 2.38,0.54 0.07,2.45 0.33,12.63 c 0.26,0.03 0.54,0.05 0.93,0.04 -0.01,-0.02 -0.02,-0.02 0,-0.05 v -0.01 c 0.33,-0.67 0.67,-1.61 0.98,-2.73 1.74,-6.17 2.72,-16.16 2.56,-17.85 v 0 l -0.44,-4.02 -0.35,-3.13 3.14,-0.33 2.01,-0.22 3.12,-0.34 0.34,3.13 1.42,13.09 c 0.17,1.51 0.44,3.17 0.97,4.25 0.13,0.26 0.27,0.46 0.39,0.54 l -0.21,-2 1.82,-0.2 -5.96,-37.73 h -0.01 c -0.57,-3.32 1.27,-5.36 3.39,-7.68 1.58,-1.73 3.41,-3.75 3.17,-6.47 v -0.06 z m -231.04,102.18 c -0.02,0.01 0.01,0.04 0.03,0.13 v 0.01 c 0.03,0.08 0.05,0.2 0.08,0.4 l -0.54,0.05 -5.71,0.61 z m -3.93,-4.89 2.87,3.57 1.06,1.32 z m 234.62,-84.08 5.68,36.01 1.45,-1.8 c 3.29,-4.05 6.41,-7.65 9.16,-10.51 1.56,-1.62 3.02,-3.05 4.35,-4.2 -0.7,-0.11 -1.52,-0.32 -2.51,-0.77 v -0.01 c -3.14,-1.41 -3.53,-2.86 -3.85,-4.18 h -0.01 c -0.07,-0.26 0.12,0.49 -0.59,0.32 l -2.38,-0.58 -0.02,-2.46 -0.05,-9.95 c -0.6,-0.61 -1.3,-1.27 -2.03,-1.94 -1.82,-1.72 -3.74,-3.55 -4.91,-5.28 -0.77,1.07 -1.64,2.02 -2.45,2.92 -1.01,1.11 -1.89,2.08 -1.84,2.4 v 0.05 z m 23.43,25.43 c -0.81,0.77 -1.7,1.65 -2.62,2.62 -2.64,2.75 -5.65,6.21 -8.82,10.12 -13.91,17.17 -31.06,42.95 -34.88,56.67 l 1.43,0.78 0.04,0.02 c 1.29,0.68 2.59,1.38 3.83,2.07 1.33,0.75 2.8,1.6 4.36,2.52 7.79,4.61 16.84,10.6 21.77,15.32 l 0.14,0.14 0.01,0.01 c 0.69,0.66 1.62,1.6 2.73,2.73 0.97,0.99 2.22,2.29 3.7,3.88 7.11,7.59 16.56,18.73 17.14,24.01 v 0.02 c 0.06,0.57 -0.03,1.13 -0.23,1.7 l -0.01,0.02 c -0.31,0.84 -1.18,2.43 -2.46,4.53 l -0.04,0.06 2.3,-0.25 1.89,-0.21 -0.44,-3.94 -0.02,-0.17 v 0 c -0.32,-2.73 -1.23,-5.68 -2.57,-8.71 h 0.01 c -1.38,-3.1 -3.23,-6.32 -5.44,-9.51 -11.43,-16.63 -31.53,-32.53 -42.58,-35.21 l -3.04,-0.74 0.72,-3.04 0.05,-0.22 0.06,-0.2 c 0.32,-1.03 1.45,-3.14 3.17,-5.98 v -0.01 c 1.58,-2.62 3.77,-6.08 6.32,-10.04 l 0.02,-0.02 c 10.05,-15.53 25.75,-38.48 33.45,-48.96 z m 5.86,127.61 c -1.13,1.85 -2.63,4.18 -4.33,6.8 -9.07,13.95 -24.28,35.91 -26.82,39.04 l -0.01,0.02 -0.46,0.56 -0.01,0.01 c -0.74,0.9 -2.13,2.52 -3.98,4.67 -1.55,1.8 -3.65,4.19 -6.17,7.05 -11.9,13.46 -29.51,32.4 -33.49,32.62 h -0.25 l -13.1,-0.34 -0.29,-0.02 -0.17,-0.02 -12.61,-2.16 -2.33,-0.41 -0.26,-2.35 -0.07,-0.64 c -9.29,0.64 -19.55,-7.05 -27.54,-13.05 -2.47,-1.85 -4.72,-3.54 -6.62,-4.71 h 0.01 l -0.04,-0.02 -0.06,-0.04 c -0.73,-0.47 -1.84,-1.29 -3.17,-2.34 -1.3,-1.03 -2.87,-2.33 -4.57,-3.76 -8.16,-6.9 -19.84,-17.66 -22.57,-21.63 -0.72,-0.85 -1.35,-1.55 -1.95,-1.86 v 0.01 c -0.48,-0.25 -1.14,-0.38 -2.12,-0.34 l 0.42,0.52 c 0.77,0.91 1.58,1.85 2.4,2.8 4.39,5.03 11,12.26 12.07,13.42 l 0.02,0.02 c 4.91,5.32 10.29,9.61 16.05,14.21 l 1.91,1.52 0.01,0.01 c 3.52,2.83 6.47,5.03 9.54,7.1 v 0.01 c 3.01,2.03 6.21,4.01 10.27,6.4 v 0.01 l 0.72,0.39 v 0 c 0.69,0.36 1.57,0.8 2.56,1.27 0.93,0.44 2.12,0.98 3.47,1.58 5.87,2.59 13.36,5.56 15.41,5.51 l 2.3,-0.07 0.75,2.17 c 1.03,2.95 1.96,5.25 3.34,6.48 1.24,1.1 3.22,1.55 6.64,1.18 l 1.99,-0.22 0.02,-0.01 c 0.72,-0.12 2.03,-0.85 3.76,-2.03 1.96,-1.33 4.36,-3.22 7,-5.45 13.62,-11.53 32.9,-31.72 36.9,-36.77 l 0.01,0.01 0.12,-0.16 0.02,-0.02 c 0.89,-1.13 2.22,-2.9 3.83,-5.1 1.58,-2.16 3.49,-4.84 5.63,-7.9 10.48,-14.95 24.95,-36.8 25.56,-41.85 l 0.26,-2.1 z m -173.75,36.92 c 0.01,-0.09 0.02,-0.15 -0.07,-0.05 -0.08,0.11 -0.02,0.08 0.07,0.05 z m 283.77,-97.79 v 0.01 z"
         id="path2487" />
    </g>
    <path
       class="fil25"
       d="m 101.8086,274.40876 c -0.0411,0.005 -0.0577,-0.0332 -0.0622,-0.0743 l -0.009,-0.0533 -0.006,-0.2152 c 0.0593,-0.11358 0.25196,-0.68954 0.36911,-0.70241 l 0.0401,-0.004 c 0.0308,-0.003 0.0411,0.005 0.0444,0.0357 l 0.007,0.0667 c -0.0529,0.0284 -0.20446,0.34762 -0.24533,0.42431 -0.0363,0.0683 -0.073,0.16505 -0.0894,0.24506 -0.008,0.0395 -1.3e-4,0.27266 -0.0482,0.27797 z m -0.70267,-0.24745 0.10681,-0.0117 c -0.051,-0.0606 -0.11583,-0.10044 -0.17315,-0.1636 -0.0573,-0.0629 -0.0971,-0.14501 -0.1486,-0.20923 -0.0425,-0.0532 -0.25687,-0.39433 -0.26855,-0.45443 0.0764,0.0117 0.32096,0.36686 0.38637,0.44434 0.0685,0.0811 0.13082,0.14582 0.19995,0.22131 0.0866,0.0949 0.15284,0.0918 0.25925,0.14741 0.13374,-0.0146 0.22224,-0.0678 0.23577,0.0553 l 0.0204,0.18695 c 0.0174,0.0448 0.33754,0.32572 0.39313,0.35996 0.11052,0.0681 0.3183,0.27425 0.46769,0.2217 l 0.006,0.0533 0.16758,0.0289 0.17354,0.005 c 0.056,-0.003 0.49676,-0.50817 0.55527,-0.58048 0.0486,-0.0598 0.44686,-0.64005 0.44381,-0.66685 -0.009,-0.0831 -0.2424,-0.32546 -0.30198,-0.38238 -0.0874,-0.0838 -0.28008,-0.20114 -0.38955,-0.2582 l -0.0501,0.0332 c -0.0238,-0.21401 0.52913,-0.97453 0.69286,-1.07629 -0.0276,-0.0714 -0.0288,-0.0287 -0.0804,-0.0516 -0.0508,-0.0227 -0.003,-0.0386 -0.0663,-0.054 l -6.6e-4,-0.14833 c -0.0393,-0.0444 -0.14024,-0.11889 -0.0981,-0.13812 l -0.004,-0.0401 -0.0417,-0.008 c 0.009,0.0973 -0.0969,0.1295 -0.0877,0.18456 l 0.0861,0.54465 -0.0263,0.003 0.003,0.0267 -0.0401,0.004 c -0.0468,0.005 -0.0598,-0.0533 -0.0652,-0.10097 l -0.0188,-0.17355 -0.0268,0.003 0.006,0.0533 c 0.004,0.0336 -0.0257,0.31365 -0.0732,0.31883 -0.0361,0.004 -0.0375,-0.002 -0.0682,-0.006 l -0.005,-0.20181 -0.0184,-0.004 -0.14051,0.53045 -0.0425,0.009 -0.0324,-0.14475 c 9.3e-4,-0.009 0.0386,-0.0904 0.0418,-0.1157 0.006,-0.0458 0.0114,-0.0784 0.0165,-0.12074 -0.20115,0.039 -0.26908,0.21853 -0.52714,0.24665 -0.1425,-0.0744 -0.27611,-0.16903 -0.43134,-0.25156 -0.0735,-0.0391 -0.15006,-0.0675 -0.22742,-0.11118 -0.0905,-0.0511 -0.19398,-0.041 -0.20658,-0.13719 -0.13693,0.0531 -0.96339,0.79621 -1.0223,0.90899 0.0188,0.0223 0.0293,0.0206 0.0326,0.0504 0.003,0.0295 -0.067,0.0479 -0.10256,0.0517 l -0.0399,0.004 0.004,0.0399 c 0.0257,0.23604 0.43094,0.76437 0.5814,0.86892 l -0.0533,0.006 z"
       id="path2491"
       style="clip-rule:evenodd;fill:#fdfefe;fill-rule:evenodd;stroke-width:0.013268;image-rendering:optimizeQuality;shape-rendering:geometricPrecision;text-rendering:geometricPrecision" />
    <path
       class="fil2"
       d="m 101.21274,274.14951 c 0.0263,0.0223 0.17553,0.10256 0.21348,0.0983 l 0.12007,-0.0131 0.15736,-0.0442 c -0.0135,-0.12312 -0.10216,-0.0699 -0.23577,-0.0553 -0.10654,-0.0556 -0.17275,-0.0525 -0.25926,-0.14741 -0.0691,-0.0755 -0.13148,-0.14024 -0.19995,-0.22131 -0.0654,-0.0775 -0.30994,-0.43254 -0.38636,-0.44435 0.0115,0.0601 0.22595,0.40123 0.26854,0.45443 0.0515,0.0643 0.0913,0.14635 0.14861,0.20924 0.0574,0.0632 0.12219,0.10296 0.17314,0.16359 z"
       id="path2493"
       style="clip-rule:evenodd;fill:#2b2a29;fill-rule:evenodd;stroke-width:0.013268;image-rendering:optimizeQuality;shape-rendering:geometricPrecision;text-rendering:geometricPrecision" />
    <path
       class="fil2"
       d="m 101.8086,274.40876 c 0.0482,-0.005 0.0402,-0.23842 0.0482,-0.27796 0.0165,-0.0799 0.0529,-0.17673 0.0894,-0.24506 0.0409,-0.0767 0.19239,-0.39592 0.24533,-0.42431 l -0.007,-0.0667 c -0.003,-0.0308 -0.0137,-0.0391 -0.0444,-0.0357 l -0.0401,0.004 c -0.11715,0.0127 -0.30981,0.58883 -0.36911,0.70241 l 0.006,0.2152 0.009,0.0533 c 0.005,0.0411 0.0211,0.0788 0.0622,0.0743 z"
       id="path2495"
       style="clip-rule:evenodd;fill:#2b2a29;fill-rule:evenodd;stroke-width:0.013268;image-rendering:optimizeQuality;shape-rendering:geometricPrecision;text-rendering:geometricPrecision" />
    <path
       class="fil2"
       d="m 109.10069,273.74722 c 0.12273,-0.0135 0.20472,-0.12976 0.25249,-0.21136 0.0399,-0.0683 0.16067,-0.19437 0.15324,-0.27889 -0.13586,0.0149 -0.17951,0.14993 -0.26005,0.21759 l -0.0667,0.007 c -0.0507,0.0425 -0.18946,0.31405 -0.18774,0.3853 l 0.10867,-0.11994 z"
       id="path2497"
       style="clip-rule:evenodd;fill:#2b2a29;fill-rule:evenodd;stroke-width:0.013268;image-rendering:optimizeQuality;shape-rendering:geometricPrecision;text-rendering:geometricPrecision" />
    <path
       class="fil25"
       d="m 107.87022,266.9361 c 0.0378,0.10773 0.0195,0.16306 0.0998,0.23975 0.0545,0.052 0.10031,0.12485 0.14834,0.17925 0.0612,0.0693 0.24944,0.30238 0.34377,0.29999 l 0.003,0.0267 -0.0399,0.004 c -0.19278,0.021 -0.61404,-0.4263 -0.63819,-0.64655 -0.005,-0.0409 2.7e-4,-0.0946 0.0433,-0.0992 l 0.0401,-0.004 z m -0.46465,-1.40866 0.0399,-0.004 c -0.0551,0.10535 -0.44899,0.34218 -0.43838,0.4397 l 10e-4,0.0134 c 0.005,0.0433 0.0872,0.20486 0.10495,0.26364 0.0276,0.0914 0.0567,0.22688 0.0675,0.32559 l 0.007,0.0667 c 0.0573,-0.0283 0.006,-0.0413 0.0624,-0.0474 0.0308,-0.003 0.0411,0.005 0.0444,0.0357 0.009,0.0792 -0.33661,0.38596 -0.40003,0.43134 l 0.25276,0.57105 0.0399,-0.004 c 0.0173,-0.11198 0.28288,-0.42271 0.41171,-0.43678 l 0.0935,-0.0102 c 0.12074,-0.0131 0.24997,0.27346 0.30503,0.37867 0.0429,0.082 0.0885,0.13547 0.15762,0.18297 0.0283,0.0195 0.22635,0.0521 0.27956,0.0464 l 0.20035,-0.0218 -0.003,-0.0268 0.0535,-0.006 c 0.16572,-0.0181 0.29283,-0.15365 0.5834,-0.17978 l 0.0728,-0.12154 -0.0175,-0.16014 c -0.0153,-0.13932 -0.11743,-0.42989 -0.16506,-0.53789 -0.0403,-0.0919 -0.20817,-0.40441 -0.21587,-0.47446 -0.0751,-0.0212 -0.045,-0.13494 -0.14966,-0.13228 l 0.007,0.0667 c 0.005,0.0444 -0.0196,0.0417 -0.0624,0.0472 -0.0283,-0.0805 -0.12738,-0.1482 -0.23113,-0.13693 l -0.0533,0.006 c -0.17514,0.0191 -0.33276,0.33621 -0.46066,0.36116 0.0164,-0.13613 0.12923,-0.17886 0.11344,-0.32321 l -0.0102,-0.0935 c -0.0228,-0.20871 -0.38464,-0.52555 -0.58207,-0.50392 l -0.006,-0.0533 -0.10389,0.0384 z"
       id="path2499"
       style="clip-rule:evenodd;fill:#fdfefe;fill-rule:evenodd;stroke-width:0.013268;image-rendering:optimizeQuality;shape-rendering:geometricPrecision;text-rendering:geometricPrecision" />
    <path
       class="fil27"
       d="m 106.32887,266.92893 c -0.005,-0.0444 0.0196,-0.0418 0.0624,-0.0474 -0.0638,-0.0443 -0.43187,-0.0744 -0.56057,-0.0604 l -0.45403,0.0496 c -0.0671,0.007 -0.11105,0.0373 -0.22476,0.0511 -0.043,0.005 -0.17129,0.0275 -0.22396,0.0394 -0.15259,0.035 -0.26258,0.0686 -0.40401,0.11423 -0.2639,0.0851 -0.50167,0.16838 -0.73253,0.28885 -0.162,0.0844 -0.49596,0.28354 -0.61776,0.39313 -0.095,0.0854 -0.15749,0.14966 -0.23736,0.24811 -0.0383,0.0474 -0.15311,0.28845 -0.17328,0.29933 l 0.0219,0.20034 c 0.0257,-0.0235 0.0513,-0.0866 0.0981,-0.0918 l 0.0133,-10e-4 c 0.0308,-0.003 0.0411,0.005 0.0444,0.0357 l 0.001,0.0133 c 0.003,0.023 -0.0643,0.16213 -0.0695,0.26098 -0.005,0.0921 -0.0164,0.18894 -0.004,0.30105 l 0.035,0.32055 c 0.0141,0.12817 0.0508,0.21163 0.0675,0.37098 0.008,0.0764 0.0576,0.2838 0.0804,0.35505 0.047,0.14661 0.19146,0.52395 0.20566,0.65424 l 0.35133,0.87078 0.0563,0.12472 c 0.13905,-0.0115 0.17991,0.29389 0.31405,0.29044 0.0247,0.12684 0.52449,0.34855 0.53178,0.41489 8e-4,0.007 -0.0161,0.0314 -0.0223,0.0428 l 0.0395,0.65836 -0.0348,0.003 0.006,0.0533 0.37389,-0.0409 c 0.0298,-0.003 0.0283,-0.0138 0.0506,-0.0325 0.13082,-0.0143 0.29614,-0.01 0.28208,-0.13905 l -0.0219,-0.20034 -0.0709,-0.33078 c -0.0119,-0.0247 0.005,-0.0674 0.0405,-0.0712 l 0.0401,-0.004 c 0.0967,-0.0106 0.12207,0.27955 0.18774,0.35783 l 0.0324,0.14476 0.0608,0.14024 c 0.0218,0.0184 0.0315,0.0393 0.0636,0.0357 l 0.30715,-0.0334 c 0.0308,-0.003 0.039,-0.0137 0.0357,-0.0444 l -0.0511,-0.46743 c -0.007,-0.0624 -0.0313,-0.039 -0.0413,-0.13056 l -0.0267,0.003 -0.009,-0.0801 c -0.005,-0.045 0.0134,-0.0961 0.0567,-0.10084 l 0.0267,-0.003 c 0.0927,-0.0101 0.1636,0.2919 0.21057,0.39008 0.0361,0.0756 0.18416,0.33701 0.25979,0.32865 l 0.0801,-0.009 c 0.10734,-0.0118 0.31406,-0.0937 0.3045,-0.1819 l -0.0117,-0.10694 -0.0344,-0.17155 c -0.0265,-0.0155 -0.23404,-0.30636 -0.23763,-0.33913 l -0.003,-0.0268 c -0.003,-0.031 0.0283,-0.0706 0.0594,-0.074 l 0.0401,-0.004 c 0.059,-0.007 0.52594,0.52356 0.7304,0.50127 0.0394,-0.004 0.11291,-0.20327 0.10734,-0.25488 l -0.006,-0.0533 c -0.0246,-0.006 -0.16851,-0.1291 -0.203,-0.1567 -0.0609,-0.0487 -0.15046,-0.11065 -0.16121,-0.20883 l -0.0102,-0.0935 c -0.0139,-0.12645 0.0854,-0.30663 0.1949,-0.31857 l 0.0133,-0.001 c 0.0361,-0.004 0.0376,0.002 0.0682,0.006 0.0142,-0.0357 0.0641,-0.16917 0.10269,-0.17342 l 0.0134,-10e-4 c 0.0403,-0.004 0.0386,0.0117 0.0459,0.0491 l 0.0667,-0.007 0.003,0.0267 c 0.0446,-0.0374 0.0287,-0.0707 0.0728,-0.0755 l 0.0267,-0.003 c 0.0308,-0.003 0.0411,0.005 0.0444,0.0357 l 0.001,0.0134 8e-4,0.14834 -0.0135,-0.003 -0.0468,0.25037 c 0.11875,-0.0413 0.16545,-0.38053 0.24944,-0.38955 0.0313,-0.003 0.0559,0.0163 0.0593,0.0475 0.006,0.0587 -0.16585,0.43214 -0.15378,0.57092 0.0694,-0.0584 0.085,-0.26615 0.15922,-0.27425 0.0312,-0.003 0.0559,0.0163 0.0592,0.0476 l 0.019,0.17355 c 0.0176,0.16253 -0.005,0.32016 -0.0764,0.4137 0.0697,0.10296 0.31379,0.29786 0.32852,0.40998 l -0.0552,-0.005 -0.0349,0.0305 -0.0686,0.005 c -0.15736,0.13215 -0.53815,0.63939 -0.51055,0.8936 0.20897,-0.0182 0.97666,0.78507 1.19133,0.76158 l 0.0667,-0.007 c 0.16718,-0.0182 0.48946,-0.24825 0.6033,-0.3317 0.11224,-0.0824 0.37575,-0.35506 0.35797,-0.51653 -0.003,-0.0245 -0.0344,-0.0306 -0.0577,-0.0342 l -0.0344,0.0797 -0.0147,-0.007 -0.10177,-0.52913 -0.0158,-0.20154 c -0.005,-0.0445 0.0196,-0.0417 0.0624,-0.0472 0.021,0.0594 0.0314,0.23683 0.0945,0.24638 l -0.0374,-0.49582 0.0376,0.0119 0.0816,0.47486 c 0.0861,-0.0111 0.14807,-0.11065 0.20181,-0.11649 l 0.0399,-0.004 -0.003,-0.0267 c 0.0677,-0.007 0.31325,-0.12883 0.36115,-0.1608 0.11424,-0.0766 0.19756,-0.10217 0.27744,-0.21574 0.0482,-0.0685 0.26894,-0.59441 0.25938,-0.68092 l -0.006,-0.0535 c -0.01,-0.0864 -0.0552,-0.1336 -0.0576,-0.15576 l -0.004,-0.0401 -0.0267,0.003 -0.006,-0.0533 c -0.0379,-0.006 -0.0904,-0.0851 -0.13162,-0.12432 -0.0466,-0.0443 -0.082,-0.0686 -0.13348,-0.10694 -0.0519,-0.0385 -0.24572,-0.13812 -0.31206,-0.15749 -0.0842,-0.0248 -0.67667,-0.21746 -0.70493,-0.21441 l -0.0401,0.004 -0.15855,0.0321 c -0.10296,0.0851 -0.26549,0.14277 -0.37084,0.24944 -0.0524,0.0529 -0.2915,0.24466 -0.28473,0.30742 0.005,0.0466 0.21759,0.0852 0.24745,0.16214 l -0.27478,-0.0559 0.005,0.0584 -0.0667,0.007 -0.0269,-0.0912 c -0.15749,-9.2e-4 -0.7243,-0.34032 -0.77631,-0.33461 l -0.0401,0.004 c -0.0353,-0.072 -0.13453,-0.12485 -0.20592,-0.15311 -0.0637,0.0535 -0.0471,0.0971 -0.16346,0.11238 l -0.004,-0.0399 c -0.009,-0.0831 0.52063,-0.67653 0.47366,-1.10575 l -0.001,-0.0133 c -0.005,-0.0494 -0.0139,-0.0641 -0.037,-0.0906 l 0.0146,0.13348 -0.0267,0.003 -0.0353,-0.18522 c -0.12021,0.0102 -0.097,-0.11915 -0.11782,-0.231 -0.0151,-0.0811 -0.10216,-0.1888 -0.10813,-0.2444 l -0.006,-0.0533 c -0.005,-0.0507 0.0454,-0.0628 0.0862,-0.077 l -0.0671,-0.0943 -0.36221,-1.05998 -0.0271,-0.0373 -0.31007,-0.86958 0.0138,-0.005 c -0.0667,0.013 -0.24639,0.1153 -0.29004,0.15696 -0.05,0.0478 -0.14277,0.2087 -0.19584,0.22038 -0.003,-0.13374 0.24374,-0.31604 0.29296,-0.41038 -0.061,-0.0726 -0.32241,-0.23033 -0.3244,-0.24824 l -0.001,-0.0133 z"
       id="path2501"
       style="clip-rule:evenodd;fill:#fefeff;fill-rule:evenodd;stroke-width:0.013268;image-rendering:optimizeQuality;shape-rendering:geometricPrecision;text-rendering:geometricPrecision" />
    <path
       class="fil2"
       d="m 105.31639,269.03947 c 0.036,-0.0176 0.13905,-0.1689 0.24453,-0.21786 0.11198,-0.0521 0.17885,-0.11225 0.3524,-0.13109 l 0.0935,-0.0102 c 0.26616,-0.0291 0.83694,0.23895 0.99616,0.36739 0.12697,0.10256 0.2509,0.23975 0.32852,0.39485 0.0502,0.0999 0.23816,0.51148 0.17328,0.58592 0.0188,0.17222 -0.0429,0.3248 -0.10907,0.43625 -0.0378,0.0637 -0.0759,0.10415 -0.12565,0.15497 -0.0154,0.0158 -0.17009,0.10163 -0.18933,0.10376 l -0.22702,0.0248 c -0.10574,0.0115 -0.30516,-0.0309 -0.33647,-0.11185 l 0.0119,0.008 0.10203,-0.14913 c -0.0455,-0.0192 0.001,-0.0203 -0.0499,-0.0147 l -0.0399,0.004 c -0.10456,0.0114 -0.11756,0.0732 -0.19159,0.10203 -0.0206,-0.0531 -0.54664,-0.32825 -0.61272,-0.39963 -0.12087,-0.13056 -0.2156,-0.43161 -0.27929,-0.59586 l -0.0801,0.009 -0.0321,-0.29375 c -0.006,-0.0575 0.008,-0.074 0.0137,-0.12313 -0.0188,-0.0223 -0.0293,-0.0206 -0.0325,-0.0505 l -0.0102,-0.0934 z"
       id="path2503"
       style="clip-rule:evenodd;fill:#2b2a29;fill-rule:evenodd;stroke-width:0.013268;image-rendering:optimizeQuality;shape-rendering:geometricPrecision;text-rendering:geometricPrecision" />
    <path
       class="fil2"
       d="m 103.23504,269.90176 c -0.0227,-0.20765 0.0415,-0.70971 0.16983,-0.77724 0.14754,-0.0776 0.18894,-0.0962 0.40786,-0.12326 0.14874,-0.0182 0.29375,-0.0596 0.46385,-0.0781 0.15218,-0.0166 0.24798,0.0646 0.31405,0.15484 0.021,0.0287 0.17979,0.28447 0.18204,0.30437 l 0.0117,0.1068 c 0.005,0.0471 -0.12486,0.0768 -0.17116,0.0941 -0.0551,0.0206 -0.1157,0.0543 -0.17142,0.0816 -0.0953,0.0467 -0.22383,0.12724 -0.32334,0.17886 -0.082,0.0426 -0.57504,0.35478 -0.58897,0.40414 -0.12498,0.0107 -0.27053,-0.12724 -0.28287,-0.23936 l -0.0115,-0.10694 z"
       id="path2505"
       style="clip-rule:evenodd;fill:#2b2a29;fill-rule:evenodd;stroke-width:0.013268;image-rendering:optimizeQuality;shape-rendering:geometricPrecision;text-rendering:geometricPrecision" />
    <path
       class="fil2"
       d="m 103.74759,270.26477 c 0.0334,-0.0577 0.43625,-0.28221 0.52727,-0.34404 0.0923,-0.0626 0.17686,-0.11039 0.27265,-0.17089 0.0656,-0.0415 0.20234,-0.16346 0.24573,-0.18044 l 0.004,0.0401 c 0.0226,0.20578 -0.15165,0.24784 -0.27053,0.34311 -0.0284,0.0228 -0.3784,0.24134 -0.39499,0.24306 -0.13546,0.0149 -0.10972,-0.0349 -0.21083,0.0502 l -0.17354,0.0188 z"
       id="path2507"
       style="clip-rule:evenodd;fill:#2b2a29;fill-rule:evenodd;stroke-width:0.013268;image-rendering:optimizeQuality;shape-rendering:geometricPrecision;text-rendering:geometricPrecision" />
    <path
       class="fil2"
       d="m 104.76272,270.77546 c -0.0158,-0.14476 0.0659,-0.19173 0.0805,-0.25196 l 0.175,-0.003 0.0452,0.0978 c 0.0341,0.0243 0.0922,0.10031 0.13971,0.13905 0.0443,0.0362 0.13334,0.0759 0.14077,0.14329 0.004,0.0377 -0.0249,0.0548 -0.046,0.0726 l -0.3719,0.0576 c -0.0456,0.004 -0.0349,-0.0367 -0.0999,-0.0466 l -0.0182,0.1356 c -0.0162,0.0196 -0.0145,0.0301 -0.0444,0.0334 l -0.0133,0.001 c -0.0308,0.003 -0.0411,-0.005 -0.0444,-0.0357 l -0.006,-0.0533 c -0.003,-0.0299 0.007,-0.0305 0.021,-0.0563 l 0.0419,-0.23431 z"
       id="path2509"
       style="clip-rule:evenodd;fill:#2b2a29;fill-rule:evenodd;stroke-width:0.013268;image-rendering:optimizeQuality;shape-rendering:geometricPrecision;text-rendering:geometricPrecision" />
    <path
       class="fil27"
       d="m 109.10069,273.74722 -0.10867,0.11994 c -0.002,-0.0713 0.13706,-0.34284 0.18775,-0.3853 l 0.0667,-0.007 c 0.0805,-0.0677 0.12406,-0.20273 0.26006,-0.21759 0.007,0.0845 -0.11344,0.21056 -0.15325,0.27889 -0.0478,0.0817 -0.12976,0.19796 -0.25249,0.21136 z"
       id="path2511"
       style="clip-rule:evenodd;fill:#fefeff;fill-rule:evenodd;stroke-width:0.013268;image-rendering:optimizeQuality;shape-rendering:geometricPrecision;text-rendering:geometricPrecision" />
    <path
       class="fil1"
       d="m 105.75251,269.07742 0.004,0.0352 c 0.0177,0.16107 0.044,0.23086 0.0969,0.34483 0.02,0.0433 0.14833,0.21189 0.18256,0.2379 0.11623,0.088 0.41795,0.1819 0.61896,0.16001 l 0.12883,-0.0141 c 0.0793,-0.009 0.23179,-0.0708 0.26934,-0.11464 0.0815,-0.095 0.0121,-0.1693 -0.0174,-0.27889 -0.0291,-0.10774 -0.0888,-0.15325 -0.16108,-0.21136 -0.0249,-0.02 -0.20273,-0.13626 -0.21772,-0.13905 l 0.01,0.21202 c -0.0629,0.0338 -0.007,0.11915 -0.15099,0.13494 l -0.0117,0.001 c -0.075,0.008 -0.11609,-0.0199 -0.14794,-0.0685 -0.0165,-0.0249 -0.0986,-0.12883 -0.0987,-0.12963 l -0.009,-0.0819 c -0.0188,-0.17195 0.0568,-0.18695 0.0551,-0.25475 -0.11636,0.003 -0.19915,-0.0966 -0.37561,-0.0774 -0.0135,-0.0275 -0.0173,-0.0336 -0.0624,-0.0287 -0.0983,0.0108 -0.12247,0.18084 -0.11225,0.27279 z"
       id="path2513"
       style="clip-rule:evenodd;fill:#fefefe;fill-rule:evenodd;stroke-width:0.013268;image-rendering:optimizeQuality;shape-rendering:geometricPrecision;text-rendering:geometricPrecision" />
    <path
       class="fil1"
       d="m 104.05089,269.08299 0.006,0.0533 0.0399,-0.004 c 0.0273,0.14038 0.35425,0.1165 0.45071,0.16691 l 0.0548,-0.008 0.0417,0.0244 c -0.0153,-0.0788 -0.14728,-0.13945 -0.19703,-0.19464 -0.0338,-0.0376 -0.0589,-0.0633 -0.11756,-0.0659 -0.0385,-0.002 -0.17168,-0.0105 -0.1746,-0.0102 l -0.0133,10e-4 c -0.0517,0.006 2.7e-4,0.0249 -0.0906,0.0369 z"
       id="path2515"
       style="clip-rule:evenodd;fill:#fefefe;fill-rule:evenodd;stroke-width:0.013268;image-rendering:optimizeQuality;shape-rendering:geometricPrecision;text-rendering:geometricPrecision" />
  </g>
</svg>
