<?xml version="1.0" encoding="UTF-8" standalone="no"?>
<!-- Created with Inkscape (http://www.inkscape.org/) -->

<svg
   width="9.851387mm"
   height="10.11192mm"
   viewBox="0 0 9.8513872 10.11192"
   version="1.1"
   id="svg15029"
   inkscape:version="1.1.2 (0a00cf5339, 2022-02-04)"
   sodipodi:docname="delay_blank.svg"
   xmlns:inkscape="http://www.inkscape.org/namespaces/inkscape"
   xmlns:sodipodi="http://sodipodi.sourceforge.net/DTD/sodipodi-0.dtd"
   xmlns="http://www.w3.org/2000/svg"
   xmlns:svg="http://www.w3.org/2000/svg">
  <sodipodi:namedview
     id="namedview15031"
     pagecolor="#ffffff"
     bordercolor="#666666"
     borderopacity="1.0"
     inkscape:pageshadow="2"
     inkscape:pageopacity="0.0"
     inkscape:pagecheckerboard="0"
     inkscape:document-units="mm"
     showgrid="false"
     inkscape:zoom="9.2290657"
     inkscape:cx="27.792629"
     inkscape:cy="25.137973"
     inkscape:window-width="1920"
     inkscape:window-height="1163"
     inkscape:window-x="0"
     inkscape:window-y="0"
     inkscape:window-maximized="1"
     inkscape:current-layer="layer1" />
  <defs
     id="defs15026">
    <clipPath
       id="id133">
      <path
         d="m 17061.89,6196.89 h 790.22 v 790.21 h -790.22 z"
         id="path416" />
    </clipPath>
  </defs>
  <g
     inkscape:label="Layer 1"
     inkscape:groupmode="layer"
     id="layer1"
     transform="translate(-83.168211,-91.589043)">
    <circle
       class="fil0"
       cx="88.479691"
       cy="96.920692"
       r="4.5399084"
       id="circle6214"
       style="clip-rule:evenodd;fill:#fffffc;fill-opacity:1;fill-rule:evenodd;stroke-width:0.013268;image-rendering:optimizeQuality;shape-rendering:geometricPrecision;text-rendering:geometricPrecision" />
    <path
       class="fil56"
       d="m 88.479684,100.84616 c -2.167724,0 -3.9256,-1.758005 -3.9256,-3.925597 0,-2.167857 1.757876,-3.925733 3.9256,-3.925733 2.167724,0 3.9256,1.757876 3.9256,3.925733 0,2.167592 -1.757876,3.925597 -3.9256,3.925597 z m 0.05931,-0.0934 c -2.044332,0 -3.702035,-1.657838 -3.702035,-3.702038 0,-2.044332 1.657836,-3.702034 3.702035,-3.702034 2.044199,0 3.702035,1.657835 3.702035,3.702034 0,2.044332 -1.657836,3.702038 -3.702035,3.702038 z"
       id="path6218"
       style="clip-rule:evenodd;fill-rule:evenodd;stroke-width:0.013268;image-rendering:optimizeQuality;shape-rendering:geometricPrecision;text-rendering:geometricPrecision" />
    <path
       class="fil56"
       d="m 90.362146,93.21959 c -2.313141,-1.066481 -5.155808,0.08425 -5.9966,2.509242 V 95.7287 c 0.735312,-2.65665 3.686378,-3.739583 5.9966,-2.50911 z"
       id="path6220"
       style="clip-rule:evenodd;fill-rule:evenodd;stroke-width:0.013268;image-rendering:optimizeQuality;shape-rendering:geometricPrecision;text-rendering:geometricPrecision" />
    <path
       class="fil56"
       d="m 86.968195,101.69266 c 0.05851,0.0466 0.1421,-0.11463 0.176199,-0.19305 l 0.455622,-1.0426 c 0.01659,-0.0393 0.006,-0.0848 -0.02587,-0.11025 l -0.01327,-0.011 c -0.07138,-0.0575 -0.273056,0.45483 -0.322147,0.56801 -0.08584,0.19902 -0.197428,0.40945 -0.295876,0.63474 -0.02189,0.0499 -0.03052,0.10906 0.01181,0.14289 l 0.01367,0.0113 z"
       id="path6222"
       style="clip-rule:evenodd;fill-rule:evenodd;stroke-width:0.013268;image-rendering:optimizeQuality;shape-rendering:geometricPrecision;text-rendering:geometricPrecision" />
    <path
       class="fil56"
       d="m 88.252536,93.635542 c 0.02348,0.01314 0.03237,0.0062 0.03914,-0.02853 l 0.02216,-0.121535 c 0.03171,-0.172882 -0.02455,-0.934597 -0.05466,-1.126585 -0.02216,-0.143693 -0.07403,-0.435323 -0.07364,-0.575566 2.65e-4,-0.07218 0.01234,-0.155633 -0.03742,-0.182302 l -0.01022,-0.0057 c -0.02375,-0.01313 -0.0333,-0.0066 -0.03954,0.02839 -0.01964,0.107073 0.0061,0.25939 0.0066,0.336344 0.0017,0.193845 -0.01645,0.134139 0.02256,0.311665 -0.02866,0.155368 0.0086,0.459603 0.01884,0.627974 0.0134,0.220514 -0.06568,0.643365 0.106144,0.735843 z"
       id="path6224"
       style="clip-rule:evenodd;fill-rule:evenodd;stroke-width:0.013268;image-rendering:optimizeQuality;shape-rendering:geometricPrecision;text-rendering:geometricPrecision" />
    <path
       class="fil56"
       d="m 85.202092,97.096364 c 0.01566,0.01327 0.01035,0.01911 -0.02322,0.02494 l -0.11636,0.02004 c -0.166646,0.02879 -0.924779,0.0398 -1.117563,0.03343 -0.144753,-0.0048 -0.438109,-0.01844 -0.576759,-0.01 -0.07178,0.0042 -0.151653,0.01632 -0.184691,-0.01154 l -0.0068,-0.0057 c -0.01579,-0.01327 -0.01035,-0.01911 0.02309,-0.02494 0.102827,-0.01765 0.25647,-0.01141 0.331833,-0.01539 0.191324,-0.01035 0.130557,-0.01778 0.30994,-0.005 0.149663,-0.02587 0.454561,-0.02163 0.621738,-0.02534 0.218789,-0.005 0.625187,-0.07603 0.738761,0.01964 z"
       id="path6226"
       style="clip-rule:evenodd;fill-rule:evenodd;stroke-width:0.013268;image-rendering:optimizeQuality;shape-rendering:geometricPrecision;text-rendering:geometricPrecision" />
    <path
       class="fil56"
       d="m 88.002567,95.416371 -0.0015,-0.01685 0.0052,-0.02521 0.04007,-0.0011 0.08306,0.005 0.05546,0.0062 0.04591,-0.0019 0.01831,-6.64e-4 7.96e-4,0.01552 0.05546,0.0072 0.0096,0.008 0.0463,0.0065 0.05546,0.0061 0.0096,0.008 0.03675,-0.0015 0.08385,0.02163 0.05586,0.01433 0.09261,0.013 -0.0088,0.0086 7.96e-4,0.01645 c -0.02932,0.154837 -0.05334,0.236037 -0.09911,0.386629 l 0.0027,0.05772 0.0096,0.008 0.01884,0.0076 0.01871,0.0076 0.02826,0.01539 c 0.146877,-0.0057 0.300255,0.110787 0.461461,0.130159 l 0.222769,0.05427 0.313656,0.601438 -0.04352,-0.205654 -0.0086,-0.181506 -0.0044,-0.09075 -0.0086,-0.181374 -0.0483,-0.04776 -0.01871,-0.0076 -0.01884,-0.0076 -0.01871,-0.0076 c -0.06926,-0.01778 -0.323341,-0.108134 -0.374953,-0.150857 l -0.01884,-0.0076 -0.01871,-0.0076 -0.01884,-0.0076 -0.02786,-0.0072 -0.0096,-0.008 -0.01831,6.64e-4 -0.02786,-0.0072 -0.0024,-0.04949 0.0094,0.0023 0.0074,-0.03596 0.0088,-0.0086 c 0.0195,-0.142499 0.07908,-0.288712 0.09885,-0.433466 l 0.01566,-0.05838 -0.0016,-0.03304 -0.01884,-0.0076 -0.01871,-0.0076 -0.08346,-0.01327 c -0.174474,-0.07005 -0.566145,-0.0682 -0.899835,-0.163595 l -0.03755,-0.01512 -0.03675,0.0015 -0.01911,-0.01579 -0.06435,0.0025 -0.005,-0.107205 -0.0038,-0.08253 0.0093,-0.190396 -0.002,-0.103755 c 0.02335,-0.02295 0.05214,-0.009 0.09314,-0.0027 l 0.09805,0.0015 c 0.982893,-0.115033 1.933544,-0.08399 2.926388,-0.122198 l 0.05506,-0.0021 0.0072,0.148337 0.0038,0.08253 0.009,0.1896 0.004,0.08253 0.009,0.189732 -0.01367,0.09964 -0.01486,0.07496 -0.0056,0.07457 -0.01605,0.05015 0.0016,0.03304 -0.02282,0.100041 c -0.05294,0.05188 -0.08478,0.170228 -0.117554,0.235772 -0.0046,0.0093 -0.151919,-0.08107 -0.330108,-0.193049 -0.08996,-0.0682 -0.189467,-0.14157 -0.256205,-0.17726 -0.101765,-0.09142 -0.06886,-0.05785 -0.188803,-0.141172 -0.04737,-0.03264 -0.137058,-0.108665 -0.207113,-0.146877 -0.02256,-0.01154 -0.02906,-0.01061 -0.02548,0.005 l 0.0015,0.0065 c 0.02056,0.09288 0.07974,0.103357 0.232189,0.232189 0.04126,0.0349 0.247448,0.174475 0.288977,0.230067 0.169167,0.22675 0.307287,0.423117 0.300653,0.432139 -0.05612,0.07576 -0.013,0.0146 -0.08478,0.08478 l -0.0088,0.0086 -0.01765,0.01725 -0.0088,0.0086 -0.0088,0.0086 -0.0088,0.0086 -0.01751,0.01725 -0.0088,0.0086 -0.01765,0.01725 c -0.123392,0.120872 -0.260716,0.212156 -0.379729,0.328516 l -0.0088,0.0086 -0.0088,0.0086 -0.0088,0.0086 -0.01765,0.01725 -0.01712,0.02547 -0.0084,0.01685 -0.0088,0.0086 -0.0088,0.0086 -0.01725,0.02548 -0.008,0.02508 -0.01765,0.01712 -0.0088,0.0088 6.63e-4,0.01645 -0.04033,0.117289 -0.0073,0.04153 -0.0088,0.0086 -0.0061,0.06634 -0.0084,0.01685 0.0042,0.09075 c 0.01035,0.21534 0.124852,0.396315 0.301714,0.541865 l 0.0092,-2.65e-4 0.05705,0.03914 0.01,0.01606 0.02786,0.0072 0.01924,0.01579 0.01911,0.01579 0.0096,0.008 0.01884,0.0076 0.0096,0.008 0.05705,0.03914 0.0096,0.008 0.01884,0.0076 c 0.04086,0.01645 0.108267,0.07337 0.142763,0.101898 l 0.0096,0.008 0.01924,0.01579 0.01911,0.01566 0.0096,0.008 0.01911,0.01579 0.01924,0.01579 0.0096,0.008 0.04816,0.04776 3.98e-4,0.0084 0.01884,0.0076 0.01,0.01605 0.0098,0.01207 0.01844,0.0191 0.01048,0.0088 0.0038,0.0062 0.155368,0.161604 -0.243998,-0.06674 -0.03954,-0.0054 -0.0096,-0.008 -0.04617,-0.0065 -0.0096,-0.008 c -0.141968,0.0054 -0.325995,-0.08107 -0.473535,-0.09739 l -0.03675,0.0015 -0.07457,-0.02189 -3.98e-4,-0.0082 -0.04631,-0.0065 -0.0276,0.0011 -0.01791,0.009 -0.0084,0.01685 -0.0088,0.0086 -0.0084,0.01685 -0.01725,0.02534 -0.0084,0.01685 -0.0088,0.0086 -0.0084,0.01685 c -0.08624,0.17328 -0.168504,0.426433 -0.320157,0.574769 l -0.04577,0.04246 -0.01844,6.63e-4 -0.04365,-0.01552 c -0.288313,-0.04033 -0.323739,-0.124851 -0.612981,-0.178189 l -0.0096,-0.008 -0.0735,0.0028 -0.0084,0.01685 -0.01805,0.0089 -0.309011,0.809613 c 0.07324,-0.0028 0.41542,-0.460798 0.512144,-0.482159 l 0.0096,0.008 0.03715,0.0068 c 0.169698,0.0682 0.442753,0.145152 0.682108,0.135997 l 0.01765,-0.01725 0.0084,-0.01685 0.01725,-0.02547 0.01712,-0.02534 0.0084,-0.01685 0.07045,-0.08837 c 0.09606,-0.13613 0.187609,-0.286854 0.306358,-0.402949 l 0.008,-0.02508 0.01725,-0.02534 0.0084,-0.01685 0.05506,-0.0021 0.0467,0.01473 0.07417,0.01367 0.02786,0.0072 0.06515,0.01406 0.04631,0.0065 0.02746,-0.0011 0.07457,0.02189 c 0.05864,0.04856 0.371504,0.07868 0.473535,0.09752 l 0.01924,0.01579 0.04617,0.0064 0.0276,-0.0011 0.0012,0.02468 0.0207,0.04883 0.01274,0.0739 0.02348,0.106542 0.0207,0.04869 0.0034,0.07417 0.0092,0.189733 0.0038,0.08253 0.009,0.189599 0.004,0.08253 0.0038,0.08253 -0.08266,0.0031 -0.100969,0.0038 c -0.972942,0.03742 -1.945884,0.07496 -2.918825,0.112248 l -0.09261,-0.013 -0.009,-0.1896 -0.0035,-0.07417 -0.0096,-0.197958 -0.0034,-0.07417 -0.0094,-0.197959 0.01367,-0.09964 0.0084,-0.01685 0.0088,-0.0086 0.006,-0.06634 0.01605,-0.05015 0.01566,-0.05838 0.0072,-0.04166 -3.98e-4,-0.0084 c 0.138783,-0.366329 0.283537,-0.484547 0.658358,-0.851407 l 0.01804,-0.009 0.0088,-0.0086 0.01751,-0.01725 0.0268,-0.01751 0.01804,-0.009 0.0084,-0.01685 0.01805,-0.009 0.01765,-0.01725 0.0088,-0.0086 0.01791,-0.0089 0.0088,-0.0086 0.0088,-0.0086 0.0088,-0.0086 0.01765,-0.01725 0.0088,-0.0086 0.0088,-0.0086 0.0088,-0.0086 0.01765,-0.01725 c 0.125913,-0.186547 0.210298,-0.391405 0.13613,-0.616563 l -0.0015,-0.03304 -0.0096,-0.008 -0.01154,-0.04909 -0.01115,-0.04087 -0.01,-0.01605 0.0088,-0.0086 2.65e-4,-2.65e-4 -0.04577,-0.06992 c -0.09606,-0.04856 -0.553142,-0.423647 -0.634077,-0.490252 l -0.01911,-0.01566 -0.0096,-0.008 -0.01911,-0.01579 -0.02866,-0.02375 -0.01924,-0.01579 -0.0096,-0.008 -0.0096,-0.008 -0.02614,-0.0077 -0.013,-0.04033 -0.0195,-0.02415 c -0.162666,-0.13414 -0.343641,-0.455889 -0.352664,-0.647346 z m -0.766624,-1.036362 0.0034,0.0743 0.0046,0.09885 0.09182,-0.0035 0.100969,-0.0038 0.137589,-0.0053 0.0036,0.07417 0.0038,0.08253 0.0086,0.181374 0.0044,0.09075 0.0086,0.181373 0.0042,0.09075 0.0066,0.140243 0.01075,0.03264 c 0.102031,0.309542 0.196233,0.668839 0.474994,0.898641 l 0.01,0.01619 0.01884,0.0076 0.0479,0.03954 6.63e-4,0.01645 0.0096,0.008 0.0096,0.008 0.0096,0.008 0.01911,0.01579 0.0096,0.008 0.0096,0.008 0.0096,0.008 0.0096,0.008 c 0.130291,0.107604 0.281547,0.184691 0.409185,0.289906 l 0.01884,0.0076 0.0096,0.008 0.01884,0.0076 0.01911,0.01579 0.0096,0.008 0.0096,0.008 0.0096,0.008 0.01924,0.01566 0.03874,0.03994 0.01035,0.02441 0.01035,0.02428 0.0199,0.03224 0.0203,0.04047 0.01,0.01619 0.01274,0.07377 -0.0084,0.01685 -0.0048,0.09115 -0.01645,0.04193 -0.01685,0.0337 -0.008,0.02508 -0.01725,0.02534 -0.0084,0.01685 -0.0088,0.0086 -0.0084,0.01685 -0.01751,0.01725 -0.0088,0.0086 -0.0088,0.0086 -0.0088,0.0086 -0.01765,0.01725 -0.01791,0.009 c -0.110655,0.1084 -0.258063,0.191988 -0.371769,0.303439 l -0.01765,0.01725 -0.0088,0.0086 -0.0088,0.0086 -0.0088,0.0086 -0.0088,0.0086 -0.0088,0.0086 -0.0088,0.0086 -0.01751,0.01725 c -0.05705,0.05586 -0.24506,0.261247 -0.242141,0.323208 -0.152714,0.306491 -0.257929,0.569462 -0.242539,0.893334 l 0.0092,0.1896 0.0038,0.08253 0.009,0.1896 0.004,0.08253 0.0074,0.156695 -0.174342,0.0066 -0.100836,0.0038 -0.05506,0.0021 0.0027,0.05772 0.0036,0.0743 0.0086,0.181368 0.100969,-0.004 0.201939,-0.008 0.100969,-0.004 0.201939,-0.008 0.100969,-0.004 0.201939,-0.008 0.10097,-0.004 0.201938,-0.008 0.09181,-0.004 0.201939,-0.008 0.100969,-0.004 0.201939,-0.0078 0.100969,-0.0038 0.201939,-0.0077 0.10097,-0.0038 0.201938,-0.0078 0.10097,-0.0038 0.201939,-0.0077 0.100836,-0.0038 0.201939,-0.0078 0.100837,-0.0038 0.201939,-0.0077 0.100836,-0.0038 0.201939,-0.0078 0.100837,-0.0038 0.201939,-0.0077 0.09168,-0.0036 0.201938,-0.0077 0.100837,-0.0038 0.201939,-0.0078 0.0092,-2.65e-4 -0.009,-0.189733 -0.0038,-0.08253 -0.002,-0.04126 -0.146744,0.0056 -0.10097,0.0038 -0.08266,0.0032 -0.0058,-0.123658 -0.0042,-0.09075 -0.0088,-0.181373 -0.0038,-0.08253 -0.009,-0.189733 -0.004,-0.08239 -0.0042,-0.09075 -0.01314,-0.08213 c -0.07841,-0.263237 -0.185221,-0.452305 -0.326658,-0.681444 l -0.0096,-0.008 -0.01,-0.01619 -0.01,-0.01605 -0.01924,-0.01579 -0.01,-0.01605 -0.04869,-0.05599 C 91.00843,97.690637 90.80198,97.453406 90.54949,97.351906 l -0.01911,-0.01579 -0.0096,-0.008 -0.0096,-0.008 -0.0096,-0.008 -0.01924,-0.01566 -0.01,-0.01619 -0.0096,-0.008 -0.03994,-0.06448 -0.0199,-0.03224 -0.0203,-0.04047 -0.01234,-0.06568 -0.0044,-0.09075 0.0073,-0.04166 0.01645,-0.04193 0.01672,-0.0337 0.008,-0.02508 0.01725,-0.02534 0.0084,-0.01685 0.0088,-0.0086 0.0084,-0.01685 0.01765,-0.01725 0.0088,-0.0086 0.0088,-0.0086 0.0088,-0.0086 0.01765,-0.01725 0.01805,-0.009 0.0088,-0.0086 c 0.203,-0.101102 0.355051,-0.383843 0.538282,-0.474994 l 0.0084,-0.01685 0.0088,-0.0086 0.0084,-0.01685 0.01765,-0.01725 0.0084,-0.01685 0.0088,-0.0086 0.0084,-0.01685 c 0.125647,-0.06276 0.231659,-0.439967 0.277035,-0.555929 l 0.01605,-0.05015 0.0068,-0.04989 -7.96e-4,-0.01645 0.01327,-0.108002 0.01791,-0.0089 -3.98e-4,-0.0082 0.0053,-0.08293 -0.005,-0.107206 -0.0042,-0.09075 -0.0088,-0.181373 -0.0042,-0.09075 -0.0088,-0.181374 -0.0042,-0.09075 -0.0046,-0.09898 0.110125,-0.0042 0.100969,-0.0038 0.119279,-0.0046 -0.005,-0.107205 -0.0038,-0.08253 -0.0058,-0.123658 -0.06422,0.0025 -0.09181,0.0035 -0.201938,0.0078 -0.100837,0.0038 -0.201939,0.0078 c -1.00651,0.03874 -2.013152,0.07735 -3.019662,0.116094 l -0.100969,0.0038 -0.201939,0.0078 -0.100969,0.0038 -0.201939,0.0078 -0.10097,0.0038 -0.146744,0.0056 0.0066,0.140243 z"
       id="path6228"
       style="clip-rule:evenodd;fill-rule:evenodd;stroke-width:0.013268;image-rendering:optimizeQuality;shape-rendering:geometricPrecision;text-rendering:geometricPrecision" />
    <path
       class="fil56"
       d="m 91.246989,94.968179 -0.0084,0.04206 0.08346,0.01658 c 0,0 0.158287,-0.02879 0.165186,-0.04246 0.104154,0.01778 0.307154,-0.114636 0.397244,-0.144887 0.100969,-0.03343 0.322146,-0.07589 0.348417,-0.195703 -0.01,-9.29e-4 -0.128965,0.0066 -0.13812,0.0097 -0.02269,0.0072 -0.03171,0.02163 -0.05161,0.03105 -0.03596,0.01725 -0.04246,0.0029 -0.07218,0.0138 -0.08186,0.02985 -0.1693,0.04485 -0.250898,0.07085 -0.03834,0.013 -0.05864,0.04232 -0.106542,0.05719 -0.03569,0.01101 -0.09659,0.02561 -0.126046,0.04179 -0.06966,0.03888 -0.162665,0.08054 -0.240416,0.100041 z"
       id="path6230"
       style="clip-rule:evenodd;fill-rule:evenodd;stroke-width:0.013268;image-rendering:optimizeQuality;shape-rendering:geometricPrecision;text-rendering:geometricPrecision" />
  </g>
</svg>
