<?xml version="1.0" encoding="UTF-8" standalone="no"?>
<!-- Created with Inkscape (http://www.inkscape.org/) -->

<svg
   width="9.0798168mm"
   height="9.3595896mm"
   viewBox="0 0 9.0798168 9.3595896"
   version="1.1"
   id="svg11048"
   inkscape:version="1.1.2 (0a00cf5339, 2022-02-04)"
   sodipodi:docname="dodge.svg"
   xmlns:inkscape="http://www.inkscape.org/namespaces/inkscape"
   xmlns:sodipodi="http://sodipodi.sourceforge.net/DTD/sodipodi-0.dtd"
   xmlns:xlink="http://www.w3.org/1999/xlink"
   xmlns="http://www.w3.org/2000/svg"
   xmlns:svg="http://www.w3.org/2000/svg">
  <sodipodi:namedview
     id="namedview11050"
     pagecolor="#ffffff"
     bordercolor="#666666"
     borderopacity="1.0"
     inkscape:pageshadow="2"
     inkscape:pageopacity="0.0"
     inkscape:pagecheckerboard="0"
     inkscape:document-units="mm"
     showgrid="false"
     inkscape:zoom="0.64052329"
     inkscape:cx="562.82107"
     inkscape:cy="470.70888"
     inkscape:window-width="1920"
     inkscape:window-height="1136"
     inkscape:window-x="0"
     inkscape:window-y="0"
     inkscape:window-maximized="1"
     inkscape:current-layer="layer1" />
  <defs
     id="defs11045">
    <linearGradient
       inkscape:collect="always"
       xlink:href="#id139"
       id="linearGradient10702"
       gradientUnits="userSpaceOnUse"
       x1="14031.955"
       y1="11816.72"
       x2="13383.44"
       y2="12465.218"
       gradientTransform="matrix(0.01326799,0,0,0.01326799,-220.57668,-131.88446)" />
    <linearGradient
       id="id139"
       gradientUnits="objectBoundingBox"
       x1="0"
       y1="0.99998593"
       x2="1"
       y2="1.35058e-05">
      <stop
         offset="0"
         style="stop-opacity:1; stop-color:#EAC046"
         id="stop438" />
      <stop
         offset="0.160784"
         style="stop-opacity:1; stop-color:#EAC046"
         id="stop440" />
      <stop
         offset="0.341176"
         style="stop-opacity:1; stop-color:#FFDD21"
         id="stop442" />
      <stop
         offset="0.580392"
         style="stop-opacity:1; stop-color:#EAC046"
         id="stop444" />
      <stop
         offset="0.819608"
         style="stop-opacity:1; stop-color:#FFDD21"
         id="stop446" />
      <stop
         offset="1"
         style="stop-opacity:1; stop-color:#D7B243"
         id="stop448" />
    </linearGradient>
  </defs>
  <g
     inkscape:label="Layer 1"
     inkscape:groupmode="layer"
     id="layer1"
     transform="translate(43.781905,-23.822307)">
    <circle
       class="fil1"
       cx="-39.241997"
       cy="28.362215"
       r="4.5399084"
       id="circle4311"
       style="clip-rule:evenodd;fill:#fefefe;fill-rule:evenodd;stroke-width:0.013268;image-rendering:optimizeQuality;shape-rendering:geometricPrecision;text-rendering:geometricPrecision" />
    <path
       class="fil2"
       d="m -39.243989,32.397139 c 2.167724,0 3.9256,-1.758009 3.9256,-3.925601 0,-2.167857 -1.757876,-3.9256 -3.9256,-3.9256 -2.167725,0 -3.925468,1.757743 -3.925468,3.9256 0,2.167592 1.757743,3.925601 3.925468,3.925601 z"
       id="path4313"
       style="clip-rule:evenodd;fill:#2b2a29;fill-rule:evenodd;stroke-width:0.013268;image-rendering:optimizeQuality;shape-rendering:geometricPrecision;text-rendering:geometricPrecision" />
    <path
       class="fil61"
       d="m -39.303297,32.303732 c 2.044199,0 3.702034,-1.657835 3.702034,-3.702035 0,-2.044332 -1.657835,-3.702034 -3.702034,-3.702034 -2.044332,0 -3.702035,1.657835 -3.702035,3.702034 0,2.0442 1.657703,3.702035 3.702035,3.702035 z"
       id="path4315"
       style="clip-rule:evenodd;fill:url(#linearGradient10702);fill-rule:evenodd;stroke-width:0.013268;image-rendering:optimizeQuality;shape-rendering:geometricPrecision;text-rendering:geometricPrecision" />
    <path
       class="fil2"
       d="m -41.206591,24.570749 c 2.313142,-1.066613 5.155676,0.08425 5.996601,2.50911 v 0 c -0.735312,-2.656782 -3.686378,-3.739583 -5.996601,-2.50911 z"
       id="path4317"
       style="clip-rule:evenodd;fill:#2b2a29;fill-rule:evenodd;stroke-width:0.013268;image-rendering:optimizeQuality;shape-rendering:geometricPrecision;text-rendering:geometricPrecision" />
    <path
       class="fil2"
       d="m -43.699646,27.010998 c -0.01964,0.01765 -0.01844,0.02786 0.0056,0.04405 l 0.08346,0.05626 c 0.11928,0.08067 0.725361,0.258593 0.884179,0.289242 0.119147,0.02309 0.363145,0.06369 0.470483,0.106277 0.05559,0.02216 0.11384,0.05798 0.15497,0.0211 l 0.0086,-0.0077 c 0.01964,-0.01765 0.01831,-0.02786 -0.0057,-0.04405 -0.07364,-0.04976 -0.200877,-0.07231 -0.259654,-0.0946 -0.148867,-0.05679 -0.09606,-0.05559 -0.247448,-0.07364 -0.107073,-0.07244 -0.35545,-0.130292 -0.488395,-0.171555 -0.173943,-0.05427 -0.464512,-0.252358 -0.606215,-0.125383 z"
       id="path4323"
       style="clip-rule:evenodd;fill:#2b2a29;fill-rule:evenodd;stroke-width:0.013268;image-rendering:optimizeQuality;shape-rendering:geometricPrecision;text-rendering:geometricPrecision" />
    <path
       class="fil2"
       d="m -36.27249,24.461421 -0.08757,0.04975 c -0.12525,0.07112 -0.867992,0.788119 -0.966042,0.916818 -0.07364,0.09659 -0.218392,0.296938 -0.304235,0.37429 -0.04445,0.03994 -0.165452,0.112115 -0.150725,0.165452 l 0.0031,0.01115 c 0.007,0.02534 0.01685,0.02879 0.04206,0.01446 0.07735,-0.04378 0.217065,-0.183761 0.263105,-0.226352 0.117023,-0.108134 0.09248,-0.0613 0.175933,-0.188936 0.112513,-0.06382 0.274647,-0.260583 0.37084,-0.361287 0.01605,-0.01685 0.935261,-0.914828 0.653847,-0.755214 z"
       id="path4325"
       style="clip-rule:evenodd;fill:#2b2a29;fill-rule:evenodd;stroke-width:0.013268;image-rendering:optimizeQuality;shape-rendering:geometricPrecision;text-rendering:geometricPrecision" />
    <path
       class="fil2"
       d="m -39.727077,31.409071 c -0.0084,-0.01645 -0.01459,-0.01287 -0.0264,0.01526 l -0.04126,0.09778 c -0.05891,0.14011 -0.222106,0.801652 -0.255541,0.971747 -0.02508,0.127638 -0.07258,0.387293 -0.108002,0.50697 -0.01844,0.06196 -0.04511,0.129496 -0.02746,0.163992 l 0.0036,0.0072 c 0.0085,0.01645 0.01459,0.013 0.02654,-0.01526 0.03635,-0.08638 0.06196,-0.222239 0.08067,-0.287385 0.04776,-0.165451 0.04206,-0.110655 0.06714,-0.270269 0.05294,-0.125647 0.111053,-0.393661 0.148071,-0.539343 0.04869,-0.190529 0.193182,-0.531914 0.132415,-0.650663 z"
       id="path4327"
       style="clip-rule:evenodd;fill:#2b2a29;fill-rule:evenodd;stroke-width:0.013268;image-rendering:optimizeQuality;shape-rendering:geometricPrecision;text-rendering:geometricPrecision" />
    <g
       id="g4335"
       style="clip-rule:evenodd;fill-rule:evenodd;image-rendering:optimizeQuality;shape-rendering:geometricPrecision;text-rendering:geometricPrecision"
       transform="matrix(0.01326799,0,0,0.01326799,-220.57668,-131.88446)">
      <path
         class="fil63"
         d="m 13626.12,12108.27 0.65,-5.51 c 1.21,-10.41 35,-76.66 46.21,-76.58 1.67,-11.98 44.86,-40.71 58.59,-39.11 l 1.84,0.22 c 13.91,1.62 18.78,19.9 17.24,33.06 l -1.72,14.7 c -1.57,13.39 -39.31,45.45 -49.96,50.03 -11.98,5.15 -59.1,24.79 -72.85,23.18 z m -93.36,-215.86 c -2.74,3.22 -6.38,4.77 -9.13,8.13 -2.67,3.26 -4.85,6.38 -7.63,10.05 -7.01,9.26 -8.1,10.79 -14.7,21.49 -6.44,10.46 -20.3,36.62 -22.12,52.19 l -1.58,13.48 c -4.25,36.34 6.42,65.01 19.89,87.69 4.02,6.78 20.6,26.16 27.36,30.07 10.3,5.98 28.84,15.96 43.71,17.7 l 12.87,1.54 18.99,2.19 c -1.5,12.77 4.69,32.94 8.08,42.54 1.06,2.97 5.89,17.06 7.35,18.65 2.45,2.67 10.34,15.25 11.57,15.87 1.88,0.26 19.17,20.16 23.77,23.46 2.32,1.66 3.88,3.8 6.3,5.58 3.53,2.6 4.83,1.68 8.04,4.21 3.29,2.59 14.64,7.74 14.65,9.83 l 8.34,2.57 -0.21,1.84 c 12.71,2.57 12.56,5.2 27.74,6.97 9.3,1.09 23.04,3.55 31.87,3.74 7.61,0.17 44.83,-10.1 45.85,-15.15 l 3.68,0.43 -0.46,-0.9 10.63,-5.23 25.81,-20.82 4.15,-3.01 3.39,-3.41 1.97,0.19 -3.75,-10.38 -1.19,0.9 -5.97,1.88 -3.4,3.53 -11.01,9.27 -0.66,-0.78 c -0.6,4.33 -32.12,19.84 -39.97,18.96 l -1.09,2.95 c -7.21,-0.84 -22.23,4.24 -23.45,4.09 l -44.1,-5.16 c -8.56,-1 -41.42,-16.39 -40.87,-22.17 -6.72,-1.36 -30.92,-26.31 -30.25,-33.34 -4.82,-0.98 -16.54,-33.75 -15.49,-42.8 -4.14,-0.84 -2.68,-8.88 -2.17,-13.3 l 0.43,-3.68 c 0.57,-4.82 20.98,-6.21 26.63,-7.11 2.17,-0.35 10.59,-3.94 12.59,-4.46 4.1,-1.06 2.82,0.96 6.93,-1.09 3.09,-1.55 1.86,-2.22 7.06,-1.62 0.43,-2.15 17.83,-8.71 20.85,-10.19 6.57,-3.24 14.59,-7.36 20.33,-10.86 12.92,-7.9 23.37,-19.41 34.32,-30.42 7.82,-7.86 19.2,-30.75 21.04,-46.54 0.94,-8.14 -0.37,-21.62 -2.68,-26.8 -2.56,-5.73 -14.56,-13.77 -15.8,-16.97 -9.75,-1.14 -7.05,-3.93 -12.5,-4.57 l -12.87,-1.51 c -1.48,-0.17 -18.04,4.16 -19.99,4.95 -4.04,1.65 -13.96,8.47 -17.55,8.05 l 0.66,0.79 -7.36,6.15 -0.58,-0.72 -26.25,24.31 -15.48,18.93 -0.78,-0.63 c -0.15,1.3 -9.32,16.6 -10.29,17.92 -3.84,5.2 -6.2,13.28 -10.27,18.67 -3.87,5.13 -11.99,43.19 -15.29,43.95 -7.8,1.79 -14.95,1.05 -25.14,-0.06 -0.32,-0.04 -23.19,-6.08 -23.67,-6.3 -7.76,-3.44 -33.89,-16.54 -33.66,-23.42 -6.34,-0.74 -17.42,-23.07 -20.14,-28.55 -2.49,-5 -10.13,-31.2 -9.38,-37.62 l 2.52,-25.86 7.82,-29.97 0.67,0.41 4.02,-10.26 17.94,-28.12 1.47,0.94 c 1.14,-9.74 44.05,-45.64 53.11,-45.34 1.22,-6.05 30.38,-10.23 30.73,-13.17 l 0.35,-3.06 c 1.37,-11.74 -37.55,5.03 -40.66,6.23 -6.9,2.65 -31.7,17.31 -35.92,22.08 z"
         id="path4329" />
      <path
         class="fil63"
         d="m 13509.94,11901.25 c 4.21,-4.77 29.02,-19.44 35.91,-22.08 3.11,-1.19 42.04,-17.97 40.67,-6.23 l -0.36,3.06 c -0.34,2.95 -29.5,7.12 -30.72,13.18 -9.06,-0.31 -51.97,35.6 -53.11,45.33 l -1.48,-0.94 -17.93,28.12 -4.02,10.26 -0.67,-0.41 -7.82,29.97 -2.52,25.86 c -0.75,6.44 6.89,32.63 9.37,37.62 2.73,5.48 13.81,27.81 20.15,28.55 -0.23,6.89 25.9,20 33.65,23.43 0.48,0.21 23.36,6.26 23.68,6.29 10.2,1.11 17.34,1.85 25.14,0.07 3.3,-0.76 11.43,-38.83 15.29,-43.96 4.06,-5.39 6.42,-13.47 10.27,-18.67 0.97,-1.32 10.14,-16.63 10.29,-17.92 l 0.78,0.64 15.49,-18.93 26.25,-24.31 0.58,0.72 7.36,-6.15 -0.66,-0.78 c 3.59,0.41 13.51,-6.41 17.55,-8.05 1.94,-0.8 18.5,-5.13 19.99,-4.95 l 12.87,1.5 c 5.46,0.64 2.76,3.43 12.5,4.57 1.24,3.2 13.24,11.25 15.8,16.97 2.31,5.18 3.63,18.66 2.68,26.8 -1.84,15.8 -13.22,38.68 -21.04,46.54 -10.95,11.02 -21.4,22.52 -34.32,30.42 -5.74,3.5 -13.75,7.62 -20.33,10.86 -3.01,1.48 -20.42,8.04 -20.85,10.2 -5.19,-0.61 -3.96,0.07 -7.06,1.61 -4.1,2.05 -2.82,0.03 -6.92,1.09 -2,0.52 -10.42,4.12 -12.6,4.46 -5.64,0.9 -26.06,2.28 -26.62,7.11 l -0.43,3.68 c -0.52,4.42 -1.97,12.46 2.17,13.3 -1.06,9.05 10.66,41.83 15.49,42.8 -0.66,7.03 23.53,31.99 30.25,33.34 -0.54,5.79 32.32,21.17 40.88,22.17 l 44.1,5.16 c 1.22,0.14 16.25,-4.93 23.45,-4.09 l 1.09,-2.94 c 7.85,0.88 39.37,-14.63 39.97,-18.96 l 0.66,0.79 11.02,-9.28 3.4,-3.53 5.97,-1.88 1.18,-0.9 3.75,10.38 -1.97,-0.19 -3.4,3.41 -4.14,3.01 -25.81,20.83 -10.63,5.22 0.45,0.9 -3.67,-0.43 c -1.03,5.04 -38.23,15.32 -45.85,15.15 -8.83,-0.2 -22.57,-2.66 -31.87,-3.75 -15.18,-1.77 -15.04,-4.4 -27.74,-6.97 l 0.21,-1.84 -8.34,-2.56 c -0.02,-2.1 -11.36,-7.25 -14.65,-9.84 -3.21,-2.52 -4.51,-1.6 -8.04,-4.21 -2.42,-1.79 -3.98,-3.93 -6.3,-5.58 -4.61,-3.29 -21.89,-23.2 -23.77,-23.45 l 19.01,23.33 c 0.11,0.02 27.53,18.73 30.71,20.75 5.92,3.77 30.16,14.32 38.34,15.28 l 19.6,2.29 c 2.62,0.3 12.44,-1.06 19.97,-0.76 2.77,0.11 15.06,-3.76 18.4,-3.45 0.93,-4.08 14.77,-7.23 19.81,-10.1 6.48,-3.71 14.49,-5.24 19.93,-9.96 6.7,-5.83 30.23,-20.73 31.39,-30.62 0.34,-2.91 -0.17,-4.51 -0.44,-6.88 -2.98,-0.6 -2.1,-1.49 -4.76,-1.8 l -1.83,-0.22 c -5.31,-0.62 -19.33,11.83 -19.7,14.47 l -0.4,-0.64 -4.08,2.56 0.44,0.71 c -0.35,-0.01 -29.03,15.11 -33.98,16.8 -9.78,3.35 -30.28,7.36 -43.19,5.85 l -18.38,-2.15 c -8.32,-0.97 -32.27,-11.96 -38.57,-15.65 -7.45,-4.37 -24.59,-16.88 -29.29,-23 -8.15,-10.59 -13.72,-18.15 -19.28,-30.9 -2,-4.6 -10.62,-34.35 -10.11,-38.71 l 0.72,-6.13 c 0.26,-2.18 21.31,-4.93 24.07,-5.41 7.54,-1.32 16.91,-3.55 23.44,-6.22 13.09,-5.34 31.7,-11.12 41.97,-19.35 4.83,-3.87 12.37,-8.88 17.98,-13.11 7.14,-5.4 10.39,-9.73 16.76,-15.37 8.4,-7.42 22.48,-26.92 24.22,-41.79 l 2.51,-21.44 c 1.51,-12.92 -5.77,-20.6 -11.35,-28.28 -1.05,-1.45 -9.41,-8.4 -11.18,-9.51 -3.77,-2.37 -12.71,-3.6 -18.5,-4.27 l -3.07,-0.35 c -13.11,-1.54 -38.45,10.53 -46.49,16.43 -6.47,4.76 -12.26,8.7 -17.74,14.84 -5.46,6.12 -9.75,12.49 -15.81,17.97 -1.76,1.6 -28.83,38 -29.01,38.56 -3.35,10.33 -8,11.72 -9.67,25.04 -0.89,7.15 -2.73,4.64 -4.21,13.66 -0.87,5.25 -2.16,8.68 -2.92,15.53 l -7.51,0.12 -21.44,-2.5 c -9.88,-1.16 -18.62,-3.39 -23.96,-8.31 -1.61,-1.48 -7.61,-4.23 -10.11,-5.9 -3.73,-2.49 -6.16,-5.4 -10.15,-5.87 l 0.84,-1.03 -8.31,-6.38 -18.34,-25.6 -0.83,0.09 -5.82,-16.64 -0.9,0.32 c 1.11,-9.47 -3.69,-21.59 -2.25,-33.8 l 0.93,-7.96 c 2.08,-17.76 10.39,-36.81 17.29,-49.16 10,-17.91 14.03,-23.69 26.76,-37.9 1.12,-1.24 15.25,-13.56 16.75,-14.67 6.23,-4.58 12.38,-7.6 19.2,-11.57 3.26,-1.9 5.87,-3.19 9.81,-5.17 5.64,-2.84 8.2,-1.35 11.95,-3.17 7.61,-3.69 15.42,-4.3 16.65,-14.81 l -0.86,0.5 -2.31,-5.22 -10.42,-1.22 0.4,1.3 -27.8,8.66 -0.05,0.67 -19.91,10.21 -8.69,5.9 -0.56,-0.55 -10.36,10.08 z"
         id="path4331" />
      <path
         class="fil63"
         d="m 13800.36,12193.74 0.63,-0.11 34.51,2.36 17.15,2 c 1.44,0.17 2.34,1.3 2.16,2.74 l 0.33,1.36 -10.63,37.36 -1.02,-0.29 -1.51,12.87 c -0.5,4.25 0.91,10.05 4.98,10.52 l 6.13,0.72 c 9.29,1.09 19.41,-38.55 20.79,-50.36 l 2.65,-22.66 c 0.6,-5.06 -3.87,-7.91 -8.94,-8.5 l -12.87,-1.5 c -15.73,-1.85 -26.58,-2.52 -39.96,-1.33 -4.49,0.4 -13.02,1.82 -17.11,2.99 -6.01,1.73 -4.92,10.96 2.71,11.85 z"
         id="path4333" />
    </g>
  </g>
</svg>
