<?xml version="1.0" encoding="UTF-8" standalone="no"?>
<!-- Created with Inkscape (http://www.inkscape.org/) -->

<svg
   width="16.607918mm"
   height="8.2544117mm"
   viewBox="0 0 16.607918 8.2544117"
   version="1.1"
   id="svg11921"
   inkscape:version="1.1.2 (0a00cf5339, 2022-02-04)"
   sodipodi:docname="double_arrow.svg"
   xmlns:inkscape="http://www.inkscape.org/namespaces/inkscape"
   xmlns:sodipodi="http://sodipodi.sourceforge.net/DTD/sodipodi-0.dtd"
   xmlns="http://www.w3.org/2000/svg"
   xmlns:svg="http://www.w3.org/2000/svg">
  <sodipodi:namedview
     id="namedview11923"
     pagecolor="#ffffff"
     bordercolor="#666666"
     borderopacity="1.0"
     inkscape:pageshadow="2"
     inkscape:pageopacity="0.0"
     inkscape:pagecheckerboard="0"
     inkscape:document-units="mm"
     showgrid="false"
     inkscape:zoom="0.64052329"
     inkscape:cx="305.21919"
     inkscape:cy="-319.2702"
     inkscape:window-width="1920"
     inkscape:window-height="1136"
     inkscape:window-x="0"
     inkscape:window-y="0"
     inkscape:window-maximized="1"
     inkscape:current-layer="layer1" />
  <defs
     id="defs11918" />
  <g
     inkscape:label="Layer 1"
     inkscape:groupmode="layer"
     id="layer1"
     transform="translate(-24.328863,-232.97711)">
    <g
       id="_1860615584576"
       style="clip-rule:evenodd;fill-rule:evenodd;image-rendering:optimizeQuality;shape-rendering:geometricPrecision;text-rendering:geometricPrecision"
       transform="matrix(0.01326799,0,0,0.01326799,-279.19751,182.08468)">
      <circle
         class="fil1"
         cx="23792.73"
         cy="4146.7998"
         r="311.06"
         id="circle527" />
      <circle
         class="fil0"
         cx="23792.73"
         cy="4146.79"
         r="311.06"
         id="circle529" />
      <path
         class="fil2"
         d="m 23505.88,3981.53 c -1.57,0.92 -1.62,1.62 -0.23,3.04 l 4.82,4.93 c 6.91,7.05 45.15,27.31 55.4,31.55 7.69,3.18 23.51,9.26 30.13,13.58 3.43,2.25 6.84,5.46 10.11,3.54 l 0.68,-0.4 c 1.56,-0.91 1.61,-1.61 0.23,-3.04 -4.26,-4.35 -12.5,-7.6 -16.13,-9.91 -9.23,-5.86 -5.68,-5.05 -15.6,-8.34 -6.2,-6.33 -22.08,-13.62 -30.43,-18.22 -10.93,-6.02 -27.72,-23.31 -38.97,-16.73 z"
         id="path531" />
      <circle
         class="fil0"
         cx="23187.65"
         cy="4146.79"
         r="311.06"
         id="circle533" />
      <circle
         class="fil1"
         cx="23187.65"
         cy="4146.7998"
         r="311.06"
         id="circle535" />
      <path
         class="fil2"
         d="m 23620.3,4272.85 c 0.54,0.6 1.06,1.21 1.59,1.82 18.51,-9.07 37.14,-17.89 55.4,-27.42 3.48,-1.83 6.53,-6.1 7.97,-9.93 3.76,-9.86 6.37,-20.14 9.69,-30.16 2.37,-7.23 -0.69,-10.52 -7.2,-13.53 -14.98,-6.96 -31.29,-8.41 -47.09,-4.6 -3.22,-8.74 -8.44,-16.66 -15.83,-23.06 l 5.37,-18.92 3.74,0.02 7.41,-24.04 5.7,-1.97 -0.38,-25.99 0.53,-0.38 -0.31,-6.66 c 3.89,-13.72 7.8,-27.46 11.74,-41.17 9.93,-34.59 20.24,-69.07 30.3,-103.62 0.28,-0.93 -0.45,-2.15 -3.69,-4.04 -10.88,35.72 -21.77,71.44 -33.39,109.56 0,-4.26 -0.19,-6.2 0.05,-8.06 0.25,-1.97 0.93,-3.85 1.4,-5.78 8.09,-32.65 15.83,-65.41 24.49,-97.91 0.65,-2.43 1.15,-4.8 1.55,-7.16 -35.66,18.66 -66.33,45.57 -89.49,78.17 l -29.22,1.81 c 27.13,-46.19 67.62,-83.58 116.2,-106.81 -1.69,-5.84 -1.55,-12.35 -0.75,-19.1 4.61,4.51 9.45,8.81 14.29,13.09 31.55,-13 66.11,-20.19 102.34,-20.19 90.28,0 170.16,44.54 218.95,112.8 l 53.99,1.24 c 0.76,1.4 1.51,2.81 2.25,4.22 l -25.79,49.95 c 12.6,31.12 19.57,65.13 19.57,100.78 0,11.42 -0.72,22.67 -2.11,33.71 8.73,0 17.89,0.22 24.04,1.42 11.09,-1.38 7.45,-0.63 20.16,0.01 5,0.25 14.67,-0.54 21.96,0.89 2.37,0.47 2.93,0.96 2.41,2.17 l -0.23,0.52 c -1.09,2.52 -6.69,1.57 -11.48,1.28 -9.24,-0.54 -27.65,1.09 -36.8,1.73 -3.99,0.28 -11.98,0.45 -21.29,0.51 -11.14,70.49 -49.66,131.88 -104.33,172.94 l 11.18,27.86 c -5.03,-0.64 -8,-0.15 -9.68,-1.4 -5.69,-4.21 -12.75,-8.02 -15.97,-13.82 l -1.06,-1.81 c -42,27.16 -92.04,42.96 -145.78,42.96 -115.35,0 -213.73,-72.65 -251.94,-174.67 l 6.66,-0.38 c 3.76,-0.22 7.09,-0.36 10.15,-0.46 34.83,98.52 128.77,169.11 239.19,169.11 51.11,0 98.67,-15.14 138.48,-41.16 -8.77,-10.91 -21.09,-15.28 -34.64,-19.33 -78.18,-23.4 -156.13,-47.6 -234.29,-71.07 -5.51,-1.67 -12.51,-1.12 -18.1,0.65 -16.48,5.25 -32.58,11.65 -48.83,17.59 -0.96,-0.77 -1.92,-1.53 -2.89,-2.31 7.48,-16.95 14.96,-33.89 23.06,-52.22 l -6.77,-0.59 24.81,-5.64 -13.16,17.24 c 0.53,0.73 1.06,1.44 1.58,2.17 3.59,-0.91 7.17,-1.81 11.85,-3 -6.45,8.12 -12.01,15.13 -17.56,22.12 z m 375.41,-90.44 c -0.52,1.2 0.04,1.7 2.41,2.17 l 8.25,1.61 c 6.6,1.3 24.89,1.81 41.86,1.88 -8.93,67.93 -44.76,127.4 -96.44,167.38 l -30.23,-75.39 c 0.65,-0.42 1.3,-0.82 1.94,-1.24 4.84,7.46 9.68,14.94 14.52,22.4 0.82,-0.46 1.63,-0.91 2.45,-1.38 -6.84,-13.58 -13.69,-27.19 -20.54,-40.77 0.96,-0.63 1.92,-1.27 2.89,-1.89 3.96,5.3 7.91,10.59 10.46,14 0,-30.45 0,-61.86 0,-93.26 -1.29,-0.66 -2.57,-1.31 -3.86,-1.96 -11.67,7 -23.47,13.81 -34.88,21.2 -1.65,1.07 -2.3,5.03 -2.05,7.51 2.3,23.18 3.96,46.5 7.71,69.48 3.2,19.67 8.89,38.92 13.76,59.53 -78.38,-20.97 -156.23,-41.79 -234.07,-62.62 0.23,-1.14 0.46,-2.27 0.69,-3.41 8.88,1.37 17.76,2.75 26.65,4.12 0.05,-0.41 0.11,-0.84 0.17,-1.26 -5.55,-1.91 -11.1,-3.81 -15.71,-5.41 2.71,-6.7 5.43,-13 7.82,-19.43 4.51,-12.17 7.99,-24.83 13.6,-36.46 3.15,-6.54 8.71,-13.24 14.93,-16.72 21.42,-11.97 43.16,-23.58 65.65,-33.33 21.55,-9.34 39.61,-27.63 65.42,-26.41 34.42,-19.42 68.88,-38.78 103.25,-58.28 9.35,-5.3 18.44,-11.06 27.95,-16.78 1.04,2.72 1.7,3.54 1.53,4.14 -2.83,10.59 -7.45,21.06 -8.12,31.77 -0.54,8.64 3.03,17.83 6.25,26.21 0.94,2.45 6.93,2.96 11.19,4.57 l 31.95,-61.89 c 11.18,28.59 17.33,59.68 17.33,92.24 0,8.39 -0.42,16.69 -1.22,24.86 h -6.62 c -14.28,-0.12 -43.11,-5.84 -46.87,2.82 z m -73.33,-299.29 c -142.46,-65.69 -314.2,-8.58 -389.33,124.3 l -3.66,-0.37 c 69.78,-146.47 249.43,-200.39 392.98,-123.93 z m -1021.56,98.42 c -1.57,0.92 -1.62,1.62 -0.23,3.04 l 4.82,4.93 c 2.89,2.95 11.26,8.22 20.79,13.65 -8,16.15 -14.67,33.46 -19.76,51.88 v 0.01 c 6.14,-17.72 13.85,-34.45 22.9,-50.11 7.73,4.33 15.87,8.61 22.26,11.8 -21.01,38.32 -32.94,82.31 -32.94,129.09 0,148.52 120.45,268.97 268.98,268.97 53.74,0 103.78,-15.76 145.79,-42.92 l 1.06,1.77 c 3.22,5.8 10.28,9.62 15.97,13.82 1.68,1.25 4.65,0.76 9.68,1.4 l -11.18,-27.83 c 29.43,-22.11 54.21,-50.14 72.54,-82.29 l -6.72,-3.21 c -16.92,31.17 -40.19,58.4 -68.06,79.95 l -30.22,-75.42 c 0.65,-0.42 1.3,-0.82 1.94,-1.24 4.84,7.46 9.68,14.94 14.52,22.4 0.82,-0.46 1.63,-0.91 2.45,-1.38 -6.84,-13.58 -13.69,-27.19 -20.54,-40.77 0.96,-0.63 1.92,-1.27 2.89,-1.89 3.96,5.3 7.91,10.59 10.46,14 v -70.05 l -11.07,-14.66 10.52,0.11 -3.41,-4.78 3.96,0.07 v -3.96 c -1.29,-0.66 -2.57,-1.31 -3.86,-1.96 -11.67,7 -23.47,13.81 -34.88,21.2 -1.65,1.07 -2.3,5.03 -2.05,7.51 2.3,23.18 3.96,46.5 7.71,69.48 3.2,19.67 8.89,38.92 13.76,59.53 -78.38,-20.97 -156.23,-41.79 -234.07,-62.62 0.23,-1.14 0.46,-2.27 0.69,-3.41 8.88,1.37 17.76,2.75 26.65,4.12 0.05,-0.41 0.11,-0.84 0.17,-1.26 -5.55,-1.91 -11.1,-3.81 -15.71,-5.41 2.71,-6.7 5.43,-13 7.82,-19.43 4.51,-12.17 7.99,-24.83 13.6,-36.46 3.15,-6.54 8.71,-13.24 14.93,-16.72 21.42,-11.97 43.16,-23.58 65.65,-33.33 21.55,-9.34 39.61,-27.63 65.42,-26.41 28.06,-15.83 56.16,-31.61 84.2,-47.47 l -9.64,-17.22 56.56,-13.51 16.2,2.46 0.3,-0.36 39.69,0.25 0.18,-0.02 c -1.4,-3.99 -2.9,-7.96 -4.48,-11.86 l 25.79,-49.95 c -0.75,-1.41 -1.49,-2.82 -2.25,-4.22 l -53.99,-1.24 c -48.79,-68.26 -128.67,-112.8 -218.95,-112.8 -36.22,0 -70.76,7.19 -102.3,20.18 -4.83,-4.27 -9.72,-8.58 -14.33,-13.08 -0.8,6.75 -0.9,13.25 0.78,19.1 -47.72,22.82 -87.69,59.28 -114.81,104.33 -6.14,-3.44 -12.73,-6.64 -17.19,-9.1 -1.45,-0.8 -3.02,-1.82 -4.64,-2.92 78.46,-124.24 244.08,-175.9 382.15,-112.22 -138.81,-73.94 -311.38,-25.98 -385.73,109.71 -10.05,-7.21 -22.05,-16.38 -30.75,-11.29 z m 72.25,44.51 c 6.78,2.82 13.94,6.02 17.87,8.58 3.43,2.25 6.84,5.46 10.11,3.54 l 0.68,-0.4 c 1.56,-0.91 1.61,-1.61 0.23,-3.04 -4.26,-4.35 -12.5,-7.6 -16.13,-9.91 -5.55,-3.52 -6.5,-4.66 -8.52,-5.7 23.86,-37.62 57.34,-68.53 96.99,-89.27 -0.39,2.37 -0.93,4.73 -1.58,7.17 -8.66,32.51 -16.39,65.26 -24.49,97.91 -0.47,1.93 -1.15,3.81 -1.4,5.78 -0.24,1.86 -0.05,3.8 -0.05,8.06 11.61,-38.13 22.51,-73.85 33.39,-109.56 3.23,1.89 3.96,3.11 3.69,4.04 -10.05,34.55 -20.37,69.03 -30.3,103.62 -12.94,45.09 -25.54,90.3 -38.42,135.42 -0.72,2.47 -2.1,5.41 -4.1,6.74 -11.12,7.39 -22.63,14.18 -33.78,21.53 -6.92,4.55 -13.43,9.71 -22.25,16.15 17.55,1.27 31.81,2.3 46.06,3.32 0.05,0.72 0.08,1.43 0.13,2.14 -7.21,1.12 -14.42,2.24 -21.62,3.34 -0.08,0.64 -0.16,1.28 -0.23,1.93 11.22,0.99 22.46,2 35.14,3.12 -8.09,18.33 -15.58,35.27 -23.06,52.22 0.97,0.78 1.94,1.54 2.89,2.31 16.25,-5.94 32.36,-12.34 48.83,-17.59 5.58,-1.77 12.59,-2.31 18.1,-0.65 78.17,23.47 156.11,47.66 234.29,71.07 13.56,4.05 25.87,8.45 34.64,19.36 -39.83,26.01 -87.38,41.13 -138.48,41.13 -140.07,0 -253.66,-113.59 -253.66,-253.66 0,-46.96 12.78,-90.96 35.03,-128.68 z m 42.16,246.8 c 0.54,0.6 1.06,1.21 1.59,1.82 18.51,-9.07 37.14,-17.89 55.4,-27.42 3.48,-1.83 6.53,-6.1 7.97,-9.93 3.76,-9.86 6.37,-20.14 9.69,-30.16 2.37,-7.23 -0.69,-10.52 -7.2,-13.53 -32.06,-14.91 -70.17,-4.59 -96.5,28.63 18.96,0 36.12,0 55.54,0 -8.83,11.56 -15.59,20.44 -22.37,29.3 0.53,0.73 1.06,1.44 1.58,2.17 3.59,-0.91 7.17,-1.81 11.85,-3 -6.45,8.12 -12.01,15.13 -17.56,22.12 z m 89.92,-356.6 c 9.06,10.5 15.87,22.63 17.24,38.97 1.43,-0.6 2.84,-1.22 4.26,-1.83 -0.52,-2.81 -0.99,-5.67 -1.61,-8.47 -0.74,-3.28 -1.63,-6.53 0.06,-10.55 3.64,11.69 7.27,23.39 10.9,35.08 1.06,-0.2 2.13,-0.41 3.2,-0.63 -0.58,-6.91 -1.15,-13.85 -1.73,-20.77 0.52,-0.14 1.03,-0.28 1.54,-0.42 4.24,15.01 8.47,30.03 12.71,45.04 1.55,-0.35 3.09,-0.68 4.64,-1.03 -1.71,-10.71 -3.41,-21.42 -5.35,-33.56 27.87,19.44 54.7,38.15 83.45,58.22 -13.25,7.54 -24.87,14.77 -37.15,20.65 -2.71,1.3 -8.17,-1.49 -11.61,-3.61 -33.1,-20.27 -61.83,-45.49 -85.46,-76.4 -2.35,-3.09 -4.85,-6.07 -9.44,-11.78 -19.43,75.51 -38.2,148.43 -57.16,222.11 21.13,4.43 41.65,9.13 62.35,12.78 4.79,0.83 11.06,-0.64 15.16,-3.3 33.55,-21.77 66.15,-45.03 100.19,-65.97 36.35,-22.34 73.98,-42.6 110.99,-63.87 13.48,-7.76 26.79,-15.81 41.91,-24.74 -20.28,-10.9 -46.95,-7.97 -57.94,-34.87 l 77.44,1.8 c -46.52,-53.88 -115.29,-88.02 -192.04,-88.02 -30.4,0 -59.53,5.37 -86.54,15.18 z m 605.04,0 c 27.01,-9.82 56.17,-15.18 86.57,-15.18 76.75,0 145.52,34.13 192.04,88.02 l -77.44,-1.8 c 11,26.9 37.66,23.97 57.94,34.87 -15.12,8.92 -28.42,16.98 -41.91,24.74 -37.01,21.27 -74.64,41.53 -110.99,63.87 -34.04,20.94 -66.64,44.2 -100.19,65.97 -4.11,2.66 -10.38,4.13 -15.16,3.3 -20.7,-3.65 -41.22,-8.34 -62.35,-12.78 18.96,-73.68 37.73,-146.61 57.16,-222.11 4.59,5.71 7.08,8.69 9.44,11.78 23.63,30.91 52.36,56.14 85.46,76.4 3.44,2.12 8.9,4.91 11.61,3.61 12.28,-5.88 23.9,-13.11 37.15,-20.65 -28.75,-20.06 -55.58,-38.78 -83.45,-58.22 1.94,12.14 3.64,22.85 5.35,33.56 -1.55,0.35 -3.09,0.68 -4.64,1.03 -4.24,-15.01 -8.47,-30.03 -12.71,-45.04 -0.51,0.14 -1.02,0.29 -1.54,0.42 0.57,6.93 1.15,13.86 1.73,20.77 -1.07,0.22 -2.14,0.43 -3.2,0.63 -3.63,-11.7 -7.26,-23.39 -10.9,-35.08 -1.69,4.02 -0.8,7.27 -0.06,10.55 0.62,2.8 1.09,5.66 1.61,8.47 -1.42,0.61 -2.83,1.23 -4.26,1.83 -1.37,-16.33 -8.2,-28.46 -17.27,-38.97 z"
         id="path537" />
      <path
         class="fil3"
         d="m 23451.45,4171.88 -83.89,-1.42 -5.19,1.88 c -11.92,2.65 -3.26,10.54 -1.64,23.6 l 13.63,2.51 0.13,0.87 -10.45,-0.18 0.1,2.98 17.91,0.32 0.1,2.98 -13.43,-0.23 3.2,4.48 -9.01,-0.1 c 5.65,7.48 22.18,9.35 34.62,9.57 l 10.45,0.18 -0.13,-1.61 28.93,-0.73 -13.39,29.69 9.69,9.1 5.47,-1.12 -0.63,6.89 3.34,1.6 8.14,-13.43 2.61,3.34 -4.3,9.53 2.71,1.23 3.69,-8.16 2.73,1.22 0.11,5.08 4.93,-1.97 9.34,-17.85 5.42,-9.49 3.47,-8.14 4.23,-8.71 26.83,-0.69 v 0 l 33.8,-0.85 1.11,2.91 c 25.23,-1.47 28.58,-1.15 52.63,2.8 l 23.19,-5.27 c 0.54,-9.76 -1.54,-23.41 -12.89,-32.48 l -37.67,-6.47 -25.37,-2.24 -19.01,-0.32 v 0 l -19,-0.32 -3.09,-0.05 1.36,-3.4 15.71,-39.17 2.54,-6.35 92.76,0.49 3.87,-12.57 -3.41,-4.54 6.47,-2.23 -0.05,-3.7 -15.64,-1.97 1.84,-3.75 10.45,0.06 -0.1,-2.98 -8.95,-0.05 -0.11,-2.99 4.51,-2.18 5.79,-2.25 2.11,-1.55 -0.29,-6.17 -36.46,-1.44 -10.45,-0.06 0.12,1.6 -29.91,1.11 -3,-6.53 c 8.25,3.73 6.08,-5.68 9.29,-6.84 l 6.01,-9.38 4.46,-23.64 -13.75,0.85 -1.16,-1.39 -19.34,-1.97 -20.72,31.8 -10.2,18.9 -29.39,1.09 -10.94,0.41 -18.48,0.69 -1.11,-2.9 -21.32,1.5 0.68,-1.88 -5.97,-0.04 -4.72,5.62 c -0.3,-9.06 -7.78,-3.25 -10.24,-5.71 l -11.06,-1.68 -23.19,5.54 6.84,12.22 -0.74,1.63 6.78,18.49 37.68,6.01 25.37,1.94 21.67,0.12 v -0.01 l 10.17,0.06 8.19,0.05 -17.03,37.76 v 0 l -4.78,10.59 -5.62,-0.1 v 0 z"
         id="path539" />
    </g>
  </g>
</svg>
