<?xml version="1.0" encoding="UTF-8" standalone="no"?>
<!-- Created with Inkscape (http://www.inkscape.org/) -->

<svg
   width="8.254282mm"
   height="8.254282mm"
   viewBox="0 0 8.254282 8.254282"
   version="1.1"
   id="svg11547"
   inkscape:version="1.1.2 (0a00cf5339, 2022-02-04)"
   sodipodi:docname="fireball.svg"
   xmlns:inkscape="http://www.inkscape.org/namespaces/inkscape"
   xmlns:sodipodi="http://sodipodi.sourceforge.net/DTD/sodipodi-0.dtd"
   xmlns="http://www.w3.org/2000/svg"
   xmlns:svg="http://www.w3.org/2000/svg">
  <sodipodi:namedview
     id="namedview11549"
     pagecolor="#ffffff"
     bordercolor="#666666"
     borderopacity="1.0"
     inkscape:pageshadow="2"
     inkscape:pageopacity="0.0"
     inkscape:pagecheckerboard="0"
     inkscape:document-units="mm"
     showgrid="false"
     inkscape:zoom="8.3210053"
     inkscape:cx="200.1561"
     inkscape:cy="-436.42563"
     inkscape:window-width="1920"
     inkscape:window-height="1136"
     inkscape:window-x="0"
     inkscape:window-y="0"
     inkscape:window-maximized="1"
     inkscape:current-layer="layer1" />
  <defs
     id="defs11544" />
  <g
     inkscape:label="Layer 1"
     inkscape:groupmode="layer"
     id="layer1"
     transform="translate(39.651483,-124.33878)">
    <g
       id="_1860622892784"
       style="clip-rule:evenodd;fill-rule:evenodd;image-rendering:optimizeQuality;shape-rendering:geometricPrecision;text-rendering:geometricPrecision"
       transform="matrix(0.01326799,0,0,0.01326799,-389.4834,80.318378)">
      <path
         class="fil2"
         d="m 26390.83,3463.58 c -1.57,0.92 -1.62,1.62 -0.23,3.04 l 4.82,4.93 c 6.91,7.05 45.15,27.31 55.4,31.55 7.69,3.18 23.51,9.26 30.13,13.58 3.43,2.25 6.84,5.46 10.11,3.54 l 0.68,-0.4 c 1.56,-0.91 1.61,-1.61 0.23,-3.04 -4.26,-4.35 -12.5,-7.6 -16.13,-9.91 -9.23,-5.86 -5.68,-5.05 -15.6,-8.34 -6.2,-6.33 -22.08,-13.62 -30.43,-18.22 -10.93,-6.02 -27.72,-23.31 -38.97,-16.73 z"
         id="path756" />
      <path
         class="fil2"
         d="m 26807.31,3365.17 c -158.49,-73.08 -353.26,5.77 -410.87,171.92 v -0.01 c 50.38,-182.03 252.58,-256.23 410.87,-171.91 z"
         id="path758" />
      <path
         class="fil2"
         d="m 26922.17,3879.38 c 0.09,1.41 -0.45,1.42 -2.33,0.04 l -6.52,-4.8 c -9.33,-6.87 -45.86,-43.81 -54.7,-53.64 -6.62,-7.38 -19.88,-22.53 -26.88,-28.97 -3.62,-3.34 -8.01,-6.72 -8.2,-9.67 l -0.04,-0.61 c -0.09,-1.41 0.44,-1.42 2.32,-0.04 5.76,4.24 12.74,12.13 16.51,15.66 9.59,8.96 7.08,5.61 14.96,15.07 8.38,6.17 22.65,21.44 30.77,29.53 10.63,10.57 33.43,27.28 34.09,37.43 z"
         id="path760" />
      <circle
         class="fil2"
         cx="26562.131"
         cy="3740.8"
         r="97.059998"
         id="circle762" />
      <path
         class="fil2"
         d="m 26677.65,3896.83 c -60.66,0 -116.61,-20.08 -161.61,-53.97 9.68,4.39 20.11,7.44 31.01,8.9 l 1.15,0.72 -4.98,2.74 11.73,1.31 c 37.3,21.59 80.58,33.92 126.76,33.92 140.08,-0.02 253.66,-113.6 253.66,-253.66 0,-36.15 -7.59,-70.53 -21.23,-101.65 3.23,-5.19 6.41,-11 9.16,-16.88 14.98,33.49 23.32,70.56 23.32,109.61 0,148.52 -120.44,268.97 -268.96,268.97 z m 101.78,-494.17 c -3.85,-1.61 -7.76,-3.11 -11.7,-4.54 -1.48,-6.08 -3.71,-11.85 -6.89,-16.96 l -7.02,-11.29 c 15.96,4.7 31.31,10.85 45.88,18.28 -7.05,4.46 -13.84,9.35 -20.27,14.5 z m -59.85,-16.7 c -12.37,-1.85 -24.99,-2.84 -37.87,-2.84 -140.07,0.02 -253.66,113.59 -253.66,253.68 0,34.72 7.02,67.83 19.66,97.98 l -0.04,0.59 0.19,-0.23 c 0.76,1.81 1.53,3.59 2.33,5.37 l -0.01,0.3 c 0,15.56 3.17,30.37 8.92,43.83 -31.73,-44.14 -50.42,-98.3 -50.42,-156.78 0,-148.53 120.44,-268.98 268.98,-268.98 18.91,0 37.35,1.97 55.16,5.68 l -10.35,16.57 c -1.21,1.94 -2.16,3.52 -2.89,4.82 z"
         id="path764" />
      <path
         class="fil2"
         d="m 26706.96,3797.92 c -16.19,13.71 -45.39,23.69 -67.15,26.04 -6.94,6.49 -14.69,12.11 -23.09,16.72 14.49,1.62 30.01,1.51 41.77,-0.22 41.08,-6.09 89.28,-32.68 129.97,-73.38 l 3.86,-3.86 c 5.64,-5.64 18.93,-21.05 18.18,-25.88 -7.92,7.91 -30.9,20.17 -39.66,23.72 -12.77,5.16 -26.58,7.94 -39.11,5.47 4.31,-2.68 8.58,-2.78 13.22,-5.07 4.81,-2.38 8.58,-4.42 13.22,-6.81 5.35,-2.77 20.79,-12.21 25.89,-17.3 l 12.11,-12.11 c 12.47,-12.47 18.22,-20.7 25.93,-33.05 4.08,-6.56 18.29,-27.89 17.58,-32.5 -22.21,22.21 -46.24,39.01 -68.29,52.01 -13.1,7.73 -58.47,25.27 -68.29,19.58 6.3,-3.91 18.2,-9.38 25.33,-12.43 7.45,-3.2 17.33,-9.58 24.78,-14.32 15.71,-9.99 33.63,-21.74 49.57,-37.68 l 4.96,-4.95 c 22.8,-22.81 41.39,-57.94 42.95,-80.42 l -18.38,25.59 -13.57,12.97 c -4.31,4.31 -15.59,8.63 -19.82,4.4 -5.39,-5.39 4.98,-23.71 11.56,-30.29 18.14,-18.14 42.49,-25.96 59.48,-42.96 l 16.52,-16.52 c 7.71,-7.71 23.58,-38.13 22.58,-44.61 -20.47,20.47 -36.12,34.66 -56.73,40.59 -14.06,4.04 -43.86,12.1 -56.72,24.4 1.42,-7.94 20.23,-29.04 29.18,-38 l 0.55,-0.55 c 14.65,-14.64 38.94,-31.52 53.98,-39.52 13.05,-6.93 41.72,-24.22 53.97,-36.48 l 1.65,-1.65 c 11.19,-11.19 18.56,-21.62 22.42,-33.05 2.51,-7.44 6.66,-26.02 5.67,-32.49 -2.97,3.51 -7.76,13.69 -11.09,18.73 -3.65,5.5 -9.48,12.87 -14.79,18.17 l -3.31,3.31 c -21.91,21.91 -53.68,30.24 -76.01,37.47 -12.28,3.98 -25.69,6.87 -38,13.06 -17.38,8.75 -20.24,11 -37.45,28.22 -1.43,-9.32 15.07,-34.9 25.89,-45.71 l 11.56,-11.56 c 12.47,-12.47 25.32,-19.65 38,-27.63 7.23,-4.56 12.6,-6.77 19.28,-9.98 5.71,-2.74 14.01,-4.62 18.72,-7.55 -38.27,-11.79 -83.49,9.69 -121.71,47.91 l -11.57,11.57 -36.81,45.9 c 0.81,-4.53 8.07,-19.21 10.21,-25.52 3.17,-9.36 5.58,-16.05 8.06,-25.34 3.82,-14.3 6.09,-37.59 -2.4,-51.22 -2.14,3.43 -4.09,12.24 -5.5,16.52 -1.93,5.77 -4.09,9.93 -6.62,15.97 -4.78,11.44 -11.9,21.27 -23.13,32.49 l -2.2,2.21 c -8.15,8.15 -34.56,23.84 -43.51,27.97 -10.11,4.67 -33.06,18.85 -42.96,28.75 l -9.36,9.37 c -14,14 -18.07,25.11 -26.44,38.55 -5.19,-8.98 6.96,-38.91 13.08,-50.12 9.9,-18.13 23.63,-31.75 41.45,-49.57 -12.01,0.84 -53.87,29.63 -67.74,43.51 l -20.38,20.38 c -22.21,22.21 -36.18,44.42 -50.56,66.64 -13.05,20.18 -20.58,46.46 -22.44,66.64 -0.17,1.75 -0.29,3.52 -0.41,5.3 5.67,-6.75 12.09,-12.84 19.16,-18.13 5.2,-22.96 16.6,-48.64 33.88,-65.93 l 10.88,-11.16 16.09,-14.87 2.77,-0.41 3.31,-3.3 c -0.1,1.4 -9.2,24.34 -10.48,29.19 -2.89,10.85 -4.85,18.8 -6.4,29.74 -0.56,3.91 -1.29,9.55 -1.76,15.86 6.42,-1.12 13.03,-1.72 19.78,-1.72 3.41,0 6.78,0.17 10.11,0.45 1.18,-1.99 2.4,-3.93 3.69,-5.77 11.23,-16.08 20.75,-34.04 36.83,-50.12 13.1,-13.1 41.88,-34.99 53.42,-35.8 -15.51,15.51 -31.88,37.35 -35.82,52.32 -2.37,8.95 -6.19,17.31 -5.03,26.44 1.01,8 2.16,18.8 9.46,26.43 0.87,-1.48 2.92,-11.89 4.24,-15.41 0.79,-2.1 4.91,-13.76 5.03,-15.18 l 7.63,-14.29 9.54,-13.49 9.78,-10.07 10.59,-9.35 2.76,-0.41 c 6.17,-6.16 29.73,-19.17 35.81,-20.38 5.37,-5.37 24.19,-10.98 31.94,-18.72 l 6.61,-6.61 c 9.09,-9.1 6.61,-12.62 10.47,-19.27 4.25,7.35 -2.73,34.85 -5.89,44.05 -2.59,7.5 -14.49,39.11 -20,44.62 l -2.2,2.2 0.87,0.93 -22.35,29.36 -5.39,5.65 -8.93,7.57 c 10.66,-0.75 40.12,-19.19 51.78,-30.84 l 7.46,-6.92 21.72,-27.78 c 2.06,10.41 -9.03,54.2 -18.72,63.9 l 1.09,1.1 c -5.78,5.78 -8.85,14.81 -13.75,20.37 -6.23,7.06 -11.17,13.36 -18.18,20.38 l -5.51,5.5 c -5.63,5.63 -22.9,20.12 -28.09,22.6 -1.79,0.85 -28.59,16.46 -28.76,16.15 l -0.91,0.31 c 1.58,7.36 2.43,14.99 2.5,22.8 1.8,1.19 3.66,2.53 5.69,4.14 6.11,4.82 11.86,10.92 18.18,13.76 6.73,3.02 12.91,0.72 18.17,1.76 -13.67,13.67 -34.75,20.21 -50.11,23.64 -2.55,6.37 -5.65,12.45 -9.26,18.19 6,0.74 18.06,0.72 23.58,-0.08 2.95,-0.44 23.92,-3.32 24.78,-3.2 z"
         id="path766" />
    </g>
  </g>
</svg>
