<?xml version="1.0" encoding="UTF-8" standalone="no"?>
<!-- Created with Inkscape (http://www.inkscape.org/) -->

<svg
   width="8.254282mm"
   height="8.254282mm"
   viewBox="0 0 8.254282 8.254282"
   version="1.1"
   id="svg11155"
   inkscape:version="1.1.2 (0a00cf5339, 2022-02-04)"
   sodipodi:docname="heal.svg"
   xmlns:inkscape="http://www.inkscape.org/namespaces/inkscape"
   xmlns:sodipodi="http://sodipodi.sourceforge.net/DTD/sodipodi-0.dtd"
   xmlns="http://www.w3.org/2000/svg"
   xmlns:svg="http://www.w3.org/2000/svg">
  <sodipodi:namedview
     id="namedview11157"
     pagecolor="#ffffff"
     bordercolor="#666666"
     borderopacity="1.0"
     inkscape:pageshadow="2"
     inkscape:pageopacity="0.0"
     inkscape:pagecheckerboard="0"
     inkscape:document-units="mm"
     showgrid="false"
     inkscape:zoom="0.64052329"
     inkscape:cx="164.70908"
     inkscape:cy="64.790775"
     inkscape:window-width="1920"
     inkscape:window-height="1136"
     inkscape:window-x="0"
     inkscape:window-y="0"
     inkscape:window-maximized="1"
     inkscape:current-layer="layer1" />
  <defs
     id="defs11152" />
  <g
     inkscape:label="Layer 1"
     inkscape:groupmode="layer"
     id="layer1"
     transform="translate(-61.551577,-131.36104)">
    <g
       id="_1860917914880"
       style="clip-rule:evenodd;fill-rule:evenodd;image-rendering:optimizeQuality;shape-rendering:geometricPrecision;text-rendering:geometricPrecision"
       transform="matrix(0.01326799,0,0,0.01326799,-287.28366,131.36104)">
      <circle
         class="fil0"
         cx="26602.551"
         cy="311.06"
         r="311.06"
         id="circle4905" />
      <circle
         class="fil1"
         cx="26602.551"
         cy="311.06"
         r="311.06"
         id="circle4907" />
      <path
         class="fil2"
         d="m 26743.13,192.27 c 0.47,1.23 1.22,1.19 3.25,-0.14 l 7.01,-4.63 c 10.05,-6.63 45.09,-41.26 53.19,-50.41 6.07,-6.87 18.06,-20.94 25.03,-27.03 3.61,-3.16 8.27,-6.4 7.28,-8.96 l -0.2,-0.54 c -0.47,-1.22 -1.22,-1.18 -3.24,0.14 -6.2,4.09 -12.54,11.43 -16.29,14.76 -9.51,8.46 -7.44,5.37 -14.38,14.13 -9.01,5.95 -22.35,20.21 -30.19,27.8 -10.27,9.93 -34.84,26.06 -31.45,34.87 z"
         id="path4909" />
      <path
         class="fil2"
         d="m 26315.71,145.79 c -1.57,0.92 -1.62,1.62 -0.23,3.04 l 4.82,4.93 c 6.91,7.05 45.15,27.31 55.4,31.55 7.69,3.18 23.51,9.26 30.13,13.58 3.43,2.25 6.84,5.46 10.11,3.54 l 0.68,-0.4 c 1.56,-0.91 1.61,-1.61 0.23,-3.04 -4.26,-4.35 -12.5,-7.6 -16.13,-9.91 -9.23,-5.86 -5.68,-5.05 -15.6,-8.34 -6.2,-6.33 -22.08,-13.62 -30.43,-18.22 -10.93,-6.02 -27.72,-23.31 -38.97,-16.73 z"
         id="path4911" />
      <path
         class="fil2"
         d="m 26567.9,206.35 -1.42,37.9 1.61,32.44 -131.98,4.98 -7.76,3.21 c -17.81,4.86 -4.86,15.99 -2.46,35.37 l 20.36,2.72 0.2,1.28 -15.61,0.52 0.15,4.46 26.76,-0.9 0.15,4.46 -20.07,0.67 4.77,6.45 -13.47,0.54 c 8.45,10.76 33.15,12.29 51.74,11.67 l 15.61,-0.53 -0.18,-2.38 74,-6.8 5.2,138.15 5.02,1.65 10.56,-13.86 -2.14,-1.63 4.46,-0.15 c 0.48,14.4 2.89,18.12 13.91,15.16 l 2.52,9.56 4.25,-0.53 2.72,-20.36 1.27,-0.2 0.53,15.62 4.46,-0.15 -0.9,-26.76 4.46,-0.15 0.67,20.07 6.45,-4.77 0.54,13.47 c 10.76,-8.45 12.29,-33.15 11.66,-51.74 l -0.52,-15.61 -2.38,0.18 -7.48,-82.93 35.36,-3.84 1.65,4.26 c 37.71,-4.12 42.71,-3.89 78.64,0.2 l 34.64,-9.64 c 0.8,-14.62 -2.29,-34.86 -19.24,-47.56 l -56.29,-6.79 -37.9,-1.42 -41.65,1.92 -3.35,-28.82 4.27,-1.65 -3.48,-31.86 2.85,1.01 -0.3,-8.92 -8.68,-7.05 c 13.52,-0.45 4.4,-11.61 7.92,-15.28 l 1.88,-16.54 -9.63,-34.64 -17.87,10.23 -2.47,-1.12 -27.22,10.13 -6.8,56.29 z"
         id="path4913" />
      <path
         class="fil2"
         d="m 26732.19,47.38 c -158.49,-73.08 -353.26,5.77 -410.87,171.92 v -0.01 c 50.38,-182.03 252.58,-256.23 410.87,-171.91 z"
         id="path4915" />
      <path
         class="fil2"
         d="m 26602.52,579.04 c -148.53,0 -268.98,-120.45 -268.98,-268.97 0,-148.53 120.45,-268.98 268.98,-268.98 148.52,0 268.96,120.45 268.96,268.98 0,148.52 -120.44,268.97 -268.96,268.97 z m 4.05,-6.4 c -140.07,0 -253.66,-113.59 -253.66,-253.66 0,-140.07 113.59,-253.66 253.66,-253.66 140.07,0 253.66,113.59 253.66,253.66 0,140.07 -113.59,253.66 -253.66,253.66 z"
         id="path4917" />
      <path
         class="fil2"
         d="m 26451.45,467.49 c 1.41,-0.06 1.4,0.48 -0.02,2.33 l -4.95,6.41 c -7.08,9.17 -44.84,44.84 -54.88,53.45 -7.52,6.46 -22.97,19.37 -29.57,26.21 -3.42,3.54 -6.9,7.85 -9.86,7.97 l -0.61,0.03 c -1.41,0.05 -1.41,-0.48 0.02,-2.33 4.37,-5.65 12.42,-12.46 16.04,-16.15 9.18,-9.38 5.77,-6.94 15.41,-14.61 6.35,-8.23 21.96,-22.15 30.22,-30.09 10.82,-10.39 28.04,-32.8 38.2,-33.22 z"
         id="path4919" />
    </g>
  </g>
</svg>
