<?xml version="1.0" encoding="UTF-8" standalone="no"?>
<!-- Created with Inkscape (http://www.inkscape.org/) -->

<svg
   width="8.254282mm"
   height="8.6261272mm"
   viewBox="0 0 8.254282 8.6261273"
   version="1.1"
   id="svg18065"
   sodipodi:docname="hit_blank.svg"
   inkscape:version="1.1.2 (0a00cf5339, 2022-02-04)"
   xmlns:inkscape="http://www.inkscape.org/namespaces/inkscape"
   xmlns:sodipodi="http://sodipodi.sourceforge.net/DTD/sodipodi-0.dtd"
   xmlns="http://www.w3.org/2000/svg"
   xmlns:svg="http://www.w3.org/2000/svg">
  <sodipodi:namedview
     id="namedview18067"
     pagecolor="#ffffff"
     bordercolor="#666666"
     borderopacity="1.0"
     inkscape:pageshadow="2"
     inkscape:pageopacity="0.0"
     inkscape:pagecheckerboard="0"
     inkscape:document-units="mm"
     showgrid="false"
     inkscape:zoom="10.508033"
     inkscape:cx="15.749855"
     inkscape:cy="18.699979"
     inkscape:window-width="1920"
     inkscape:window-height="1136"
     inkscape:window-x="0"
     inkscape:window-y="0"
     inkscape:window-maximized="1"
     inkscape:current-layer="layer1" />
  <defs
     id="defs18062" />
  <g
     inkscape:label="Layer 1"
     inkscape:groupmode="layer"
     id="layer1"
     transform="translate(88.273007,-71.58625)">
    <path
       class="fil2"
       d="m -82.369807,72.651878 c -2.102844,-0.969624 -4.68705,0.07656 -5.451552,2.281033 v -1.32e-4 c 0.668442,-2.415173 3.351229,-3.399657 5.451552,-2.280901 z"
       id="path546"
       style="clip-rule:evenodd;fill-rule:evenodd;stroke-width:0.013268;image-rendering:optimizeQuality;shape-rendering:geometricPrecision;text-rendering:geometricPrecision" />
    <path
       class="fil4"
       d="m -82.001089,78.768554 -0.0045,0.0021 c 1.33e-4,0.03954 0.0019,0.02256 0.0045,-0.0021 z"
       id="path548"
       style="clip-rule:evenodd;fill-rule:evenodd;stroke-width:0.013268;image-rendering:optimizeQuality;shape-rendering:geometricPrecision;text-rendering:geometricPrecision" />
    <path
       class="fil4"
       d="m -81.969777,78.758338 -0.0031,6.64e-4 0.01964,0.04418 v -0.0062 -0.0012 h 0.0017 c 0,-0.0094 -0.007,-0.02335 -0.01831,-0.03755 z"
       id="path550"
       style="clip-rule:evenodd;fill-rule:evenodd;stroke-width:0.013268;image-rendering:optimizeQuality;shape-rendering:geometricPrecision;text-rendering:geometricPrecision" />
    <g
       id="g560"
       transform="matrix(0.01326799,0,0,0.01326799,-391.94253,8.6448391)"
       style="clip-rule:evenodd;fill-rule:evenodd;image-rendering:optimizeQuality;shape-rendering:geometricPrecision;text-rendering:geometricPrecision">
      <path
         class="fil2"
         d="m 23411.48,5058.41 -1.21,2.68 5.32,2.4 c 0,0 11.01,0.51 11.68,-0.3 6.68,2.8 22.27,-2.92 28.75,-3.56 7.26,-0.68 22.67,-0.11 26.27,-7.7 -0.66,-0.22 -8.72,-1.54 -9.37,-1.48 -1.63,0.14 -2.45,0.96 -3.93,1.28 -2.66,0.6 -2.87,-0.46 -5.03,-0.19 -5.92,0.74 -12,0.39 -17.84,0.87 -2.77,0.27 -4.57,1.91 -8,2.18 -2.55,0.18 -6.84,0.21 -9.06,0.85 -5.25,1.51 -12.1,2.86 -17.59,2.98 z"
         id="path552" />
      <path
         class="fil2"
         d="m 23230.57,5019.82 9.52,-5.19 0.42,0.87 -1.48,3.34 c -0.54,1.18 -3.69,2.77 -4.81,3.39 l -14.91,24.47 c 0.22,1.47 0.26,3.29 2.13,4.13 l 2.66,1.2 c 7.41,3.35 25.77,-0.23 31.73,2.3 -5.87,7.7 -21.12,6.14 -24.53,13.72 l -0.31,0.66 c -4.28,9.52 24.63,12.76 21.72,20.93 -9.38,-1.82 -33.09,-4.58 -37.32,4.8 l -2.37,5.33 c 2.26,1.7 4.11,11.51 4.9,14.67 0.66,2.61 7.76,12.26 7.07,13.86 l -0.91,2 -5.3,-2.4 c 0.24,-3.21 -9.24,-12.93 -13.35,-14.78 l -3.35,-1.48 c -4.33,-1.95 -9.32,-0.57 -11.53,4.39 l -4.09,8.56 -3.54,11.95 -2.39,5.31 -2.65,-1.21 c 1.45,-4.15 -0.45,-17.76 -5.4,-19.97 -7.93,-3.57 -24.05,18.96 -29.97,16.88 l 1.19,-2.68 11.02,-17.4 3,-6.66 c 0.69,-1.53 0.09,-3.16 -1.45,-3.84 l -0.69,-0.31 c -5.14,-2.33 -12.21,5.13 -18.13,3.04 l 0.89,-2 c 0.56,-1.21 5.82,-4.05 7.2,-7.15 l 2.1,-4.64 c 1.37,-3.06 0.93,-5.98 -2.25,-7.42 l -1.33,-0.6 c -8.33,-3.73 -15.31,4.97 -20.31,3.49 l -5.19,0.96 -0.13,-0.78 c 1.64,-3.48 22.2,-13.82 23.14,-15.96 l 2.1,-4.64 c -4.99,-3.79 -13.56,-8.5 -20.39,-11.58 -4.16,-1.85 -22.66,-8.3 -21.04,-11.85 l 1.18,-2.65 c 5.86,1.16 9.71,2.24 16.39,3.98 3.27,0.87 26.66,6.9 29.15,1.31 l 0.64,-1.3 c 1.55,-3.51 -11.93,-20.05 -15.96,-23.13 l 1.48,-3.35 c 1.64,0.32 1.83,0.02 3.63,0.82 l 16.54,7.36 5.62,-3.78 8.94,-24.74 c -2.01,-1.93 1.43,-19.24 2.95,-22.6 7.07,3.35 3.38,15.67 4.88,22.36 0.93,4.09 2.73,20.95 6.13,22.5 l 3.32,1.51 c 8.03,3.59 16.53,-22.14 20.34,-20.42 3.03,1.37 -2.78,15.53 2.4,17.85 l 3.32,1.45 c 3.41,1.57 14.33,-3.51 17.39,-4.94 z m 89.14,48.85 11.74,-3.8 c -1.55,-2.26 0.69,-1.02 -1.88,-2.17 l -0.66,-0.29 c -4.27,-1.9 -5.65,-0.93 -9.9,-2.84 -8.14,-3.66 -19.54,-17.04 -16.64,-23.46 5.04,-11.28 19.47,-22.48 31.7,-28.2 5.11,-2.4 9.41,-5.51 14.2,-7.67 3.19,-1.46 11.11,-5.74 14.22,-7.5 6.84,-3.92 21.77,-12.94 28.66,-14.44 3.07,-0.66 27.9,-12.02 28.9,-13.85 -1.22,-0.46 -12.03,1.45 -13.61,1.85 -4.88,1.35 -8.42,3.96 -12.44,4.94 -15.02,3.65 -33.02,4.27 -47.44,10.11 -3.45,1.42 -5.65,3.06 -9.7,3.45 -1.35,0.13 -9.43,1.38 -10.4,1.64 -6.94,2.03 -34.72,6.58 -42.36,3.14 l -0.66,-0.27 c -3.43,-1.55 -3.81,-5.78 -2.65,-8.4 5.3,-11.77 19.8,-33.54 27.29,-38.39 0.66,-0.44 29.73,-33.32 29.73,-33.4 l 1.22,-3.5 c -3.97,2.73 -13.5,11.41 -18.1,15.6 -2.96,2.73 -15.54,13.82 -16.52,16.05 -2.79,0.47 -16.31,11.4 -20.03,14.01 -3.41,2.43 -17.82,11.31 -21.73,9.53 l -5.31,-2.37 c 1.38,-6.98 -0.93,-13.07 2.69,-21.99 3.2,-7.94 4.36,-15.05 8.44,-24.12 7.86,-17.47 13.21,-33.11 18.84,-49.04 l -1.33,-0.6 c -6,12.56 -16.05,30.65 -23,42.43 -4.49,7.59 -7.93,11.9 -12.24,19.99 -3.87,7.23 -8.24,9.41 -12.57,19.09 -4.02,-0.16 -6.47,8.28 -10.84,6.3 -5.06,-2.25 -4.57,-8.6 -6.17,-13.07 -1.51,-4.36 -1.06,-10.62 -0.92,-15.62 0.11,-5.25 3.04,-28.04 5.67,-33.53 l -1.65,-3.81 -3.22,6.55 -8.88,23.92 -3.88,8.65 c -1.68,3.68 -4.33,6.26 -6.46,8.95 l -5.65,-1.6 c -3.63,-0.94 -8.96,-12.73 -9.26,-15.76 -0.3,-3.57 -1.25,-17 -3.25,-18.62 l -1.79,3.99 c -0.66,1.48 -0.14,1.69 0.02,3.23 l -4.76,16.18 -3.29,7.32 c -1.07,2.4 -7.92,6.03 -11.56,4.4 l -0.65,-0.31 c -10.91,-4.88 -17.52,-38.58 -20.55,-48.98 -1.76,-6.11 -1.74,-6.58 -4.15,-12.73 -0.69,-1.76 -1.69,-10.4 -2.49,-13.39 -1.18,-4.19 -3.44,-24.96 -5.45,-26.6 -2.56,6.1 -1.63,14.86 -1.92,20.58 -0.2,3.99 1.24,6.47 0.29,9.81 -1.88,6.55 0.98,4.17 0.1,10.44 -0.7,5.13 -0.43,14.67 -0.63,20.63 -0.37,11.94 -0.54,23.92 -2.44,35.63 -0.39,2.41 -2.42,14.58 -2.77,15.38 l -1.79,3.98 c -1.06,2.34 -6.21,2.81 -8.74,1.67 -5.83,-2.62 -10.79,-8.46 -14.98,-13.07 -8.92,-9.61 -18.96,-20.49 -26.69,-31.18 -2.28,-3.2 -4.65,-4.75 -7.3,-8.26 -1.61,-2.16 -5.35,-7.79 -7.4,-8.77 -0.12,0.74 3.29,9.87 3.91,11.23 1.87,4.26 3.26,6.59 5.49,10.58 3.31,5.89 10.21,15.1 11.81,21.41 2.13,8.4 18.78,38.51 15.44,45.94 -4.45,9.96 -11.12,4.21 -21.07,2.5 -4.59,-0.78 -14.5,-4.92 -19.9,-7.35 l -31.9,-14.3 -36.64,-18.09 c 1.07,5 42.5,35.66 52.55,43.44 6.79,5.21 14.06,10.14 19.84,16.14 2.51,2.56 9.19,9.64 7.63,13.09 -3.02,6.75 -5.25,4.93 -9.98,5.63 -9.26,1.39 -6.92,-1.6 -12.7,-1.45 -0.75,4.74 11.08,12.71 7.09,21.59 l -0.86,1.97 c -3.09,6.82 -26.64,8.3 -33.6,7.39 -6.94,-0.88 -32.57,-0.9 -38.01,-2.8 l -0.71,1.78 18.84,4.15 22.9,7.69 11.98,5.38 c 6.25,2.83 8.19,7.61 11.79,9.32 -0.64,3.9 1.94,4.57 -1.15,11.47 l -0.9,1.97 c -2.91,6.52 -11.74,8.71 -16.02,12.95 -3.87,3.89 -16.21,6.02 -17.67,8.64 8.25,3.72 17.52,-0.93 27.24,3.44 l 1.33,0.6 c 7.15,3.23 13.08,13.58 10.29,19.81 l -1.2,2.65 c -5.76,12.84 -34.64,20.17 -39.49,30.97 l -0.89,1.98 c 4.79,1.55 38.45,-11.44 44.64,-8.67 18.69,2.43 -32.67,39.95 -38.44,51.1 -5.19,5.71 -12.08,10.68 -17.97,15.11 -2.36,1.74 -2.42,2.74 -4.3,4.6 -2.55,2.49 -2.29,0.07 -4.74,2.06 -1.97,1.59 -6.9,6.38 -8.13,9.06 l 2.68,1.2 2.22,-1.34 c 10.65,-8.32 20.33,-14.67 31.74,-23.82 2.47,-1.97 4.58,-1.76 7.51,-4.91 1.68,-1.78 4.61,-4.47 6.71,-5.58 4.54,-2.46 10.21,-6.93 14.22,-8.99 9.53,-4.95 19.18,-13.23 28.81,-18.41 7.27,-3.9 21.51,-16.45 30.55,-12.37 3.59,1.6 2.75,15.26 1.42,18.19 l -0.89,2 1.32,0.61 -27.49,74.73 1,0.38 22.32,-37.82 21.96,-28.48 11.88,-8.02 c 1.34,-0.08 1.55,-0.35 3.32,0.44 l 0.67,0.3 c 9.07,4.06 5.93,18.69 7.05,26.51 0.44,3.01 -1.14,25.9 -1.86,29.91 -2.51,13.56 -4.05,49.53 -9.4,61.44 l -0.78,11.7 c 5.8,-15.25 39.47,-122.1 61.83,-112.04 l 1.34,0.6 c 3.14,1.39 8.74,14.58 9.11,18.02 0.43,4.31 1.46,6.35 2.2,10.18 0.1,0.4 0.14,10.17 0.08,10.47 -1.06,3.03 0.02,13.27 2.26,14.57 l 1.19,-2.66 c 0.01,-0.06 2.06,-12.91 2.31,-14.65 0.65,-4.59 0.51,-9.51 1.81,-13.92 3.14,-10.74 4.89,-18.17 10.39,-30.39 13.21,-29.41 50.83,14.42 66.12,34.44 l 6.07,-10.42 c -0.77,-1.87 -1.64,-3.49 -2.71,-4.61 -13.65,-14.31 -26.85,-55.59 -17.98,-75.35 l 0.57,-1.33 c 3.79,-8.38 13.62,-4.54 22.65,-0.33 3.66,-16.4 12.65,-30.2 25.08,-40.59 1.62,-1.36 3.29,-2.66 5.03,-3.89 l -5.79,-2.76 c -6.55,-2.94 -12.63,-9.26 -9.5,-16.23 1.97,-4.38 6.93,-5.95 11.43,-7.64 z m 10.43,87.91 c 0,2.43 -0.08,0 0,0 z"
         id="path554" />
      <path
         class="fil2"
         d="m 23010.35,5367.29 c 2.6,1.7 7.15,-4.21 9.06,-7.08 l 25.42,-38.23 c 0.93,-1.44 0.6,-3.11 -0.81,-4.04 l -0.59,-0.41 c -3.17,-2.1 -14.62,16.68 -17.36,20.82 -4.8,7.3 -10.86,15.01 -16.36,23.27 -1.21,1.82 -1.84,3.99 0.04,5.24 l 0.6,0.41 z"
         id="path556" />
      <path
         class="fil2"
         d="m 23186.08,4836.13 c 1.5,0.7 2.16,0.44 2.86,-1.09 l 2.39,-5.34 c 3.41,-7.59 5.08,-41.97 4.42,-50.71 -0.47,-6.54 -1.91,-19.84 -0.87,-26.12 0.54,-3.23 1.97,-6.91 -1.23,-8.34 l -0.66,-0.3 c -1.53,-0.71 -2.22,-0.45 -2.9,1.09 -2.1,4.7 -1.45,11.64 -1.97,15.09 -1.29,8.69 -2.1,5.93 -0.72,14.06 -3.07,6.82 -2.73,20.62 -3.26,28.21 -0.68,9.94 -9.12,28.5 1.92,33.46 z"
         id="path558" />
    </g>
    <path
       class="fil2"
       d="m -83.208742,79.483832 c -1.508305,0.391538 -3.150219,-0.257665 -3.952667,-1.678534 -0.957551,-1.69472 -0.35943,-3.845196 1.335158,-4.802481 1.694588,-0.957153 3.845064,-0.359165 4.802216,1.335423 0.398969,0.70652 0.527668,1.492251 0.419401,2.237646 l -0.07934,-0.07762 c 0.07125,-0.665523 -0.05665,-1.358775 -0.41091,-1.985688 -0.902621,-1.597996 -2.930766,-2.162019 -4.528763,-1.259265 -1.598129,0.902887 -2.162151,2.930634 -1.259265,4.528896 0.744733,1.318308 2.255293,1.93235 3.658516,1.600252 l 0.01566,0.101501 z"
       id="path562"
       style="clip-rule:evenodd;fill-rule:evenodd;stroke-width:0.013268;image-rendering:optimizeQuality;shape-rendering:geometricPrecision;text-rendering:geometricPrecision" />
  </g>
</svg>
