<?xml version="1.0" encoding="UTF-8" standalone="no"?>
<!-- Created with Inkscape (http://www.inkscape.org/) -->

<svg
   width="8.579402mm"
   height="8.254282mm"
   viewBox="0 0 8.579402 8.254282"
   version="1.1"
   id="svg15799"
   inkscape:version="1.1.2 (0a00cf5339, 2022-02-04)"
   sodipodi:docname="pull.svg"
   xmlns:inkscape="http://www.inkscape.org/namespaces/inkscape"
   xmlns:sodipodi="http://sodipodi.sourceforge.net/DTD/sodipodi-0.dtd"
   xmlns="http://www.w3.org/2000/svg"
   xmlns:svg="http://www.w3.org/2000/svg">
  <sodipodi:namedview
     id="namedview15801"
     pagecolor="#ffffff"
     bordercolor="#666666"
     borderopacity="1.0"
     inkscape:pageshadow="2"
     inkscape:pageopacity="0.0"
     inkscape:pagecheckerboard="0"
     inkscape:document-units="mm"
     showgrid="false"
     inkscape:zoom="0.64052329"
     inkscape:cx="508.17824"
     inkscape:cy="259.94371"
     inkscape:window-width="1920"
     inkscape:window-height="1136"
     inkscape:window-x="0"
     inkscape:window-y="0"
     inkscape:window-maximized="1"
     inkscape:current-layer="layer1" />
  <defs
     id="defs15796" />
  <g
     inkscape:label="Layer 1"
     inkscape:groupmode="layer"
     id="layer1"
     transform="translate(29.487195,-79.726825)">
    <circle
       class="fil0"
       cx="-25.360054"
       cy="83.853966"
       r="4.127141"
       id="circle1442"
       style="clip-rule:evenodd;fill:none;fill-rule:evenodd;stroke-width:0.013268;image-rendering:optimizeQuality;shape-rendering:geometricPrecision;text-rendering:geometricPrecision" />
    <circle
       class="fil20"
       cx="-25.360054"
       cy="83.853966"
       r="4.127141"
       id="circle1444"
       style="clip-rule:evenodd;fill:#746992;fill-rule:evenodd;stroke-width:0.013268;image-rendering:optimizeQuality;shape-rendering:geometricPrecision;text-rendering:geometricPrecision" />
    <path
       class="fil1"
       d="m -23.583992,80.420601 c -2.102843,-0.969625 -4.68705,0.07656 -5.451551,2.281033 v -1.33e-4 c 0.668441,-2.415172 3.351229,-3.399657 5.451551,-2.2809 z"
       id="path1446"
       style="clip-rule:evenodd;fill:#fefefe;fill-rule:evenodd;stroke-width:0.013268;image-rendering:optimizeQuality;shape-rendering:geometricPrecision;text-rendering:geometricPrecision" />
    <path
       class="fil1"
       d="m -24.476131,87.252554 c -1.508305,0.391539 -3.150219,-0.257664 -3.952667,-1.678533 -0.957551,-1.69472 -0.35943,-3.845196 1.335158,-4.802482 1.694587,-0.957152 3.845063,-0.359164 4.802216,1.335424 0.398969,0.70652 0.527668,1.49225 0.419401,2.237646 l -0.07934,-0.07762 c 0.07125,-0.665522 -0.05665,-1.358775 -0.41091,-1.985687 -0.902621,-1.597997 -2.930766,-2.162019 -4.528763,-1.259265 -1.598129,0.902887 -2.162152,2.930634 -1.259265,4.528896 0.744732,1.318307 2.255293,1.93235 3.658516,1.600252 l 0.01566,0.1015 z"
       id="path1448"
       style="clip-rule:evenodd;fill:#fefefe;fill-rule:evenodd;stroke-width:0.013268;image-rendering:optimizeQuality;shape-rendering:geometricPrecision;text-rendering:geometricPrecision" />
    <g
       id="g1456"
       style="clip-rule:evenodd;fill-rule:evenodd;image-rendering:optimizeQuality;shape-rendering:geometricPrecision;text-rendering:geometricPrecision"
       transform="matrix(0.01326799,0,0,0.01326799,-367.29313,-37.414143)">
      <path
         class="fil1"
         d="m 25560.84,9400.54 c 0.62,1.15 1.36,1.03 3.2,-0.55 l 6.38,-5.46 c 9.13,-7.83 39.59,-46.56 46.49,-56.66 5.17,-7.57 15.3,-23.02 21.46,-29.94 3.19,-3.58 7.41,-7.38 6.11,-9.8 l -0.27,-0.5 c -0.62,-1.15 -1.36,-1.03 -3.2,0.55 -5.64,4.83 -11.02,12.9 -14.32,16.67 -8.38,9.58 -6.71,6.26 -12.5,15.82 -8.2,7.03 -19.66,22.84 -26.49,31.35 -8.95,11.13 -31.32,30.2 -26.86,38.52 z"
         id="path1450" />
      <path
         class="fil16"
         d="m 25489.94,8949.96 c -1.57,0.92 -1.62,1.62 -0.23,3.04 l 4.82,4.93 c 6.91,7.05 45.15,27.31 55.4,31.55 7.69,3.18 23.51,9.26 30.13,13.58 3.43,2.25 6.84,5.46 10.11,3.54 l 0.68,-0.4 c 1.56,-0.91 1.61,-1.61 0.23,-3.04 -4.26,-4.35 -12.5,-7.6 -16.13,-9.91 -9.23,-5.86 -5.68,-5.05 -15.6,-8.34 -6.2,-6.33 -22.08,-13.62 -30.43,-18.22 -10.93,-6.02 -27.72,-23.31 -38.97,-16.73 z"
         id="path1452" />
      <path
         class="fil1"
         d="m 26106.26,9132.35 c 1.08,0.9 0.72,1.3 -1.58,1.7 l -7.97,1.38 c -11.42,1.97 -63.37,2.73 -76.58,2.29 -9.91,-0.33 -30.02,-1.27 -39.51,-0.69 -4.92,0.29 -10.39,1.12 -12.65,-0.78 l -0.47,-0.4 c -1.09,-0.9 -0.72,-1.3 1.58,-1.7 7.04,-1.22 17.57,-0.78 22.73,-1.06 13.11,-0.71 8.95,-1.21 21.24,-0.35 10.25,-1.77 31.16,-1.48 42.61,-1.74 14.99,-0.34 42.84,-5.21 50.61,1.35 z"
         id="path1454" />
    </g>
    <path
       class="fil9 str0"
       d="m -25.567423,82.049379 1.92147,0.137855 c -0.09274,-0.01725 -0.187875,-0.03795 -0.309542,-0.05214 -0.162135,-0.01884 -0.324137,-0.03781 -0.486272,-0.05666 -0.253021,-0.02945 -0.795151,-0.04086 -0.919472,-0.150989 0.112645,0.01314 0.07125,-0.0134 0.12525,-0.0072 l 1.536566,0.17328 0.418207,0.08757 -0.0038,0.02388 -0.206715,-0.01579 -0.0049,0.0089 0.210032,0.01512 -0.52037,3.060527 c -0.02773,0.162135 0.0073,0.02932 -0.05055,0.367922 0.0078,-0.02574 0.01605,-0.05612 0.02454,-0.09062 l -0.0406,0.238161 -2.197179,-0.375352 c 0.106144,-0.404143 0.08346,-0.297733 0.152449,-0.701346 l 0.05944,-0.103888 0.228077,-1.328656 -0.02083,-0.12326 -0.271994,1.44369 -0.03781,0.03914 -0.0076,-0.03635 0.401754,-2.553955 z"
       id="path1458"
       style="clip-rule:evenodd;fill:#78b833;fill-rule:evenodd;stroke:#fefefe;stroke-width:0.180047;stroke-linejoin:bevel;stroke-miterlimit:22.9256;image-rendering:optimizeQuality;shape-rendering:geometricPrecision;text-rendering:geometricPrecision" />
    <path
       class="fil1"
       d="m -27.033802,84.149304 0.467962,-0.138916 c 0.152052,-0.04511 0.291365,-0.07549 0.363941,-0.119279 l -2.374306,-0.157093 -0.0058,-0.02322 0.02043,-0.01406 0.247448,-0.115962 -0.02388,-0.05095 h -0.374157 l 0.02654,-0.145152 1.581544,0.0064 0.02693,0.04564 0.514533,-0.01115 0.670564,0.0062 -0.904214,-0.380924 0.01964,-0.03848 0.201143,0.0751 c -0.311798,-0.465574 -0.407062,-0.318299 0.143161,-0.312992 l -0.256205,-0.245458 2.086259,1.136934 c -0.78029,0.195438 -1.521042,0.478842 -2.276123,0.738762 l -0.161605,0.05546 0.07616,-0.143559 -0.114636,-0.07748 0.227148,-0.03344 z"
       id="path1460"
       style="clip-rule:evenodd;fill:#fefefe;fill-rule:evenodd;stroke-width:0.013268;image-rendering:optimizeQuality;shape-rendering:geometricPrecision;text-rendering:geometricPrecision" />
  </g>
</svg>
