<?xml version="1.0" encoding="UTF-8" standalone="no"?>
<!-- Created with Inkscape (http://www.inkscape.org/) -->

<svg
   width="9.0798168mm"
   height="9.4093494mm"
   viewBox="0 0 9.0798168 9.4093494"
   version="1.1"
   id="svg16262"
   inkscape:version="1.1.2 (0a00cf5339, 2022-02-04)"
   sodipodi:docname="quicken_x.svg"
   xmlns:inkscape="http://www.inkscape.org/namespaces/inkscape"
   xmlns:sodipodi="http://sodipodi.sourceforge.net/DTD/sodipodi-0.dtd"
   xmlns="http://www.w3.org/2000/svg"
   xmlns:svg="http://www.w3.org/2000/svg">
  <sodipodi:namedview
     id="namedview16264"
     pagecolor="#ffffff"
     bordercolor="#666666"
     borderopacity="1.0"
     inkscape:pageshadow="2"
     inkscape:pageopacity="0.0"
     inkscape:pagecheckerboard="0"
     inkscape:document-units="mm"
     showgrid="false"
     inkscape:zoom="10.450628"
     inkscape:cx="15.549305"
     inkscape:cy="27.510309"
     inkscape:window-width="1920"
     inkscape:window-height="1136"
     inkscape:window-x="0"
     inkscape:window-y="0"
     inkscape:window-maximized="1"
     inkscape:current-layer="layer1" />
  <defs
     id="defs16259">
    <clipPath
       id="id134">
      <path
         d="m 17070.38,7079.99 h 790.22 v 790.21 h -790.22 z"
         id="path419" />
    </clipPath>
  </defs>
  <g
     inkscape:label="Layer 1"
     inkscape:groupmode="layer"
     id="layer1"
     transform="translate(-164.94405,-193.28129)">
    <circle
       class="fil0"
       cx="169.48396"
       cy="198.15073"
       r="4.5399084"
       id="circle6245"
       style="clip-rule:evenodd;fill:#ffffff;fill-opacity:1;fill-rule:evenodd;stroke-width:0.013268;image-rendering:optimizeQuality;shape-rendering:geometricPrecision;text-rendering:geometricPrecision" />
    <path
       class="fil56"
       d="m 169.48396,202.07632 c -2.16773,0 -3.9256,-1.75801 -3.9256,-3.9256 0,-2.16785 1.75787,-3.92573 3.9256,-3.92573 2.16772,0 3.9256,1.75788 3.9256,3.92573 0,2.16759 -1.75788,3.9256 -3.9256,3.9256 z m 0.0593,-0.0934 c -2.04434,0 -3.70204,-1.65784 -3.70204,-3.70204 0,-2.04433 1.65784,-3.70203 3.70204,-3.70203 2.04419,0 3.70203,1.65783 3.70203,3.70203 0,2.04433 -1.65784,3.70204 -3.70203,3.70204 z"
       id="path6249"
       style="clip-rule:evenodd;fill-rule:evenodd;stroke-width:0.013268;image-rendering:optimizeQuality;shape-rendering:geometricPrecision;text-rendering:geometricPrecision" />
    <path
       class="fil56"
       d="m 171.36642,194.44962 c -2.31314,-1.06648 -5.15581,0.0842 -5.9966,2.50924 v -1.3e-4 c 0.73531,-2.65665 3.68638,-3.73959 5.9966,-2.50911 z"
       id="path6251"
       style="clip-rule:evenodd;fill-rule:evenodd;stroke-width:0.013268;image-rendering:optimizeQuality;shape-rendering:geometricPrecision;text-rendering:geometricPrecision" />
    <g
       id="g6269"
       transform="matrix(0.01326799,0,0,0.01326799,-61.545582,99.673843)"
       style="clip-rule:evenodd;fill-rule:evenodd;image-rendering:optimizeQuality;shape-rendering:geometricPrecision;text-rendering:geometricPrecision">
      <path
         class="fil56"
         d="m 17430.22,7594.29 c -5.77,-4.61 -11.46,-11 -16.28,-16.89 -4.46,-5.44 -10.08,-15.35 -13.93,-19.44 -1.63,-5.89 -8.82,-17.4 -11.2,-25.48 -2.37,-8.06 -6.14,-20.24 -6.53,-29.78 l -0.78,-19.12 c -1.47,-35.99 20.38,-74.61 37.98,-93.8 9.83,-10.73 24.67,-22.32 38.14,-29.25 6.27,-3.23 16.48,-8.17 23.74,-9.96 6.16,-1.52 21.25,-5.98 27.78,-6.24 l 17.65,-0.72 c 11.74,-0.47 29.8,3.91 39.21,6.59 12.59,3.59 21.47,8.86 32.34,14.06 3.6,2.88 8.98,6.44 12.89,9.05 2.49,1.66 10.27,9.38 12.19,9.81 0.66,1.63 13.16,14.95 15.94,18.8 4.93,6.82 9.1,13.3 13.17,21.03 26.33,49.99 17.3,124.56 -24.8,163.02 -24.49,22.38 -51.69,42.15 -98.11,44.05 -22.58,0.92 -40.95,-3.7 -57.36,-9.95 -10.99,-4.18 -35.88,-18.02 -42.06,-25.78 z m 65.67,-106.56 c 0.53,14.01 12.36,28.25 25.4,27.72 l 9.56,-0.39 c 11.46,-0.47 22.92,-15.84 22.39,-28.9 -0.66,-15.92 -11.55,-25.78 -25.26,-27.88 -8.91,-1.36 -11.42,-3.46 -18,-8.12 -4.88,-3.45 -11.07,-7.15 -16.08,-10.19 -21.61,-13.1 -42.78,-27.68 -64.62,-40.57 l 66.61,88.34 z m 147.59,-154.78 -3.57,3.9 -16.61,-11.18 -6.03,-3.44 c -12.89,-10.31 -59.26,-24.84 -83.47,-23.85 l -1.2,-29.41 12.5,-0.51 -0.67,-34.59 -60.3,2.46 1.41,34.5 13.27,0.26 0.06,1.47 1.12,27.21 c -19.18,0.78 -45.01,10.47 -58.23,17.1 -8.46,4.25 -16.21,8.47 -23.76,13.49 -7.48,4.98 -13.73,11.23 -20.7,16.32 -2.11,-2.89 -28.81,-27.56 -30.58,-27.48 -0.73,0.03 -21.22,22.29 -22.57,24.49 l 30.05,28.06 c -9.96,16.17 -22.05,31.44 -27.98,51.69 -5.86,19.97 -11.9,40.36 -10.83,66.45 l 0.6,14.71 c 1.1,26.9 12.57,50.84 20.98,70.16 7.36,16.93 26.26,38.98 38.64,50.99 11.15,10.83 38.17,29.39 53.66,34.7 11.09,3.81 19.4,7.98 32.32,11.01 9.11,2.13 27.76,5.06 38.19,4.64 l 22.79,-0.93 c 49.93,-2.04 97.48,-34.03 121.74,-60.49 15.21,-16.6 24.9,-32.81 34.64,-54.42 11.84,-26.32 15.65,-55.71 14.49,-84.32 -0.9,-22.14 -8.48,-52.04 -16.33,-66.75 -5.17,-9.67 -8.63,-17.64 -14.58,-26.42 -5.8,-8.58 -11.56,-14.89 -17.27,-22.72 l 27.66,-30.42 c -2.33,-3.1 -22.83,-22.81 -25.41,-22.71 -0.74,0.03 -19.87,20.86 -21.16,22.96 l -2.83,3.07 z"
         id="path6253" />
      <path
         class="fil56"
         d="m 17394.64,7355.98 c 1.74,2.42 1.16,3.41 -2.52,4.27 l -12.75,2.99 c -25.63,-6.38 -110.69,-0.87 -129.97,-0.2 -15.87,-1.55 -40.71,-4.61 -55.9,-3.79 -7.87,0.42 -16.63,2.16 -20.27,-2.91 l -0.75,-1.06 c -1.74,-2.42 -1.15,-3.41 2.52,-4.27 11.26,-2.65 28.13,-0.78 36.39,-1.14 20.98,-0.9 14.31,-2.51 34.01,0.59 16.39,-3.85 49.86,-1.64 68.2,-1.5 24,0.17 68.52,-10.44 81.05,7.02 z"
         id="path6255" />
      <path
         class="fil56"
         d="m 17155.77,7595.21 c -1.76,2.71 -1.08,3.6 2.96,3.83 l 14.02,0.79 c 27.52,-10.78 120.24,-19.95 141.23,-22.62 17.17,-4.27 43.99,-11.61 60.54,-13.42 8.58,-0.93 18.19,-0.71 21.88,-6.39 l 0.76,-1.18 c 1.76,-2.72 1.08,-3.61 -2.96,-3.84 -12.38,-0.69 -30.61,4.07 -39.61,5.14 -22.84,2.71 -15.68,-0.03 -36.92,6.45 -18.01,-1.01 -54.27,6.96 -74.2,10.26 -26.07,4.31 -75.02,1.41 -87.71,20.97 z"
         id="path6257" />
      <path
         class="fil56"
         d="m 17381.15,7398.53 c 1.8,2.39 1.24,3.39 -2.41,4.31 l -12.68,3.2 c -18.16,4.58 -101.38,4.21 -122.59,2.49 -15.91,-1.29 -43.76,0.77 -58.94,1.83 -7.86,0.55 -21.04,-2.93 -24.8,-7.94 l -0.78,-1.04 c -1.8,-2.4 -1.24,-3.4 2.41,-4.32 11.2,-2.82 28.11,-1.23 36.37,-1.72 20.96,-1.24 45.44,-5.48 65.21,-2.7 16.29,-4.11 18.64,0.32 36.98,0.16 24.01,-0.21 68.28,-11.52 81.23,5.72 z"
         id="path6259" />
      <path
         class="fil56"
         d="m 17154.75,7545.53 c -1.63,1.79 -1.02,2.36 2.66,2.43 l 12.76,0.26 c 18.28,0.37 100.69,-11.67 121.59,-15.78 15.68,-3.09 43.39,-5.71 58.49,-7.18 7.82,-0.76 20.66,-4.87 24.07,-8.63 l 0.71,-0.78 c 1.64,-1.8 1.02,-2.36 -2.66,-2.43 -11.27,-0.23 -27.92,3.2 -36.12,4.05 -20.84,2.18 -45.35,2.92 -64.76,7.51 -16.4,-0.33 -18.45,2.85 -36.63,5.35 -23.79,3.27 -68.34,2.27 -80.1,15.2 z"
         id="path6261" />
      <path
         class="fil56"
         d="m 17375.65,7436.63 c 1.92,2.34 1.32,3.35 -2.6,4.4 l -13.62,3.62 c -19.51,5.19 -108.82,7.57 -131.58,6.56 -17.07,-0.77 -51.73,-3 -68.03,-1.43 -8.43,0.81 -17.8,2.98 -21.83,-1.91 l -0.84,-1.01 c -1.92,-2.34 -1.32,-3.36 2.61,-4.4 12.02,-3.2 30.17,-2.16 39.03,-2.92 22.5,-1.94 15.3,-3.21 36.51,-1.09 17.51,-4.65 53.49,-4.08 73.18,-4.85 25.76,-1 73.31,-13.8 87.16,3.04 z"
         id="path6263" />
      <path
         class="fil56"
         d="m 17137.58,7494.69 c -1.85,2.1 -1.14,2.86 3.03,3.29 l 14.48,1.48 c 20.73,2.13 114.17,-5.42 137.86,-8.66 17.77,-2.43 53.81,-7.91 70.93,-8.37 8.87,-0.24 18.8,0.52 22.66,-3.87 l 0.8,-0.9 c 1.84,-2.1 1.14,-2.86 -3.03,-3.29 -12.78,-1.3 -31.66,1.45 -40.97,1.78 -23.63,0.82 -16.2,-0.97 -38.2,3 -18.61,-1.91 -56.14,2.37 -76.76,3.84 -26.97,1.91 -77.53,-3.39 -90.8,11.7 z"
         id="path6265" />
      <path
         class="fil56"
         d="m 17423.48,7605.05 c 1.73,1.7 1.18,2.6 -2.38,3.89 l -12.37,4.49 c -17.72,6.42 -98.79,18.4 -119.44,20.12 -15.49,1.3 -46.94,3.36 -61.73,6.47 -7.66,1.61 -16.17,4.43 -19.81,0.88 l -0.75,-0.73 c -1.73,-1.7 -1.18,-2.6 2.38,-3.9 10.92,-3.96 27.39,-5.16 35.44,-6.77 20.43,-4.11 13.89,-4.34 33.13,-4.98 15.9,-5.77 48.56,-9.34 66.42,-12.17 23.39,-3.72 66.58,-19.51 79.1,-7.3 z"
         id="path6267" />
    </g>
    <path
       class="fil56"
       d="m 167.07622,202.50368 c 0.0379,0.0249 0.10428,-0.0613 0.13214,-0.10322 l 0.37111,-0.55792 c 0.0137,-0.021 0.009,-0.0454 -0.0119,-0.059 l -0.009,-0.006 c -0.0463,-0.0307 -0.21334,0.24333 -0.25328,0.30384 -0.0701,0.10654 -0.15855,0.21905 -0.23883,0.33966 -0.0178,0.0268 -0.0269,0.0584 5.4e-4,0.0766 z"
       id="path6271"
       style="clip-rule:evenodd;fill-rule:evenodd;stroke-width:0.013268;image-rendering:optimizeQuality;shape-rendering:geometricPrecision;text-rendering:geometricPrecision" />
    <path
       class="fil56"
       d="m 169.25668,194.82139 c 0.022,0.0115 0.0316,0.007 0.0419,-0.0182 l 0.0349,-0.089 c 0.0498,-0.12671 0.074,-0.70055 0.0645,-0.84636 -0.007,-0.1092 -0.0279,-0.33117 -0.0126,-0.43599 0.008,-0.0539 0.0286,-0.11517 -0.018,-0.13918 l -0.01,-0.005 c -0.0224,-0.0118 -0.0325,-0.008 -0.0425,0.018 -0.0307,0.0784 -0.0212,0.19424 -0.0287,0.25183 -0.0188,0.14502 -0.0305,0.099 -0.0105,0.23471 -0.0448,0.11384 -0.0399,0.34404 -0.0475,0.47075 -0.01,0.16585 -0.13321,0.47565 0.0279,0.55831 z"
       id="path6273"
       style="clip-rule:evenodd;fill-rule:evenodd;stroke-width:0.013268;image-rendering:optimizeQuality;shape-rendering:geometricPrecision;text-rendering:geometricPrecision" />
    <path
       class="fil59"
       d="m 167.23769,194.70118 0.11171,-0.15099 6.7e-4,-6.7e-4 0.0133,-0.0176 0.008,-0.0108 0.007,-0.007 0.0145,-0.0142 h 6.7e-4 l 0.0463,-0.0458 -2.6e-4,-2.6e-4 c 0.15364,-0.15219 0.30264,-0.29946 0.47818,-0.38371 0.19875,-0.0954 0.41237,-0.10681 0.66127,0.0437 l 0.0212,0.0127 0.0123,0.007 0.0126,0.0115 0.0214,0.0196 6.6e-4,6.6e-4 c 0.0643,0.059 0.11994,0.12127 0.16519,0.18814 0.0472,0.0701 0.083,0.14502 0.10534,0.22595 0.0252,0.0919 0.0321,0.18602 0.0182,0.28208 -0.008,0.0555 -0.0227,0.11145 -0.0448,0.16744 l 0.006,0.006 -0.0535,0.0935 -0.008,0.0141 -8e-4,0.001 -5.3e-4,9.2e-4 -0.001,0.002 c -0.008,0.0142 -0.0222,0.0346 -0.0399,0.0582 l 4e-4,2.6e-4 c -0.0143,0.0192 -0.034,0.0447 -0.0574,0.0742 -0.0924,0.11689 -0.24188,0.29614 -0.37867,0.45629 0.15085,0.13454 0.30423,0.26788 0.4531,0.40454 l 0.004,0.004 c 0.0223,0.021 0.0435,0.0458 0.0632,0.0736 0.0188,0.0269 0.0354,0.0547 0.0494,0.0825 v 6.6e-4 c 0.0703,0.13998 0.11092,0.33515 0.0961,0.50127 l -5.3e-4,0.005 -5.3e-4,0.003 -0.002,0.0157 -5.3e-4,0.004 -0.002,0.0157 v 0.001 c -0.0309,0.21149 -0.15483,0.44063 -0.32984,0.56296 -0.0314,0.0219 -0.0633,0.0395 -0.0954,0.0537 l -2.6e-4,0.006 -0.005,0.0175 c -0.0709,0.42908 -0.80245,0.47817 -0.92013,0.0273 l -0.007,-0.0272 -0.003,-0.0137 -0.001,-0.0196 -10e-4,-0.0279 -0.0135,-0.28459 c -0.0299,-0.0303 -0.0598,-0.0622 -0.0896,-0.0949 -0.0529,-0.0579 -0.0926,-0.10336 -0.13202,-0.14834 l -6.6e-4,-0.001 -0.004,-0.005 -2.7e-4,2.7e-4 -0.0338,-0.0387 c -0.15019,0.24253 -0.30437,0.48759 -0.56827,0.61868 -0.003,0.0222 -0.007,0.0445 -0.0107,0.0671 h -1.4e-4 c -0.0114,0.06 -0.0287,0.11981 -0.0568,0.17726 -0.0616,0.12538 -0.14529,0.21852 -0.25939,0.2639 -0.11544,0.0459 -0.24891,0.0387 -0.40415,-0.0374 -0.23511,-0.11556 -0.22131,-0.0953 -0.23882,-0.35677 l -0.0253,-0.38531 c -0.0215,-0.0425 -0.0394,-0.0873 -0.0525,-0.13453 h -2.7e-4 c -0.017,-0.0602 -0.0265,-0.12446 -0.0273,-0.19279 -0.001,-0.0785 0.009,-0.15882 0.0332,-0.24108 0.023,-0.0799 0.0586,-0.1628 0.10813,-0.24877 l 0.023,-0.0401 v -2.7e-4 l 0.0225,-0.0391 0.006,-0.0104 0.0283,-0.0489 0.002,0.001 c 0.0476,-0.0723 0.11198,-0.15657 0.18283,-0.24294 0.0531,-0.0648 0.11012,-0.13096 0.16598,-0.19464 -0.15563,-0.14582 -0.3317,-0.32348 -0.4673,-0.5018 -0.19663,-0.25846 -0.31126,-0.52713 -0.19796,-0.74752 l 0.001,-0.003 0.004,-0.009 0.005,-0.008 6.6e-4,-0.001 0.001,-0.003 0.0102,-0.0159 0.002,-0.003 0.064,-0.0961 0.006,-0.01 0.003,-0.005 0.009,-0.0134 0.002,-0.002 c 0.0203,-0.0306 0.0425,-0.0585 0.0654,-0.0836 l 6.7e-4,-6.7e-4 0.003,-0.003 6.6e-4,-6.7e-4 c 0.0145,-0.0158 0.0297,-0.0304 0.0448,-0.0439 l 6.6e-4,-6.7e-4 1.3e-4,1.4e-4 c 0.0163,-0.0146 0.0325,-0.0277 0.048,-0.0391 0.0842,-0.062 0.18231,-0.10349 0.28354,-0.12167 l 0.003,-6.6e-4 6.6e-4,-6.7e-4 c 0.0187,-0.003 0.0398,-0.006 0.0628,-0.008 0.0196,-10e-4 0.0407,-0.002 0.0625,-0.002 h 5.3e-4 c 0.10814,0.002 0.21587,0.0291 0.31207,0.0842 l 0.0186,0.0108 0.003,0.003 0.0102,0.006 0.003,0.001 c 0.0255,0.0168 0.0517,0.0371 0.0771,0.0604 l 0.48693,0.44567 z"
       id="path6277"
       style="clip-rule:evenodd;fill-rule:evenodd;stroke-width:0.013268;image-rendering:optimizeQuality;shape-rendering:geometricPrecision;text-rendering:geometricPrecision" />
    <path
       class="fil56"
       d="m 167.69331,194.80387 -0.39459,0.53284 -0.83575,-0.76503 c -0.10654,-0.0975 -0.28765,-0.0624 -0.36421,0.0706 l -0.075,0.11264 c -0.10217,0.1774 0.72801,0.87715 0.88842,1.02416 -0.13533,0.14714 -0.50697,0.54876 -0.61669,0.73956 l -0.0457,0.0793 c -0.12259,0.21335 -0.10229,0.35253 -0.013,0.47274 l 0.0322,0.48945 c 0.18138,0.0892 0.0807,-0.42285 0.19637,-0.41714 0.14263,0.007 0.3577,-0.21853 0.44527,-0.34537 0.0734,-0.10641 0.3658,-0.53443 0.45735,-0.55141 0.20433,0.12936 0.48548,0.54053 0.69179,0.69988 l 0.0218,0.46146 c 0.0131,0.0519 0.0717,0.0463 0.0853,-0.003 0.006,-0.18097 -0.007,-0.35638 0.0581,-0.34311 0.0443,0.009 0.20194,0.0669 0.29004,-0.0861 l 0.0456,-0.0793 c 0.0717,-0.12472 0.034,-0.37283 -0.0386,-0.4393 l -0.76516,-0.68291 c 0.14608,-0.15908 0.66738,-0.77126 0.70705,-0.84013 0.1011,-0.1758 0.0443,-0.31524 -0.10615,-0.4531 -0.22462,-0.13586 -0.43505,0.0992 -0.66419,0.32374 z"
       id="path6279"
       style="clip-rule:evenodd;fill:#ffffff;fill-opacity:1;fill-rule:evenodd;stroke-width:0.013268;image-rendering:optimizeQuality;shape-rendering:geometricPrecision;text-rendering:geometricPrecision" />
  </g>
</svg>
