<?xml version="1.0" encoding="UTF-8" standalone="no"?>
<!-- Created with Inkscape (http://www.inkscape.org/) -->

<svg
   width="8.8178682mm"
   height="8.4810486mm"
   viewBox="0 0 8.8178682 8.4810486"
   version="1.1"
   id="svg11339"
   inkscape:version="1.1.2 (0a00cf5339, 2022-02-04)"
   sodipodi:docname="revive.svg"
   xmlns:inkscape="http://www.inkscape.org/namespaces/inkscape"
   xmlns:sodipodi="http://sodipodi.sourceforge.net/DTD/sodipodi-0.dtd"
   xmlns="http://www.w3.org/2000/svg"
   xmlns:svg="http://www.w3.org/2000/svg">
  <sodipodi:namedview
     id="namedview11341"
     pagecolor="#ffffff"
     bordercolor="#666666"
     borderopacity="1.0"
     inkscape:pageshadow="2"
     inkscape:pageopacity="0.0"
     inkscape:pagecheckerboard="0"
     inkscape:document-units="mm"
     showgrid="false"
     inkscape:zoom="0.64052329"
     inkscape:cx="86.647903"
     inkscape:cy="-119.4336"
     inkscape:window-width="1920"
     inkscape:window-height="1136"
     inkscape:window-x="0"
     inkscape:window-y="0"
     inkscape:window-maximized="1"
     inkscape:current-layer="layer1" />
  <defs
     id="defs11336" />
  <g
     inkscape:label="Layer 1"
     inkscape:groupmode="layer"
     id="layer1"
     transform="translate(-82.336544,-179.99035)">
    <g
       id="_1860917921840"
       style="clip-rule:evenodd;fill-rule:evenodd;image-rendering:optimizeQuality;shape-rendering:geometricPrecision;text-rendering:geometricPrecision"
       transform="matrix(0.01326799,0,0,0.01326799,-278.13433,178.85715)">
      <circle
         class="fil0"
         cx="27505.971"
         cy="413.56"
         r="311.06"
         id="circle4953" />
      <circle
         class="fil1"
         cx="27505.971"
         cy="413.56"
         r="311.06"
         id="circle4955" />
      <path
         class="fil2"
         d="m 27505.97,682.53 c -148.53,0 -268.98,-120.45 -268.98,-268.97 0,-148.53 120.45,-268.98 268.98,-268.98 148.52,0 268.97,120.45 268.97,268.98 0,148.52 -120.45,268.97 -268.97,268.97 z m 4.06,-6.39 c -140.07,0 -253.66,-113.6 -253.66,-253.66 0,-140.07 113.6,-253.66 253.66,-253.66 140.07,0 253.66,113.6 253.66,253.66 0,140.07 -113.59,253.66 -253.66,253.66 z"
         id="path4957" />
      <path
         class="fil2"
         d="m 27423.32,298.67 c 0.41,1.96 -0.35,2.08 -3.25,0.52 l -10.1,-5.41 c -14.46,-7.75 -73.07,-52.17 -87.43,-64.17 -10.77,-9 -32.39,-27.56 -43.48,-35.19 -5.74,-3.95 -12.57,-7.8 -13.44,-11.89 l -0.17,-0.85 c -0.41,-1.96 0.34,-2.08 3.25,-0.52 8.92,4.78 20.29,14.44 26.29,18.62 15.24,10.63 11.03,6.44 24,18.12 12.97,6.96 36.04,25.49 49.04,35.18 17.02,12.68 52.33,31.5 55.29,45.59 z"
         id="path4959" />
      <path
         class="fil2"
         d="m 27596.87,298.67 c -0.41,1.96 0.35,2.08 3.25,0.52 l 10.1,-5.41 c 14.46,-7.75 73.07,-52.17 87.43,-64.17 10.77,-9 32.39,-27.56 43.48,-35.19 5.74,-3.95 12.57,-7.8 13.44,-11.89 l 0.17,-0.85 c 0.41,-1.96 -0.34,-2.08 -3.25,-0.52 -8.92,4.78 -20.29,14.44 -26.29,18.62 -15.24,10.63 -11.03,6.44 -24,18.12 -12.97,6.96 -36.04,25.49 -49.04,35.18 -17.02,12.68 -52.33,31.5 -55.29,45.59 z"
         id="path4961" />
      <path
         class="fil2"
         d="m 27638.55,148.12 c -158.49,-73.08 -353.26,5.77 -410.88,171.93 v -0.01 c 50.38,-182.03 252.58,-256.23 410.88,-171.92 z"
         id="path4963" />
      <path
         class="fil2"
         d="m 27504.7,281.19 c 1.27,1.58 1.76,1.09 2.07,-2.12 l 1.1,-11.12 c 1.58,-15.93 -1.91,-88.92 -3.62,-107.53 -1.28,-13.96 -4.22,-42.29 -4.29,-55.6 -0.04,-6.9 0.56,-14.55 -2.11,-17.85 l -0.55,-0.69 c -1.27,-1.58 -1.76,-1.09 -2.07,2.12 -0.97,9.82 0.5,24.65 0.58,31.9 0.21,18.38 -0.81,12.5 1.38,29.84 -1.42,14.3 0.76,43.71 1.41,59.8 0.85,21.05 -3.08,59.88 6.1,71.25 z"
         id="path4965" />
      <path
         class="fil2"
         d="m 27613.83,363.76 10.02,1.58 c 14.36,2.27 120,0.82 136.32,-1.08 12.25,-1.42 37.07,-4.76 48.89,-4.64 6.12,0.05 20.22,2.07 22.82,-1.3 l 0.54,-0.7 c 1.24,-1.61 0.75,-2.23 -2.14,-2.68 -8.85,-1.4 -29.08,-0.87 -35.51,-0.87 -16.32,-0.02 -11.21,-1.23 -26.35,1.3 -12.89,-2.03 -38.75,0.3 -52.98,0.88 -2.37,0.1 -133.86,2.41 -101.62,7.5 z"
         id="path4967" />
      <path
         class="fil2"
         d="m 27387.69,363.76 -10.02,1.58 c -14.36,2.27 -120,0.82 -136.32,-1.08 -12.25,-1.42 -37.07,-4.76 -48.89,-4.64 -6.12,0.05 -20.22,2.07 -22.82,-1.3 l -0.54,-0.7 c -1.24,-1.61 -0.75,-2.23 2.14,-2.68 8.85,-1.4 29.08,-0.87 35.51,-0.87 16.32,-0.02 11.21,-1.23 26.35,1.3 12.89,-2.03 38.75,0.3 52.98,0.88 2.37,0.1 133.86,2.41 101.62,7.5 z"
         id="path4969" />
      <g
         id="g4975">
        <path
           class="fil2"
           d="m 27624.56,529.32 c -13.3,0 32.43,-45.35 32.43,-66.05 0,-5.74 -5.07,-10.81 -9.5,-10.81 h -2.68 c -13.01,0 -29.48,22.56 -35.61,31.84 -9.43,14.11 -18.57,25.78 -33.12,34.25 -29.63,17.29 -51.28,38 -51.28,84.93 l -0.51,5.47 3.18,18.75 c 0.77,4.39 -3.29,19.69 -5.73,33.1 30.57,-1.39 59.72,-8.18 86.53,-19.46 12.12,-43.67 49.9,-68.1 76.62,-96.1 10.05,-10.57 24.28,-53.04 32.73,-69.82 7.33,-14.64 12.11,-69.05 12.11,-91.72 0,-1.87 -1.88,-2.71 -4.09,-2.71 h -1.32 c -30.99,0 -31.75,72.17 -41.45,82.65 -6.7,7.3 -54.9,65.67 -58.33,65.67 z"
           id="path4971" />
        <path
           class="fil2"
           d="m 27366.85,452.46 c -4.42,0 -9.49,5.07 -9.49,10.81 0,27.58 35.08,46.82 35.08,66.05 -10.28,-0.86 -50.35,-54.79 -60.34,-65.01 -10.8,-10.97 -10.8,-83.31 -42.07,-83.31 -2.87,0 -1.85,0.5 -5.43,1.37 0,25.86 3.58,76.03 12.11,93.06 8.86,17.64 22.33,59.32 33.42,70.47 27.16,27.46 61.95,50.69 74.81,92.45 27.09,12.35 56.72,20.06 87.9,22.15 -0.96,-5.19 -2.04,-9.81 -2.49,-12 -3.85,-19.42 -2.15,-17.79 -2.15,-38.22 v -25.66 c 0,-36.81 -33.89,-53.17 -55.66,-69.72 -13.88,-10.53 -20.03,-19.38 -29.51,-33.85 -5.32,-7.97 -22.09,-28.59 -33.5,-28.59 z"
           id="path4973" />
      </g>
      <path
         class="fil2"
         d="m 27555.2,403.23 c -10.85,7.08 -47.29,27.36 -50.32,38.98 -29.88,-31.83 -136.25,-59.03 -89.51,-121.28 18.32,-22.41 65.42,-19.82 78.09,10.76 0.79,1.92 0.8,3.75 3.22,3.51 2.63,-0.26 2.91,-3.46 3.93,-5.54 5.85,-11.89 28.66,-41.39 73.98,-18.86 43.05,29.6 11.12,72.53 -19.39,92.43 z"
         id="path4977" />
      <path
         class="fil2"
         d="m 27509.96,521.88 c -1.41,-16.27 -3.31,-38.36 -3.35,-50 -0.05,-7.58 0.56,-15.99 -2.11,-19.61 l -0.55,-0.77 c -1.27,-1.73 -1.76,-1.2 -2.07,2.33 -0.98,10.8 0.5,27.11 0.57,35.07 0.21,20.21 -0.81,13.74 1.37,32.81 l 0.79,1.77 c 1.57,1.69 3.64,1.4 5.34,-1.6 z"
         id="path4979" />
      <path
         class="fil2"
         d="m 27621.34,443.1 c -10.43,-8.78 -24.35,-20.44 -32.33,-25.93 -5.3,-3.65 -11.59,-7.2 -12.38,-10.97 l -0.17,-0.78 c -0.37,-1.8 0.32,-1.91 3.01,-0.47 8.2,4.39 18.69,13.3 24.22,17.16 14.05,9.79 9.01,5.37 20.95,16.12 l 1.16,1.43 c 1.87,2.89 -1.42,5.61 -4.45,3.44 z"
         id="path4981" />
      <path
         class="fil2"
         d="m 27378.14,442.26 c 10.43,-8.78 24.35,-20.44 32.33,-25.93 5.3,-3.65 11.59,-7.2 12.38,-10.97 l 0.17,-0.78 c 0.37,-1.8 -0.32,-1.91 -3.01,-0.47 -8.2,4.39 -18.69,13.3 -24.22,17.16 -14.05,9.79 -9.01,5.37 -20.95,16.12 l -1.16,1.43 c -1.87,2.89 1.42,5.61 4.45,3.44 z"
         id="path4983" />
    </g>
  </g>
</svg>
