<?xml version="1.0" encoding="UTF-8" standalone="no"?>
<!-- Created with Inkscape (http://www.inkscape.org/) -->

<svg
   width="9.0798168mm"
   height="9.0798168mm"
   viewBox="0 0 9.0798168 9.0798168"
   version="1.1"
   id="svg12850"
   inkscape:version="1.1.2 (0a00cf5339, 2022-02-04)"
   sodipodi:docname="void.svg"
   xmlns:inkscape="http://www.inkscape.org/namespaces/inkscape"
   xmlns:sodipodi="http://sodipodi.sourceforge.net/DTD/sodipodi-0.dtd"
   xmlns="http://www.w3.org/2000/svg"
   xmlns:svg="http://www.w3.org/2000/svg">
  <sodipodi:namedview
     id="namedview12852"
     pagecolor="#ffffff"
     bordercolor="#666666"
     borderopacity="1.0"
     inkscape:pageshadow="2"
     inkscape:pageopacity="0.0"
     inkscape:pagecheckerboard="0"
     inkscape:document-units="mm"
     showgrid="false"
     inkscape:zoom="0.64052329"
     inkscape:cx="253.69882"
     inkscape:cy="-24.198964"
     inkscape:window-width="1920"
     inkscape:window-height="1136"
     inkscape:window-x="0"
     inkscape:window-y="0"
     inkscape:window-maximized="1"
     inkscape:current-layer="layer1" />
  <defs
     id="defs12847" />
  <g
     inkscape:label="Layer 1"
     inkscape:groupmode="layer"
     id="layer1"
     transform="translate(-38.006684,-154.90655)">
    <circle
       class="fil0"
       cx="42.546593"
       cy="159.44646"
       r="4.5399084"
       id="circle2077"
       style="clip-rule:evenodd;fill:none;fill-rule:evenodd;stroke-width:0.013268;image-rendering:optimizeQuality;shape-rendering:geometricPrecision;text-rendering:geometricPrecision" />
    <circle
       class="fil2"
       cx="42.546593"
       cy="159.44646"
       r="4.5399084"
       id="circle2083"
       style="clip-rule:evenodd;fill:#2b2a29;fill-rule:evenodd;stroke-width:0.013268;image-rendering:optimizeQuality;shape-rendering:geometricPrecision;text-rendering:geometricPrecision" />
    <path
       class="fil1"
       d="m 44.598346,157.71286 c 0.0069,0.0179 0.01791,0.0174 0.04723,-0.002 l 0.102429,-0.0675 c 0.146611,-0.0969 0.658092,-0.60223 0.77631,-0.73584 0.08863,-0.10017 0.263502,-0.30556 0.365135,-0.39446 0.05267,-0.046 0.120739,-0.0934 0.10641,-0.13082 l -0.0031,-0.008 c -0.0069,-0.0179 -0.01791,-0.0174 -0.04737,0.002 -0.09036,0.0596 -0.182965,0.16677 -0.23763,0.21534 -0.138783,0.12339 -0.108664,0.0784 -0.209899,0.20631 -0.131619,0.0869 -0.326127,0.29495 -0.440763,0.40574 -0.149928,0.14488 -0.508562,0.38026 -0.45894,0.50896 z"
       id="path2085"
       style="clip-rule:evenodd;fill:#fefefe;fill-rule:evenodd;stroke-width:0.013268;image-rendering:optimizeQuality;shape-rendering:geometricPrecision;text-rendering:geometricPrecision" />
    <path
       class="fil1"
       d="m 38.360135,157.03447 c -0.02282,0.0133 -0.02348,0.0236 -0.0033,0.0443 l 0.07045,0.0719 c 0.100837,0.10296 0.658889,0.39844 0.808552,0.4604 0.112247,0.0464 0.342977,0.13507 0.439701,0.19836 0.05015,0.0328 0.09991,0.0796 0.147673,0.0517 l 0.01,-0.006 c 0.02282,-0.0133 0.02348,-0.0236 0.0033,-0.0443 -0.06223,-0.0635 -0.182435,-0.11105 -0.235375,-0.14475 -0.134537,-0.0855 -0.08306,-0.0736 -0.227678,-0.12167 -0.09049,-0.0924 -0.322147,-0.19875 -0.444213,-0.26589 -0.159481,-0.0878 -0.404541,-0.34032 -0.568931,-0.24426 z"
       id="path2087"
       style="clip-rule:evenodd;fill:#fefefe;fill-rule:evenodd;stroke-width:0.013268;image-rendering:optimizeQuality;shape-rendering:geometricPrecision;text-rendering:geometricPrecision" />
    <path
       class="fil1"
       d="m 44.438732,155.59807 c -2.313141,-1.06648 -5.155808,0.0843 -5.996601,2.50911 v 0 c 0.735312,-2.65665 3.686246,-3.73958 5.996601,-2.50911 z"
       id="path2089"
       style="clip-rule:evenodd;fill:#fefefe;fill-rule:evenodd;stroke-width:0.013268;image-rendering:optimizeQuality;shape-rendering:geometricPrecision;text-rendering:geometricPrecision" />
    <path
       class="fil1"
       d="m 42.546186,163.35759 c -2.167724,0 -3.925733,-1.75787 -3.925733,-3.9256 0,-2.16786 1.758009,-3.92573 3.925733,-3.92573 2.167724,0 3.925468,1.75787 3.925468,3.92573 0,2.16773 -1.757744,3.9256 -3.925468,3.9256 z m 0.05931,-0.0934 c -2.044332,0 -3.702034,-1.65784 -3.702034,-3.70204 0,-2.0442 1.657835,-3.70203 3.702034,-3.70203 2.044199,0 3.702035,1.65783 3.702035,3.70203 0,2.04433 -1.657836,3.70204 -3.702035,3.70204 z"
       id="path2091"
       style="clip-rule:evenodd;fill:#fefefe;fill-rule:evenodd;stroke-width:0.013268;image-rendering:optimizeQuality;shape-rendering:geometricPrecision;text-rendering:geometricPrecision" />
    <path
       class="fil1"
       d="m 40.341444,161.72948 c 0.02057,-9.3e-4 0.02057,0.007 -2.65e-4,0.034 l -0.07204,0.0935 c -0.103358,0.13388 -0.654643,0.65465 -0.800989,0.78016 -0.109859,0.0943 -0.335282,0.28261 -0.43174,0.38252 -0.04989,0.0517 -0.100704,0.11463 -0.143825,0.11636 l -0.0089,4e-4 c -0.02057,9.2e-4 -0.02057,-0.007 2.66e-4,-0.034 0.06369,-0.0827 0.18124,-0.18177 0.234047,-0.23564 0.133874,-0.13706 0.08425,-0.10137 0.224892,-0.21335 0.09274,-0.12021 0.320422,-0.32334 0.441028,-0.43904 0.157889,-0.15165 0.409318,-0.47871 0.557654,-0.48494 z"
       id="path2093"
       style="clip-rule:evenodd;fill:#fefefe;fill-rule:evenodd;stroke-width:0.013268;image-rendering:optimizeQuality;shape-rendering:geometricPrecision;text-rendering:geometricPrecision" />
    <path
       class="fil1"
       d="m 41.20466,157.53626 -3.98e-4,0.0249 -0.04989,0.0758 v 0.0336 c -0.100439,0.15007 -0.201408,0.56827 -0.201408,0.82235 v 0.29376 c 0,0.10534 0.03357,0.14767 0.03357,0.23484 v 0.0755 c 0.03025,0.0109 0.03344,0.0524 0.03344,0.0923 v 0.0168 c 0,0.0137 -0.005,0.0252 -0.01672,0.0252 -0.04684,0 -0.124189,-0.13984 -0.15444,-0.14714 l -0.04684,-0.0628 c -0.06276,-0.005 -0.0337,-0.0934 -0.09235,-0.10906 v -0.0336 c 0,-0.001 -0.125781,-0.28354 -0.125781,-0.3524 v -0.0251 c -0.06621,-0.005 -0.04166,-0.13347 -0.04166,-0.20154 -1.33e-4,-0.0667 -0.0195,-0.15324 -0.0053,-0.23139 0.01234,-0.0679 0.0024,-0.16466 0.01486,-0.22847 0.0094,-0.0484 0.03715,-0.0321 0.04073,-0.085 0.0046,-0.0709 0.01486,-0.0606 0.02335,-0.10256 0.02375,-0.11729 0.06355,-0.29402 0.109063,-0.38597 0.06342,-0.1279 0.07921,-0.2164 0.160941,-0.33409 l 0.100704,-0.14263 v -0.0252 -0.0252 l 0.108665,-0.15656 0.0088,0.006 c 0.0019,-0.08 0.09235,-0.0999 0.09235,-0.15098 v -0.008 c 0,-0.0161 -0.03184,-0.0586 -0.05029,-0.0586 h -0.03357 c -0.0048,0 -0.185354,0.14303 -0.209634,0.15935 l -0.07205,0.0707 c -0.0042,0.0336 -6.64e-4,0.0353 -0.03688,0.0383 -0.0041,0.0487 -0.06143,0.0571 -0.06714,0.12578 l -0.0076,-0.007 -0.126577,0.12485 -0.0011,0.0239 -0.02415,0.018 c -0.210298,0.38146 -0.349346,0.57278 -0.3654,0.84398 l -0.03715,0.0537 c 0,0.0522 -0.04325,0.22092 -0.05068,0.285 -0.01075,0.0937 -0.01645,0.21627 -0.01645,0.31923 0,0.10906 0.0088,0.18708 0.0084,0.29362 -3.98e-4,0.11198 0.03357,0.16956 0.03343,0.26894 l 0.02415,0.008 0.0096,0.0921 c 0.03105,0.0464 0.02548,0.0988 0.04909,0.15232 0.01592,0.0363 0.04936,0.10548 0.06806,0.1417 0.02269,0.044 0.05772,0.0917 0.07709,0.13255 0.02309,0.0487 0.07006,0.0857 0.07417,0.1356 0.02521,0.002 0.378933,0.43904 0.428556,0.48587 0.0345,0.0325 0.0475,0.0319 0.07695,0.0573 0.02189,0.019 0.128567,0.11954 0.148734,0.11954 h 0.02521 c 0.01,0.0371 0.100572,0.0512 0.100572,0.0924 0,0.0528 -0.18814,0.0166 -0.22622,0.0166 -0.139048,-1.3e-4 -0.141834,-0.0333 -0.235108,-0.0333 -0.05798,-0.0389 -0.213748,-0.0819 -0.243203,-0.12591 l -0.08385,-0.0421 -0.184558,-0.11742 h -0.03357 v -0.0336 l -0.0065,0.006 -0.03344,-0.0334 -0.03397,-0.0338 -0.09235,-0.10057 0.007,-0.006 c -0.0337,-0.003 -0.134139,-0.10535 -0.134139,-0.14263 v -0.0252 l -0.0085,0.005 c -0.04365,-0.0844 -0.285129,-0.50007 -0.29508,-0.49635 l -0.02375,-0.087 -0.0333,-0.0172 0.0015,-0.0517 -0.02654,-0.0322 -0.0064,-0.0648 -0.03569,-0.10044 -0.03317,-0.11756 0.0082,-0.002 c -0.04153,-0.0621 -0.03768,-0.14847 -0.05373,-0.23989 -0.0093,-0.0528 -0.01791,-0.22993 -0.06369,-0.22993 h -0.06714 c -0.008,0.0338 -0.02521,0.0391 -0.02521,0.0586 v 0.57902 c 0,0.0648 0.03436,0.0967 0.03357,0.20141 -7.96e-4,0.097 0.03357,0.11636 0.03357,0.20963 0.03038,0.0111 0.03025,0.0618 0.03344,0.10071 l 0.01075,0.0103 0.05785,0.16121 c 0.05825,0.15165 0.423249,0.63355 0.428689,0.71501 l 0.05015,0.0421 c 0.119677,0.14635 0.24214,0.26311 0.383577,0.38875 0.0069,0.002 0.110257,0.0662 0.130955,0.079 0.04193,0.0257 0.09726,0.0637 0.137324,0.0808 0.04405,0.0187 0.278495,0.11955 0.293753,0.14237 0.109329,0 0.280486,0.1007 0.444478,0.1007 l 0.453765,0.006 0.418473,-0.0645 h 0.02521 c -0.01552,0.0581 -0.08465,0.13215 -0.129761,0.16386 -0.03397,0.0238 -0.146877,0.11305 -0.16386,0.13826 -0.08823,0 -0.07218,0.0586 -0.192784,0.0588 l -0.01685,0.0334 h -0.04206 c -0.04617,0 -0.04087,0.0336 -0.135466,0.0321 l -0.03224,0.0256 -0.117422,0.009 h -0.201275 c -0.159216,0 -0.493569,-0.0185 -0.57875,-0.0755 -0.07404,0 -0.06448,-0.0252 -0.109063,-0.0252 l -0.07258,-0.002 -0.01964,-0.0317 c -0.06435,0 -0.0816,0.008 -0.111849,-0.0269 l -0.203399,-0.0787 -0.08744,-0.0622 -0.04989,-2.6e-4 -0.01791,-0.0312 -0.10349,-0.0348 -0.119545,-0.0766 -0.100041,-0.0671 -0.08173,-0.0543 -0.0394,-0.0531 -0.06687,-0.01 c -0.01884,-0.003 -0.04193,0.0244 -0.04193,0.0421 l 6.63e-4,0.0403 0.02455,0.01 v 0.0252 c 0.02892,0.0194 0.09964,0.0904 0.100572,0.13427 0.04126,0.003 0.03596,0.0291 0.06913,0.0567 0.03503,0.0291 0.06024,0.0106 0.07045,0.0633 l 0.145682,0.14011 0.03397,-2.6e-4 0.008,0.0253 c 0.03012,6.6e-4 0.09805,0.0354 0.105348,0.062 l 0.03198,0.033 0.05546,0.0393 c 0.04471,0 0.09248,0.028 0.100704,0.0587 h 0.04193 c 0.02786,0 0.02455,0.0151 0.0264,0.0391 l 0.179782,0.0781 0.004,-0.008 0.01075,0.0187 0.08093,0.0402 h 0.06714 c 0.04339,0.0291 0.06873,0.0275 0.104817,0.0545 0.0272,0.0204 0.06037,0.005 0.121667,0.0462 0.07297,0 0.214278,0.0427 0.278495,0.0571 0.04325,0.01 0.260186,0.0353 0.300255,0.0353 l 0.218126,5.4e-4 0.251561,-0.0257 c 0.120075,0 0.866134,-0.25687 0.880862,-0.38517 l 0.05864,-0.009 c 0.0033,-0.0399 0.127771,-0.13334 0.164789,-0.13759 l 0.111982,-0.089 c 0.0048,-0.044 0.148734,-0.16571 0.18124,-0.21308 0.01526,-0.0225 0.01977,-0.0349 0.04047,-0.0517 0.05121,-0.0415 0.01168,-0.0163 0.04033,-0.0604 0.01526,-0.0236 0.06687,-0.10946 0.08186,-0.11955 0,-0.0332 0.0017,-0.0755 0.03357,-0.0755 h 0.01672 c 0.02945,0 0.03357,0.0371 0.03357,0.0671 v 0.10071 c 0,0.0571 -0.02189,0.0853 -0.02534,0.13414 -0.0042,0.0606 0.01844,0.12047 -0.03344,0.13427 v 0.0588 c 0,0.16399 -0.225821,0.32586 -0.236833,0.45947 l -0.05679,0.0439 c -0.0096,0.11504 -0.295611,0.24281 -0.304103,0.31512 l -0.09845,0.0456 -0.0038,0.018 -0.05917,0.0326 0.0044,0.008 h -0.03357 c -0.173545,0.11583 -0.267084,0.16002 -0.436251,0.2586 l -0.08372,0.01 c -0.01128,0.0425 -0.163064,0.0555 -0.218126,0.0923 h -0.0755 c -0.05546,0.0371 -0.3857,0.0923 -0.486537,0.10071 v 0.0755 l 0.0066,-0.007 0.03344,0.0336 -0.0065,0.006 h 0.603959 c 0.08425,0 0.125781,-0.0336 0.218656,-0.0328 l 0.05002,-0.0318 0.107338,-0.0114 0.01008,-0.0233 0.09062,-0.0151 0.0938,-0.0196 c 0.0475,-0.0318 0.119013,-0.0425 0.177393,-0.0658 0.222504,-0.0885 0.476718,-0.27491 0.671625,-0.42736 l 0.03344,-0.0336 0.0066,0.006 v -0.0334 c 0.03304,-0.003 0.130822,-0.0854 0.134139,-0.12592 l 0.0066,0.007 0.03343,-0.0334 -0.0065,-0.007 c 0.082,-0.007 0.04524,-0.0545 0.09235,-0.0671 v -0.0419 l 0.02017,-0.004 c 0.438905,-0.56004 0.466237,-0.99324 0.466237,-1.64071 -0.03423,-0.0138 -0.03344,-0.13905 -0.03344,-0.18456 -0.01566,-0.0233 -0.02521,-0.0354 -0.02521,-0.0755 v -0.0755 c 0,-0.0138 0.005,-0.0252 0.01685,-0.0252 0.02906,0 0.01274,0.0169 0.04193,0.0169 l 0.02521,0.0252 c 0,0.049 0.132414,0.0949 0.134139,0.1762 0.07934,0.0212 0.07961,0.20194 0.152449,0.20101 0.01937,0.11755 0.154838,0.34828 0.143692,0.69604 -0.0062,0.19543 -0.05785,0.43466 -0.110257,0.62558 -0.03184,0.11636 -0.07894,0.23432 -0.12724,0.28964 l -0.06714,0.12591 v 0.0419 l 0.0019,0.0269 -0.02056,0.0257 -0.04617,0.11954 -0.111717,0.17447 0.009,0.006 -0.03092,0.002 -0.128434,0.19955 h -0.02521 c -0.0042,0.0188 -0.0084,0.0192 -0.0084,0.0421 v 0.0419 c 0,0.0194 0.0058,0.0252 0.02508,0.0252 h 0.04206 c 0.02773,0 0.138253,-0.10203 0.150857,-0.12591 0.05108,-0.001 0.07974,-0.0559 0.108134,-0.0848 0.02388,-0.0243 0.09009,-0.0719 0.09354,-0.10708 l 0.03317,-0.009 0.09221,-0.15948 c 0.04405,-0.005 0.266289,-0.42431 0.260053,-0.42789 0.0463,-0.0123 0.09606,-0.21627 0.134139,-0.26005 0.05493,-0.0633 0.04405,-0.13825 0.07178,-0.2302 0.02282,-0.0759 0.054,-0.16506 0.054,-0.25634 l 0.02508,-0.31896 V 160.55 c 0,-0.0141 -0.02269,-0.23603 -0.02654,-0.25023 -0.07377,-0.26337 -0.131353,-0.51719 -0.292161,-0.73996 v -0.0421 c -0.02468,-0.0165 -0.0946,-0.13613 -0.123392,-0.16173 -0.0471,-0.0421 -0.08359,-0.0996 -0.132946,-0.15232 -0.05506,-0.0586 -0.08492,-0.0874 -0.142896,-0.14236 -0.02415,-0.0228 -0.141038,-0.12088 -0.145948,-0.13919 l -0.03343,-0.0252 h -0.02521 l -0.04087,-2.6e-4 -0.0094,-0.0332 c -0.02693,-0.002 -0.16784,-0.12021 -0.16784,-0.12591 0,-0.0257 0.02455,-0.0336 0.05042,-0.0336 h 0.276638 c 0.04564,0 0.05214,0.005 0.06727,0.0324 0.180842,0.0228 0.224627,0.0706 0.377341,0.16904 0.06209,0.054 0.08916,0.0649 0.160941,0.10747 0.02056,0.0122 0.120208,0.10694 0.145815,0.13108 0.04392,0.0413 0.245723,0.24652 0.246918,0.2984 0.08345,0.0223 0.309807,0.57411 0.30848,0.57451 0.04392,0.10534 0.186946,0.62386 0.212554,0.63368 l 0.01566,0.16784 c 0.03436,0.003 0.01871,0.008 0.05028,0.008 0.01433,0 0.05029,-0.0755 0.05029,-0.10906 0,-0.31074 0.0078,-0.59361 -0.07019,-0.87794 -0.01738,-0.0634 -0.03038,-0.0233 -0.03038,-0.12897 -0.0402,-0.0214 -0.03357,-0.0249 -0.03357,-0.0839 -0.01459,-0.0218 -0.06714,-0.121 -0.06714,-0.15099 l -6.64e-4,-0.032 -0.02455,-0.01 c 0,-0.18721 -0.288447,-0.48786 -0.38716,-0.67003 -0.01393,-0.0257 -0.202603,-0.19995 -0.23365,-0.2026 l 0.0072,-0.007 c -0.202469,-0.20963 -0.369646,-0.26841 -0.6362,-0.41224 -0.04843,0 -0.168238,-0.0671 -0.176066,-0.0671 h -0.05042 c -0.01685,-0.0464 -0.441293,-0.10071 -0.545049,-0.10071 h -0.142631 c -0.08598,0 -0.171024,0.006 -0.236435,0.0235 -0.05374,0.0141 -0.07085,0.003 -0.123923,0.0103 -0.03277,0.004 -0.06647,0.0333 -0.10097,0.0333 l -0.09407,-2.7e-4 0.01075,-0.0746 0.05944,-0.051 0.0072,0.008 v -0.0251 c 0.05466,-0.006 0.007,-0.0157 0.04737,-0.0365 0.03317,-0.0172 0.0406,0.0121 0.04485,-0.0391 h 0.03357 c 0.0098,-0.0366 0.06793,-0.0308 0.108267,-0.0678 0.01154,-0.0105 0.09434,-0.0483 0.116758,-0.0594 0.02866,-0.0145 0.09327,-0.041 0.124189,-0.0519 0.05904,-0.0211 0.07748,0.001 0.137323,-0.0389 0.08293,0 0.11384,-0.0336 0.201276,-0.0336 h 0.310338 c 0.06714,0 0.363676,0.033 0.379332,0.0605 l 0.392865,0.10721 0.008,0.0253 c 0.104154,0 0.311665,0.15457 0.368983,0.15935 l 0.05175,-4e-4 0.0069,0.034 c 0.05095,0.001 0.07244,0.0304 0.105746,0.0536 0.02786,0.0192 0.07536,0.0285 0.08704,0.0722 0.05639,0 0.09035,0.0227 0.100704,0.0671 h 0.03344 c 0.01247,0.0235 0.01353,0.0334 0.05042,0.0334 h 0.01672 c 0.02269,0 0.02322,-0.004 0.04206,-0.008 l -3.98e-4,-0.0661 -0.03317,-0.009 -0.0053,-0.0293 -0.08691,-0.0965 v -0.0336 c -0.02945,-0.008 -0.06408,-0.0227 -0.06714,-0.0586 l -0.0074,0.007 -0.06714,-0.0671 -0.03264,-0.0344 0.0065,-0.006 c -0.0033,-2.6e-4 -0.530852,-0.3573 -0.557122,-0.37415 -0.08147,-0.052 -0.196234,-0.0791 -0.256471,-0.12101 l -0.157889,-0.0324 -0.01141,-0.0172 c -0.07921,-0.002 -0.09208,-0.01 -0.141039,-0.0426 l -0.109063,-0.008 -0.01,-0.0252 -0.05718,-6.7e-4 c -0.07908,0 -0.100173,-0.0337 -0.217993,-0.0336 -0.08783,1.4e-4 -0.150459,-0.008 -0.243335,-0.008 -0.08996,0 -0.151255,0.008 -0.234843,0.008 -0.133211,-1.3e-4 -0.128036,0.0255 -0.201806,0.033 -0.08876,0.009 -0.128169,0.0164 -0.20446,0.0387 -0.02786,0.008 -0.153643,0.0624 -0.172484,0.0624 h -0.03344 l 0.0038,0.008 -0.320422,0.15603 c -0.01048,0.0261 -0.02176,0.028 -0.06103,0.0288 l 0.0046,0.009 -0.08014,0.041 c -0.129363,0.12273 -0.239487,0.18111 -0.361288,0.32666 -0.04445,0.0529 -0.279821,0.34576 -0.292957,0.39498 -0.01871,-0.005 -0.02521,-0.002 -0.02521,-0.0252 v -0.15098 c 0,-0.001 0.03463,-0.22675 0.03649,-0.23206 0.02667,-0.0754 0.04246,-0.12326 0.07695,-0.19159 0.03622,-0.0718 0.04949,-0.10933 0.09195,-0.17647 0.03038,-0.0482 0.07974,-0.12697 0.1218,-0.1551 l 0.08385,-0.11742 v -0.0252 l 0.03304,-0.0102 5.3e-4,-0.0402 h 0.03344 c 0.01367,-0.0512 0.353326,-0.25753 0.360756,-0.28526 0.03901,-9.3e-4 0.133344,-0.0649 0.166381,-0.0853 0.05082,-0.0315 0.12326,-0.0435 0.169034,-0.0742 h 0.04193 c 0.02654,-0.0395 0.247979,-0.13414 0.327189,-0.13414 0.04485,-0.0301 0.08664,-0.0255 0.134139,-0.0504 0.05121,-0.0267 0.08757,-0.01 0.145152,-0.031 0.06435,-0.0236 0.290967,-0.0141 0.290967,-0.0696 v -0.0588 l -0.04485,-0.0202 -0.105879,-0.0153 -0.436251,0.002 c -0.0536,0 -0.290304,0.0431 -0.326791,0.059 -0.03184,0.0141 -0.05135,0.006 -0.09301,0.008 -0.04816,0.001 -0.03649,0.0127 -0.07005,0.0223 -0.03888,0.0112 -0.119279,0.0362 -0.147673,0.0368 -0.008,0.0301 -0.613246,0.33554 -0.629035,0.33554 l -0.05665,0.0375 -0.0021,0.0214 h -0.02508 c -0.005,0.0598 -0.108134,0.087 -0.149928,0.11849 -0.07536,0.0571 -0.369912,0.34801 -0.378536,0.42696 -0.06117,0.005 -0.08385,0.17169 -0.142631,0.19305 z"
       id="path2097"
       style="clip-rule:evenodd;fill:#fefefe;fill-rule:evenodd;stroke-width:0.013268;image-rendering:optimizeQuality;shape-rendering:geometricPrecision;text-rendering:geometricPrecision" />
  </g>
</svg>
